<?xml version="1.0" encoding="utf-8"?>
<!-- Generator: Adobe Illustrator 25.4.1, SVG Export Plug-In . SVG Version: 6.00 Build 0)  -->
<svg version="1.1" xmlns="http://www.w3.org/2000/svg" xmlns:xlink="http://www.w3.org/1999/xlink" x="0px" y="0px"
	 viewBox="0 0 700 450" style="enable-background:new 0 0 700 450;" xml:space="preserve">
<style type="text/css">
	.st0{fill:#878787;}
	.st1{fill:#9D9D9C;}
	.st2{fill:#706F6F;stroke:#706F6F;stroke-width:2;stroke-miterlimit:10;}
	.st3{fill:#575756;stroke:#575756;stroke-width:2;stroke-miterlimit:10;}
	.st4{fill:#3C3C3B;}
	.st5{fill:none;stroke:#9D9D9C;stroke-width:6;stroke-miterlimit:10;}
	.st6{fill:#F6A214;}
	.st7{fill:#FFFFFF;}
	.st8{fill:#C6C6C6;stroke:#C6C6C6;stroke-width:0.75;stroke-miterlimit:10;}
	.st9{fill:#DADADA;stroke:#DADADA;stroke-width:0.75;stroke-miterlimit:10;}
</style>
<g id="Layer_4">
	<g>
		<g>
			<path class="st0" d="M549.92,331.34c-13.46-19.64-25.92-39.97-37.29-60.89c-3.24-5.96-6.39-11.96-9.45-18.01
				c-1.09-2.16-3.7-3.97-5.98-4.6c-2.39-0.66-5.58-0.36-7.71,1.01c-4.78,3.08-6.12,8.68-3.59,13.68
				c10.76,21.24,22.6,41.94,35.48,61.96c3.67,5.7,7.42,11.35,11.26,16.94c1.49,2.17,3.37,3.88,5.98,4.6
				c2.39,0.66,5.58,0.36,7.71-1.01c2.14-1.38,4.01-3.43,4.6-5.98C551.5,336.53,551.43,333.55,549.92,331.34L549.92,331.34z"/>
		</g>
	</g>
	<g>
		<g>
			<path class="st0" d="M572.84,344.54c-10.85-15.06-21.71-30.12-32.56-45.18c-1.56-2.17-3.31-3.86-5.98-4.6
				c-2.39-0.66-5.58-0.36-7.71,1.01c-2.14,1.38-4.01,3.43-4.6,5.98c-0.62,2.74-0.21,5.17,1.01,7.71
				c6.66,13.89,15.16,26.76,24.99,38.6c2.66,3.2,5.43,6.3,8.3,9.31c2.94,3.08,8.48,3.91,12.12,1.56c1.45-0.93,2.66-2.14,3.59-3.59
				c1.3-2.02,1.77-5.42,1.01-7.71c-5.75-17.32-13.95-33.9-24.57-48.75c-3.28-4.58-6.75-9.04-10.39-13.34
				c-1.51-1.78-4.78-3.03-7.07-2.93c-2.26,0.1-4.26,0.76-6.06,2.15c-3.78,2.92-5.28,8.67-2.58,12.9
				c9.54,14.9,19.08,29.8,28.62,44.69c2.7,4.22,7.81,6.07,12.49,4.09c1.92-0.81,3.78-2.2,4.78-4.09c1.32-2.5,1.52-4.93,1.01-7.71
				c-2.97-16.2-10.58-31.22-21.18-43.75c-1.51-1.78-4.78-3.03-7.07-2.93c-2.26,0.1-4.26,0.76-6.06,2.15
				c-3.84,2.97-5.2,8.61-2.58,12.9c4.39,7.18,8.79,14.36,13.18,21.55c1.33,2.17,3.5,3.91,5.98,4.6c2.39,0.66,5.58,0.36,7.71-1.01
				c4.61-2.97,6.33-8.8,3.59-13.68c-7.88-14.02-19.31-25.92-32.79-34.66c-3.5-2.27-7.16-4.27-10.94-6.03
				c-1.56-0.9-3.24-1.36-5.05-1.37c-1.81,0.01-3.49,0.46-5.05,1.37c-2.89,1.69-5.18,5.18-4.95,8.63
				c1.3,19.97,6.33,39.23,14.82,57.33c5.76-3.36,11.51-6.73,17.27-10.09c-13.05-18.47-26.73-37.28-45.96-49.81
				c-5.56-3.62-11.61-6.48-17.87-8.69c-3.3-1.16-7.34,0.19-9.73,2.57c-2.72,2.72-3.18,6.11-2.57,9.73
				c2.4,14.33,8.31,28.39,16.86,40.13c2.74,3.76,5.66,7.4,8.87,10.79c4.71-4.71,9.43-9.43,14.14-14.14
				c-13.53-11.7-27.07-23.39-40.6-35.09c-3.88-3.36-7.77-6.72-11.65-10.07c-1.71-1.48-3.47-2.44-5.74-2.75
				c-2.13-0.29-4.51-0.01-6.38,1.19c-1.45,0.93-2.66,2.14-3.59,3.59c-1.24,1.92-1.85,5.52-1.01,7.71c2.28,5.89,4.9,11.64,8.07,17.1
				c3.17,5.46,6.86,10.56,10.82,15.47c7.41,9.19,16.38,17.11,26.21,23.65c5.22,3.47,10.75,6.47,16.51,8.95
				c1.64,0.71,3.22,1.37,5.05,1.37c2.23,0,4.32-0.8,6.06-2.15c3.2-2.47,4.57-6.56,3.58-10.51c-4.66-18.54-12.18-36.53-22.12-52.87
				c-2.74-4.5-5.68-8.88-8.81-13.13c-5.24,4.04-10.47,8.08-15.71,12.12c12.64,11.25,25.28,22.5,37.92,33.75
				c3.59,3.2,7.19,6.4,10.78,9.6c1.99,1.77,4.35,2.93,7.07,2.93c2.45,0,5.38-1.09,7.07-2.93c1.75-1.91,3.05-4.41,2.93-7.07
				c-0.11-2.56-0.95-5.31-2.93-7.07c-12.64-11.25-25.28-22.5-37.92-33.75c-3.59-3.2-7.19-6.4-10.78-9.6
				c-3.75-3.34-9.05-3.93-13.13-0.78c-1.65,1.28-3.11,3.1-3.58,5.19c-0.56,2.47-0.56,5.58,1.01,7.71
				c8.41,11.46,15.46,23.88,21.01,36.97c-0.34-0.8-0.67-1.59-1.01-2.39c3.64,8.64,6.62,17.55,8.91,26.64
				c4.9-3.76,9.79-7.53,14.69-11.29c-8.04-3.47-15.59-7.94-22.53-13.27c0.67,0.52,1.35,1.04,2.02,1.56
				c-7.32-5.67-13.9-12.24-19.57-19.56c0.52,0.67,1.04,1.35,1.56,2.02c-5.57-7.23-10.21-15.14-13.76-23.55
				c0.34,0.8,0.67,1.59,1.01,2.39c-0.39-0.94-0.77-1.88-1.14-2.82c-5.57,3.24-11.14,6.49-16.71,9.73
				c13.53,11.7,27.07,23.39,40.6,35.09c3.88,3.36,7.77,6.72,11.65,10.07c2.03,1.76,4.31,2.93,7.07,2.93c2.45,0,5.38-1.09,7.07-2.93
				c3.75-4.08,3.85-10.08,0-14.14c-2.09-2.21-4.07-4.53-5.94-6.94c0.52,0.67,1.04,1.35,1.56,2.02c-4.63-6.05-8.47-12.66-11.46-19.68
				c0.34,0.8,0.67,1.59,1.01,2.39c-2.68-6.39-4.62-13.06-5.77-19.89c-4.1,4.1-8.2,8.2-12.3,12.3c1.34,0.47,2.67,0.99,3.98,1.54
				c-0.8-0.34-1.59-0.67-2.39-1.01c6.14,2.61,11.83,6.09,17.11,10.15c-0.67-0.52-1.35-1.04-2.02-1.56
				c9.51,7.38,17.52,16.47,24.87,25.96c-0.52-0.67-1.04-1.35-1.56-2.02c4.1,5.32,8.01,10.78,11.88,16.26
				c1.53,2.17,3.34,3.87,5.98,4.6c2.39,0.66,5.58,0.36,7.71-1.01c2.14-1.38,4.01-3.43,4.6-5.98c0.63-2.76,0.19-5.15-1.01-7.71
				c-0.85-1.81-1.66-3.63-2.44-5.46c0.34,0.8,0.67,1.59,1.01,2.39c-4.93-11.76-8.3-24.12-10.02-36.75c0.12,0.89,0.24,1.77,0.36,2.66
				c-0.45-3.35-0.78-6.7-1-10.07c-5.02,2.88-10.03,5.76-15.05,8.63c6.01,2.78,11.68,6.23,16.93,10.27
				c-0.67-0.52-1.35-1.04-2.02-1.56c6.07,4.71,11.52,10.16,16.22,16.24c-0.52-0.67-1.04-1.35-1.56-2.02
				c2.58,3.36,4.91,6.9,6.99,10.59c5.76-3.36,11.51-6.73,17.27-10.09c-4.39-7.18-8.79-14.36-13.18-21.55
				c-5.24,4.04-10.47,8.08-15.71,12.12c0.82,0.97,1.62,1.96,2.4,2.96c-0.52-0.67-1.04-1.35-1.56-2.02
				c4.4,5.71,8.04,11.95,10.88,18.58c-0.34-0.8-0.67-1.59-1.01-2.39c2.42,5.73,4.21,11.69,5.33,17.8
				c6.09-2.57,12.18-5.14,18.28-7.71c-9.54-14.9-19.08-29.8-28.62-44.69c-5.24,4.04-10.47,8.08-15.71,12.12
				c1.69,1.99,3.33,4.02,4.93,6.08c-0.52-0.67-1.04-1.35-1.56-2.02c9.13,11.84,16.72,24.81,22.56,38.57
				c-0.34-0.8-0.67-1.59-1.01-2.39c1.8,4.28,3.44,8.62,4.9,13.03c5.57-3.24,11.14-6.49,16.71-9.73c-4.34-4.54-8.43-9.3-12.27-14.26
				c0.52,0.67,1.04,1.35,1.56,2.02c-7.57-9.84-14.09-20.43-19.46-31.62c-5.76,3.36-11.51,6.73-17.27,10.09
				c10.85,15.06,21.71,30.12,32.56,45.18c1.56,2.17,3.31,3.86,5.98,4.6c2.39,0.66,5.58,0.36,7.71-1.01c2.14-1.38,4.01-3.43,4.6-5.98
				C574.41,349.77,574.39,346.69,572.84,344.54L572.84,344.54z"/>
		</g>
	</g>
	<g>
		<g>
			<path class="st0" d="M165.9,328.71c18.72,3.71,37.84,5.35,56.91,5.5c17.15,0.14,34.28-0.8,51.41-1.68
				c35.2-1.81,70.4-3.62,105.6-5.43c16.82-0.86,33.86-2.32,50.64-0.1c-2.22-0.3-4.43-0.6-6.65-0.89c6.96,0.96,13.81,2.6,20.3,5.32
				c-1.99-0.84-3.98-1.68-5.97-2.52c4,1.71,7.79,3.82,11.33,6.35c0-14.39,0-28.78,0-43.17c-10.14,6.97-21.01,12.79-32.33,17.59
				c1.99-0.84,3.98-1.68,5.97-2.52c-20.91,8.81-43.07,14.08-65.51,17.12c2.22-0.3,4.43-0.6,6.65-0.89
				c-28.26,3.77-56.8,4.22-85.23,5.84c-30.51,1.74-60.89,5.35-91.09,10.04c-15.88,2.46-31.71,5.29-47.49,8.37
				c9.41,12.24,18.82,24.48,28.23,36.72c10.93-25.8,24.61-50.31,38.99-74.32c4.06-6.77,8.17-13.51,12.29-20.24
				c1.83-2.87,2.82-5.97,2.97-9.29c0.74-3.32,0.6-6.65-0.45-9.97c-0.77-3.25-2.27-6.09-4.47-8.5c-1.76-2.72-4.1-4.87-7.01-6.44
				c-5.8-3.07-12.83-4.6-19.26-2.52c-6.28,2.03-11.44,5.78-14.94,11.49c-14.63,23.87-29.13,47.89-41.46,73.05
				c-3.47,7.08-6.76,14.25-9.83,21.51c-0.84,1.99-1.68,3.98-2.52,5.97c-0.3,2.22-0.6,4.43-0.89,6.65c0.3,2.22,0.6,4.43,0.89,6.65
				c0.77,3.25,2.27,6.09,4.47,8.5c1.11,1.88,2.61,3.37,4.48,4.48c1.56,1.55,3.4,2.62,5.52,3.21c1.95,1.13,4.05,1.7,6.31,1.71
				c3.32,0.74,6.65,0.6,9.97-0.45c22.45-4.38,45-8.24,67.67-11.29c-2.22,0.3-4.43,0.6-6.65,0.89c17.35-2.33,34.77-4.19,52.24-5.45
				c17.25-1.24,34.53-1.81,51.8-2.72c34.93-1.84,70.43-5.19,103.7-16.59c18.3-6.27,36.23-14.44,52.21-25.42
				c3.76-2.22,6.75-5.21,8.97-8.97c2.26-3.9,3.4-8.11,3.41-12.62c-0.01-4.51-1.15-8.72-3.41-12.62c-2.22-3.76-5.21-6.75-8.97-8.97
				c-3.26-2.34-6.75-4.33-10.42-5.96c-5.32-2.36-10.67-4.62-16.31-6.11c-9.49-2.5-19.48-3.61-29.28-4.02
				c-8.09-0.34-16.19-0.05-24.28,0.35c-9.48,0.47-18.96,0.97-28.44,1.46c-38.75,1.99-77.51,4.36-116.28,5.89
				c-21.32,0.84-42.75,0.93-63.94-1.9c2.22,0.3,4.43,0.6,6.65,0.89c-4.43-0.6-8.83-1.33-13.22-2.2c-3.32-1.04-6.65-1.19-9.97-0.45
				c-3.33,0.15-6.43,1.14-9.29,2.97c-2.91,1.57-5.25,3.72-7.01,6.44c-2.21,2.41-3.7,5.25-4.47,8.5c-1.46,6.4-1.14,13.58,2.52,19.26
				C154.34,322.47,159.55,327.46,165.9,328.71L165.9,328.71z"/>
		</g>
	</g>
	<g>
		<g>
			<path class="st0" d="M156.2,329.8c-0.22,0.07-0.44,0.12-0.67,0.16c2.22-0.3,4.43-0.6,6.65-0.89c-0.45,0.06-0.87,0.07-1.33,0.03
				c2.22,0.3,4.43,0.6,6.65,0.89c-0.56-0.08-1.07-0.23-1.6-0.44c1.99,0.84,3.98,1.68,5.97,2.52c-0.52-0.25-1-0.54-1.46-0.89
				c1.69,1.3,3.37,2.61,5.06,3.91c-0.55-0.46-1.03-0.96-1.47-1.52c1.3,1.69,2.61,3.37,3.91,5.06c-0.42-0.59-0.76-1.2-1.04-1.86
				c0.84,1.99,1.68,3.98,2.52,5.97c-0.22-0.6-0.37-1.18-0.47-1.81c0.3,2.22,0.6,4.43,0.89,6.65c-0.13-1.08-0.12-2.13,0-3.21
				c-0.3,2.22-0.6,4.43-0.89,6.65c0.59-4.1,2.48-7.96,4-11.77c1.59-4,3.18-7.99,4.77-11.99c3.18-7.99,6.36-15.98,9.55-23.97
				c1.04-3.32,1.19-6.65,0.45-9.97c-0.15-3.33-1.14-6.43-2.97-9.29c-1.57-2.91-3.72-5.25-6.44-7.01c-2.41-2.21-5.25-3.7-8.5-4.47
				c-2.22-0.3-4.43-0.6-6.65-0.89c-4.51,0.01-8.72,1.15-12.62,3.41c-1.69,1.3-3.37,2.61-5.06,3.91c-3.1,3.12-5.24,6.8-6.43,11.03
				c-3.61,9.07-7.22,18.13-10.83,27.2c-1.83,4.6-3.68,9.2-5.5,13.8c-0.84,2.12-1.6,4.25-1.96,6.5c-0.42,2.61-1.23,6.37-1,9.39
				c0.19,2.54,0.53,5.3,1.04,7.79c0.31,1.52,1.06,2.92,1.65,4.34c0.52,1.24,1.07,2.85,1.81,4.1c1.24,2.1,2.98,4.06,4.51,5.95
				c0.34,0.42,0.69,0.8,1.09,1.16c0.85,0.76,2.2,1.71,2.8,2.18c0.91,0.7,2.02,1.67,3.09,2.36c0.19,0.12,0.39,0.23,0.59,0.34
				c1.84,0.97,4.33,1.93,6.28,2.67c0.42,0.16,0.83,0.3,1.27,0.39c1.85,0.41,5.06,0.84,6.97,0.94c0.28,0.02,0.55,0.04,0.83,0.02
				c2.62-0.15,5.28-0.39,7.81-1.11c3.25-0.77,6.09-2.27,8.5-4.47c2.72-1.76,4.87-4.1,6.44-7.01c1.83-2.87,2.82-5.97,2.97-9.29
				c0.74-3.32,0.6-6.65-0.45-9.97c-0.84-1.99-1.68-3.98-2.52-5.97c-2.22-3.76-5.21-6.75-8.97-8.97
				C169.54,329.19,162.8,327.94,156.2,329.8L156.2,329.8z"/>
		</g>
	</g>
	<g>
		<g>
			<path class="st0" d="M187.25,370.24c27.78-3.5,55.56-7,83.34-10.5c7.83-0.99,15.66-1.97,23.49-2.96
				c3.44,0.13,6.65-0.59,9.63-2.15c3.1-1.01,5.78-2.73,8.05-5.17c2.44-2.26,4.16-4.95,5.17-8.05c1.57-2.98,2.28-6.19,2.15-9.63
				c-0.3-2.22-0.6-4.43-0.89-6.65c-1.19-4.24-3.33-7.91-6.43-11.03c-1.69-1.3-3.37-2.61-5.06-3.91c-3.9-2.26-8.11-3.4-12.62-3.41
				c-27.78,3.5-55.56,7-83.34,10.5c-7.83,0.99-15.66,1.97-23.49,2.96c-3.44-0.13-6.65,0.59-9.63,2.15c-3.1,1.01-5.78,2.73-8.05,5.17
				c-2.44,2.26-4.16,4.95-5.17,8.05c-1.57,2.98-2.28,6.19-2.15,9.63c0.3,2.22,0.6,4.43,0.89,6.65c1.19,4.24,3.33,7.91,6.43,11.03
				c1.69,1.3,3.37,2.61,5.06,3.91C178.53,369.08,182.74,370.22,187.25,370.24L187.25,370.24z"/>
		</g>
	</g>
	<g>
		<g>
			<path class="st0" d="M183.61,401.97c47.39-5.48,94.78-10.97,142.17-16.45c23.5-2.72,47.01-5.46,70.51-8.16
				c23.04-2.65,46.1-5.15,69.27-6.38c25.9-1.38,51.95-1.13,77.69,2.31c-2.22-0.3-4.43-0.6-6.65-0.89c4.05,0.55,8.09,1.18,12.12,1.88
				c3.32,1.04,6.65,1.19,9.97,0.45c3.33-0.15,6.43-1.14,9.29-2.97c5.19-3.03,10.13-8.98,11.49-14.94c1.46-6.4,1.14-13.58-2.52-19.26
				c-3.54-5.49-8.53-9.71-14.94-11.49c-1.3-0.36-2.59-0.72-3.89-1.08c-6.24-1.73-13.68-0.75-19.26,2.52
				c-5.19,3.03-10.13,8.98-11.49,14.94c-1.46,6.4-1.14,13.58,2.52,19.26c3.54,5.49,8.53,9.71,14.94,11.49
				c1.3,0.36,2.59,0.72,3.89,1.08c4.43-16.07,8.86-32.14,13.29-48.21c-25.67-4.5-51.64-6.3-77.68-5.78
				c-24.14,0.48-48.21,2.68-72.21,5.3c-48.7,5.32-97.35,11.21-146.01,16.85c-27.5,3.18-55,6.37-82.5,9.55
				c-3.44-0.13-6.65,0.59-9.63,2.15c-3.1,1.01-5.78,2.73-8.05,5.17c-4.34,4.34-7.6,11.45-7.32,17.68
				c0.29,6.47,2.41,13.17,7.32,17.68c1.69,1.3,3.37,2.61,5.06,3.91C174.89,400.82,179.09,401.95,183.61,401.97L183.61,401.97z"/>
		</g>
	</g>
	<g>
		<g>
			<path class="st0" d="M542.02,349.71c-22.49,0.53-45,0.56-67.49,0.07c-22.49-0.49-44.98-1.48-67.42-2.98
				c-12.71-0.85-25.41-1.87-38.09-3.04c-3.44-0.13-6.65,0.59-9.63,2.15c-3.1,1.01-5.78,2.73-8.05,5.17
				c-2.44,2.26-4.16,4.95-5.17,8.05c-1.57,2.98-2.28,6.19-2.15,9.63c0.3,2.22,0.6,4.43,0.89,6.65c1.19,4.24,3.33,7.91,6.43,11.03
				c1.69,1.3,3.37,2.61,5.06,3.91c3.9,2.26,8.11,3.4,12.62,3.41c22.4,2.08,44.85,3.65,67.32,4.71c22.47,1.06,44.97,1.62,67.47,1.66
				c12.74,0.02,25.48-0.12,38.21-0.42c3.44,0.13,6.65-0.59,9.63-2.15c3.1-1.01,5.78-2.73,8.05-5.17c2.44-2.26,4.16-4.95,5.17-8.05
				c1.57-2.98,2.28-6.19,2.15-9.63c-0.3-2.22-0.6-4.43-0.89-6.65c-1.19-4.24-3.33-7.91-6.43-11.03
				C554.87,352.6,548.74,349.55,542.02,349.71L542.02,349.71z"/>
		</g>
	</g>
	<g>
		<g>
			<path class="st0" d="M223.09,399.92c17.44,1.88,35.02,0.97,52.38-1.22c19.65-2.47,39.06-6.1,58.53-9.64
				c9.8-1.78,19.62-3.47,29.5-4.8c-2.22,0.3-4.43,0.6-6.65,0.89c15.16-2.03,30.48-3.2,45.78-2.38c4.4,0.23,8.79,0.64,13.17,1.21
				c-2.22-0.3-4.43-0.6-6.65-0.89c0.3,0.04,0.6,0.08,0.89,0.12c3.32,1.04,6.65,1.19,9.97,0.45c3.33-0.15,6.43-1.14,9.29-2.97
				c2.91-1.57,5.25-3.72,7.01-6.44c2.21-2.41,3.7-5.25,4.47-8.5c0.3-2.22,0.6-4.43,0.89-6.65c-0.01-4.51-1.15-8.72-3.41-12.62
				c-1.3-1.69-2.61-3.37-3.91-5.06c-3.12-3.1-6.8-5.24-11.03-6.43c-11.15-1.53-22.17-2.62-33.43-2.48
				c-9.03,0.12-18.05,0.82-27.02,1.87c-20.25,2.38-40.24,6.13-60.29,9.78c-10.18,1.86-20.39,3.63-30.64,5.01
				c2.22-0.3,4.43-0.6,6.65-0.89c-18.39,2.46-37.02,3.62-55.51,1.62c-3.44-0.13-6.65,0.59-9.63,2.15c-3.1,1.01-5.78,2.73-8.05,5.17
				c-2.44,2.26-4.16,4.95-5.17,8.05c-1.57,2.98-2.28,6.19-2.15,9.63c0.3,2.22,0.6,4.43,0.89,6.65c1.19,4.24,3.33,7.91,6.43,11.03
				c1.69,1.3,3.37,2.61,5.06,3.91C214.37,398.77,218.57,399.91,223.09,399.92L223.09,399.92z"/>
		</g>
	</g>
	<g>
		<g>
			<path class="st0" d="M583.4,361.72c-19.27-12.64-39.49-23.82-60.45-33.41c-7.73-3.54-15.56-6.86-23.43-10.07
				c-3.32-1.04-6.65-1.19-9.97-0.45c-3.33,0.15-6.43,1.14-9.29,2.97c-2.91,1.57-5.25,3.72-7.01,6.44c-2.21,2.41-3.7,5.25-4.47,8.5
				c-0.3,2.22-0.6,4.43-0.89,6.65c0.01,4.51,1.15,8.72,3.41,12.62c1.3,1.69,2.61,3.37,3.91,5.06c3.12,3.1,6.8,5.24,11.03,6.43
				c1.72,0.7,3.43,1.41,5.14,2.13c-1.99-0.84-3.98-1.68-5.97-2.52c19.8,8.37,39.02,18.12,57.45,29.19
				c5.17,3.11,10.28,6.32,15.32,9.62c2.87,1.83,5.97,2.82,9.29,2.97c3.32,0.74,6.65,0.6,9.97-0.45c3.25-0.77,6.09-2.27,8.5-4.47
				c2.72-1.76,4.87-4.1,6.44-7.01c0.84-1.99,1.68-3.98,2.52-5.97c1.19-4.43,1.19-8.86,0-13.29c-0.84-1.99-1.68-3.98-2.52-5.97
				C590.14,366.93,587.15,363.94,583.4,361.72L583.4,361.72z"/>
		</g>
	</g>
	<g>
		<g>
			<path class="st0" d="M559.54,305.14c0.03-0.1,0.06-0.21,0.08-0.32c0.01-0.04,0.02-0.09,0.02-0.13c0.14-0.88,0.27-1.85,0.37-2.74
				c0.02-0.2,0.03-0.4,0.02-0.6c-0.06-1.07-0.2-2.15-0.43-3.2c-0.04-0.21-0.11-0.4-0.19-0.6c-0.28-0.7-0.74-2.02-1.25-2.88
				c-0.53-0.89-1.22-1.68-1.88-2.47c-0.13-0.15-0.27-0.29-0.42-0.42c-0.66-0.55-1.4-1.1-2.09-1.62c-0.04-0.03-0.09-0.07-0.13-0.1
				c-0.09-0.06-0.18-0.12-0.28-0.17c-1.15-0.73-2.39-1.13-3.72-1.19c-1.33-0.3-2.66-0.24-3.99,0.18c-1.3,0.31-2.43,0.91-3.4,1.79
				c-1.09,0.71-1.95,1.64-2.58,2.81c-0.34,0.8-0.67,1.59-1.01,2.39c-0.48,1.77-0.48,3.54,0,5.32c0.34,0.8,0.67,1.59,1.01,2.39
				c0.89,1.5,2.08,2.7,3.59,3.59c0.14,0.08,0.28,0.17,0.41,0.27c-0.67-0.52-1.35-1.04-2.02-1.56c0.21,0.17,0.4,0.36,0.57,0.58
				c-0.52-0.67-1.04-1.35-1.56-2.02c0.19,0.25,0.34,0.52,0.46,0.8c-0.34-0.8-0.67-1.59-1.01-2.39c0.12,0.29,0.2,0.59,0.24,0.89
				c-0.12-0.89-0.24-1.77-0.36-2.66c0.04,0.29,0.04,0.58,0.01,0.87c0.12-0.89,0.24-1.77,0.36-2.66c-0.02,0.18-0.06,0.36-0.12,0.53
				c-0.42,1.33-0.48,2.66-0.18,3.99c0.06,1.33,0.46,2.57,1.19,3.72c0.63,1.17,1.49,2.1,2.58,2.81c0.97,0.88,2.1,1.48,3.4,1.79
				c0.89,0.12,1.77,0.24,2.66,0.36c1.81-0.01,3.49-0.46,5.05-1.37c0.67-0.52,1.35-1.04,2.02-1.56
				C558.2,308.3,559.06,306.83,559.54,305.14L559.54,305.14z"/>
		</g>
	</g>
	<g>
		<g>
			<path class="st0" d="M608.51,393.03c-0.31-0.72-0.61-1.45-0.92-2.17c-0.34-0.8-0.67-1.59-1.01-2.39
				c-0.63-1.17-1.49-2.1-2.58-2.81c-0.62-0.62-1.36-1.05-2.21-1.29c-1.19-0.63-2.48-0.91-3.85-0.86c-3.12-0.07-6.24-0.13-9.35-0.2
				c-1.38-0.05-2.66,0.24-3.85,0.86c-1.24,0.4-2.31,1.09-3.22,2.07c-0.98,0.91-1.66,1.98-2.07,3.22c-0.63,1.19-0.91,2.48-0.86,3.85
				c0.12,0.89,0.24,1.77,0.36,2.66c0.48,1.69,1.33,3.16,2.57,4.41c0.67,0.52,1.35,1.04,2.02,1.56c1.56,0.9,3.24,1.36,5.05,1.37
				c3.12,0.07,6.24,0.13,9.35,0.2c-3.21-2.45-6.43-4.89-9.64-7.34c0.31,0.72,0.61,1.45,0.92,2.17c0.31,1.3,0.91,2.43,1.79,3.4
				c0.71,1.09,1.64,1.95,2.81,2.58c1.15,0.73,2.39,1.13,3.72,1.19c1.33,0.3,2.66,0.24,3.99-0.18c0.8-0.34,1.59-0.67,2.39-1.01
				c1.5-0.89,2.7-2.08,3.59-3.59c0.34-0.8,0.67-1.59,1.01-2.39C608.98,396.57,608.98,394.8,608.51,393.03L608.51,393.03z"/>
		</g>
	</g>
	<g>
		<g>
			<path class="st0" d="M605.11,384.33c-9.72-16.37-21.75-31.54-35.57-44.66c-3.79-3.6-7.72-7.03-11.77-10.32
				c-2.13-1.72-4.23-2.93-7.07-2.93c-2.45,0-5.38,1.09-7.07,2.93c-1.75,1.91-3.05,4.41-2.93,7.07c0.11,2.49,0.91,5.43,2.93,7.07
				c11.9,9.64,22.65,20.64,32.04,32.74c-0.52-0.67-1.04-1.35-1.56-2.02c4.99,6.45,9.57,13.2,13.74,20.21
				c1.29,2.17,3.54,3.92,5.98,4.6c2.39,0.66,5.58,0.36,7.71-1.01C606.05,395.1,607.96,389.15,605.11,384.33L605.11,384.33z"/>
		</g>
	</g>
	<g>
		<g>
			<path class="st0" d="M589.04,361.61c-10.96-16.13-21.91-32.26-32.87-48.39c-1.48-2.17-3.38-3.88-5.98-4.6
				c-2.39-0.66-5.58-0.36-7.71,1.01c-2.14,1.38-4.01,3.43-4.6,5.98c-0.57,2.52-0.5,5.49,1.01,7.71
				c10.96,16.13,21.91,32.26,32.87,48.39c1.48,2.17,3.38,3.88,5.98,4.6c2.39,0.66,5.58,0.36,7.71-1.01c2.14-1.38,4.01-3.43,4.6-5.98
				C590.63,366.79,590.55,363.83,589.04,361.61L589.04,361.61z"/>
		</g>
	</g>
	<g>
		<g>
			<path class="st0" d="M592.27,356.83c-12.26-17.46-24.51-34.92-36.77-52.38c-1.52-2.17-3.34-3.87-5.98-4.6
				c-2.39-0.66-5.58-0.36-7.71,1.01c-2.14,1.38-4.01,3.43-4.6,5.98c-0.57,2.5-0.52,5.53,1.01,7.71
				c12.26,17.46,24.51,34.92,36.77,52.38c1.52,2.17,3.34,3.87,5.98,4.6c2.39,0.66,5.58,0.36,7.71-1.01c2.14-1.38,4.01-3.43,4.6-5.98
				C593.85,362.04,593.8,359.01,592.27,356.83L592.27,356.83z"/>
		</g>
	</g>
	<g>
		<g>
			<path class="st1" d="M606.71,387.05c-2.43-3.04-4.83-6.1-7.21-9.18c0.52,0.67,1.04,1.35,1.56,2.02
				c-15.65-20.27-30.23-41.37-43.64-63.19c-1.87-3.05-3.73-6.12-5.55-9.2c-1.75-2.95-3.76-5.89-5.16-9.03
				c0.34,0.8,0.67,1.59,1.01,2.39c-0.32-0.77-0.57-1.54-0.72-2.37c0.12,0.89,0.24,1.77,0.36,2.66c-0.05-0.44-0.07-0.86-0.04-1.3
				c-0.12,0.89-0.24,1.77-0.36,2.66c0.05-0.32,0.11-0.59,0.21-0.9c-0.34,0.8-0.67,1.59-1.01,2.39c0.13-0.3,0.27-0.53,0.45-0.8
				c-0.52,0.67-1.04,1.35-1.56,2.02c0.14-0.17,0.29-0.32,0.46-0.46c-0.67,0.52-1.35,1.04-2.02,1.56c0.27-0.2,0.51-0.34,0.81-0.48
				c-0.8,0.34-1.59,0.67-2.39,1.01c0.18-0.07,0.37-0.12,0.56-0.15c-0.89,0.12-1.77,0.24-2.66,0.36c0.3-0.03,0.56-0.03,0.86,0
				c-0.89-0.12-1.77-0.24-2.66-0.36c0.3,0.06,0.57,0.13,0.86,0.24c-0.8-0.34-1.59-0.67-2.39-1.01c0.51,0.22,0.96,0.5,1.41,0.82
				c-0.67-0.52-1.35-1.04-2.02-1.56c0.76,0.61,1.42,1.29,2.02,2.06c-0.52-0.67-1.04-1.35-1.56-2.02c1.41,1.9,2.41,4.11,3.53,6.19
				c1.3,2.42,2.6,4.84,3.9,7.26c2.56,4.77,5.13,9.53,7.69,14.3c5.09,9.46,10.17,18.92,15.26,28.38c2.88,5.35,5.76,10.71,8.64,16.06
				c2.48,4.61,9.25,6.44,13.68,3.59c4.68-3.02,6.24-8.75,3.59-13.68c-7.1-13.2-14.2-26.4-21.29-39.59
				c-3.47-6.45-6.94-12.9-10.41-19.36c-1.81-3.37-3.63-6.75-5.44-10.12c-1.96-3.64-4.59-7.28-8.32-9.3c-3.07-1.67-6.56-2.38-10-1.51
				c-3.26,0.82-6.28,3-7.98,5.93c-3.02,5.19-1.9,11.12,0.74,16.17c3.12,5.98,6.85,11.71,10.38,17.45
				c7.3,11.87,14.94,23.53,22.91,34.95c9.35,13.4,19.18,26.47,29.38,39.24c1.49,1.87,4.79,2.93,7.07,2.93
				c2.45,0,5.38-1.09,7.07-2.93c1.75-1.91,3.05-4.41,2.93-7.07c-0.12-0.89-0.24-1.77-0.36-2.66
				C608.8,389.76,607.95,388.29,606.71,387.05L606.71,387.05z"/>
		</g>
	</g>
	<g>
		<g>
			<path class="st1" d="M177.4,294.42c-7.08-2.5-16-1.11-22.38,2.68c-6.38,3.8-11.68,10.14-13.42,17.46
				c-1.69,7.11-0.43,13.85,4.03,19.61c4.12,5.33,10.67,9.25,17.67,8.87c29.12-1.6,58.44-3.15,87.46,0.73
				c-1.99-0.27-3.99-0.54-5.98-0.8c14.02,1.92,27.85,4.98,41.66,8.02c15.46,3.4,30.89,6.44,46.6,8.46
				c28.64,3.69,57.52,1.33,86.27,0.77c16.28-0.32,32.52,0.08,48.68,2.24c-1.99-0.27-3.99-0.54-5.98-0.8
				c8.56,1.16,17.12,2.56,25.74,3.22c8.62,0.66,17.11,0.08,25.62-1.5c2.47-0.46,4.9-1.13,7.25-2c4.01-1.48,8.05-3.13,11.77-5.24
				c3.76-2.13,7.23-4.89,10.53-7.64c1.89-1.58,3.59-3.35,5.12-5.28c1.9-2.41,3.97-4.87,5.55-7.54c1.15-1.95,1.97-4.04,2.85-6.13
				c2.29-5.42,3.23-10.22,3.73-16.22c0.12-3.1-0.53-5.99-1.94-8.67c-0.91-2.79-2.46-5.2-4.65-7.24c-1.52-1.17-3.04-2.35-4.55-3.52
				c-3.51-2.04-7.29-3.06-11.36-3.07c-25.06-2.79-50.12-5.59-75.19-8.38c-23.94-2.67-48.03-5.46-72.17-4.37
				c-15.08,0.68-30.34,2.69-44.89,6.78c-5.47,1.53-10.57,5.43-13.45,10.34c-2.82,4.82-4.02,11.93-2.27,17.34
				c1.76,5.44,5.14,10.7,10.34,13.45c5.34,2.82,11.4,3.94,17.34,2.27c7.18-2.02,14.49-3.48,21.88-4.48
				c-1.99,0.27-3.99,0.54-5.98,0.8c20.82-2.74,41.89-1.83,62.74,0.09c21.63,1.99,43.2,4.65,64.78,7.06
				c12.29,1.37,24.57,2.74,36.86,4.11c-7.5-7.5-15-15-22.5-22.5c-0.04,0.53-0.1,1.05-0.17,1.58c0.27-1.99,0.54-3.99,0.8-5.98
				c-0.31,2.06-0.85,4.04-1.62,5.97c0.76-1.79,1.51-3.58,2.27-5.37c-0.94,2.23-2.15,4.29-3.59,6.22c1.17-1.52,2.35-3.04,3.52-4.55
				c-1.84,2.38-3.96,4.47-6.31,6.32c1.52-1.17,3.04-2.35,4.55-3.52c-2.87,2.2-5.99,4.01-9.31,5.45c1.79-0.76,3.58-1.51,5.37-2.27
				c-3.9,1.64-7.93,2.67-12.11,3.25c1.99-0.27,3.99-0.54,5.98-0.8c-9.32,1.18-18.67,0.25-27.94-0.98c1.99,0.27,3.99,0.54,5.98,0.8
				c-11.12-1.5-22.2-3.16-33.4-3.82c-9.46-0.55-18.94-0.6-28.41-0.44c-18.99,0.33-37.96,1.52-56.95,1.27
				c-10.65-0.14-21.28-0.76-31.84-2.15c1.99,0.27,3.99,0.54,5.98,0.8c-21.7-2.93-42.87-8.65-64.35-12.75
				c-23.82-4.55-47.78-6.4-72-5.96c-12.78,0.24-25.55,0.93-38.31,1.63c7.23,9.49,14.46,18.99,21.7,28.48
				c0.06-0.31,0.15-0.62,0.26-0.91c-0.76,1.79-1.51,3.58-2.27,5.37c0.2-0.45,0.41-0.83,0.68-1.24c-1.17,1.52-2.35,3.04-3.52,4.55
				c0.4-0.51,0.83-0.94,1.33-1.34c-1.52,1.17-3.04,2.35-4.55,3.52c0.4-0.28,0.79-0.51,1.23-0.73c-1.79,0.76-3.58,1.51-5.37,2.27
				c0.6-0.25,1.18-0.42,1.82-0.53c-1.99,0.27-3.99,0.54-5.98,0.8c0.49-0.05,0.93-0.05,1.41-0.02c-1.99-0.27-3.99-0.54-5.98-0.8
				c0.49,0.08,0.91,0.18,1.38,0.35c5.28,1.86,12.64,0.48,17.34-2.27c4.67-2.73,9.12-8.08,10.34-13.45
				c1.31-5.76,1.03-12.22-2.27-17.34c-1.17-1.52-2.35-3.04-3.52-4.55C184.52,297.42,181.21,295.49,177.4,294.42L177.4,294.42z"/>
		</g>
	</g>
	<g>
		<g>
			<path class="st1" d="M211.83,331.36c25.21-2.5,50.64-2.72,75.89-0.64c7.19,0.59,14.37,1.37,21.52,2.33
				c-1.99-0.27-3.99-0.54-5.98-0.8c13.99,1.89,27.87,4.48,41.59,7.76c5.8,1.39,12.13,0.78,17.34-2.27c2.62-1.41,4.73-3.35,6.31-5.8
				c1.99-2.17,3.33-4.72,4.03-7.65c0.27-1.99,0.54-3.99,0.8-5.98c-0.01-4.06-1.04-7.85-3.07-11.36c-3.12-4.84-7.7-8.97-13.45-10.34
				c-19.58-4.68-39.5-7.88-59.52-9.99c-18.18-1.92-36.48-2.65-54.75-2.18c-10.26,0.26-20.51,0.91-30.72,1.92
				c-3.1-0.12-5.99,0.53-8.67,1.94c-2.79,0.91-5.2,2.46-7.24,4.65c-2.19,2.04-3.74,4.45-4.65,7.24c-1.41,2.68-2.05,5.57-1.94,8.67
				c0.26,5.82,2.17,11.85,6.59,15.91c1.52,1.17,3.04,2.35,4.55,3.52C203.98,330.32,207.77,331.34,211.83,331.36L211.83,331.36z"/>
		</g>
	</g>
	<g>
		<g>
			<path class="st1" d="M177.41,323.72c6.09-1.5,12.25-2.67,18.46-3.52c-1.99,0.27-3.99,0.54-5.98,0.8
				c9.89-1.32,19.86-1.79,29.83-1.41c3.1,0.12,5.99-0.53,8.67-1.94c2.79-0.91,5.2-2.46,7.24-4.65c2.19-2.04,3.74-4.45,4.65-7.24
				c1.41-2.68,2.05-5.57,1.94-8.67c-0.26-5.82-2.17-11.85-6.59-15.91c-1.52-1.17-3.04-2.35-4.55-3.52
				c-3.51-2.04-7.29-3.06-11.36-3.07c-8.19-0.31-16.4-0.06-24.56,0.78c-9.99,1.03-19.96,2.54-29.71,4.95
				c-2.93,0.7-5.48,2.04-7.65,4.03c-2.45,1.59-4.38,3.69-5.8,6.31c-1.64,2.58-2.53,5.37-2.67,8.37c-0.67,2.99-0.54,5.98,0.4,8.97
				c1.76,5.44,5.14,10.7,10.34,13.45c1.79,0.76,3.58,1.51,5.37,2.27C169.43,324.79,173.42,324.79,177.41,323.72L177.41,323.72z"/>
		</g>
	</g>
	<g>
		<g>
			<path class="st1" d="M171.91,358.22c1.45-4.73,2.9-9.47,4.35-14.2c-14.46-3.99-28.93-7.98-43.39-11.96
				c-2.17,10.72-4.34,21.43-6.51,32.15c-1.07,3.99-1.07,7.98,0,11.96c1.07,3.81,3,7.12,5.79,9.93c2.81,2.79,6.12,4.72,9.93,5.79
				c3.99,1.07,7.98,1.07,11.96,0c9.55-1.98,19.18-3.6,28.85-4.91c-1.99,0.27-3.99,0.54-5.98,0.8c38.42-5.14,77.26-5.35,115.95-5.04
				c38.56,0.31,77.2,1.18,115.68-1.79c23.22-1.79,46.47-4.84,69.2-9.96c2.93-0.7,5.48-2.04,7.65-4.03c2.45-1.59,4.38-3.69,5.8-6.31
				c1.64-2.58,2.53-5.37,2.67-8.37c0.67-2.99,0.54-5.98-0.4-8.97c-1.76-5.44-5.14-10.7-10.34-13.45c-5.5-2.91-11.21-3.65-17.34-2.27
				c-11.49,2.59-23.1,4.62-34.78,6.19c1.99-0.27,3.99-0.54,5.98-0.8c-37.58,5.02-75.57,5.32-113.42,5.04
				c-37.77-0.29-75.6-1.17-113.32,1.43c-22.85,1.58-45.73,4.38-68.17,9.04c9.23,9.23,18.45,18.45,27.68,27.68
				c2.17-10.72,4.34-21.43,6.51-32.15c1.21-5.97,0.88-11.95-2.27-17.34c-2.73-4.67-8.08-9.12-13.45-10.34
				c-5.76-1.31-12.22-1.03-17.34,2.27c-5.01,3.23-8.57,7.67-10.34,13.45c-1.45,4.73-2.9,9.47-4.35,14.2
				c-0.94,2.99-1.07,5.98-0.4,8.97c0.14,2.99,1.03,5.78,2.67,8.37c2.73,4.67,8.08,9.12,13.45,10.34c5.76,1.31,12.22,1.03,17.34-2.27
				C166.58,368.44,170.14,364,171.91,358.22L171.91,358.22z"/>
		</g>
	</g>
	<g>
		<g>
			<path class="st1" d="M195.1,348.83c-3.86,0.66-6.4,2.5-9.27,4.72c-2.58,1.99-4.49,3.96-6.28,6.82c-0.74,1.18-1.06,2.18-1.67,3.62
				c-0.54,1.28-1.16,2.44-1.45,3.77c-0.44,2-0.87,4.7-0.88,6.75c-0.03,3.93,0.83,7.42,2.32,10.96c1.45,3.43,3.04,6.23,5.81,8.94
				c1.58,1.54,3.53,2.99,5.35,4.19c0.59,0.39,1.19,0.71,1.83,1c2.63,1.2,5.34,2.52,8.21,3.07c3.06,0.59,6.18,0.92,9.28,1.26
				c12.57,1.36,25.19,2.21,37.82,2.67c25.24,0.91,50.51,0.2,75.71-1.41c25.32-1.61,50.57-4.13,75.8-6.82
				c25.41-2.71,50.8-5.61,76.24-7.98c25.27-2.35,50.61-4.18,75.99-4.76c3.14-0.07,6.28-0.12,9.42-0.16
				c5.81-0.06,11.79-2.47,15.91-6.59c3.9-3.9,6.84-10.31,6.59-15.91c-0.26-5.82-2.17-11.85-6.59-15.91
				c-4.38-4.02-9.84-6.65-15.91-6.59c-46.4,0.5-92.6,5.4-138.69,10.4c-45.77,4.97-91.61,10.07-137.67,10.97
				c-12.73,0.25-25.47,0.17-38.19-0.31c-12.79-0.49-25.69-1.17-38.39-2.85c1.99,0.27,3.99,0.54,5.98,0.8
				c-1.44-0.21-2.83-0.51-4.19-1.03c1.79,0.76,3.58,1.51,5.37,2.27c-0.65-0.28-1.24-0.6-1.83-1c1.52,1.17,3.04,2.35,4.55,3.52
				c-0.53-0.41-0.99-0.83-1.41-1.35c1.17,1.52,2.35,3.04,3.52,4.55c-0.22-0.33-0.39-0.65-0.56-1.01c0.76,1.79,1.51,3.58,2.27,5.37
				c-0.14-0.38-0.23-0.73-0.31-1.13c0.27,1.99,0.54,3.99,0.8,5.98c-0.07-0.53-0.08-1.03-0.05-1.56c-0.27,1.99-0.54,3.99-0.8,5.98
				c0.07-0.51,0.19-0.98,0.37-1.46c-0.76,1.79-1.51,3.58-2.27,5.37c0.16-0.34,0.32-0.63,0.54-0.93c-1.17,1.52-2.35,3.04-3.52,4.55
				c0.14-0.18,0.3-0.35,0.48-0.5c-1.52,1.17-3.04,2.35-4.55,3.52c0.3-0.22,0.56-0.38,0.9-0.53c-1.79,0.76-3.58,1.51-5.37,2.27
				c0.23-0.08,0.47-0.14,0.72-0.17c2.93-0.7,5.48-2.04,7.65-4.03c2.45-1.59,4.38-3.69,5.8-6.31c2.82-4.82,4.02-11.93,2.27-17.34
				c-1.76-5.44-5.14-10.7-10.34-13.45c-1.79-0.76-3.58-1.51-5.37-2.27C203.07,347.76,199.08,347.76,195.1,348.83L195.1,348.83z"/>
		</g>
	</g>
	<g>
		<g>
			<path class="st1" d="M364.27,406.03c26.42,0.15,52.83,0.3,79.25,0.45s52.83,0.3,79.25,0.45c14.83,0.08,29.67,0.17,44.5,0.25
				c3.1,0.12,5.99-0.53,8.67-1.94c2.79-0.91,5.2-2.46,7.24-4.65c2.19-2.04,3.74-4.45,4.65-7.24c1.41-2.68,2.05-5.57,1.94-8.67
				c-0.26-5.82-2.17-11.85-6.59-15.91c-4.42-4.05-9.8-6.56-15.91-6.59c-26.42-0.15-52.83-0.3-79.25-0.45
				c-26.42-0.15-52.83-0.3-79.25-0.45c-14.83-0.08-29.67-0.17-44.5-0.25c-3.1-0.12-5.99,0.53-8.67,1.94
				c-2.79,0.91-5.2,2.46-7.24,4.65c-2.19,2.04-3.74,4.45-4.65,7.24c-1.41,2.68-2.05,5.57-1.94,8.67c0.26,5.82,2.17,11.85,6.59,15.91
				C352.78,403.49,358.16,406,364.27,406.03L364.27,406.03z"/>
		</g>
	</g>
	<g>
		<g>
			<path class="st1" d="M150.38,407.16c0.8-0.13,1.6-0.24,2.4-0.35c-1.99,0.27-3.99,0.54-5.98,0.8c8.94-1.18,18.01-1.55,27.01-2.19
				c9.12-0.64,18.25-1.29,27.37-1.93c5.14-0.36,10.29-0.73,15.43-1.09c3.1,0.12,5.99-0.53,8.67-1.94c2.79-0.91,5.2-2.46,7.24-4.65
				c2.19-2.04,3.74-4.45,4.65-7.24c1.41-2.68,2.05-5.57,1.94-8.67c-0.26-5.82-2.17-11.85-6.59-15.91
				c-4.22-3.87-9.99-7.01-15.91-6.59c-18.99,1.34-37.99,2.68-56.98,4.02c-7.11,0.5-14.17,1.23-21.22,2.34
				c-2.93,0.7-5.48,2.04-7.65,4.03c-2.45,1.59-4.38,3.69-5.8,6.31c-1.64,2.58-2.53,5.37-2.67,8.37c-0.67,2.99-0.54,5.98,0.4,8.97
				c1.76,5.44,5.14,10.7,10.34,13.45c1.79,0.76,3.58,1.51,5.37,2.27C142.41,408.23,146.39,408.23,150.38,407.16L150.38,407.16z"/>
		</g>
	</g>
	<g>
		<g>
			<path class="st1" d="M156.21,391.24c2.37-3.95,4.74-7.9,7.11-11.85c1.64-2.58,2.53-5.37,2.67-8.37c0.67-2.99,0.54-5.98-0.4-8.97
				c-0.7-2.93-2.04-5.48-4.03-7.65c-1.59-2.45-3.69-4.38-6.31-5.8c-1.79-0.76-3.58-1.51-5.37-2.27c-3.99-1.07-7.98-1.07-11.96,0
				c-1.79,0.76-3.58,1.51-5.37,2.27c-3.38,2-6.07,4.69-8.07,8.07c-2.37,3.95-4.74,7.9-7.11,11.85c-1.64,2.58-2.53,5.37-2.67,8.37
				c-0.67,2.99-0.54,5.98,0.4,8.97c0.7,2.93,2.04,5.48,4.03,7.65c1.59,2.45,3.69,4.38,6.31,5.8c1.79,0.76,3.58,1.51,5.37,2.27
				c3.99,1.07,7.98,1.07,11.96,0c1.79-0.76,3.58-1.51,5.37-2.27C151.52,397.32,154.21,394.63,156.21,391.24L156.21,391.24z"/>
		</g>
	</g>
	<g>
		<g>
			<path class="st1" d="M603.46,396.7c-0.27,0.79-0.53,1.58-0.8,2.37c-0.21,0.66-0.24,1.33-0.09,1.99c0.03,0.67,0.23,1.29,0.59,1.86
				c0.31,0.58,0.74,1.05,1.29,1.4c0.48,0.44,1.05,0.74,1.7,0.89c0.44,0.06,0.89,0.12,1.33,0.18c0.9,0,1.74-0.23,2.52-0.68
				c0.34-0.26,0.67-0.52,1.01-0.78c0.62-0.62,1.05-1.36,1.29-2.21c0.27-0.79,0.53-1.58,0.8-2.37c0.21-0.66,0.24-1.33,0.09-1.99
				c-0.03-0.67-0.23-1.29-0.59-1.86c-0.31-0.58-0.74-1.05-1.29-1.4c-0.48-0.44-1.05-0.74-1.7-0.89c-0.44-0.06-0.89-0.12-1.33-0.18
				c-0.9,0-1.74,0.23-2.52,0.68c-0.34,0.26-0.67,0.52-1.01,0.78C604.12,395.12,603.69,395.86,603.46,396.7L603.46,396.7z"/>
		</g>
	</g>
	<g>
		<g>
			<path class="st1" d="M585.27,400.02c0.26,0.16,0.52,0.29,0.79,0.41c0.62,0.27,1.24,0.57,1.9,0.75c0.49,0.13,0.99,0.19,1.49,0.26
				c0.5,0.07,1,0.14,1.51,0.14c0.28,0,0.56-0.02,0.84-0.06c0.7-0.09,1.42-0.15,2.11-0.34c0.47-0.13,0.9-0.33,1.35-0.51
				c0.48-0.2,0.94-0.39,1.39-0.67c1.09-0.67,1.95-1.74,2.3-2.99c0.21-0.66,0.24-1.33,0.09-1.99c-0.03-0.67-0.23-1.29-0.59-1.86
				c-0.69-1.07-1.71-2.01-2.99-2.3c-1.29-0.29-2.7-0.21-3.85,0.5c-0.25,0.16-0.52,0.3-0.79,0.42c0.4-0.17,0.8-0.34,1.19-0.5
				c-0.49,0.21-1,0.35-1.52,0.42c0.44-0.06,0.89-0.12,1.33-0.18c-0.56,0.07-1.12,0.08-1.68,0.01c0.44,0.06,0.89,0.12,1.33,0.18
				c-0.53-0.07-1.04-0.21-1.53-0.41c0.4,0.17,0.8,0.34,1.19,0.5c-0.27-0.12-0.54-0.25-0.79-0.41c-0.57-0.37-1.19-0.56-1.86-0.59
				c-0.66-0.15-1.33-0.12-1.99,0.09c-0.65,0.15-1.22,0.45-1.7,0.89c-0.54,0.35-0.97,0.82-1.29,1.4c-0.61,1.16-0.92,2.57-0.5,3.85
				C583.38,398.28,584.13,399.32,585.27,400.02L585.27,400.02z"/>
		</g>
	</g>
	<g>
		<g>
			<path class="st1" d="M582.51,399.09c0.01,0.02,0.02,0.05,0.03,0.07c-0.17-0.4-0.34-0.8-0.5-1.19c0.09,0.22,0.15,0.44,0.18,0.67
				c-0.06-0.44-0.12-0.89-0.18-1.33c0.04,0.28,0.04,0.57,0.01,0.85c0.06-0.44,0.12-0.89,0.18-1.33c-0.04,0.31-0.12,0.61-0.24,0.9
				c0.17-0.4,0.34-0.8,0.5-1.19c-0.12,0.29-0.28,0.56-0.47,0.81c0.26-0.34,0.52-0.67,0.78-1.01c-0.18,0.23-0.37,0.43-0.6,0.61
				c0.34-0.26,0.67-0.52,1.01-0.78c-0.21,0.16-0.43,0.29-0.66,0.4c0.4-0.17,0.8-0.34,1.19-0.5c-0.22,0.09-0.45,0.16-0.69,0.2
				c0.44-0.06,0.89-0.12,1.33-0.18c-0.27,0.04-0.54,0.04-0.82,0c0.44,0.06,0.89,0.12,1.33,0.18c-0.3-0.04-0.59-0.13-0.87-0.25
				c0.4,0.17,0.8,0.34,1.19,0.5c-0.28-0.13-0.54-0.28-0.78-0.47c0.34,0.26,0.67,0.52,1.01,0.78c-0.24-0.19-0.45-0.4-0.64-0.65
				c0.26,0.34,0.52,0.67,0.78,1.01c-0.17-0.22-0.3-0.46-0.41-0.71c0.17,0.4,0.34,0.8,0.5,1.19c-0.09-0.23-0.16-0.46-0.2-0.71
				c0.06,0.44,0.12,0.89,0.18,1.33c-0.01-0.08-0.02-0.16-0.02-0.25c0.03-0.69-0.12-1.33-0.43-1.93c-0.2-0.62-0.55-1.16-1.03-1.61
				c-0.45-0.49-0.99-0.83-1.61-1.03c-0.6-0.31-1.24-0.46-1.93-0.43c-1.29,0.06-2.63,0.48-3.54,1.46c-0.86,0.94-1.55,2.22-1.46,3.54
				c0.04,0.61,0.11,1.23,0.25,1.82c0.14,0.6,0.44,1.22,0.69,1.74c0.08,0.17,0.17,0.34,0.28,0.5c0.35,0.5,0.72,1.02,1.15,1.46
				c0.41,0.42,0.92,0.76,1.38,1.11c0.18,0.13,0.36,0.26,0.56,0.36c0.53,0.27,1.09,0.51,1.65,0.7c0.21,0.07,0.42,0.12,0.64,0.15
				c0.59,0.09,1.21,0.22,1.82,0.2c0.11,0,0.22-0.02,0.33-0.03c0.52-0.06,1.06-0.1,1.57-0.23c0.57-0.14,1.12-0.41,1.64-0.65
				c0.19-0.09,0.37-0.18,0.54-0.3c0.47-0.33,0.95-0.68,1.37-1.08c0.44-0.42,0.79-0.94,1.15-1.42c0.47-0.64,0.76-1.42,1.03-2.15
				c0.08-0.21,0.13-0.42,0.17-0.64c0.11-0.61,0.23-1.27,0.22-1.91c-0.01-0.63-0.11-1.26-0.24-1.87c-0.13-0.62-0.44-1.21-0.69-1.79
				c-0.31-0.58-0.74-1.05-1.29-1.4c-0.48-0.44-1.05-0.74-1.7-0.89c-0.66-0.21-1.33-0.24-1.99-0.09c-0.67,0.03-1.29,0.23-1.86,0.59
				c-1.07,0.69-2.01,1.71-2.3,2.99c-0.06,0.44-0.12,0.89-0.18,1.33C581.83,397.46,582.06,398.31,582.51,399.09L582.51,399.09z"/>
		</g>
	</g>
	<g>
		<g>
			<path class="st1" d="M118.05,401.3c2.54-5.49,5.46-10.8,8.74-15.89c1.6-2.48,3.29-4.9,5.05-7.27c0.27-0.35,0.53-0.71,0.8-1.06
				c0.25-0.33,0.34-0.43,0.03-0.04c0.5-0.64,1-1.27,1.52-1.9c0.98-1.2,1.98-2.39,2.99-3.56c1.72-1.97,2.08-5.16,0-7.07
				c-1.88-1.73-5.24-2.11-7.07,0c-8.33,9.57-15.36,20.22-20.69,31.73c-1.1,2.37-0.75,5.5,1.79,6.84
				C113.42,404.26,116.88,403.84,118.05,401.3L118.05,401.3z"/>
		</g>
	</g>
	<g>
		<g>
			<path class="st1" d="M118.62,403.85c12.08,0.8,24.23-0.12,36.08-2.55c2.57-0.53,4.29-3.7,3.49-6.15
				c-0.88-2.72-3.4-4.06-6.15-3.49c-2.77,0.57-5.56,1.04-8.37,1.44c-0.36,0.05-0.32,0.04,0.13-0.02c-0.16,0.02-0.32,0.04-0.48,0.06
				c-0.32,0.04-0.64,0.08-0.96,0.12c-0.72,0.08-1.45,0.16-2.17,0.24c-1.45,0.15-2.9,0.27-4.35,0.36
				c-5.73,0.38-11.48,0.37-17.22-0.01c-2.62-0.17-5.12,2.42-5,5C113.75,401.7,115.82,403.66,118.62,403.85L118.62,403.85z"/>
		</g>
	</g>
</g>
<g id="Layer_5">
	<polygon class="st2" points="575.8,364.04 134.8,364.04 162.93,299.5 535.12,299.5 	"/>
	<polygon class="st2" points="396.93,385.82 297.67,385.82 304,368.11 387.77,368.11 	"/>
	<polygon class="st3" points="365.53,398.1 329.06,398.1 331.38,394.85 362.17,394.85 	"/>
</g>
<g id="Layer_3">
	<g>
		<g>
			<path class="st4" d="M396.56,173.94c-3.28-2.92-6.84-5.54-10.35-8.18c-1.45-1.09-2.94-2.11-4.48-3.06
				c-5.31-3.28-11.18-5.58-16.94-7.92c-3.24-1.31-6.6-2.36-10.01-3.12c-1.77-0.4-3.56-0.71-5.35-0.97
				c-4.47-0.63-8.97-1.37-13.49-1.65c-3.56-0.22-7.13-0.15-10.67,0.23c-6.24,0.66-12.66,1.38-18.74,3.1
				c-1.68,0.48-3.34,1.03-4.98,1.65c-4.19,1.61-8.39,3.31-12.42,5.31c-1.59,0.79-3.14,1.67-4.62,2.65
				c-0.74,0.49-1.46,1.01-2.16,1.54c-2.85,2.15-5.8,4.26-8.46,6.65c-2.31,2.07-4.07,4.5-5.97,6.96c-1.87,2.43-3.83,4.73-5.12,7.53
				c-1.47,3.2-2.98,6.48-4.09,9.83c-0.27,0.82-0.49,1.65-0.64,2.5c-0.69,3.95-1.68,8.67-1.37,12.91c0.26,3.53,0.78,7.11,1.41,10.59
				c0.15,0.81,0.35,1.61,0.59,2.4c0.22,0.69,0.47,1.35,0.75,2.02c1.33,3.24,2.53,6.62,4.23,9.71c0.38,0.69,0.79,1.35,1.24,2
				c1.95,2.83,4.12,5.54,6.3,8.2c1.04,1.27,2.21,2.43,3.48,3.47c3.14,2.56,6.55,5.53,10.23,7.54c0.69,0.38,1.41,0.71,2.13,1.02
				c3.22,1.4,6.44,3,9.82,4.01c0.7,0.21,1.41,0.38,2.12,0.52c1.74,0.33,3.62,0.51,5.32,0.74c1.76,0.24,3.67,0.57,5.49,0.7
				c0.8,0.06,1.59,0.06,2.39,0.02c3.64-0.2,7.3-0.82,10.89-1.4c1.59-0.26,3.15-0.69,4.65-1.28c3.86-1.53,8.14-3.04,11.76-5.3
				c0.69-0.43,1.35-0.9,2-1.39c2.81-2.1,5.71-4.17,8.32-6.53c1.22-1.1,2.32-2.31,3.34-3.6c2.66-3.37,5.62-6.74,7.69-10.56
				c2.07-3.8,3.71-7.87,5.14-11.95c0.54-1.55,0.95-3.15,1.21-4.77c0.55-3.55,1.15-7.15,1.4-10.74c0.06-0.89,0.08-1.78,0.05-2.67
				c-0.03-0.79-0.09-1.57-0.18-2.35c-0.41-3.65-0.8-7.35-1.53-10.96c-0.34-1.71-0.84-3.39-1.47-5.01
				c-2.22-5.71-4.4-11.36-8.12-16.25c-2.62-3.44-5.23-7.19-8.37-10.27c-3.1-3.04-6.79-5.62-10.19-8.2
				c-1.41-1.07-2.91-2.04-4.46-2.89c-3.86-2.12-8.04-3.74-12.13-5.3c-1.83-0.7-3.72-1.26-5.64-1.69c-0.96-0.21-1.92-0.38-2.89-0.53
				c-3.76-0.58-7.55-1.15-11.35-1.47c-6.74-0.57-13.59,0.57-20.21,1.64c-3.92,0.63-7.76,1.72-11.44,3.2
				c-5.91,2.38-12.1,4.71-17.38,8.38c-2.89,2.01-5.64,4.25-8.41,6.44c-0.74,0.59-1.46,1.2-2.15,1.85
				c-3.14,2.95-5.87,6.84-8.31,10.18c-1.02,1.4-1.86,2.87-2.56,4.46c-1.19,2.71-3.06,6.56-4.02,9.86c-0.62,2.15-0.78,4.46-1.07,6.64
				c-0.41,3.03-0.92,5.76-0.58,8.76c0.44,3.95,0.73,8.96,2.26,12.96c1.21,3.18,2.51,6.39,4.01,9.44c0.37,0.75,0.78,1.48,1.23,2.18
				c1.86,2.88,4.11,5.54,6.25,8.21c0.49,0.61,1,1.2,1.55,1.76c0.55,0.55,1.13,1.07,1.73,1.57c2.68,2.19,5.4,4.47,8.33,6.35
				c0.6,0.39,1.23,0.74,1.87,1.06c1.55,0.76,3.25,1.4,4.78,2.05c1.6,0.68,3.28,1.47,4.96,2.05c0.73,0.25,1.47,0.46,2.23,0.61
				c0.38,0.08,0.76,0.13,1.15,0.19c3.18,0.47,6.42,1.05,9.64,1.26c0.75,0.05,1.5,0.04,2.25-0.01c3.17-0.24,6.36-0.78,9.5-1.25
				c0.45-0.07,0.91-0.13,1.36-0.23c4.17-0.88,8.26-2.92,11.98-4.73c0.73-0.35,1.43-0.75,2.11-1.19c2.95-1.91,5.69-4.2,8.4-6.41
				c1.27-1.03,2.39-2.21,3.4-3.48c2.5-3.16,5.73-6.72,7.53-10.57c1.45-3.1,2.85-6.3,4-9.52c0.29-0.81,0.53-1.64,0.7-2.49
				c0.08-0.39,0.15-0.79,0.2-1.19c0.47-3.13,0.98-6.34,1.26-9.5c0.07-0.8,0.09-1.61,0.04-2.42c-0.24-4.39-0.67-9.03-2.05-13.26
				c-1.06-3.26-2.56-6.42-3.95-9.54c-0.35-0.79-0.74-1.55-1.18-2.3c-0.41-0.69-0.87-1.36-1.35-2.01c-2.08-2.81-4.16-5.72-6.53-8.32
				c-2.88-3.15-6.59-5.64-9.95-8.17c-4.83-3.64-10.8-5.97-16.42-7.92c-1.57-0.55-3.19-0.97-4.84-1.25
				c-3.77-0.65-7.59-1.16-11.39-1.53c-1.17-0.11-2.34-0.18-3.52-0.19c-2.19-0.03-4.39,0.1-6.57,0.36c-4.9,0.57-9.87,1.15-14.72,2.17
				c-4.36,0.91-8.63,2.17-12.88,3.5c-5.51,1.54-10.29,4.33-14.34,8.36c-3.17,2.94-5.41,6.43-6.72,10.46
				c-2.03,3.87-2.97,8.05-2.8,12.52c0.02,5.87,1.5,11.33,4.44,16.4c0.67,1.21,1.39,2.38,2.17,3.52c2.35,3.41,4.92,6.7,7.59,9.86
				c1.78,2.11,3.77,4.04,5.91,5.77c4.24,3.42,8.61,7.05,13.47,9.64c4.78,2.54,9.86,4.7,15.03,6.33c5.21,1.64,11,2.35,16.34,2.75
				c1.16,0.09,2.33,0.09,3.5,0.02c3.96-0.26,7.93-0.81,11.82-1.57c1.14-0.22,2.26-0.53,3.35-0.93c3.62-1.33,7.44-2.7,10.79-4.71
				c6.63-3.97,11.69-9.02,15.78-15.55c1.98-3.16,3.43-6.75,4.41-10.34c0.87-3.21,1.12-6.79,1.42-9.94c0.07-0.76,0.1-1.49,0.04-2.25
				c-0.25-3.54-0.58-8.36-2.05-12.02c-1.48-3.68-2.75-7.62-5.12-10.85c-2.22-3.03-4.73-6.64-7.6-9.36
				c-3.02-2.86-6.52-5.33-9.81-7.78c-2.53-1.88-5.23-3.55-7.92-5.19c-5.84-3.55-11.92-6.72-18.17-9.49
				c-5.62-2.49-11.29-4.92-17.05-7.05c-3.07-1.14-6.19-2.24-9.4-2.9c-4.27-0.88-8.64-1.54-13-1.73c-4.45-0.2-9.06,0.59-13.34,1.51
				c-0.7,0.15-1.39,0.35-2.06,0.59c-3.16,1.16-6.31,2.42-9.31,3.95c-3.45,1.77-6.46,4.44-9.35,6.97c-2.8,2.44-5.29,6.25-7.23,8.91
				c-0.76,1.05-1.4,2.15-1.94,3.33c-1.34,2.92-2.65,5.95-3.77,8.97c-0.21,0.57-0.39,1.14-0.55,1.73c-0.16,0.59-0.3,1.18-0.41,1.78
				c-0.63,3.39-1.03,6.87-1.41,10.29c-0.14,1.22-0.17,2.46-0.11,3.69c0.2,4.12,0.77,8.25,1.63,12.27c0.27,1.27,0.66,2.52,1.11,3.74
				c1.5,4.03,3.12,8.1,5.15,11.91c2.72,5.12,6.61,9.72,10.16,14.22c1.91,2.43,3.95,4.75,6.01,7.06c3.76,4.21,8.36,7.73,12.98,10.89
				c1.06,0.72,2.16,1.34,3.33,1.87c2.01,0.93,6.37,3.01,9.46,3.89c3.34,0.94,6.94,1.2,10.33,1.5c3.96,0.35,8.18-0.26,11.94-1.46
				c7.01-2.24,11.89-5.05,17.27-10.09c2.66-2.5,5.01-5.51,6.68-8.76c3.79-7.37,4.51-11.06,5.22-19.29
				c0.33-3.77-0.74-8.71-1.25-11.84c-0.21-1.31-0.52-2.58-0.94-3.83c-1.71-4.97-3.78-10.07-6.63-14.54
				c-5.02-7.89-10.75-15.34-16.63-22.6c-4.23-5.22-8.75-10.22-13.58-14.9c-1.1-1.07-2.24-2.08-3.44-3.04
				c-3.02-2.4-6.57-5.56-10.21-7.47c-3.56-1.87-7.34-3.71-11.29-4.62c-8.23-1.9-13.05-1.68-21.18-0.18
				c-7.18,1.32-14.86,6.12-19.92,11.27c-2.67,2.72-5.1,5.83-7.01,9.14c-0.33,0.57-0.6,1.16-0.87,1.77
				c-1.33,3.05-2.89,6.12-3.82,9.33c-1.12,3.84-1.46,7.96-1.76,11.92c-0.3,3.97,0.69,8.34,1.28,12.03c0.25,1.54,0.63,3.04,1.17,4.51
				c1.51,4.07,3.15,8.19,5.25,12.01c1.53,2.78,3.38,5.36,5.23,7.93c2.04,3.79,4.83,6.83,8.37,9.12c3.14,2.87,6.82,4.81,11.05,5.82
				c2.88,0.39,5.76,0.77,8.64,1.16c4.47,0.17,8.65-0.76,12.52-2.8c2.75-0.77,5.14-2.17,7.17-4.18c3.54-2.29,6.33-5.33,8.37-9.12
				c1.09-2.59,2.18-5.18,3.28-7.76c1.55-5.76,1.55-11.52,0-17.28c-0.31-1.04-0.66-2.07-1.06-3.08c-1.4-3.48-2.76-7.03-4.46-10.38
				c-0.99-1.94-2.17-3.77-3.49-5.5c-2.86-3.75-5.6-7.74-9.12-10.93c-2.76-2.49-5.82-4.69-8.79-6.91c-0.92-0.69-1.87-1.33-2.86-1.93
				c-5.07-2.94-10.54-4.42-16.4-4.44c-4.47-0.17-8.65,0.76-12.52,2.8c-4.03,1.31-7.52,3.55-10.46,6.72
				c-4.03,4.06-6.81,8.84-8.36,14.34c-0.57,3.56-1.14,7.12-1.71,10.68c21.28,2.88,42.56,5.76,63.84,8.64
				c-0.53-4.57-0.95-9.44-2.16-13.96c-1.15-4.29-3.16-8.49-4.89-12.5c-2.55-5.9-6.62-10.88-10.7-15.81
				c-2.19-1.69-4.39-3.39-6.58-5.08c-3.73-2.38-7.76-3.66-12.08-3.86c-2.88-0.77-5.76-0.77-8.64,0c-4.33,0.2-8.35,1.48-12.08,3.86
				c-2.19,1.69-4.39,3.39-6.58,5.08c-1.69,2.19-3.39,4.39-5.08,6.58c-2.38,3.73-3.66,7.76-3.86,12.08
				c-0.97,4.32-0.77,8.64,0.58,12.96c5.96,21.95,11.92,43.9,17.88,65.85c0.83,3.04,1.65,6.09,2.48,9.13
				c0.77,2.85,1.73,5.71,2.19,8.64c-0.39-2.88-0.77-5.76-1.16-8.64c0.13,0.96,0.18,1.91,0.09,2.88c0.39-2.88,0.77-5.76,1.16-8.64
				c-0.08,0.57-0.21,1.1-0.41,1.64c1.09-2.59,2.18-5.18,3.28-7.76c-0.19,0.42-0.41,0.79-0.68,1.15c1.69-2.19,3.39-4.39,5.08-6.58
				c-0.23,0.27-0.46,0.5-0.73,0.73c2.19-1.69,4.39-3.39,6.58-5.08c-0.28,0.2-0.54,0.36-0.84,0.52c2.59-1.09,5.18-2.18,7.76-3.28
				c-0.41,0.17-0.81,0.29-1.25,0.38c2.88-0.39,5.76-0.77,8.64-1.16c-0.56,0.07-1.1,0.07-1.67,0.01c2.88,0.39,5.76,0.77,8.64,1.16
				c-0.58-0.09-1.12-0.23-1.66-0.44c2.59,1.09,5.18,2.18,7.76,3.28c-0.65-0.27-1.24-0.61-1.8-1.03c2.19,1.69,4.39,3.39,6.58,5.08
				c-0.49-0.4-0.92-0.85-1.32-1.34c1.69,2.19,3.39,4.39,5.08,6.58c-0.74-0.96-1.31-2-1.8-3.11c1.09,2.59,2.18,5.18,3.28,7.76
				c-1.65-3.96-2.7-8.22-3.96-12.31c-1.31-4.24-2.62-8.48-3.93-12.72c-2.54-8.21-5.69-16.5-6.84-25.05
				c0.39,2.88,0.77,5.76,1.16,8.64c-0.35-2.81-0.42-5.63-0.05-8.44c-0.39,2.88-0.77,5.76-1.16,8.64c0.3-1.96,0.8-3.85,1.57-5.69
				c-1.09,2.59-2.18,5.18-3.28,7.76c0.75-1.73,1.7-3.34,2.84-4.85c-1.69,2.19-3.39,4.39-5.08,6.58c1.42-1.83,3.07-3.43,4.9-4.85
				c-2.19,1.69-4.39,3.39-6.58,5.08c2.83-2.16,5.95-3.84,9.21-5.24c-2.59,1.09-5.18,2.18-7.76,3.28c6.97-2.94,14.38-4.54,21.75-6.13
				c9.21-1.99,18.48-3.75,27.78-5.27c5.33-0.87,10.67-1.67,16.02-2.39c-2.88,0.39-5.76,0.77-8.64,1.16
				c28.59-3.83,57.47-5.49,86.31-4.92c8.06,0.16,16.11,0.5,24.15,1c4.47,0.17,8.65-0.76,12.52-2.8c4.03-1.31,7.52-3.55,10.46-6.72
				c3.17-2.94,5.41-6.43,6.72-10.46c2.03-3.87,2.97-8.05,2.8-12.52c-0.39-2.88-0.77-5.76-1.16-8.64
				c-1.54-5.51-4.33-10.29-8.36-14.34c-2.19-1.69-4.39-3.39-6.58-5.08c-5.07-2.94-10.54-4.42-16.4-4.44
				c-26.54-1.66-53.19-1.45-79.7,0.64c-15.91,1.26-31.76,3.24-47.54,5.59c-13.23,1.97-26.39,4.42-39.44,7.33
				c-4.95,1.11-9.9,2.28-14.68,4.01c-1.11,0.4-2.2,0.83-3.29,1.29c-3.6,1.51-7.28,2.91-10.77,4.67c-2.08,1.05-4.07,2.25-5.94,3.64
				c-3.79,2.82-8.25,5.82-11.33,9.62c-2.99,3.69-6.37,7.5-8.32,11.94c-1.47,3.34-3.51,7.45-4.43,11.28
				c-1.02,4.25-1.54,8.65-1.79,13.01c-0.08,1.48-0.05,2.97,0.08,4.45c0.35,4.24,0.95,8.48,1.7,12.67c1.14,6.4,3.34,12.61,5.26,18.81
				c2.01,6.52,4.03,13.03,6.04,19.55c0.9,2.91,1.68,5.89,2.78,8.73c1.38,3.57,2.67,7.7,4.91,10.98c1.86,2.72,3.81,5.43,6.08,7.82
				c0.25,0.27,0.52,0.5,0.8,0.73c2.19,1.69,4.39,3.39,6.58,5.08c0.18,0.14,0.37,0.28,0.56,0.4c3.22,2.04,6.91,3.65,10.66,4.34
				c6.96,1.28,13.11,1.97,20.05-0.33c3.02-1,6.1-2.09,8.76-3.86c1.04-0.69,5.04-3.53,7.08-5.55c0.07-0.09,0.15-0.17,0.22-0.26
				c1.69-2.19,3.39-4.39,5.08-6.58c0.19-0.28,0.37-0.55,0.54-0.85c0.05-0.1,0.09-0.2,0.14-0.3c1.09-2.59,2.18-5.18,3.28-7.76
				c1.07-3.07,1.43-8.33,1.58-10.28c0.29-3.85-0.71-8.52-1.3-11.88c-0.26-1.5-0.69-2.96-1.09-4.42c-0.87-3.2-1.74-6.41-2.61-9.61
				c-1.78-6.57-3.57-13.14-5.35-19.71c-3.61-13.3-7.22-26.6-10.83-39.9c-0.87-3.2-1.74-6.41-2.61-9.61
				c-18.11,10.54-36.21,21.08-54.32,31.62c0.27,0.32,0.53,0.65,0.79,0.97c-1.69-2.19-3.39-4.39-5.08-6.58
				c1.96,2.54,3.57,5.3,4.83,8.26c-1.09-2.59-2.18-5.18-3.28-7.76c1.23,2.97,2.07,6.05,2.52,9.23c-0.39-2.88-0.77-5.76-1.16-8.64
				c0.04,0.28,0.07,0.55,0.1,0.83c-0.17,4.47,0.76,8.65,2.8,12.52c1.31,4.03,3.55,7.52,6.72,10.46c2.19,1.69,4.39,3.39,6.58,5.08
				c3.73,2.38,7.76,3.66,12.08,3.86c2.88,0.77,5.76,0.77,8.64,0c4.33-0.2,8.35-1.48,12.08-3.86c2.19-1.69,4.39-3.39,6.58-5.08
				c4.03-4.06,6.81-8.84,8.36-14.34c0.57-3.56,1.14-7.12,1.71-10.68c-15.91,6.47-31.83,12.95-47.74,19.42
				c1.09,0.67,2.15,1.39,3.16,2.16c-2.19-1.69-4.39-3.39-6.58-5.08c2.22,1.74,4.21,3.73,5.95,5.95c-1.69-2.19-3.39-4.39-5.08-6.58
				c1.8,2.34,3.29,4.87,4.46,7.58c-1.09-2.59-2.18-5.18-3.28-7.76c0.49,1.18,0.92,2.38,1.28,3.61c19.8-8.35,39.6-16.7,59.4-25.04
				c-2.52-3.49-5.01-7.03-6.73-10.99c1.09,2.59,2.18,5.18,3.28,7.76c-0.82-1.97-1.42-3.99-1.7-6.11c0.39,2.88,0.77,5.76,1.16,8.64
				c-0.15-1.32-0.13-2.64,0.04-3.96c-0.39,2.88-0.77,5.76-1.16,8.64c0.2-1.33,0.54-2.6,1.04-3.85c-1.09,2.59-2.18,5.18-3.28,7.76
				c0.51-1.21,1.15-2.33,1.95-3.37c-1.69,2.19-3.39,4.39-5.08,6.58c0.6-0.74,1.27-1.41,2.02-2c-2.19,1.69-4.39,3.39-6.58,5.08
				c0.68-0.5,1.39-0.92,2.17-1.25c-2.59,1.09-5.18,2.18-7.76,3.28c0.73-0.29,1.46-0.49,2.24-0.62c-2.88,0.39-5.76,0.77-8.64,1.16
				c0.93-0.12,1.82-0.12,2.75-0.03c-2.88-0.39-5.76-0.77-8.64-1.16c1.18,0.17,2.3,0.49,3.4,0.94c-2.59-1.09-5.18-2.18-7.76-3.28
				c1.64,0.72,3.14,1.67,4.58,2.74c-2.19-1.69-4.39-3.39-6.58-5.08c3.78,2.92,7.09,6.52,10.31,10.04c3.34,3.64,6.52,7.42,9.55,11.33
				c-1.69-2.19-3.39-4.39-5.08-6.58c2.33,3.02,4.57,6.12,6.7,9.28c1.85,2.74,3.68,5.49,5,8.53c-1.09-2.59-2.18-5.18-3.28-7.76
				c0.76,1.82,1.35,3.69,1.64,5.64c-0.39-2.88-0.77-5.76-1.16-8.64c0.15,1.17,0.19,2.33,0.05,3.5c0.39-2.88,0.77-5.76,1.16-8.64
				c-0.12,0.8-0.32,1.56-0.63,2.31c1.09-2.59,2.18-5.18,3.28-7.76c-0.25,0.55-0.54,1.05-0.9,1.54c1.69-2.19,3.39-4.39,5.08-6.58
				c-0.39,0.49-0.82,0.93-1.31,1.33c2.19-1.69,4.39-3.39,6.58-5.08c-0.57,0.43-1.15,0.79-1.8,1.08c2.59-1.09,5.18-2.18,7.76-3.28
				c-0.63,0.25-1.26,0.42-1.94,0.52c2.88-0.39,5.76-0.77,8.64-1.16c-0.79,0.08-1.55,0.07-2.34-0.04c2.88,0.39,5.76,0.77,8.64,1.16
				c-1.06-0.18-2.06-0.49-3.05-0.9c2.59,1.09,5.18,2.18,7.76,3.28c-1.66-0.74-3.17-1.71-4.61-2.81c2.19,1.69,4.39,3.39,6.58,5.08
				c-4.36-3.42-8-7.92-11.39-12.27c1.69,2.19,3.39,4.39,5.08,6.58c-2.46-3.2-4.66-6.58-6.24-10.3c1.09,2.59,2.18,5.18,3.28,7.76
				c-0.86-2.11-1.53-4.27-1.85-6.53c0.39,2.88,0.77,5.76,1.16,8.64c-0.27-2.12-0.27-4.24,0.01-6.35c-0.39,2.88-0.77,5.76-1.16,8.64
				c0.28-1.86,0.76-3.67,1.49-5.41c-1.09,2.59-2.18,5.18-3.28,7.76c0.61-1.39,1.35-2.68,2.27-3.88c-1.69,2.19-3.39,4.39-5.08,6.58
				c0.8-1,1.69-1.89,2.7-2.68c-2.19,1.69-4.39,3.39-6.58,5.08c0.87-0.65,1.79-1.19,2.78-1.63c-2.59,1.09-5.18,2.18-7.76,3.28
				c1.34-0.56,2.7-0.93,4.14-1.14c-2.88,0.39-5.76,0.77-8.64,1.16c1.88-0.22,3.74-0.17,5.61,0.07c-2.88-0.39-5.76-0.77-8.64-1.16
				c6.35,0.9,12.49,3.49,18.36,5.96c-2.59-1.09-5.18-2.18-7.76-3.28c5.25,2.23,10.37,4.72,15.36,7.49
				c4.75,2.64,9.53,5.43,13.85,8.74c-2.19-1.69-4.39-3.39-6.58-5.08c1.9,1.48,3.67,3.1,5.15,5.01c-1.69-2.19-3.39-4.39-5.08-6.58
				c0.72,0.97,1.34,1.98,1.84,3.08c-1.09-2.59-2.18-5.18-3.28-7.76c0.41,0.98,0.7,1.98,0.85,3.03c-0.39-2.88-0.77-5.76-1.16-8.64
				c0.1,0.93,0.1,1.83-0.02,2.76c0.39-2.88,0.77-5.76,1.16-8.64c-0.14,0.86-0.37,1.69-0.71,2.5c1.09-2.59,2.18-5.18,3.28-7.76
				c-0.35,0.77-0.78,1.48-1.3,2.15c1.69-2.19,3.39-4.39,5.08-6.58c-0.6,0.74-1.27,1.39-2.02,1.99c2.19-1.69,4.39-3.39,6.58-5.08
				c-1.12,0.85-2.33,1.53-3.61,2.08c2.59-1.09,5.18-2.18,7.76-3.28c-1.86,0.77-3.8,1.26-5.8,1.53c2.88-0.39,5.76-0.77,8.64-1.16
				c-2.11,0.26-4.23,0.27-6.34,0.01c2.88,0.39,5.76,0.77,8.64,1.16c-3.56-0.49-7.03-1.51-10.34-2.9c2.59,1.09,5.18,2.18,7.76,3.28
				c-3.47-1.49-6.71-3.41-9.7-5.71c2.19,1.69,4.39,3.39,6.58,5.08c-2.87-2.25-5.44-4.82-7.68-7.7c1.69,2.19,3.39,4.39,5.08,6.58
				c-1.3-1.7-2.46-3.48-3.5-5.34c-6.47,15.91-12.95,31.83-19.42,47.74c5.91-1.85,11.87-3.55,18.02-4.39
				c-2.88,0.39-5.76,0.77-8.64,1.16c4.05-0.52,8.13-0.65,12.19-0.15c-2.88-0.39-5.76-0.77-8.64-1.16c2.85,0.38,5.6,1.1,8.26,2.19
				c-2.59-1.09-5.18-2.18-7.76-3.28c2.43,1.03,4.71,2.34,6.81,3.94c-2.19-1.69-4.39-3.39-6.58-5.08c1.76,1.38,3.34,2.93,4.71,4.69
				c-1.69-2.19-3.39-4.39-5.08-6.58c1.11,1.48,2.04,3.06,2.77,4.76c-1.09-2.59-2.18-5.18-3.28-7.76c0.62,1.51,1.05,3.07,1.29,4.69
				c-0.39-2.88-0.77-5.76-1.16-8.64c0.2,1.5,0.2,2.99,0.02,4.49c0.39-2.88,0.77-5.76,1.16-8.64c-0.24,1.72-0.7,3.37-1.37,4.98
				c1.09-2.59,2.18-5.18,3.28-7.76c-0.7,1.6-1.58,3.09-2.63,4.49c1.69-2.19,3.39-4.39,5.08-6.58c-1.15,1.48-2.45,2.79-3.92,3.95
				c2.19-1.69,4.39-3.39,6.58-5.08c-1.39,1.05-2.86,1.93-4.46,2.62c2.59-1.09,5.18-2.18,7.76-3.28c-1.5,0.61-3.03,1.04-4.63,1.26
				c2.88-0.39,5.76-0.77,8.64-1.16c-1.37,0.16-2.73,0.16-4.11,0c2.88,0.39,5.76,0.77,8.64,1.16c-1.54-0.21-3.02-0.62-4.46-1.22
				c2.59,1.09,5.18,2.18,7.76,3.28c-1.53-0.67-2.94-1.51-4.27-2.53c2.19,1.69,4.39,3.39,6.58,5.08c-1.4-1.11-2.65-2.38-3.75-3.79
				c1.69,2.19,3.39,4.39,5.08,6.58c-1.08-1.43-1.97-2.96-2.68-4.61c1.09,2.59,2.18,5.18,3.28,7.76c-0.63-1.54-1.08-3.12-1.32-4.77
				c0.39,2.88,0.77,5.76,1.16,8.64c-0.2-1.54-0.21-3.07-0.02-4.61c-0.39,2.88-0.77,5.76-1.16,8.64c0.22-1.53,0.65-2.99,1.23-4.42
				c-1.09,2.59-2.18,5.18-3.28,7.76c0.73-1.7,1.67-3.27,2.78-4.75c-1.69,2.19-3.39,4.39-5.08,6.58c1.62-2.08,3.51-3.89,5.6-5.5
				c-2.19,1.69-4.39,3.39-6.58,5.08c3.14-2.38,6.6-4.25,10.22-5.79c-2.59,1.09-5.18,2.18-7.76,3.28c4.33-1.8,8.84-3.06,13.48-3.71
				c-2.88,0.39-5.76,0.77-8.64,1.16c4.19-0.55,8.41-0.59,12.61-0.04c-2.88-0.39-5.76-0.77-8.64-1.16c3.44,0.49,6.8,1.38,10.02,2.71
				c-2.59-1.09-5.18-2.18-7.76-3.28c2.93,1.25,5.67,2.87,8.19,4.82c-2.19-1.69-4.39-3.39-6.58-5.08c2.41,1.9,4.57,4.06,6.46,6.47
				c-1.69-2.19-3.39-4.39-5.08-6.58c1.78,2.31,3.27,4.81,4.43,7.48c-1.09-2.59-2.18-5.18-3.28-7.76c1.08,2.56,1.83,5.22,2.21,7.97
				c-0.39-2.88-0.77-5.76-1.16-8.64c0.28,2.26,0.31,4.52,0.04,6.78c0.39-2.88,0.77-5.76,1.16-8.64c-0.33,2.46-0.99,4.83-1.94,7.12
				c1.09-2.59,2.18-5.18,3.28-7.76c-0.98,2.28-2.23,4.41-3.73,6.38c1.69-2.19,3.39-4.39,5.08-6.58c-1.52,1.94-3.24,3.68-5.19,5.19
				c2.19-1.69,4.39-3.39,6.58-5.08c-1.67,1.26-3.45,2.31-5.36,3.15c2.59-1.09,5.18-2.18,7.76-3.28c-1.92,0.81-3.91,1.36-5.98,1.65
				c2.88-0.39,5.76-0.77,8.64-1.16c-1.72,0.21-3.42,0.22-5.13,0.01c2.88,0.39,5.76,0.77,8.64,1.16c-1.79-0.25-3.51-0.73-5.18-1.41
				c2.59,1.09,5.18,2.18,7.76,3.28c-1.88-0.8-3.62-1.82-5.25-3.06c2.19,1.69,4.39,3.39,6.58,5.08c-1.7-1.33-3.21-2.85-4.53-4.55
				c1.69,2.19,3.39,4.39,5.08,6.58c-1.15-1.52-2.11-3.15-2.88-4.9c1.09,2.59,2.18,5.18,3.28,7.76c-0.73-1.73-1.24-3.52-1.49-5.39
				c0.39,2.88,0.77,5.76,1.16,8.64c-0.18-1.54-0.18-3.06,0.01-4.6c-0.39,2.88-0.77,5.76-1.16,8.64c0.24-1.64,0.69-3.2,1.33-4.72
				c-1.09,2.59-2.18,5.18-3.28,7.76c0.75-1.7,1.69-3.27,2.81-4.74c-1.69,2.19-3.39,4.39-5.08,6.58c1.54-1.97,3.34-3.7,5.31-5.23
				c-2.19,1.69-4.39,3.39-6.58,5.08c2.93-2.23,6.15-4.01,9.52-5.46c-2.59,1.09-5.18,2.18-7.76,3.28c4.84-2.04,9.92-3.41,15.13-4.14
				c-2.88,0.39-5.76,0.77-8.64,1.16c5.71-0.77,11.49-0.75,17.2,0c-2.88-0.39-5.76-0.77-8.64-1.16c5.58,0.77,11.04,2.24,16.25,4.4
				c-2.59-1.09-5.18-2.18-7.76-3.28c4.84,2.04,9.4,4.67,13.57,7.86c-2.19-1.69-4.39-3.39-6.58-5.08c1.09,0.85,2.14,1.72,3.17,2.64
				c2.94,3.17,6.43,5.41,10.46,6.72c3.87,2.03,8.05,2.97,12.52,2.8c4.47,0.17,8.65-0.76,12.52-2.8c4.03-1.31,7.52-3.55,10.46-6.72
				c1.69-2.19,3.39-4.39,5.08-6.58c2.94-5.07,4.42-10.54,4.44-16.4c-0.39-2.88-0.77-5.76-1.16-8.64
				C403.37,182.78,400.59,178,396.56,173.94L396.56,173.94z"/>
		</g>
	</g>
	<g>
		<g>
			<path class="st4" d="M378.27,233.04c25.08-2.28,50.15-4.55,75.23-6.83c12.5-1.13,24.99-2.27,37.49-3.4
				c2.95-0.27,5.91-0.5,8.86-0.82c3.96-0.44,7.93-0.91,11.85-1.61c1.31-0.23,2.62-0.54,3.88-0.97c7.88-2.71,13.84-5.82,19.9-11.64
				c2.63-2.53,4.75-5.65,6.82-8.61c0.64-0.91,1.13-1.89,1.58-2.91c1.53-3.5,3.39-7.05,4.23-10.82c0.14-0.62,0.24-1.24,0.34-1.87
				c0.5-3.32,1.04-6.68,1.31-10.03c0.21-2.51,0.06-5.02-0.25-7.52c-0.69-5.59-1.4-10.82-2.72-16.23c-0.78-3.21-1.57-6.42-2.04-9.7
				c0.39,2.88,0.77,5.76,1.16,8.64c-0.35-2.61-0.47-5.21-0.17-7.83c-0.39,2.88-0.77,5.76-1.16,8.64c0.24-1.73,0.66-3.4,1.31-5.02
				c-20.89,0-41.79,0-62.68,0c1.14,2.86,1.92,5.83,2.35,8.88c-0.39-2.88-0.77-5.76-1.16-8.64c0.45,3.47,0.45,6.97-0.01,10.44
				c0.39-2.88,0.77-5.76,1.16-8.64c-0.48,3.33-1.36,6.56-2.66,9.66c1.09-2.59,2.18-5.18,3.28-7.76c-0.33,0.77-0.69,1.53-1.07,2.27
				c14.82-3.89,29.64-7.77,44.47-11.66c-5.24-2.77-10.78-5.09-16.38-7c-2.96-1.01-5.99-1.8-9.06-2.39
				c-8.87-1.71-18.02-2.79-27.08-2.64c-9.24,0.15-18.46,1.48-27.57,2.88c-7.04,1.09-14.01,2.53-20.98,3.97
				c-7.82,1.61-15.66,3.2-23.58,4.27c2.88-0.39,5.76-0.77,8.64-1.16c-3.82,0.5-7.91,1.28-11.76,0.81c2.88,0.39,5.76,0.77,8.64,1.16
				c-0.73-0.11-1.42-0.29-2.11-0.56c2.59,1.09,5.18,2.18,7.76,3.28c-0.44-0.2-0.84-0.43-1.24-0.71c2.19,1.69,4.39,3.39,6.58,5.08
				c-0.36-0.29-0.68-0.6-0.97-0.96c1.69,2.19,3.39,4.39,5.08,6.58c-0.24-0.33-0.44-0.66-0.62-1.02c1.09,2.59,2.18,5.18,3.28,7.76
				c-0.19-0.45-0.31-0.9-0.39-1.38c0.39,2.88,0.77,5.76,1.16,8.64c-0.05-0.49-0.04-0.97,0.01-1.46c-0.39,2.88-0.77,5.76-1.16,8.64
				c0.11-0.73,0.31-1.4,0.58-2.09c-1.09,2.59-2.18,5.18-3.28,7.76c0.41-0.93,0.93-1.77,1.54-2.58c-1.69,2.19-3.39,4.39-5.08,6.58
				c0.73-0.91,1.54-1.72,2.44-2.45c-2.19,1.69-4.39,3.39-6.58,5.08c2.58-1.96,5.79-2.91,8.67-4.33c0.72-0.36,1.42-0.74,2.1-1.16
				c0.28-0.18,0.56-0.36,0.84-0.56c2.48-1.78,5.05-3.7,7.36-5.69c0.59-0.5,1.1-1.04,1.6-1.63c1.87-2.25,3.84-4.67,5.47-7.11
				c0.25-0.37,0.46-0.76,0.66-1.17c1.45-2.97,3.25-6.42,3.96-9.85c0.31-1.48,0.53-3.88,0.64-4.67c0.13-0.96,0.49-3.15,0.62-4.67
				c0.04-0.46,0.06-0.92,0.03-1.39c-0.17-3.08-0.73-6.46-1.25-9.5c-0.07-0.4-0.15-0.8-0.26-1.2c-0.09-0.34-0.21-0.68-0.33-1.02
				c-1.06-2.94-2.37-5.94-3.7-8.77c-0.38-0.8-0.83-1.57-1.32-2.3c-1.98-2.94-4.25-5.74-6.51-8.47c-1.21-1.46-2.57-2.8-4-4.06
				c-3.17-2.79-6.52-5.17-9.14-8.55c1.69,2.19,3.39,4.39,5.08,6.58c-0.98-1.31-1.84-2.69-2.5-4.19c1.09,2.59,2.18,5.18,3.28,7.76
				c-0.4-0.97-0.69-1.96-0.84-3c0.39,2.88,0.77,5.76,1.16,8.64c-0.09-0.78-0.1-1.54,0-2.33c-0.39,2.88-0.77,5.76-1.16,8.64
				c0.11-0.68,0.28-1.32,0.53-1.96c-1.09,2.59-2.18,5.18-3.28,7.76c0.19-0.44,0.41-0.86,0.66-1.27
				c-6.47,4.98-12.95,9.96-19.42,14.94c0.65-0.09,1.3-0.18,1.95-0.26c-2.88,0.39-5.76,0.77-8.64,1.16
				c28.54-3.81,57.38-5.39,86.16-4.69c4.02,0.1,8.04,0.24,12.05,0.42c3.74,0.17,7.55,0.22,11.27,0.72
				c-2.88-0.39-5.76-0.77-8.64-1.16c1.26,0.19,2.48,0.47,3.66,0.97c-2.59-1.09-5.18-2.18-7.76-3.28c0.5,0.23,0.96,0.49,1.42,0.81
				c-2.19-1.69-4.39-3.39-6.58-5.08c0.43,0.33,0.8,0.69,1.15,1.11c-1.69-2.19-3.39-4.39-5.08-6.58c0.28,0.39,0.5,0.78,0.71,1.21
				c-1.09-2.59-2.18-5.18-3.28-7.76c0.2,0.53,0.33,1.04,0.42,1.59c-0.39-2.88-0.77-5.76-1.16-8.64c0.14,1.27,0.03,2.53-0.14,3.79
				c0.39-2.88,0.77-5.76,1.16-8.64c-1.69,12.17-3.44,24.34-5.16,36.51c-1.35,4.32-1.55,8.64-0.58,12.96
				c0.2,4.33,1.48,8.35,3.86,12.08c2.04,3.79,4.83,6.83,8.37,9.12c3.14,2.87,6.82,4.81,11.05,5.82c2.88,0.39,5.76,0.77,8.64,1.16
				c5.87-0.02,11.33-1.5,16.4-4.44c2.19-1.69,4.39-3.39,6.58-5.08c4.03-4.06,6.81-8.84,8.36-14.34c1.03-7.25,2.05-14.5,3.08-21.76
				c0.49-3.46,0.98-6.92,1.47-10.38c0.63-4.47,1.32-8.95,1.83-13.43c0.49-4.23-0.18-8.82-1.23-12.82c-0.41-1.54-1.45-3.59-1.9-4.66
				c-0.39-0.92-1.18-3.22-1.98-4.55c-1.63-2.74-3.64-5.32-5.87-7.6c-5.3-5.41-10.04-7.34-16.95-9.98
				c-3.47-1.33-9.03-1.58-11.84-1.94c-1.46-0.18-2.92-0.27-4.39-0.35c-7.12-0.42-14.26-0.7-21.39-0.84
				c-14.19-0.28-28.39-0.01-42.56,0.81c-16.93,0.98-33.72,2.92-50.52,5.2c-0.41,0.05-0.82,0.1-1.22,0.17
				c-5.51,1.54-10.29,4.33-14.34,8.36c-2.04,2.1-3.8,4.4-5.27,6.89c-1.61,2.98-2.96,6.14-3.98,9.37c-1.22,3.87-1.84,8.2-1.45,12.28
				c0.16,1.66,0.61,7.25,1.52,10.31c0.97,3.25,2.48,6.4,3.9,9.42c0.64,1.38,1.45,2.64,2.35,3.86c3.52,4.75,6.83,9.24,11.47,12.87
				c2.65,2.07,5.16,4.3,7.25,6.94c-1.69-2.19-3.39-4.39-5.08-6.58c1.01,1.32,1.89,2.71,2.54,4.24c-1.09-2.59-2.18-5.18-3.28-7.76
				c0.35,0.89,0.6,1.78,0.75,2.73c-0.39-2.88-0.77-5.76-1.16-8.64c0.09,0.82,0.09,1.61-0.01,2.42c0.39-2.88,0.77-5.76,1.16-8.64
				c-0.12,0.72-0.31,1.4-0.58,2.09c1.09-2.59,2.18-5.18,3.28-7.76c-0.33,0.74-0.71,1.4-1.2,2.04c1.69-2.19,3.39-4.39,5.08-6.58
				c-0.55,0.69-1.17,1.29-1.85,1.84c2.19-1.69,4.39-3.39,6.58-5.08c-2.11,1.62-4.57,2.66-6.99,3.72c-1.16,0.51-2.34,1-3.45,1.62
				c-0.6,0.33-1.14,0.71-1.69,1.12c-2.65,1.97-5.53,3.88-7.88,6.23c-5.11,5.12-10.36,13.04-11.62,20.31
				c-1.2,6.94-2.04,12.92,0.27,19.85c1,3.01,2.11,6.11,3.83,8.81c3.61,5.67,4.99,6.82,9.53,10.32c4.84,3.74,5.35,4,12.29,6.53
				c0.58,0.21,1.14,0.38,1.74,0.5c3.98,0.81,8.56,1.56,12.78,1.26c6.36-0.45,12.71-1.43,19-2.35c7.2-1.06,14.32-2.52,21.44-3.99
				c8-1.65,16.01-3.3,24.11-4.41c-2.88,0.39-5.76,0.77-8.64,1.16c9.86-1.32,19.88-1.77,29.77-0.45c-2.88-0.39-5.76-0.77-8.64-1.16
				c5.93,0.82,11.74,2.29,17.26,4.6c-2.59-1.09-5.18-2.18-7.76-3.28c1.58,0.67,3.12,1.41,4.64,2.21c3.73,2.38,7.76,3.66,12.08,3.86
				c4.32,0.97,8.64,0.77,12.96-0.58c2.59-1.09,5.18-2.18,7.76-3.28c4.88-2.89,8.77-6.78,11.66-11.66c1.83-3.62,3.35-7.42,4.82-11.2
				c0.5-1.3,0.93-2.63,1.29-3.98c1.41-5.35,2.1-10.97,2.37-16.49c0.27-5.45-0.74-11.05-1.55-16.36c-0.43-2.83-1.2-5.6-2.26-8.26
				c-1.09-2.59-2.18-5.18-3.28-7.76c-2.04-3.79-4.83-6.83-8.37-9.12c-2.03-2.01-4.42-3.41-7.17-4.18c-3.87-2.03-8.05-2.97-12.52-2.8
				c-2.88,0.39-5.76,0.77-8.64,1.16c-2.59,1.09-5.18,2.18-7.76,3.28c-3.79,2.04-6.83,4.83-9.12,8.37
				c-2.87,3.14-4.81,6.82-5.82,11.05c-0.49,1.21-0.87,2.46-1.11,3.74c-0.65,3.4-1.07,6.91-1.41,10.34
				c-0.06,0.64-0.11,1.29-0.13,1.94c-0.04,1.31,0.03,2.62,0.16,3.93c0.42,4.14,0.96,8.29,1.7,12.39c0.92,5.06,2.54,9.98,3.23,15.08
				c-0.39-2.88-0.77-5.76-1.16-8.64c0.38,2.96,0.48,5.95,0.1,8.92c0.39-2.88,0.77-5.76,1.16-8.64c-0.25,1.7-0.65,3.34-1.29,4.93
				c1.09-2.59,2.18-5.18,3.28-7.76c-0.52,1.23-1.17,2.37-1.97,3.44c1.69-2.19,3.39-4.39,5.08-6.58c-0.71,0.89-1.49,1.68-2.38,2.39
				c2.19-1.69,4.39-3.39,6.58-5.08c-1.06,0.8-2.19,1.44-3.41,1.96c2.59-1.09,5.18-2.18,7.76-3.28c-2.12,0.85-4.33,1.32-6.59,1.64
				c2.88-0.39,5.76-0.77,8.64-1.16c-7.75,1.03-15.6,1.48-23.38,2.19c-8.11,0.74-16.22,1.47-24.33,2.21
				c-16.06,1.46-32.11,2.92-48.17,4.37c-9.1,0.83-18.21,1.65-27.31,2.48c-4.47-0.17-8.65,0.76-12.52,2.8
				c-4.03,1.31-7.52,3.55-10.46,6.72c-3.17,2.94-5.41,6.43-6.72,10.46c-2.03,3.87-2.97,8.05-2.8,12.52
				c0.39,2.88,0.77,5.76,1.16,8.64c1.54,5.51,4.33,10.29,8.36,14.34c2.19,1.69,4.39,3.39,6.58,5.08
				C366.94,231.54,372.41,233.02,378.27,233.04L378.27,233.04z"/>
		</g>
	</g>
	<g>
		<g>
			<path class="st4" d="M212.96,87.75c-2.09-2.41-4.81-4.3-7.58-5.86c-5.64-3.16-10.88-4.51-17.35-4.67
				c-0.3-0.01-0.57,0.01-0.87,0.04c-2.88,0.39-5.76,0.77-8.64,1.16c-0.15,0.02-0.29,0.05-0.44,0.1c-3.12,0.94-6.26,2.1-9.02,3.82
				c-5.19,3.22-10.89,8.21-13.48,13.9c-1.09,2.59-2.18,5.18-3.28,7.76c-0.07,0.18-0.13,0.37-0.18,0.56
				c-0.47,1.64-0.6,3.91-0.79,5.28c-0.28,2.05-0.75,4.22-0.66,6.33c0.26,6.09,1.6,12.26,2.52,18.31c0.54,3.58,1.09,7.16,1.63,10.73
				c1.01,4.23,2.94,7.91,5.82,11.05c2.29,3.54,5.33,6.33,9.12,8.37c3.73,2.38,7.76,3.66,12.08,3.86c4.32,0.97,8.64,0.77,12.96-0.58
				c2.59-1.09,5.18-2.18,7.76-3.28c4.88-2.89,8.77-6.78,11.66-11.66c1.09-2.59,2.18-5.18,3.28-7.76c1.55-5.76,1.55-11.52,0-17.28
				c-0.93-6.12-1.91-12.24-2.78-18.37c0.39,2.88,0.77,5.76,1.16,8.64c-0.18-1.35-0.29-2.69-0.13-4.05
				c-0.39,2.88-0.77,5.76-1.16,8.64c0.09-0.53,0.21-1.02,0.39-1.53c-1.09,2.59-2.18,5.18-3.28,7.76c0.19-0.44,0.39-0.84,0.67-1.22
				c-1.69,2.19-3.39,4.39-5.08,6.58c0.2-0.24,0.41-0.45,0.64-0.65c-2.19,1.69-4.39,3.39-6.58,5.08c0.33-0.25,0.67-0.46,1.05-0.65
				c-2.59,1.09-5.18,2.18-7.76,3.28c0.38-0.16,0.75-0.27,1.16-0.35c-2.88,0.39-5.76,0.77-8.64,1.16c0.39-0.05,0.76-0.05,1.15,0
				c-2.88-0.39-5.76-0.77-8.64-1.16c0.18,0.03,0.36,0.08,0.54,0.14c-2.59-1.09-5.18-2.18-7.76-3.28c0.27,0.12,0.49,0.24,0.73,0.42
				c-2.19-1.69-4.39-3.39-6.58-5.08c0.15,0.12,0.29,0.26,0.41,0.42c2.94,3.17,6.43,5.41,10.46,6.72c3.87,2.03,8.05,2.97,12.52,2.8
				c4.47,0.17,8.65-0.76,12.52-2.8c4.03-1.31,7.52-3.55,10.46-6.72c1.69-2.19,3.39-4.39,5.08-6.58c2.94-5.07,4.42-10.54,4.44-16.4
				c-0.39-2.88-0.77-5.76-1.16-8.64C219.78,96.59,216.99,91.81,212.96,87.75L212.96,87.75z"/>
		</g>
	</g>
	<g>
		<g>
			<path class="st4" d="M211.45,128.1c-0.53-0.79-1.05-1.58-1.58-2.37c-2.04-3.79-4.83-6.83-8.37-9.12
				c-3.14-2.87-6.82-4.81-11.05-5.82c-4.32-1.35-8.64-1.55-12.96-0.58c-4.33,0.2-8.35,1.48-12.08,3.86
				c-2.19,1.69-4.39,3.39-6.58,5.08c-4.03,4.06-6.81,8.84-8.36,14.34c-0.39,2.88-0.77,5.76-1.16,8.64c0.02,5.87,1.5,11.33,4.44,16.4
				c0.53,0.79,1.05,1.58,1.58,2.37c2.04,3.79,4.83,6.83,8.37,9.12c3.14,2.87,6.82,4.81,11.05,5.82c4.32,1.35,8.64,1.55,12.96,0.58
				c4.33-0.2,8.35-1.48,12.08-3.86c2.19-1.69,4.39-3.39,6.58-5.08c4.03-4.06,6.81-8.84,8.36-14.34c0.39-2.88,0.77-5.76,1.16-8.64
				C215.87,138.64,214.39,133.17,211.45,128.1L211.45,128.1z"/>
		</g>
	</g>
	<g>
		<g>
			<path class="st4" d="M226.31,123.04c0.14-0.41,0.23-0.81,0.3-1.23c0.39-2.88,0.77-5.76,1.16-8.64c0.02-0.16,0.03-0.32,0.03-0.47
				c0-0.21-0.01-0.42-0.02-0.63c-0.08-1.9-0.84-7.09-1.2-8.96c-0.04-0.21-0.07-0.42-0.12-0.63c-0.05-0.21-0.12-0.41-0.19-0.61
				c-0.5-1.37-1.06-2.71-1.69-4.03c-0.58-1.39-1.17-2.79-1.76-4.18c-0.19-0.39-0.41-0.74-0.65-1.1c-1.69-2.19-3.39-4.39-5.08-6.58
				c-0.07-0.08-0.13-0.17-0.2-0.25c-0.14-0.16-0.28-0.32-0.43-0.47c-5.44-5.3-9.36-6.81-16.21-9.54
				c-2.88,21.28-5.76,42.56-8.64,63.84c28.4-1.2,56.8-2.11,85.22-2.74c28.41-0.63,56.84-0.97,85.26-1.03
				c7.98-0.02,15.96-0.01,23.93,0.02c6.59,0.02,13.19,0.06,19.74,0.92c-2.88-0.39-5.76-0.77-8.64-1.16
				c4.58,0.62,9.09,1.66,13.37,3.44c-2.59-1.09-5.18-2.18-7.76-3.28c2.77,1.19,5.37,2.67,7.76,4.51c-2.19-1.69-4.39-3.39-6.58-5.08
				c0.1,0.08,0.21,0.16,0.31,0.25c2.94,3.17,6.43,5.41,10.46,6.72c3.87,2.03,8.05,2.97,12.52,2.8c4.47,0.17,8.65-0.76,12.52-2.8
				c4.03-1.31,7.52-3.55,10.46-6.72c1.69-2.19,3.39-4.39,5.08-6.58c2.94-5.07,4.42-10.54,4.44-16.4c-0.39-2.88-0.77-5.76-1.16-8.64
				c-1.54-5.51-4.33-10.29-8.36-14.34c-4.76-3.76-9.12-7.44-14.65-9.84c-5.42-2.35-10.63-4.71-16.4-5.91
				c-9.15-1.91-18.57-2.73-27.91-2.85c-15.86-0.2-31.73-0.08-47.58,0.02c-32.41,0.21-64.82,0.78-97.21,1.73
				c-18.27,0.53-36.55,1.19-54.81,1.96c-4.47-0.17-8.65,0.76-12.52,2.8c-4.03,1.31-7.52,3.55-10.46,6.72
				c-1.69,2.19-3.39,4.39-5.08,6.58c-2.38,3.73-3.66,7.76-3.86,12.08c-0.77,2.88-0.77,5.76,0,8.64c0.2,4.33,1.48,8.35,3.86,12.08
				c1.69,2.19,3.39,4.39,5.08,6.58c4.06,4.03,8.84,6.81,14.34,8.36c0.1,0.04,0.2,0.08,0.3,0.12c-2.59-1.09-5.18-2.18-7.76-3.28
				c0.39,0.19,0.74,0.4,1.09,0.65c-2.19-1.69-4.39-3.39-6.58-5.08c0.42,0.34,0.77,0.71,1.1,1.14c-1.69-2.19-3.39-4.39-5.08-6.58
				c0.31,0.44,0.56,0.9,0.77,1.4c-1.09-2.59-2.18-5.18-3.28-7.76c0.19,0.51,0.31,1.01,0.39,1.54c-0.39-2.88-0.77-5.76-1.16-8.64
				c0.04,0.43,0.04,0.84,0,1.27c0.39-2.88,0.77-5.76,1.16-8.64c-0.06,0.43-0.16,0.83-0.3,1.23c-1.35,4.32-1.55,8.64-0.58,12.96
				c0.2,4.33,1.48,8.35,3.86,12.08c2.04,3.79,4.83,6.83,8.37,9.12c3.14,2.87,6.82,4.81,11.05,5.82c2.88,0.39,5.76,0.77,8.64,1.16
				c5.87-0.02,11.33-1.5,16.4-4.44c2.19-1.69,4.39-3.39,6.58-5.08C221.98,133.33,224.77,128.55,226.31,123.04L226.31,123.04z"/>
		</g>
	</g>
	<g>
		<g>
			<path class="st4" d="M161.99,227.87c-0.94,0.96-1.88,1.92-2.81,2.88c-1.69,2.19-3.39,4.39-5.08,6.58
				c-1.09,2.59-2.18,5.18-3.28,7.76c-0.39,2.88-0.77,5.76-1.16,8.64c-0.17,4.47,0.76,8.65,2.8,12.52c0.77,2.75,2.17,5.14,4.18,7.17
				c1.44,2.44,3.39,4.39,5.83,5.83c2.03,2.01,4.42,3.41,7.17,4.18c3.87,2.03,8.05,2.97,12.52,2.8c37.85-4.41,75.7-8.82,113.55-13.23
				c18.93-2.2,37.85-4.41,56.78-6.61c18.73-2.18,37.44-4.56,56.21-6.4c20.7-2.03,41.62-3.05,62.3-0.29
				c-2.88-0.39-5.76-0.77-8.64-1.16c3.24,0.44,6.47,0.98,9.68,1.6c4.32,1.35,8.64,1.55,12.96,0.58c4.33-0.2,8.35-1.48,12.08-3.86
				c3.79-2.04,6.83-4.83,9.12-8.37c2.87-3.14,4.81-6.82,5.82-11.05c0.39-2.88,0.77-5.76,1.16-8.64c-0.02-5.87-1.5-11.33-4.44-16.4
				c-1.69-2.19-3.39-4.39-5.08-6.58c-4.06-4.03-8.84-6.81-14.34-8.36c-21.68-4.25-43.58-5.2-65.57-3.73
				c-19.28,1.29-38.47,3.84-57.65,6.08c-39.23,4.57-78.46,9.14-117.69,13.71c-22.08,2.57-44.16,5.14-66.24,7.72
				c7.66,18.49,15.32,36.99,22.98,55.48c0.94-0.96,1.88-1.92,2.81-2.88c3.17-2.94,5.41-6.43,6.72-10.46
				c2.03-3.87,2.97-8.05,2.8-12.52c0.17-4.47-0.76-8.65-2.8-12.52c-1.31-4.03-3.55-7.52-6.72-10.46c-2.19-1.69-4.39-3.39-6.58-5.08
				c-5.07-2.94-10.54-4.42-16.4-4.44c-2.88,0.39-5.76,0.77-8.64,1.16C170.83,221.06,166.05,223.85,161.99,227.87L161.99,227.87z"/>
		</g>
	</g>
	<g>
		<g>
			<path class="st4" d="M237.89,285.96c33.64-1.13,67.29-2.26,100.93-3.38c33.09-1.11,66.18-2.53,99.28-3.25
				c17.8-0.39,35.66-0.2,53.33,2.14c-2.88-0.39-5.76-0.77-8.64-1.16c9.39,1.26,18.69,3.14,27.77,5.85
				c11.05,3.29,23.55-0.29,31.62-8.36c4.03-4.06,6.81-8.84,8.36-14.34c1.55-5.76,1.55-11.52,0-17.28c-2.51-10.88-4.51-21.86-6-32.92
				c0.39,2.88,0.77,5.76,1.16,8.64c-1.23-9.25-2.11-18.54-2.62-27.86c-21.67,0-43.33,0-65,0c1.88,15.08,3.76,30.16,5.64,45.23
				c-0.17,4.47,0.76,8.65,2.8,12.52c1.31,4.03,3.55,7.52,6.72,10.46c2.94,3.17,6.43,5.41,10.46,6.72c3.87,2.03,8.05,2.97,12.52,2.8
				c2.88-0.39,5.76-0.77,8.64-1.16c5.51-1.54,10.29-4.33,14.34-8.36c1.69-2.19,3.39-4.39,5.08-6.58c2.94-5.07,4.42-10.54,4.44-16.4
				c-1.88-15.08-3.76-30.16-5.64-45.23c0.17-4.47-0.76-8.65-2.8-12.52c-1.31-4.03-3.55-7.52-6.72-10.46
				c-2.94-3.17-6.43-5.41-10.46-6.72c-3.87-2.03-8.05-2.97-12.52-2.8c-2.88,0.39-5.76,0.77-8.64,1.16
				c-5.51,1.54-10.29,4.33-14.34,8.36c-1.69,2.19-3.39,4.39-5.08,6.58c-2.94,5.07-4.42,10.54-4.44,16.4
				c0.72,13.06,2.29,26,4.12,38.95c1.44,10.24,3.34,20.41,5.67,30.48c13.33-13.33,26.65-26.65,39.98-39.98
				c-8.41-2.5-17.01-4.31-25.69-5.56c-11.52-1.65-23-2.97-34.63-3.44c-17.85-0.72-35.72-0.01-53.57,0.59
				c-18.78,0.63-37.57,1.26-56.35,1.89c-18.78,0.63-37.57,1.26-56.35,1.89c-18.78,0.63-37.57,1.26-56.35,1.89
				c-2.34,0.08-4.67,0.16-7.01,0.24c-4.47-0.17-8.65,0.76-12.52,2.8c-4.03,1.31-7.52,3.55-10.46,6.72
				c-3.17,2.94-5.41,6.43-6.72,10.46c-2.03,3.87-2.97,8.05-2.8,12.52c0.39,2.88,0.77,5.76,1.16,8.64
				c1.54,5.51,4.33,10.29,8.36,14.34c2.19,1.69,4.39,3.39,6.58,5.08C226.56,284.46,232.02,285.94,237.89,285.96L237.89,285.96z"/>
		</g>
	</g>
	<g>
		<g>
			<path class="st4" d="M548.78,232.91c1.16-6.28,2.11-12.7,2.27-19.1c0.13-5.01-0.47-9.87-1.14-14.83
				c-0.67-4.95-1.35-9.81-2.77-14.61c-0.5-1.68-1.06-3.35-1.69-4.98c-1.64-4.25-3.4-8.48-5.36-12.6c-2.04-3.79-4.83-6.83-8.37-9.12
				c-3.14-2.87-6.82-4.81-11.05-5.82c-4.32-1.35-8.64-1.55-12.96-0.58c-4.33,0.2-8.35,1.48-12.08,3.86
				c-2.19,1.69-4.39,3.39-6.58,5.08c-4.03,4.06-6.81,8.84-8.36,14.34c-0.39,2.88-0.77,5.76-1.16,8.64c0.02,5.87,1.5,11.33,4.44,16.4
				c0.44,0.92,0.86,1.86,1.27,2.8c-1.09-2.59-2.18-5.18-3.28-7.76c2.33,5.54,3.9,11.35,4.7,17.31c-0.39-2.88-0.77-5.76-1.16-8.64
				c0.75,5.82,0.76,11.69,0,17.5c0.39-2.88,0.77-5.76,1.16-8.64c-0.16,1.16-0.34,2.31-0.56,3.47c-1.35,4.32-1.55,8.64-0.58,12.96
				c0.2,4.33,1.48,8.35,3.86,12.08c2.04,3.79,4.83,6.83,8.37,9.12c3.14,2.87,6.82,4.81,11.05,5.82c2.88,0.39,5.76,0.77,8.64,1.16
				c5.87-0.02,11.33-1.5,16.4-4.44c2.19-1.69,4.39-3.39,6.58-5.08C544.45,243.19,547.23,238.41,548.78,232.91L548.78,232.91z"/>
		</g>
	</g>
	<g>
		<g>
			<path class="st4" d="M540.4,84.52c-2.4-2.66-4.8-5.32-7.2-7.97c-0.34,2.62-0.67,5.24-1.01,7.85c-0.03,0.02,0.57-0.34,0.6-0.31
				c0.11,0.09-1.06,0.32-0.28,0.14c0.22-0.05,0.58-0.1,0.79-0.2c0.55-0.28-1,0.02-0.37,0.04c0.4,0.01,0.9,0.03,1.3-0.01
				c0.64-0.06-0.97-0.26-0.35-0.06c0.31,0.1,0.65,0.13,0.97,0.22c0.2,0.05,1.5,0.59,0.83,0.25c-0.66-0.33,0.01,0.02,0.18,0.11
				c0.25,0.13,0.51,0.27,0.75,0.42c0.32,0.19,1.54,0.77,0.41,0.2c0.42,0.21,0.84,0.72,1.16,1.04c0.2,0.21,0.39,0.43,0.59,0.63
				c0.38,0.39,0.34,0.06-0.13-0.2c0.29,0.16,0.58,0.86,0.75,1.15c0.27,0.46,0.5,0.95,0.72,1.44c-0.4-0.91-0.1-0.22-0.04-0.02
				c0.13,0.4,0.27,0.79,0.38,1.2c0.15,0.54,0.28,1.08,0.39,1.63c0.06,0.28,0.1,0.55,0.15,0.83c0.17,0.95,0.01,0.12,0-0.07
				c0.13,1.28,0.21,2.55,0.23,3.84c0.07,5.4-0.39,10.82-0.65,16.21c-0.27,5.69-0.54,11.38-0.81,17.07
				c-0.3,6.43-0.61,12.86-0.91,19.29c-0.12,2.62,2.39,5.12,5,5c2.82-0.13,4.87-2.2,5-5c0.59-12.37,1.17-24.73,1.76-37.1
				c0.28-5.83,0.91-11.78,0.54-17.61c-0.37-5.77-1.95-11.81-6.38-15.83c-4.79-4.35-11.7-6.18-17.59-2.91
				c-2.94,1.63-3.11,5.53-1.01,7.85c2.4,2.66,4.8,5.32,7.2,7.97c1.76,1.95,5.31,1.92,7.07,0C542.31,89.51,542.28,86.59,540.4,84.52
				L540.4,84.52z"/>
		</g>
	</g>
	<g>
		<g>
			<path class="st4" d="M186.81,84.47c-0.13-1.15-0.25-2.31-0.39-3.46c-0.16-1.33-0.3-2.45-1.13-3.52
				c-0.71-0.92-1.58-1.38-2.62-1.82c-1.98-0.84-4-1.27-6.15-1.4c-3.85-0.23-7.8,0.9-11.16,2.72c-7.65,4.15-11.71,12.31-12.06,20.81
				c-0.2,4.79,0.79,9.72,2.63,14.13c0.52,1.26,1.07,2.27,2.3,2.99c1.07,0.63,2.65,0.89,3.85,0.5c2.6-0.84,4.21-3.44,3.49-6.15
				c-0.65-2.46-1.2-4.94-1.62-7.45c-0.11-0.63-0.2-1.25-0.3-1.88c-0.17-1.1,0.06,0.65-0.07-0.56c-0.14-1.26-0.28-2.53-0.37-3.79
				c-0.17-2.35-0.27-4.73-0.21-7.09c0-0.28,0.02-0.56,0.03-0.84c0.05-0.59,0.04-0.56-0.03,0.08c0.05-0.27,0.12-0.54,0.2-0.81
				c-0.27,0.55-0.27,0.57,0,0.06c-0.47,0.56-0.52,0.64-0.15,0.24c-0.59,0.42-0.65,0.49-0.2,0.21c-0.39,0.25-0.82,0.35-1.29,0.32
				c0.87,0.03,0.44-0.12-1.29-0.43c1.29,0.55,2.44,0.89,3.85,0.5c1.16-0.32,2.42-1.22,2.99-2.3c1.14-2.15,0.77-5.74-1.79-6.84
				c-1.95-0.84-3.94-1.27-6.02-0.53c-1.94,0.69-3.69,1.98-4.73,3.78c-1.8,3.1-1.64,6.85-1.53,10.31c0.22,6.63,1.2,13.27,2.9,19.67
				c3.21-0.89,6.43-1.77,9.64-2.66c-0.79-1.9-1.43-3.86-1.85-5.87c-0.11-0.51-0.29-1.1-0.29-1.62c0.02,1.23,0-0.09-0.02-0.3
				c-0.1-1.09-0.15-2.18-0.12-3.27c0.01-0.41,0.03-0.81,0.06-1.22c0.02-0.3-0.01-1.98,0.05-0.68c-0.04-0.86,0.38-1.92,0.62-2.75
				c0.15-0.52,0.34-1.02,0.51-1.53c0.21-0.53,0.2-0.5-0.04,0.08c0.11-0.25,0.23-0.49,0.35-0.73c0.39-0.78,0.85-1.5,1.32-2.23
				c0.32-0.44,0.27-0.37-0.16,0.19c0.14-0.18,0.29-0.36,0.44-0.53c0.23-0.26,0.46-0.51,0.7-0.76c0.32-0.33,0.66-0.64,1.01-0.95
				c0.17-0.15,0.35-0.3,0.53-0.44c-0.56,0.42-0.62,0.48-0.19,0.15c0.68-0.44,1.34-0.89,2.05-1.27c0.35-0.18,0.85-0.54,1.24-0.6
				c-0.19,0.08-0.37,0.16-0.56,0.24c0.21-0.08,0.43-0.16,0.64-0.24c0.86-0.3,1.74-0.49,2.63-0.67c0.99-0.2-1.08,0.04,0.01,0.01
				c0.45-0.01,0.89-0.05,1.34-0.04c0.39,0.01,0.78,0.05,1.17,0.06c0.39,0.04,0.22,0.02-0.5-0.07c0.22,0.04,0.44,0.08,0.66,0.12
				c0.44,0.09,0.87,0.21,1.29,0.35c0.21,0.07,0.43,0.15,0.64,0.23c-0.67-0.29-0.75-0.32-0.26-0.1c-0.83-1.44-1.65-2.88-2.48-4.32
				c0.15,1.32,0.3,2.63,0.44,3.95c0.29,2.59,2.09,5.13,5,5C184.27,89.36,187.12,87.26,186.81,84.47L186.81,84.47z"/>
		</g>
	</g>
	<g>
		<g>
			<path class="st4" d="M164.66,79.14c-0.01,0.01-0.03,0.02-0.04,0.03c0.34-0.26,0.67-0.52,1.01-0.78
				c-0.08,0.06-0.17,0.11-0.26,0.15c0.4-0.17,0.8-0.34,1.19-0.5c-0.09,0.04-0.18,0.06-0.27,0.07c0.44-0.06,0.89-0.12,1.33-0.18
				c-0.12,0.02-0.23,0.01-0.35,0c0.44,0.06,0.89,0.12,1.33,0.18c-0.13-0.02-0.26-0.06-0.38-0.11c0.4,0.17,0.8,0.34,1.19,0.5
				c-0.16-0.07-0.3-0.15-0.44-0.26c0.34,0.26,0.67,0.52,1.01,0.78c-0.14-0.11-0.27-0.24-0.38-0.38c0.26,0.34,0.52,0.67,0.78,1.01
				c-0.1-0.13-0.19-0.28-0.26-0.44c0.17,0.4,0.34,0.8,0.5,1.19c-0.05-0.12-0.09-0.25-0.1-0.38c0.06,0.44,0.12,0.89,0.18,1.33
				c-0.01-0.11-0.01-0.22,0-0.32c-0.06,0.44-0.12,0.89-0.18,1.33c0.01-0.09,0.04-0.19,0.07-0.27c-0.17,0.4-0.34,0.8-0.5,1.19
				c0.04-0.09,0.09-0.18,0.15-0.26c-0.26,0.34-0.52,0.67-0.78,1.01c0-0.01,0.01-0.01,0.01-0.02c0.49-0.45,0.83-0.99,1.03-1.61
				c0.31-0.6,0.46-1.24,0.43-1.93c0.03-0.69-0.12-1.33-0.43-1.93c-0.2-0.62-0.55-1.16-1.03-1.61c-0.34-0.26-0.67-0.52-1.01-0.78
				c-0.78-0.45-1.62-0.68-2.52-0.68c-0.44,0.06-0.89,0.12-1.33,0.18c-0.85,0.24-1.58,0.67-2.21,1.29c-0.27,0.35-0.67,0.76-0.9,1.19
				c-0.24,0.44-0.43,0.91-0.58,1.38c-0.02,0.06-0.03,0.13-0.04,0.19c-0.02,0.14-0.2,1.05-0.19,1.52c0.01,0.51,0.11,1.02,0.2,1.52
				c0.01,0.07,0.03,0.14,0.06,0.21c0.01,0.04,0.03,0.07,0.04,0.11c0.17,0.42,0.34,0.85,0.53,1.26c0.03,0.07,0.07,0.14,0.12,0.21
				c0.3,0.48,0.65,0.94,1.05,1.35c0.05,0.05,0.11,0.1,0.16,0.15c0.38,0.32,0.77,0.63,1.18,0.91c0.06,0.04,0.12,0.08,0.19,0.11
				c0.44,0.23,0.92,0.41,1.38,0.59c0.07,0.03,0.13,0.05,0.2,0.06c0.03,0.01,0.06,0.01,0.1,0.02c0.23,0.04,0.55,0.08,0.71,0.1
				c0.21,0.03,0.49,0.08,0.73,0.1c0.08,0.01,0.16,0.01,0.24,0c0.5-0.04,1.04-0.07,1.53-0.22c1.2-0.35,1.67-0.74,2.62-1.51
				c0.49-0.45,0.83-0.99,1.03-1.61c0.31-0.6,0.46-1.24,0.43-1.93c0.03-0.69-0.12-1.33-0.43-1.93c-0.2-0.62-0.55-1.16-1.03-1.61
				c-0.34-0.26-0.67-0.52-1.01-0.78c-0.78-0.45-1.62-0.68-2.52-0.68c-0.44,0.06-0.89,0.12-1.33,0.18
				C166.02,78.09,165.29,78.52,164.66,79.14L164.66,79.14z"/>
		</g>
	</g>
	<g>
		<g>
			<path class="st4" d="M164.75,240.49c-0.74-2.56-1.36-5.14-1.84-7.76c-0.11-0.62-0.22-1.23-0.32-1.85
				c-0.05-0.31-0.1-0.62-0.14-0.93c-0.22-1.48,0.05,0.56-0.04-0.3c-0.15-1.32-0.3-2.64-0.4-3.97c-0.19-2.57-0.25-5.16-0.19-7.74
				c0.03-1.33,0.1-2.66,0.2-3.98c0.05-0.7,0.12-1.4,0.19-2.1c0.03-0.31,0.07-0.62,0.1-0.93c0.02-0.19,0.16-1.26,0.03-0.3
				c0.19-1.4,0.24-2.58-0.5-3.85c-0.61-1.04-1.8-2.03-2.99-2.3c-2.35-0.53-5.78,0.72-6.15,3.49c-1.59,11.8-0.91,23.71,2.41,35.18
				c0.73,2.51,3.56,4.33,6.15,3.49C163.81,245.82,165.53,243.18,164.75,240.49L164.75,240.49z"/>
		</g>
	</g>
	<g>
		<g>
			<path class="st4" d="M155.58,274.04c0,0.29,0,0.57-0.01,0.85c-0.01,0.16-0.09,0.95,0,0.18c0.11-0.83-0.05,0.17-0.09,0.34
				c-0.06,0.28-0.14,0.55-0.23,0.82c-0.05,0.16-0.37,0.83-0.04,0.2c0.37-0.7-0.1,0.19-0.17,0.33c-0.27,0.51-0.57,0.98-0.91,1.44
				c3.05,0.4,6.09,0.8,9.14,1.19c-1.06-5.6-2.12-11.19-3.18-16.79c-3.21,0.89-6.43,1.77-9.64,2.66c2.07,6.76,4.15,13.52,6.22,20.28
				c0.77,2.5,3.53,4.34,6.15,3.49c2.52-0.81,4.31-3.47,3.49-6.15c-2.07-6.76-4.15-13.52-6.22-20.28c-0.77-2.5-3.53-4.34-6.15-3.49
				c-2.75,0.89-4.01,3.39-3.49,6.15c1.06,5.6,2.12,11.19,3.18,16.79c0.36,1.92,2.35,3.34,4.16,3.58c2.11,0.28,3.77-0.72,4.98-2.39
				c1.91-2.64,2.85-6,2.82-9.23c-0.03-2.61-2.28-5.12-5-5C157.9,269.16,155.55,271.24,155.58,274.04L155.58,274.04z"/>
		</g>
	</g>
	<g>
		<g>
			<path class="st4" d="M154.18,288.64c16.32-1.92,32.63-3.83,48.95-5.75c2.59-0.3,5.13-2.08,5-5c-0.11-2.45-2.22-5.33-5-5
				c-16.32,1.92-32.63,3.83-48.95,5.75c-2.59,0.3-5.13,2.08-5,5C149.29,286.09,151.39,288.97,154.18,288.64L154.18,288.64z"/>
		</g>
	</g>
	<g>
		<g>
			<path class="st4" d="M190.39,291.13c17.44-1.38,34.81-3.95,51.89-7.75c4.81-1.07,9.6-2.24,14.37-3.51
				c2.53-0.67,4.32-3.6,3.49-6.15c-0.84-2.6-3.44-4.21-6.15-3.49c-8.21,2.17-16.48,4.07-24.82,5.67c-4.21,0.81-8.43,1.54-12.66,2.2
				c-2.08,0.32-4.16,0.63-6.24,0.92c-0.26,0.04-1.42,0.19-0.59,0.08c-0.48,0.06-0.96,0.13-1.44,0.19c-1.12,0.14-2.25,0.28-3.37,0.42
				c-4.82,0.57-9.64,1.05-14.48,1.43c-2.6,0.21-5.13,2.15-5,5C185.51,288.67,187.6,291.36,190.39,291.13L190.39,291.13z"/>
		</g>
	</g>
	<g>
		<g>
			<path class="st4" d="M533.82,285.02c2.19,2.72,5.99,3.38,9.24,2.79c3-0.54,5.77-2.75,7.12-5.46c1.52-3.06,1.78-6.3,1.16-9.63
				c-0.55-2.95-2.04-5.7-3.46-8.31c-1.25-2.3-4.62-3.22-6.84-1.79c-2.34,1.51-3.13,4.38-1.79,6.84c0.68,1.26,1.35,2.52,1.92,3.83
				c-0.17-0.4-0.34-0.8-0.5-1.19c0.54,1.28,0.96,2.6,1.15,3.98c-0.06-0.44-0.12-0.89-0.18-1.33c0.1,0.88,0.1,1.74-0.02,2.62
				c0.06-0.44,0.12-0.89,0.18-1.33c-0.11,0.72-0.29,1.41-0.57,2.08c0.17-0.4,0.34-0.8,0.5-1.19c-0.23,0.52-0.51,1.01-0.85,1.47
				c0.26-0.34,0.52-0.67,0.78-1.01c-0.3,0.38-0.63,0.73-1.01,1.04c0.34-0.26,0.67-0.52,1.01-0.78c-0.36,0.27-0.74,0.49-1.15,0.67
				c0.4-0.17,0.8-0.34,1.19-0.5c-0.48,0.19-0.97,0.32-1.48,0.4c0.44-0.06,0.89-0.12,1.33-0.18c-0.45,0.05-0.88,0.05-1.33,0.01
				c0.44,0.06,0.89,0.12,1.33,0.18c-0.44-0.06-0.85-0.16-1.26-0.32c0.4,0.17,0.8,0.34,1.19,0.5c-0.34-0.15-0.65-0.33-0.95-0.55
				c0.34,0.26,0.67,0.52,1.01,0.78c-0.24-0.2-0.46-0.42-0.65-0.66c-0.75-0.93-2.39-1.46-3.54-1.46c-1.23,0-2.69,0.54-3.54,1.46
				c-0.87,0.95-1.52,2.2-1.46,3.54C532.42,282.89,532.94,283.93,533.82,285.02L533.82,285.02z"/>
		</g>
	</g>
	<g>
		<g>
			<path class="st4" d="M532.52,276.94c-1.32,0-2.63,0-3.95,0c-0.69-0.03-1.33,0.12-1.93,0.43c-0.62,0.2-1.16,0.55-1.61,1.03
				c-0.49,0.45-0.83,0.99-1.03,1.61c-0.31,0.6-0.46,1.24-0.43,1.93c0.06,0.44,0.12,0.89,0.18,1.33c0.24,0.85,0.67,1.58,1.29,2.21
				c0.34,0.26,0.67,0.52,1.01,0.78c0.78,0.45,1.62,0.68,2.52,0.68c1.32,0,2.63,0,3.95,0c0.69,0.03,1.33-0.12,1.93-0.43
				c0.62-0.2,1.16-0.55,1.61-1.03c0.49-0.45,0.83-0.99,1.03-1.61c0.31-0.6,0.46-1.24,0.43-1.93c-0.06-0.44-0.12-0.89-0.18-1.33
				c-0.24-0.85-0.67-1.58-1.29-2.21c-0.34-0.26-0.67-0.52-1.01-0.78C534.26,277.17,533.42,276.95,532.52,276.94L532.52,276.94z"/>
		</g>
	</g>
	<g>
		<g>
			<path class="st4" d="M255.23,287.42c32.01-0.57,64.02-1.61,96-3.15c31.82-1.52,63.61-3.53,95.36-6.01
				c17.86-1.39,35.71-2.94,53.55-4.64c2.6-0.25,5.13-2.12,5-5c-0.11-2.5-2.21-5.27-5-5c-31.87,3.03-63.79,5.58-95.74,7.65
				c-31.79,2.06-63.6,3.64-95.43,4.74c-17.91,0.62-35.82,1.09-53.73,1.4c-2.61,0.05-5.12,2.27-5,5
				C250.35,285.09,252.43,287.47,255.23,287.42L255.23,287.42z"/>
		</g>
	</g>
	<g>
		<g>
			<path class="st4" d="M344.13,290.6c5.28-0.84,10.57-1.64,15.86-2.4c2.69-0.39,5.37-0.76,8.06-1.13c0.24-0.03,0.49-0.07,0.73-0.1
				c0.84-0.11-0.7,0.09,0.14-0.02c0.65-0.09,1.3-0.17,1.96-0.26c1.39-0.18,2.77-0.36,4.16-0.54c10.53-1.34,21.07-2.53,31.63-3.55
				c21.2-2.05,42.47-3.46,63.76-4.22c12-0.43,24.01-0.65,36.02-0.66c2.62,0,5.12-2.3,5-5c-0.12-2.71-2.2-5-5-5
				c-21.47,0.03-42.93,0.71-64.36,2.06c-21.34,1.34-42.65,3.33-63.87,5.97c-12.28,1.53-24.53,3.26-36.75,5.2
				c-2.59,0.41-4.26,3.78-3.49,6.15C338.89,289.92,341.35,291.04,344.13,290.6L344.13,290.6z"/>
		</g>
	</g>
	<g>
		<g>
			<path class="st4" d="M387.17,289c17.85-0.08,35.69-0.01,53.54,0.22c17.84,0.23,35.69,0.61,53.53,1.14
				c10.12,0.3,20.24,0.66,30.36,1.06c2.62,0.1,5.12-2.37,5-5c-0.13-2.8-2.2-4.89-5-5c-17.83-0.71-35.67-1.26-53.51-1.67
				c-17.84-0.4-35.69-0.65-53.53-0.74c-10.13-0.05-20.25-0.06-30.38-0.01c-2.61,0.01-5.12,2.29-5,5
				C382.29,286.7,384.37,289.01,387.17,289L387.17,289z"/>
		</g>
	</g>
	<g>
		<g>
			<path class="st4" d="M459.85,282.99c8.95,0,17.9,0,26.86,0c2.62,0,5.12-2.3,5-5c-0.12-2.71-2.2-5-5-5c-8.95,0-17.9,0-26.86,0
				c-2.62,0-5.12,2.3-5,5C454.97,280.7,457.04,282.99,459.85,282.99L459.85,282.99z"/>
		</g>
	</g>
	<g>
		<g>
			<path class="st4" d="M452.76,258.11c-5.03-4.02-9.6-8.59-13.63-13.6c-0.23-0.29-0.46-0.59-0.7-0.88
				c-0.35-0.44,0.19,0.25,0.21,0.27c-0.13-0.13-0.23-0.3-0.34-0.45c-0.49-0.65-0.97-1.3-1.45-1.96c-0.95-1.32-1.86-2.66-2.73-4.03
				c-1.72-2.68-3.3-5.45-4.74-8.3c-0.73-1.45-1.43-2.92-2.09-4.4c-0.15-0.34-0.3-0.69-0.45-1.03c-0.23-0.52,0.12,0.31,0.14,0.33
				c-0.1-0.14-0.15-0.37-0.22-0.52c-0.31-0.75-0.61-1.51-0.9-2.27c-1.16-3.04-2.17-6.13-3.02-9.27c-0.83-3.08-1.51-6.2-2.03-9.34
				c-0.12-0.74-0.23-1.48-0.34-2.22c-0.09-0.58,0.05,0.38,0.05,0.4c0.02-0.17-0.05-0.39-0.07-0.56c-0.06-0.5-0.12-0.99-0.17-1.49
				c-0.17-1.55-0.3-3.11-0.38-4.67c-0.21-3.61-0.2-7.24,0.03-10.85c0.11-1.75,0.28-3.48,0.49-5.22c0.01-0.13,0.1-0.77,0.01-0.08
				c-0.09,0.72,0.02-0.13,0.04-0.26c0.07-0.49,0.15-0.99,0.23-1.48c0.15-0.93,0.32-1.85,0.5-2.77c0.5-2.56-0.72-5.52-3.49-6.15
				c-2.47-0.56-5.62,0.75-6.15,3.49c-2.65,13.62-2.27,27.64,0.95,41.13c3.14,13.14,9,25.79,17.16,36.56
				c4.69,6.18,9.96,11.82,16.03,16.68c2.04,1.63,5.11,2.14,7.07,0C454.42,263.37,454.94,259.86,452.76,258.11L452.76,258.11z"/>
		</g>
	</g>
</g>
<g id="Layer_1">
	<path class="st5" d="M551.17,288.13H150.72V90.48c0-9.12,7.39-16.51,16.51-16.51h366.78c9.48,0,17.16,7.68,17.16,17.16V288.13z"/>
	<line class="st5" x1="150.72" y1="288.13" x2="105.68" y2="405.05"/>
	<line class="st5" x1="551.17" y1="288.13" x2="617.16" y2="405.05"/>
	<line class="st5" x1="105.68" y1="405.05" x2="617.16" y2="405.05"/>
</g>
<g id="Layer_2">
	<g>
		<g>
			<path class="st1" d="M612.83,405.82c0.11,0.53,0.46,1.11,0.85,1.47c0.17,0.16,0.39,0.33,0.59,0.45c0.03,0.02,0.07,0.04,0.1,0.06
				c0.21,0.11,0.46,0.21,0.68,0.29c0.05,0.02,0.1,0.03,0.14,0.04c0.66,0.14,1.13,0.14,1.79,0c0.04-0.01,0.08-0.02,0.12-0.03
				c0.23-0.08,0.48-0.18,0.7-0.29c0.04-0.02,0.07-0.04,0.11-0.06c0.21-0.14,0.42-0.3,0.6-0.46c0.22-0.19,0.39-0.44,0.54-0.69
				c0.03-0.04,0.05-0.09,0.08-0.14c0.11-0.24,0.23-0.49,0.31-0.75c0.19-0.66,0.15-1.26,0.03-1.93c-0.07-0.43-0.26-0.85-0.48-1.22
				c-0.16-0.27-0.36-0.51-0.56-0.74c-0.09-0.1-0.19-0.2-0.29-0.28c-0.38-0.32-0.77-0.62-1.21-0.83c-0.46-0.22-0.94-0.41-1.42-0.59
				c-0.33-0.1-0.66-0.12-1-0.04c-0.33,0.02-0.64,0.11-0.93,0.3c-0.29,0.16-0.53,0.37-0.7,0.64c-0.22,0.24-0.37,0.52-0.45,0.85
				c-0.15,0.64-0.11,1.36,0.25,1.93c0.13,0.17,0.26,0.34,0.39,0.51c0.31,0.31,0.68,0.52,1.1,0.64c0.18,0.07,0.35,0.13,0.52,0.21
				c-0.2-0.08-0.4-0.17-0.6-0.25c0.33,0.14,0.65,0.3,0.93,0.52c-0.17-0.13-0.34-0.26-0.51-0.39c0.15,0.12,0.29,0.25,0.41,0.41
				c-0.13-0.17-0.26-0.34-0.39-0.51c0.09,0.12,0.17,0.26,0.23,0.4c-0.08-0.2-0.17-0.4-0.25-0.6c0.06,0.14,0.1,0.29,0.12,0.44
				c-0.03-0.22-0.06-0.44-0.09-0.66c0.01,0.12,0.02,0.24,0,0.36c0.03-0.22,0.06-0.44,0.09-0.66c-0.01,0.11-0.04,0.21-0.08,0.31
				c0.08-0.2,0.17-0.4,0.25-0.6c-0.04,0.09-0.08,0.17-0.14,0.24c0.13-0.17,0.26-0.34,0.39-0.51c-0.05,0.06-0.09,0.11-0.15,0.15
				c0.17-0.13,0.34-0.26,0.51-0.39c-0.06,0.04-0.12,0.08-0.18,0.11c0.2-0.08,0.4-0.17,0.6-0.25c-0.09,0.04-0.17,0.06-0.27,0.07
				c0.22-0.03,0.44-0.06,0.66-0.09c-0.1,0.01-0.2,0.01-0.31,0c0.22,0.03,0.44,0.06,0.66,0.09c-0.09-0.01-0.18-0.04-0.26-0.07
				c0.2,0.08,0.4,0.17,0.6,0.25c-0.06-0.03-0.12-0.06-0.18-0.1c0.17,0.13,0.34,0.26,0.51,0.39c-0.05-0.04-0.1-0.09-0.14-0.14
				c0.13,0.17,0.26,0.34,0.39,0.51c-0.03-0.04-0.05-0.08-0.07-0.12c0.08,0.2,0.17,0.4,0.25,0.6c-0.02-0.05-0.03-0.09-0.04-0.14
				c-0.08-0.33-0.23-0.61-0.45-0.85c-0.18-0.27-0.41-0.49-0.7-0.64c-0.29-0.18-0.6-0.28-0.93-0.3c-0.33-0.07-0.66-0.06-1,0.04
				c-0.6,0.2-1.19,0.57-1.49,1.15c-0.08,0.2-0.17,0.4-0.25,0.6C612.71,404.93,612.71,405.38,612.83,405.82L612.83,405.82z"/>
		</g>
	</g>
	<g>
		<g>
			<path class="st1" d="M106.76,401.78c-0.08-0.01-0.16-0.01-0.24,0c-0.25,0.03-0.51,0.05-0.75,0.11c-0.04,0.01-0.08,0.02-0.11,0.04
				c-0.23,0.08-0.46,0.18-0.68,0.29c-0.04,0.02-0.07,0.04-0.1,0.06c-0.24,0.15-0.47,0.33-0.67,0.52c-0.03,0.02-0.05,0.05-0.07,0.08
				c-0.16,0.18-0.31,0.38-0.45,0.58c-0.11,0.15-0.16,0.33-0.23,0.49c-0.07,0.17-0.16,0.33-0.19,0.51c-0.04,0.22-0.07,0.48-0.09,0.7
				c0,0.02,0,0.03,0,0.05c0,0.04,0,0.09,0,0.13c0.83-0.83,1.67-1.67,2.5-2.5c-0.21-0.01-0.43-0.02-0.64-0.03
				c0.22,1.64,0.44,3.27,0.66,4.91c0.02-0.01,0.04-0.01,0.06-0.02c-0.22,0.03-0.44,0.06-0.66,0.09c0.01,0,0.03,0,0.04,0
				c-0.22-0.03-0.44-0.06-0.66-0.09c0.02,0,0.04,0.01,0.06,0.02c-0.2-0.08-0.4-0.17-0.6-0.25c0.03,0.01,0.05,0.03,0.08,0.04
				c-0.17-0.13-0.34-0.26-0.51-0.39c0.02,0.02,0.03,0.03,0.05,0.05c-0.13-0.17-0.26-0.34-0.39-0.51c0.02,0.02,0.03,0.05,0.05,0.08
				c-0.08-0.2-0.17-0.4-0.25-0.6c0.01,0.02,0.01,0.04,0.02,0.06c-0.03-0.22-0.06-0.44-0.09-0.66c0,0.02,0,0.04,0,0.06
				c0.03-0.22,0.06-0.44,0.09-0.66c0,0.01-0.01,0.03-0.01,0.04c0.08-0.2,0.17-0.4,0.25-0.6c-0.01,0.02-0.02,0.04-0.03,0.05
				c0.13-0.17,0.26-0.34,0.39-0.51c-0.01,0.01-0.02,0.03-0.04,0.04c0.17-0.13,0.34-0.26,0.51-0.39c-0.02,0.01-0.03,0.02-0.05,0.03
				c0.2-0.08,0.4-0.17,0.6-0.25c-0.02,0.01-0.05,0.02-0.07,0.02c0.22-0.03,0.44-0.06,0.66-0.09c-0.03,0-0.06,0-0.09,0
				c0.22,0.03,0.44,0.06,0.66,0.09c-0.03,0-0.05-0.01-0.07-0.02c0.2,0.08,0.4,0.17,0.6,0.25c-0.02-0.01-0.04-0.02-0.06-0.04
				c0.17,0.13,0.34,0.26,0.51,0.39c-0.01-0.01-0.03-0.02-0.04-0.04c0.13,0.17,0.26,0.34,0.39,0.51c-0.01-0.02-0.02-0.03-0.03-0.05
				c0.08,0.2,0.17,0.4,0.25,0.6c-0.01-0.01-0.01-0.02-0.01-0.04c-0.08-0.33-0.23-0.61-0.45-0.85c-0.18-0.27-0.41-0.49-0.7-0.64
				c-0.29-0.18-0.6-0.28-0.93-0.3c-0.33-0.07-0.66-0.06-1,0.04c-0.2,0.08-0.4,0.17-0.6,0.25c-0.38,0.22-0.67,0.52-0.9,0.9
				c-0.08,0.2-0.17,0.4-0.25,0.6c-0.12,0.44-0.12,0.89,0,1.33c0.03,0.11,0.11,0.26,0.14,0.33c0.06,0.15,0.08,0.22,0.14,0.33
				c0.11,0.21,0.27,0.4,0.44,0.56c0.17,0.13,0.34,0.26,0.51,0.39c0.01,0.01,0.01,0.01,0.02,0.02c0.01,0.01,0.03,0.01,0.04,0.02
				c0.2,0.08,0.4,0.17,0.6,0.25c0.01,0,0.01,0,0.02,0.01c0.02,0.01,0.04,0.01,0.06,0.01c0.22,0.03,0.44,0.06,0.66,0.09
				c0.01,0,0.01,0,0.02,0c0.02,0,0.03,0,0.05,0c0.01,0,0.02,0,0.03,0c0.22-0.03,0.44-0.06,0.66-0.09c0.02,0,0.03-0.01,0.05-0.01
				c0.01,0,0.02-0.01,0.03-0.01c0.2-0.08,0.4-0.17,0.6-0.25c0.01-0.01,0.03-0.01,0.04-0.02c0.09-0.06,0.18-0.13,0.26-0.2
				c0.09-0.07,0.18-0.13,0.27-0.21c0.08-0.08,0.17-0.22,0.22-0.28c0.06-0.07,0.16-0.18,0.22-0.29c0-0.01,0.01-0.01,0.01-0.02
				c0.08-0.2,0.17-0.4,0.25-0.6c0.03-0.13,0.03-0.2,0.06-0.37c0.02-0.12,0.05-0.25,0.05-0.38c-0.01-0.12-0.03-0.24-0.05-0.35
				c-0.01-0.12-0.02-0.23-0.05-0.34c0-0.02-0.01-0.03-0.02-0.05c-0.08-0.2-0.17-0.4-0.25-0.6c0-0.01-0.01-0.02-0.01-0.03
				c-0.01-0.02-0.02-0.03-0.03-0.05c-0.12-0.17-0.28-0.38-0.41-0.53c-0.01-0.01-0.01-0.01-0.02-0.02c-0.16-0.14-0.34-0.27-0.51-0.4
				c-0.19-0.13-0.55-0.26-0.67-0.3c-0.01,0-0.03-0.01-0.04-0.01c-0.12-0.02-0.24-0.04-0.35-0.05c-0.11-0.02-0.23-0.04-0.34-0.05
				c-0.01,0-0.02,0-0.03,0c-0.22,0.03-0.44,0.06-0.66,0.09c-0.02,0-0.04,0.01-0.06,0.02c-0.33,0.08-0.61,0.23-0.85,0.45
				c-0.27,0.18-0.49,0.41-0.64,0.7c-0.08,0.2-0.17,0.4-0.25,0.6c-0.1,0.33-0.12,0.66-0.04,1c0,0.23,0.06,0.44,0.17,0.63
				c0.1,0.31,0.27,0.58,0.52,0.8c0.17,0.13,0.34,0.26,0.51,0.39c0.39,0.23,0.81,0.34,1.26,0.34c0.21,0.01,0.43,0.02,0.64,0.03
				c0.34,0.01,0.67-0.06,0.96-0.22c0.31-0.1,0.58-0.27,0.8-0.52c0.13-0.17,0.26-0.34,0.39-0.51c0.23-0.39,0.34-0.81,0.34-1.26
				c-0.01-0.07-0.01-0.14,0-0.21c-0.03,0.22-0.06,0.44-0.09,0.66c0.01-0.08,0.03-0.15,0.06-0.23c-0.08,0.2-0.17,0.4-0.25,0.6
				c0.04-0.08,0.08-0.16,0.13-0.23c-0.13,0.17-0.26,0.34-0.39,0.51c0.06-0.08,0.13-0.14,0.21-0.2c-0.17,0.13-0.34,0.26-0.51,0.39
				c0.07-0.05,0.15-0.1,0.23-0.13c-0.2,0.08-0.4,0.17-0.6,0.25c0.07-0.03,0.15-0.05,0.23-0.06c-0.22,0.03-0.44,0.06-0.66,0.09
				c0.08-0.01,0.16-0.01,0.24,0c0.34,0.01,0.67-0.06,0.96-0.22c0.31-0.1,0.58-0.27,0.8-0.52c0.24-0.23,0.42-0.49,0.52-0.8
				c0.16-0.3,0.23-0.62,0.22-0.96c-0.03-0.22-0.06-0.44-0.09-0.66c-0.12-0.42-0.33-0.79-0.64-1.1c-0.17-0.13-0.34-0.26-0.51-0.39
				C107.64,401.89,107.22,401.78,106.76,401.78L106.76,401.78z"/>
		</g>
	</g>
</g>
<g id="Layer_6">
	<g>
		<g>
			<path class="st6" d="M429.79,120.88c5.42,21.51,12.24,42.67,20.43,63.29c2.36,5.94,4.83,11.84,7.41,17.7
				c0.54,1.24,2.35,1.52,3.42,0.9c1.27-0.75,1.44-2.18,0.9-3.42c-8.84-20.11-16.35-40.81-22.48-61.9
				c-1.73-5.93-3.34-11.9-4.85-17.89C433.83,116.43,429,117.75,429.79,120.88L429.79,120.88z"/>
		</g>
	</g>
	<g>
		<g>
			<path class="st6" d="M431.38,121.31c18.84,9.23,37.25,19.35,55.14,30.32c5.06,3.11,10.08,6.28,15.06,9.52
				c2.7,1.76,5.21-2.57,2.52-4.32c-17.59-11.45-35.71-22.07-54.3-31.8c-5.26-2.75-10.56-5.43-15.89-8.05
				c-1.21-0.59-2.7-0.33-3.42,0.9C429.84,118.99,430.16,120.71,431.38,121.31L431.38,121.31z"/>
		</g>
	</g>
	<g>
		<g>
			<path class="st6" d="M463.61,199.17c-1.29-8.11,0.64-16.62,4.99-23.55c4.37-6.96,11.32-11.99,19.19-14.26
				c4.55-1.31,9.25-1.67,13.95-1.1c1.34,0.16,2.5-1.27,2.5-2.5c0-1.49-1.15-2.34-2.5-2.5c-9.28-1.12-19,1.35-26.69,6.64
				c-7.78,5.35-13.33,13.46-15.61,22.62c-1.31,5.25-1.49,10.64-0.64,15.98c0.21,1.33,1.88,2.08,3.08,1.75
				C463.28,201.85,463.82,200.51,463.61,199.17L463.61,199.17z"/>
		</g>
	</g>
	<g>
		<g>
			<path class="st6" d="M467.25,152.9c-5.34-5.46-10.68-10.93-16.02-16.39c-2.62-2.68-6.95-2.83-9.85-0.59
				c-1.24,0.96-2.33,2.33-2.69,3.9c-0.48,2.1-0.09,3.83,0.76,5.78c2.75,6.33,5.49,12.65,8.24,18.98c0.62,1.43,2.24,2.5,3.59,3.07
				c1.49,0.63,3.3,0.89,4.88,0.38c3.03-0.98,5.68-3.86,5.51-7.23c-0.72-13.67-6.5-26.85-16.42-36.36c-2.71-2.6-6.88-2.88-9.85-0.59
				c-2.81,2.17-4,6.53-1.93,9.68c9.4,14.31,24.13,24.93,40.86,28.83c3.13,0.73,6.89-0.45,8.47-3.45c0.62-1.18,0.96-2.45,1.02-3.79
				c0.08-1.7-0.86-4.19-2.2-5.3c-9.21-7.62-19.21-14.13-30.07-19.14c-1.88-0.87-3.71-1.32-5.78-0.76c-1.74,0.48-3.62,1.82-4.48,3.45
				c-1.75,3.3-1.11,8.51,2.69,10.26c5.06,2.33,9.96,4.97,14.68,7.93c2.33,1.46,4.61,2.99,6.83,4.59c1.08,0.78,2.14,1.59,3.22,2.39
				c-1.87-1.39,0.16,0.13,0.58,0.48c0.58,0.46,1.15,0.93,1.72,1.41c2.43-4.18,4.86-8.36,7.3-12.54c-3.28-0.77-6.48-1.81-9.59-3.11
				c0.6,0.25,1.19,0.5,1.79,0.76c-2.62-1.12-5.17-2.4-7.61-3.87c-1.22-0.74-2.41-1.51-3.58-2.33c-0.34-0.24-1.77-0.98-1.88-1.38
				c0.07,0.24,1.52,1.19,0.45,0.34c-0.3-0.24-0.61-0.49-0.9-0.74c-2.19-1.82-4.26-3.79-6.17-5.9c-0.48-0.53-0.95-1.06-1.4-1.61
				c-0.25-0.3-0.5-0.6-0.74-0.9c-0.19-0.23-0.93-1.19-0.14-0.16c0.8,1.04,0.06,0.07-0.12-0.17c-0.23-0.31-0.46-0.63-0.69-0.94
				c-0.45-0.63-0.89-1.28-1.31-1.93c-3.93,3.03-7.85,6.06-11.78,9.09c1.11,1.07,2.18,2.18,3.18,3.35c0.26,0.31,0.52,0.61,0.77,0.93
				c0.78,0.96,0.04-0.12-0.3-0.41c0.57,0.47,0.99,1.35,1.41,1.96c1.74,2.55,3.2,5.28,4.41,8.11c-0.25-0.6-0.5-1.19-0.76-1.79
				c1.61,3.85,2.7,7.86,3.26,11.99c-0.09-0.66-0.18-1.33-0.27-1.99c0.15,1.2,0.26,2.4,0.32,3.6c4.66-1.26,9.32-2.52,13.98-3.79
				c-2.75-6.33-5.49-12.65-8.24-18.98c-3.93,3.03-7.85,6.06-11.78,9.09c5.34,5.46,10.68,10.93,16.02,16.39
				c2.75,2.81,7.89,2.96,10.61,0C470.02,160.48,470.18,155.89,467.25,152.9L467.25,152.9z"/>
		</g>
	</g>
	<g>
		<g>
			<path class="st6" d="M462.62,163.66c-0.14-0.09-0.27-0.19-0.4-0.29c0.51,0.39,1.01,0.78,1.52,1.17
				c-0.25-0.22-0.48-0.45-0.69-0.71c0.39,0.51,0.78,1.01,1.17,1.52c-0.25-0.34-0.45-0.69-0.63-1.07c0.25,0.6,0.5,1.19,0.76,1.79
				c-0.15-0.39-0.26-0.78-0.33-1.19c0.09,0.66,0.18,1.33,0.27,1.99c-0.05-0.42-0.05-0.82,0-1.24c-0.09,0.66-0.18,1.33-0.27,1.99
				c0.01-0.08,0.03-0.16,0.04-0.25c0.34-1.94,0.37-4.04-0.76-5.78c-0.9-1.39-2.05-2.42-3.59-3.07c-1.49-0.63-3.3-0.89-4.88-0.38
				c-0.6,0.25-1.19,0.5-1.79,0.76c-1.13,0.67-2.02,1.56-2.69,2.69c-0.27,0.35-0.41,0.84-0.58,1.23c-0.41,0.98-0.66,1.99-0.68,3.08
				c-0.02,1.47,0.43,3.1,1.16,4.36c1.56,2.7,4.37,4.31,7.45,4.46c3.37,0.17,6.07-1.78,8.76-3.5c3.91-2.5,7.82-5,11.74-7.5
				c1.63-1.04,2.93-2.59,3.45-4.48c0.49-1.8,0.27-4.19-0.76-5.78c-1.03-1.6-2.57-3.01-4.48-3.45c-1.92-0.44-4.07-0.34-5.78,0.76
				c-2.59,1.66-5.18,3.31-7.78,4.97c-1.27,0.81-2.54,1.62-3.81,2.44c-1.24,0.79-2.46,1.7-3.78,2.34c0.6-0.25,1.19-0.5,1.79-0.76
				c-0.27,0.11-0.51,0.18-0.8,0.24c0.66-0.09,1.33-0.18,1.99-0.27c-0.18,0.02-0.37,0.02-0.55-0.01c0.66,0.09,1.33,0.18,1.99,0.27
				c-0.07-0.02-0.14-0.04-0.2-0.05c0.6,0.25,1.19,0.5,1.79,0.76c-0.13-0.05-0.26-0.12-0.37-0.21c0.51,0.39,1.01,0.78,1.52,1.17
				c-0.11-0.09-0.21-0.19-0.29-0.31c0.39,0.51,0.78,1.01,1.17,1.52c-0.08-0.11-0.15-0.24-0.19-0.37c0.25,0.6,0.5,1.19,0.76,1.79
				c-0.02-0.06-0.03-0.13-0.05-0.19c0.09,0.66,0.18,1.33,0.27,1.99c0-0.06-0.01-0.13-0.01-0.19c-0.09,0.66-0.18,1.33-0.27,1.99
				c0.01-0.06,0.02-0.12,0.03-0.19c-0.25,0.6-0.5,1.19-0.76,1.79c0.04-0.13,0.1-0.24,0.2-0.34c-4.57-1.93-9.14-3.85-13.71-5.78
				c-0.2,1.17-0.42,2.3-0.31,3.48c0.15,1.64,0.37,2.64,0.98,4.08c1.02,2.42,2.62,4.18,4.79,5.66c1.55,1.05,4.03,1.24,5.78,0.76
				c1.74-0.48,3.62-1.82,4.48-3.45c0.92-1.74,1.38-3.85,0.76-5.78C465.45,166.21,464.31,164.8,462.62,163.66L462.62,163.66z"/>
		</g>
	</g>
	<g>
		<g>
			<path class="st6" d="M456.35,175.05c1.15,3.66,1.54,7.53,1,11.34c1.21,0,2.41,0,3.62,0c-1.29-3.89-2.58-7.79-3.87-11.68
				c-0.53-1.59-3.3-1.97-3.62,0c-0.79,4.9,0.19,9.9,3.03,14.01c1.15,1.66,4.08,0.7,3.43-1.44c-1.28-4.2-2.57-8.41-3.85-12.61
				c-0.7-2.3-4.28-1.34-3.62,1c0.62,2.2,1.24,4.4,1.87,6.6c1.21-0.33,2.41-0.66,3.62-1c-2.22-5.78-4.44-11.55-6.65-17.33
				c-1.14,0.48-2.28,0.96-3.43,1.44c2.79,5.3,5.58,10.6,8.36,15.89c0.43,0.82,1.79,1.27,2.57,0.67c4.26-3.29,7.25-7.94,8.14-13.29
				c0.17-1-0.26-2.02-1.31-2.31c-0.9-0.25-2.14,0.31-2.31,1.31c-0.72,4.32-2.92,8.35-6.42,11.05c0.86,0.22,1.71,0.45,2.57,0.67
				c-2.79-5.3-5.58-10.6-8.36-15.89c-0.97-1.84-4.2-0.56-3.43,1.44c2.22,5.78,4.44,11.55,6.65,17.33c0.85,2.21,4.29,1.37,3.62-1
				c-0.62-2.2-1.24-4.4-1.87-6.6c-1.21,0.33-2.41,0.66-3.62,1c1.28,4.2,2.57,8.41,3.85,12.61c1.14-0.48,2.28-0.96,3.43-1.44
				c-2.23-3.24-3.28-7.2-2.65-11.12c-1.21,0-2.41,0-3.62,0c1.29,3.89,2.58,7.79,3.87,11.68c0.52,1.57,3.33,1.98,3.62,0
				c0.64-4.5,0.36-8.99-1-13.34C459.25,171.76,455.63,172.74,456.35,175.05L456.35,175.05z"/>
		</g>
	</g>
	<g>
		<g>
			<path class="st6" d="M476.73,148.95c3.8,3.75,8.71,6.36,13.96,7.31c0.33-1.21,0.66-2.41,1-3.62c-4.14-0.62-8.28-1.24-12.42-1.86
				c-1-0.15-2.02,0.25-2.31,1.31c-0.24,0.89,0.3,2.16,1.31,2.31c4.14,0.62,8.28,1.24,12.42,1.86c1,0.15,2.02-0.25,2.31-1.31
				c0.25-0.91-0.31-2.12-1.31-2.31c-4.73-0.86-8.93-3.01-12.31-6.35C477.66,144.6,475.01,147.25,476.73,148.95L476.73,148.95z"/>
		</g>
	</g>
	<g>
		<g>
			<path class="st6" d="M487.49,155.27c-3.69,0-7.37,0-11.06,0c-0.98,0-1.92,0.86-1.88,1.88c0.05,1.02,0.82,1.88,1.88,1.88
				c3.69,0,7.37,0,11.06,0c0.98,0,1.92-0.86,1.88-1.88C489.32,156.13,488.54,155.27,487.49,155.27L487.49,155.27z"/>
		</g>
	</g>
	<g>
		<g>
			<path class="st7" d="M436.15,129.64c5.79,13.69,11.59,27.38,17.38,41.07c0.4,0.94,1.77,1.13,2.57,0.67
				c0.97-0.55,1.07-1.64,0.67-2.57c-5.79-13.69-11.59-27.38-17.38-41.07c-0.4-0.94-1.77-1.13-2.57-0.67
				C435.85,127.62,435.75,128.71,436.15,129.64L436.15,129.64z"/>
		</g>
	</g>
	<rect x="173.14" y="104.17" class="st8" width="232.2" height="32.4"/>
	<rect x="173.14" y="152.36" class="st9" width="232.2" height="114.58"/>
</g>
</svg>
