<svg xmlns="http://www.w3.org/2000/svg" viewBox="0 0 96.6 460.76"><defs><style>.cls-1,.cls-7{fill:#f6a214;}.cls-1{stroke:#f6a214;}.cls-1,.cls-2,.cls-4,.cls-5,.cls-6,.cls-8{stroke-miterlimit:10;}.cls-2,.cls-3,.cls-6{fill:#1d1d1b;}.cls-2,.cls-4,.cls-5,.cls-6,.cls-8{stroke:#1d1d1b;}.cls-2{stroke-width:0.5px;}.cls-4,.cls-5,.cls-8{fill:none;}.cls-4{stroke-width:12px;}.cls-5,.cls-6{stroke-width:4px;}.cls-8{stroke-width:5px;}</style></defs><g id="Layer_1" data-name="Layer 1"><circle class="cls-1" cx="47.85" cy="47.85" r="47.35"/><circle class="cls-1" cx="48.76" cy="169.54" r="47.35"/><circle class="cls-1" cx="47.85" cy="291.22" r="47.35"/><circle class="cls-1" cx="48.76" cy="412.91" r="47.35"/></g><g id="Layer_2" data-name="Layer 2"><circle class="cls-2" cx="34.04" cy="20.19" r="6.4"/><circle class="cls-2" cx="77.72" cy="48.21" r="6.4"/><path class="cls-3" d="M287,193.13a33.72,33.72,0,0,0,9.2,8c3.24,1.92,7.07,3.12,9.51,6.15,1,1.25,2.76-.53,1.76-1.77-2.44-3-6.18-4.36-9.47-6.23a31.61,31.61,0,0,1-9.23-8c-1-1.26-2.76.52-1.77,1.77Z" transform="translate(-253.88 -166.05)"/><path class="cls-3" d="M286.2,190.74c-3.89-1.12-7.25,1.23-10.23,3.42a15,15,0,0,1-10.72,3.22c-1.59-.17-1.58,2.34,0,2.5a16.25,16.25,0,0,0,10.51-2.54c2.85-1.85,6-5.28,9.77-4.19a1.25,1.25,0,0,0,.67-2.41Z" transform="translate(-253.88 -166.05)"/><path class="cls-3" d="M284.74,189.15q-2.16,4-4.19,8.11a79.62,79.62,0,0,0-3.84,8.15,4.5,4.5,0,0,0-.06,3.42,6,6,0,0,0,2.77,2.4l8.19,4.72a1.26,1.26,0,0,0,1.88-1.08,108,108,0,0,1,2.31-17.72c.33-1.57-2.08-2.24-2.41-.66a112.66,112.66,0,0,0-2.4,18.38l1.88-1.08-6.72-3.87-1.68-1c-.46-.27-1.2-.56-1.49-1-.59-1,.5-2.68.91-3.56q3.32-7,7-13.94c.76-1.41-1.4-2.68-2.16-1.26Z" transform="translate(-253.88 -166.05)"/><path class="cls-3" d="M275.5,206.65A65.42,65.42,0,0,0,274.08,236c.28,1.58,2.69.91,2.41-.66a62.63,62.63,0,0,1,1.42-28.06,1.25,1.25,0,0,0-2.41-.66Z" transform="translate(-253.88 -166.05)"/><path class="cls-3" d="M286.28,215.68A103.42,103.42,0,0,0,300.52,233c1.15,1.13,2.92-.64,1.77-1.77a100.28,100.28,0,0,1-13.85-16.83c-.88-1.35-3-.09-2.16,1.26Z" transform="translate(-253.88 -166.05)"/><path class="cls-3" d="M277.76,206.91a44.58,44.58,0,0,1,9.75-18c1.07-1.2-.69-3-1.77-1.77a47.45,47.45,0,0,0-10.39,19.13,1.25,1.25,0,0,0,2.41.66Z" transform="translate(-253.88 -166.05)"/><path class="cls-3" d="M278.74,208.29a7,7,0,0,1,5.85,4.29l1.53-1.54a20,20,0,0,1-7.06-5l-.89,2.14,3.28.08a4.87,4.87,0,0,0,2.7-.33c1.8-1.09.65-3.74.47-5.35-.21-1.81-.59-4.1.9-5.44,1.33-1.2,2.89-2.53,2.2-4.54a1.26,1.26,0,0,0-2.28-.3,63.89,63.89,0,0,0-3.74,6.34c-1,2-2.4,4.09-2.77,6.29-.81,4.75,3.78,7.26,7.46,8.78a1.28,1.28,0,0,0,1.54-.88,62.34,62.34,0,0,0,3-11.16c.57-3.41.57-7.33-2.27-9.79a1.26,1.26,0,0,0-2.13.89,73.45,73.45,0,0,1-1.34,17.32l2.45.33.41-16.48c0-1.37-2.22-1.75-2.45-.33L283.24,208h2.42a13.8,13.8,0,0,1,.17-7.46c.4-1.32-1.69-2.27-2.28-1a8,8,0,0,0-.58,2.78,6.28,6.28,0,0,1-.33,1.24.22.22,0,0,1-.12.09c-.09,0-.07.07.07.11-.07.27.52.14-.11.59l-1.71-1.71-.89,1.61a1.25,1.25,0,0,0,2.16,1.26l.89-1.61c.57-1-.64-2.47-1.71-1.71a2.19,2.19,0,0,0,1.34,4,3,3,0,0,0,2.46-1.74c.56-1.15.18-2.5.69-3.64l-2.29-1a16.46,16.46,0,0,0-.18,8.78c.29,1.13,2.21,1.25,2.42,0L288,194.26l-2.46-.33-.41,16.48c0,1.39,2.18,1.74,2.46.34a76.53,76.53,0,0,0,1.43-18l-2.13.88c2.55,2.21,1.92,5.88,1.35,8.82a64.1,64.1,0,0,1-2.73,9.7l1.54-.87c-3.13-1.3-6.95-3.39-5.22-7.34a64.72,64.72,0,0,1,5.76-10.4l-2.29-.3c.24.69-.48,1.2-.95,1.6a6.94,6.94,0,0,0-1.62,1.71,7.7,7.7,0,0,0-.76,4.36c0,.84.13,1.69.25,2.53a8.24,8.24,0,0,0,.41,2.37c0,.37,0,.36.19,0h-.65l-1.1,0-2.91-.07a1.26,1.26,0,0,0-.88,2.13,22.82,22.82,0,0,0,8.17,5.65,1.26,1.26,0,0,0,1.54-1.54,9.59,9.59,0,0,0-8.26-6.12c-1.61-.12-1.6,2.38,0,2.5Z" transform="translate(-253.88 -166.05)"/><path class="cls-3" d="M284.77,199.8a1.25,1.25,0,0,0,0-2.5,1.25,1.25,0,0,0,0,2.5Z" transform="translate(-253.88 -166.05)"/><path class="cls-3" d="M284.58,210.52a55.76,55.76,0,0,0,17.33,24.78,1.25,1.25,0,0,0,1.77-1.77l-2.35-3c-1-1.26-2.75.52-1.77,1.77l2.35,3,1.77-1.77A53.44,53.44,0,0,1,287,209.86c-.53-1.51-2.95-.86-2.41.66Z" transform="translate(-253.88 -166.05)"/><path class="cls-3" d="M275.7,223.33c.44-3,1-7.37,4.49-8.35,3.23-.91,5.57,3.17,7.24,5.25a86,86,0,0,0,15.14,14.63c1.28,1,2.53-1.19,1.26-2.16a82.7,82.7,0,0,1-9.26-8.18c-2.75-2.81-5.06-5.93-7.63-8.89-2.24-2.58-5.44-4.29-8.74-2.51-3.5,1.88-4.38,5.94-4.91,9.54-.23,1.57,2.18,2.25,2.41.67Z" transform="translate(-253.88 -166.05)"/><path class="cls-3" d="M279,211.42l.1-.91a1.24,1.24,0,0,0-.91-1.21,1.28,1.28,0,0,0-1.41.58,11.28,11.28,0,0,0-1.49,4.69,1.22,1.22,0,0,0,.76,1.14,1.26,1.26,0,0,0,1.37-.25,17.29,17.29,0,0,1,1.36-1.21c-.09.07-.09.07,0,0l.17-.13.39-.27c.25-.18.51-.34.77-.5a15.52,15.52,0,0,1,1.57-.81l.24-.11h0l.4-.16.91-.31a1.26,1.26,0,0,0,.88-1.53,1.29,1.29,0,0,0-1.54-.88c-.37.08-.73.14-1.1.2l-.3,0h-.1l-.55.06a21.81,21.81,0,0,1-2.29.11,1.28,1.28,0,0,0-1.25,1.25,1.26,1.26,0,0,0,1.25,1.25,25.4,25.4,0,0,0,5-.51l-.66-2.41a16.89,16.89,0,0,0-6.93,4.14l2.14.88a1.64,1.64,0,0,1,0-.22c0,.25,0,0,0-.06l.09-.51a8.36,8.36,0,0,1,.27-1,3.12,3.12,0,0,1,.15-.43s.11-.3.06-.17,0-.09.05-.11c.15-.32.31-.64.49-1l-2.33-.63-.1.91a1.26,1.26,0,0,0,1.25,1.25,1.29,1.29,0,0,0,1.25-1.25Z" transform="translate(-253.88 -166.05)"/><path class="cls-3" d="M262.6,199c2.68,2.59,6.68,2.83,10,1.58,3.8-1.42,6.75-4.25,10.18-6.32a1.25,1.25,0,0,0-1.26-2.15c-3,1.78-5.56,4.2-8.71,5.69-2.68,1.26-6.19,1.65-8.49-.57-1.16-1.12-2.93.65-1.77,1.77Z" transform="translate(-253.88 -166.05)"/><path class="cls-3" d="M290.45,198.92a67.49,67.49,0,0,1,9.47,5.47c2.71,1.89,5.29,4.44,8.68,5a1.25,1.25,0,0,0,.67-2.41,5.62,5.62,0,0,1-2.15-1.65c-1-1.23-2.8.54-1.77,1.77a8.27,8.27,0,0,0,3.25,2.29l.67-2.41c-3.24-.49-5.76-3.1-8.36-4.89a65,65,0,0,0-9.2-5.28c-1.45-.69-2.72,1.47-1.26,2.15Z" transform="translate(-253.88 -166.05)"/><path class="cls-3" d="M276.32,224.89c.36-2.94.8-6.58,3.38-8.49a4.08,4.08,0,0,1,3.83-.68,6.3,6.3,0,0,1,2.83,3,1.25,1.25,0,0,0,2.16-1.26,8.72,8.72,0,0,0-4.15-4.07,6.47,6.47,0,0,0-5.61.66c-3.73,2.29-4.45,6.88-4.94,10.86a1.26,1.26,0,0,0,1.25,1.25,1.28,1.28,0,0,0,1.25-1.25Z" transform="translate(-253.88 -166.05)"/><path class="cls-3" d="M273.57,224.56l.5,9.9a1.28,1.28,0,0,0,1.25,1.25,1.26,1.26,0,0,0,1.25-1.25l-.5-9.9a1.25,1.25,0,0,0-2.5,0Z" transform="translate(-253.88 -166.05)"/><path class="cls-3" d="M330.23,220.78c2.73.9,2.68,4.8,2.91,7.1l1,9.9a1.27,1.27,0,0,0,1.58,1.21l1.06-.32c1.54-.46.88-2.88-.66-2.41l-1.06.31,1.58,1.21c-.38-3.88-.75-7.75-1.14-11.63-.33-3.17-1.18-6.67-4.58-7.78-1.53-.5-2.19,1.91-.66,2.41Z" transform="translate(-253.88 -166.05)"/><path class="cls-3" d="M330.74,218.64a19.17,19.17,0,0,1-17-7.87c-.92-1.3-3.09-.05-2.16,1.27a21.68,21.68,0,0,0,19.14,9.1c1.59-.13,1.6-2.63,0-2.5Z" transform="translate(-253.88 -166.05)"/><path class="cls-3" d="M329.37,221.11a45.57,45.57,0,0,1,.91,9.75,9,9,0,0,1-.56,4,3.64,3.64,0,0,1-3.2,1.62,55.13,55.13,0,0,0-8.59,1,32,32,0,0,0-8.56,3.46,1.25,1.25,0,0,0,1.27,2.15,29.86,29.86,0,0,1,9.62-3.56,31.22,31.22,0,0,1,4.83-.46,12.08,12.08,0,0,0,4.18-.66c3-1.21,3.44-4.24,3.51-7.11a49,49,0,0,0-1-10.81c-.32-1.58-2.73-.91-2.41.66Z" transform="translate(-253.88 -166.05)"/><path class="cls-3" d="M331.37,231.06c-3.78-.09-7.31-2.32-11.14-1.3-3.39.9-5.61,3.88-7.53,6.6-.92,1.32,1.24,2.57,2.16,1.27,1.62-2.31,3.59-5.1,6.58-5.58a11.55,11.55,0,0,1,4.73.57,22.46,22.46,0,0,0,5.2.94,1.25,1.25,0,0,0,0-2.5Z" transform="translate(-253.88 -166.05)"/><path class="cls-3" d="M328.07,221.07a44,44,0,0,1-.66,9.45c-.28,1.48-.78,2.93-1,4.4-.22,1.25.2,2.79,1.7,2.89,1.73.11,2.29-1.52,2.41-2.94.15-1.64.28-3.28.42-4.91l.85-10c.14-1.61-2.36-1.6-2.5,0l-.68,8-.33,3.93-.17,2c0,.33-.05.65-.09,1,0,.13,0,.26,0,.39s-.09.3,0,.11h.66c.16.38.23.47.22.29v-.2a2.83,2.83,0,0,0,.19-.72c.17-.61.32-1.23.46-1.85.3-1.29.53-2.59.71-3.9a45.61,45.61,0,0,0,.4-7.92c-.06-1.6-2.56-1.61-2.5,0Z" transform="translate(-253.88 -166.05)"/><path class="cls-3" d="M326.39,235.14a28.4,28.4,0,0,0-20.64,8.48,1.26,1.26,0,0,0,1.21,2.09,9.43,9.43,0,0,0,5.25-3.87c.9-1.33-1.26-2.59-2.16-1.26a6.73,6.73,0,0,1-3.75,2.72l1.21,2.09a25.91,25.91,0,0,1,18.88-7.75,1.25,1.25,0,0,0,0-2.5Z" transform="translate(-253.88 -166.05)"/><path class="cls-3" d="M329.66,229.22c-3.67-1-7.6-1.86-11.24-.29a8.13,8.13,0,0,0-3.72,3.16c-.86,1.33-1.38,2.89-2.63,3.94s.55,2.8,1.77,1.77a11.49,11.49,0,0,0,2.46-3.5,6.51,6.51,0,0,1,2.89-3c3.09-1.49,6.69-.49,9.81.33a1.25,1.25,0,0,0,.66-2.41Z" transform="translate(-253.88 -166.05)"/><path class="cls-3" d="M312,212.71a22.82,22.82,0,0,0,7.41,6.3,21.82,21.82,0,0,0,6.82,2.31c.44.07.89.13,1.33.18a4.23,4.23,0,0,0,.5.05l.16,0c.26.09.18,0-.23-.38l.17-.63c.11-.22.35.05.09-.13a2.72,2.72,0,0,0-.65-.19q-.62-.19-1.2-.42a23.49,23.49,0,0,1-2.3-1,27,27,0,0,1-4.29-2.72,1.25,1.25,0,0,0-1.26,2.16,27.47,27.47,0,0,0,6.26,3.61,12.13,12.13,0,0,0,3.35,1.07,2.07,2.07,0,0,0,2.35-1.95,2.14,2.14,0,0,0-2.09-1.91c-1.05-.15-2.09-.25-3.12-.5a20.27,20.27,0,0,1-5.83-2.42,19.94,19.94,0,0,1-5.31-4.72,1.29,1.29,0,0,0-1.71-.45,1.27,1.27,0,0,0-.45,1.71Z" transform="translate(-253.88 -166.05)"/><path class="cls-3" d="M330,223.12a25.43,25.43,0,0,1,1.49,2.37c.22.4.43.8.62,1.21.11.22.21.44.31.66l.15.33.07.16c-.07-.16-.07-.17,0,0a1.39,1.39,0,0,0,.57.75,1.23,1.23,0,0,0,1.71-.45,1.16,1.16,0,0,0,.13-1,28.2,28.2,0,0,0-2.87-5.29,1.25,1.25,0,0,0-2.16,1.27Z" transform="translate(-253.88 -166.05)"/><path class="cls-3" d="M332.94,228.09a12.67,12.67,0,0,1,.59,1.93.62.62,0,0,0,1.2-.33,11.64,11.64,0,0,0-.59-1.93.67.67,0,0,0-.28-.38.63.63,0,0,0-.92.71Z" transform="translate(-253.88 -166.05)"/><path class="cls-3" d="M335.25,238.93a2.8,2.8,0,0,0,1.22-.07,2.61,2.61,0,0,0,1-.58,1.37,1.37,0,0,0,.37-.46.88.88,0,0,0-.14-1,1.43,1.43,0,0,0-.69-.33,3.17,3.17,0,0,0-.69-.08.63.63,0,1,0,0,1.25l.32,0-.17,0a1.76,1.76,0,0,1,.5.13l-.15-.06.11.05-.13-.09s0,0,0,0l-.1-.13,0,.05-.06-.15a.09.09,0,0,1,0,0l0-.16v.08l0-.17a.24.24,0,0,1,0,.08l.06-.15a.54.54,0,0,1-.07.13l.09-.13a1.38,1.38,0,0,1-.3.29l.13-.1a2,2,0,0,1-.44.26l.15-.06a2.64,2.64,0,0,1-.55.15l.17,0a2,2,0,0,1-.54,0l.17,0h0a.66.66,0,0,0-.48.07.6.6,0,0,0-.29.37.62.62,0,0,0,.06.48.59.59,0,0,0,.38.29Z" transform="translate(-253.88 -166.05)"/><path class="cls-3" d="M312.17,238.41a1.9,1.9,0,0,0,2.29-.35l-1-.61c0,.07,0,.07,0,0l-.06.09c.1-.14-.13.08,0,0l-.12.07-.13,0c-.07,0-.07,0,0,0h-.24c.06,0,0,0,0,0a3.36,3.36,0,0,1-.45-.14c-.07,0-.09,0,0,0l-.12-.06-.2-.08-.54-.25-1-.46-.32,1.16a6.07,6.07,0,0,0,4.11-2.05.64.64,0,0,0,0-.88.65.65,0,0,0-.89,0,5.29,5.29,0,0,1-.72.7c-.08.06.06,0,0,0l-.1.08-.2.13c-.15.1-.3.18-.45.26l-.22.11-.11.05h0l-.46.16-.51.12-.12,0h-.29a.64.64,0,0,0-.6.46.63.63,0,0,0,.29.71l1.26.57a7.15,7.15,0,0,0,1.28.52,1.77,1.77,0,0,0,2.22-1,.63.63,0,0,0-1.05-.6s-.18.16-.06.07l-.14.09c-.12.08.11,0,0,0l-.18,0h-.06s-.19,0,0,0l-.15,0c-.07,0-.07,0,0,0l-.09,0a.63.63,0,0,0-.63,1.08Z" transform="translate(-253.88 -166.05)"/><path class="cls-3" d="M310.46,241l-4.36,4.47a3.15,3.15,0,0,1-2.16,1.27,6.52,6.52,0,0,1-1.25-.09,2.31,2.31,0,0,0-.56-.11c-.15-.1-.16-.05,0,.14l.23-.14c3.47-2,7.06-3.78,10.66-5.5.73-.34.1-1.42-.63-1.08q-5.17,2.46-10.19,5.24c-.62.34-1.48.73-1.35,1.59s.88,1,1.51,1.06a6.41,6.41,0,0,0,2.39,0,4,4,0,0,0,2-1.24c1.56-1.57,3.09-3.17,4.63-4.76.56-.58-.32-1.46-.88-.88Z" transform="translate(-253.88 -166.05)"/><path class="cls-3" d="M304.43,247.88a2.7,2.7,0,0,1,1.32.08,2.17,2.17,0,0,0,1.31-.13,1.7,1.7,0,0,0,.83-1,6.86,6.86,0,0,1,.61-1.21c1.13-1.72,3-2.73,4.78-3.69.71-.38.08-1.46-.63-1.07a15,15,0,0,0-4.8,3.54,7.24,7.24,0,0,0-.75,1.14,5.58,5.58,0,0,0-.3.66,1.43,1.43,0,0,1-.21.45c-.25.23-.75.05-1,0a2.59,2.59,0,0,0-1.46,0c-.75.27-.43,1.48.33,1.2Z" transform="translate(-253.88 -166.05)"/><path class="cls-3" d="M302.27,247.37a8.58,8.58,0,0,0,4.55-1.05c.38-.21.79-.45.86-.92a1,1,0,0,0-.75-1.06,2.4,2.4,0,0,0-1.24.16,9.34,9.34,0,0,0-1.1.44,7.66,7.66,0,0,0-2,1.45c-.58.56.3,1.44.88.88a6.34,6.34,0,0,1,1.73-1.21,6,6,0,0,1,.94-.38,2.39,2.39,0,0,0,.46-.12c.11-.06.11.09,0-.07a.36.36,0,0,1,0-.44s0,0,0,0-.31.18-.47.26a5,5,0,0,1-.52.25,7.31,7.31,0,0,1-1,.34,7.19,7.19,0,0,1-2.22.21.63.63,0,0,0-.62.62.64.64,0,0,0,.62.63Z" transform="translate(-253.88 -166.05)"/><path class="cls-3" d="M303.78,247.72h1c.05,0,.05,0,0,0a.4.4,0,0,1-.23-.12l-.16-.27V247l.16-.27a.42.42,0,0,1,.26-.12h-.07a1.33,1.33,0,0,0-.2,0h-.43l-.83,0a.62.62,0,0,0-.62.62.64.64,0,0,0,.62.63,14,14,0,0,0,3.6,0,.63.63,0,0,0,.44-.77.65.65,0,0,0-.77-.44l-.13,0-.2,0-.43,0c-.27,0-.55,0-.82,0a13.57,13.57,0,0,1-1.69-.11v1.25l1.07,0c.41,0,.84.07,1.13-.3a.7.7,0,0,0-.05-.89.83.83,0,0,0-.61-.24c-.35,0-.71,0-1.06,0a.65.65,0,0,0-.63.63.64.64,0,0,0,.63.62Z" transform="translate(-253.88 -166.05)"/><path class="cls-3" d="M308.44,245.62c1.89-2.63,4.95-4,8-4.65a61.31,61.31,0,0,1,10.28-1.26c.8-.05.81-1.3,0-1.25a58.88,58.88,0,0,0-11.3,1.47,13.81,13.81,0,0,0-8.08,5.06c-.47.65.61,1.28,1.08.63Z" transform="translate(-253.88 -166.05)"/><path class="cls-3" d="M326.44,239.48a3.92,3.92,0,0,0,4.24-1.48,7.3,7.3,0,0,0,1.22-4.82c0-.8-1.28-.8-1.25,0a6.27,6.27,0,0,1-.88,3.95,2.67,2.67,0,0,1-3,1.14c-.77-.25-1.1.95-.34,1.21Z" transform="translate(-253.88 -166.05)"/><path class="cls-3" d="M326.81,232.3a4.21,4.21,0,0,1,0,.71c0,.14,0-.08,0,.07l0,.14c0,.11-.05.21-.08.32l-.06.16c-.06.18.05-.1,0,.07a3.18,3.18,0,0,1-.16.32l-.18.27s0,0,0,0l-.06.07-.12.13a2.29,2.29,0,0,1-.23.21l-.06.05-.14.1-.3.17-.13.07h0l-.08,0a3.58,3.58,0,0,1-.64.18H324a.63.63,0,0,0,0,1.25,3.88,3.88,0,0,0,4.1-4.31.63.63,0,0,0-.62-.62c-.31,0-.67.28-.63.62Z" transform="translate(-253.88 -166.05)"/><path class="cls-3" d="M314.26,191.38c-1.29-.9-3.05-1.84-4.55-.76s-1.1,3-.56,4.42c1.35,3.43,4.83,5.45,6.12,8.88.28.75,1.48.43,1.2-.33-1.07-2.87-3.51-4.72-5.18-7.19-.74-1.09-1.58-2.61-1.3-4,.4-2,2.71-.6,3.64.05.66.47,1.29-.62.63-1.08Z" transform="translate(-253.88 -166.05)"/><path class="cls-3" d="M313.16,192.18a43.18,43.18,0,0,0,2,5,.62.62,0,0,0,.85.22,3,3,0,0,1,1.19-.47.62.62,0,0,0,.37-.91,28.31,28.31,0,0,0-3.38-4.81.62.62,0,0,0-.88,0,.64.64,0,0,0,0,.88,27.59,27.59,0,0,1,3.18,4.56l.38-.92a3.53,3.53,0,0,0-1.49.6l.86.22a38.74,38.74,0,0,1-1.84-4.72.63.63,0,1,0-1.21.33Z" transform="translate(-253.88 -166.05)"/><path class="cls-3" d="M316.56,194c.13-1.61,1.25-3.26,3-3.16,2,.11,2.29,2.27,1.88,3.86-.94,3.67-4.4,6-5.85,9.45-.31.74.77,1.37,1.08.63,1-2.28,2.71-4,4.12-6,1.26-1.78,2.39-4,2-6.24a3.44,3.44,0,0,0-4.07-2.87c-2.1.36-3.29,2.37-3.45,4.36-.07.8,1.18.79,1.25,0Z" transform="translate(-253.88 -166.05)"/><path class="cls-3" d="M318.48,195a.63.63,0,0,0,0-1.25.63.63,0,0,0,0,1.25Z" transform="translate(-253.88 -166.05)"/><path class="cls-3" d="M313.43,197.18a2.34,2.34,0,0,0,1.93,1.61,2.27,2.27,0,0,0,2.27-1.11,1.9,1.9,0,0,0-.67-2.57c-.53-.26-1-.53-1.55-.84-.14-.08-.27-.18-.41-.27-.31-.2.25.24-.05,0-.14-.13-.54-.39-.59-.58l.08.11-.11-.16c-.07-.1-.13-.21-.2-.32s-.25-.42-.4-.63a4.22,4.22,0,0,0-2-1.6,1.88,1.88,0,0,0-2.38,1.81,7.75,7.75,0,0,0,.91,2.89,12.44,12.44,0,0,0,1.64,2.18c.52.57,1.08,1.1,1.6,1.67l.38.43.23.28c.18.2-.18-.26,0,0a7.78,7.78,0,0,1,.65,1,1.9,1.9,0,0,0,3.24,0l2.43-4c.8-1.31,2-2.82,1.53-4.45a2.61,2.61,0,0,0-2.53-1.86A3.68,3.68,0,0,0,317,191.8a5.8,5.8,0,0,0-1.64,2.9,6.76,6.76,0,0,0-.1.77c0-.27,0-.3,0-.09.45-1,1.22-1.15,2.32-.48l-2.27,2.94a4,4,0,0,0,5.58-.94l-3.43-1.44c-.07.38-.23.73-.31,1.11.09-.4.07-.18,0,0l-.15.29c-.1.16-.21.32-.32.48s.23-.26.05-.08l-.21.24c-.13.14-.28.26-.42.39s.28-.19.08-.05l-.26.18c-.18.11-.37.21-.56.31a1.88,1.88,0,0,0-.68,2.56,1.93,1.93,0,0,0,2.57.68,7.25,7.25,0,0,0,3.83-5.06,1.93,1.93,0,0,0-1.09-2.22,1.9,1.9,0,0,0-2.34.77l.14-.17q-.18.16,0,0c.23-.14,0,0-.08,0-.19.13.34-.15,0,0s.24,0,0,0-.36,0-.1,0-.12,0-.17-.07.3.16.06,0l-.36-.22a1.88,1.88,0,0,0-2.27,3,2.34,2.34,0,0,0,2.9.27,2.55,2.55,0,0,0,1-1.45,6.71,6.71,0,0,0,.13-.76c.06-.43-.1.33,0,0,0-.13.07-.26.1-.39.1-.38-.17.27,0,0l.2-.35c.19-.35-.22.21,0,0l.29-.28c.28-.3-.28.16,0,0s-.33.06,0,0a1,1,0,0,1-1-.34,1.09,1.09,0,0,1-.35-.9c0-.3,0,.05-.06.15s.19-.37,0,0l-.22.38-1.08,1.78-2.21,3.62H318a17.29,17.29,0,0,0-3-3.7c-.27-.28-.53-.57-.78-.86l-.07-.08a5.09,5.09,0,0,1-.34-.47c-.1-.16-.2-.33-.29-.5s-.37-.63-.12-.19a2.14,2.14,0,0,1-.18-.54c0-.11-.13-.73-.07-.2l-2.37,1.8c-.26-.12-.31-.13-.13,0l-.2-.15a2,2,0,0,1,.25.25c-.15-.2-.19-.25-.11-.13a1.3,1.3,0,0,1,.1.15,3.45,3.45,0,0,1,.2.32,7.52,7.52,0,0,0,1.16,1.53,11.83,11.83,0,0,0,3.07,2l-.67-2.57a1.19,1.19,0,0,1,1.26-.66c.66-.08,1.12.27,1.4,1.07a2,2,0,0,0-.86-1.12,1.88,1.88,0,0,0-2.76,2.11Z" transform="translate(-253.88 -166.05)"/><path class="cls-3" d="M316.25,202.93l.87-.67a.44.44,0,0,0,.17-.16.45.45,0,0,0,.12-.21.53.53,0,0,0,0-.25.49.49,0,0,0-.08-.23.6.6,0,0,0-.37-.29l-.17,0a.68.68,0,0,0-.31.08l-.87.67a.56.56,0,0,0-.18.16.65.65,0,0,0-.11.22.42.42,0,0,0,0,.25.48.48,0,0,0,.07.23.69.69,0,0,0,.38.29l.16,0a.62.62,0,0,0,.32-.09Z" transform="translate(-253.88 -166.05)"/><path class="cls-3" d="M316.57,201a1.89,1.89,0,0,1-.41.1l.17,0a2.72,2.72,0,0,1-.57,0l.17,0-.1,0a.53.53,0,0,0-.25,0,.49.49,0,0,0-.23.08.6.6,0,0,0-.29.37.62.62,0,0,0,.06.48.65.65,0,0,0,.38.29,2.75,2.75,0,0,0,.7,0,3.32,3.32,0,0,0,.7-.13.71.71,0,0,0,.37-.29.62.62,0,0,0,.06-.48.63.63,0,0,0-.28-.38.67.67,0,0,0-.48-.06Z" transform="translate(-253.88 -166.05)"/><path class="cls-3" d="M316.76,204.09a2.68,2.68,0,0,1-.07-.27.9.9,0,0,0,0-.16c0,.11,0,.12,0,.05v0a3.62,3.62,0,0,1,0-.57.59.59,0,0,0,0-.13c0,.1,0,.11,0,0v0a2.68,2.68,0,0,1,.07-.27,2.76,2.76,0,0,1,.08-.27l0,0c0-.06,0-.05,0,0s.06-.12.07-.14a.63.63,0,1,0-1.08-.63,3.83,3.83,0,0,0-.27,2.78.63.63,0,0,0,1.21-.33Z" transform="translate(-253.88 -166.05)"/><path class="cls-3" d="M316.69,204l0-.07a.52.52,0,0,0-.16-.17.42.42,0,0,0-.22-.11l-.16,0a.48.48,0,0,0-.24.06.25.25,0,0,0-.14.08.44.44,0,0,0-.16.17l-.06.15a.65.65,0,0,0,0,.34l0,.09,1.14-.48-.12-.24.06.15a3.31,3.31,0,0,1-.12-.42.43.43,0,0,0-.11-.21.44.44,0,0,0-.17-.16.53.53,0,0,0-.24-.08.53.53,0,0,0-.25,0,.67.67,0,0,0-.37.29l-.06.15a.62.62,0,0,0,0,.33,2,2,0,0,0,.09.35,3.82,3.82,0,0,0,.21.46.52.52,0,0,0,.16.17.48.48,0,0,0,.22.12l.16,0a.48.48,0,0,0,.24-.06.25.25,0,0,0,.14-.08.44.44,0,0,0,.16-.17l.07-.15a.62.62,0,0,0,0-.33l0-.1-1.14.49,0,.06a.44.44,0,0,0,.16.17.42.42,0,0,0,.22.11.39.39,0,0,0,.24,0,.42.42,0,0,0,.24-.07.61.61,0,0,0,.28-.37l0-.17a.56.56,0,0,0-.09-.31Z" transform="translate(-253.88 -166.05)"/><path class="cls-3" d="M315,192.7a3.42,3.42,0,0,0-3.21-2.43.63.63,0,1,0,0,1.25h.3c-.14,0-.06,0,0,0a2.62,2.62,0,0,1,.4.11l.1,0c.1,0,.05,0,0,0a.5.5,0,0,1,.19.1,1,1,0,0,1,.17.1l.09.06,0,0c-.07-.06,0,0,0,0l.08.07.15.15.12.14c0,.06-.07-.11,0,0l.06.08a2.43,2.43,0,0,1,.2.35l0,.09c0,.07-.06-.15,0,0l.06.19a.63.63,0,0,0,1.21-.33Z" transform="translate(-253.88 -166.05)"/></g><g id="Layer_3" data-name="Layer 3"><circle class="cls-4" cx="41.67" cy="164.23" r="12.69"/><rect class="cls-5" x="38.83" y="143.74" width="3.31" height="3.31"/><rect class="cls-5" x="303.86" y="312.68" width="3.31" height="3.31" transform="translate(2.19 -287.26) rotate(37.71)"/><rect class="cls-5" x="311.28" y="321.85" width="3.31" height="3.31" transform="translate(229.37 -259.18) rotate(66.28)"/><rect class="cls-5" x="312.41" y="332.72" width="3.31" height="3.31" transform="translate(439.93 -89.04) rotate(99.08)"/><rect class="cls-5" x="307.9" y="342.19" width="3.31" height="3.31" transform="translate(518.31 182.01) rotate(132.52)"/><rect class="cls-5" x="297.78" y="347.72" width="3.31" height="3.31" transform="translate(405.13 470.44) rotate(169.21)"/><rect class="cls-5" x="285.98" y="346.76" width="3.31" height="3.31" transform="translate(167.1 614.04) rotate(-157.62)"/><rect class="cls-5" x="277.59" y="338.36" width="3.31" height="3.31" transform="translate(-173.62 566.39) rotate(-113.72)"/><rect class="cls-5" x="274.94" y="328.63" width="3.31" height="3.31" transform="translate(-347.08 385.25) rotate(-80.92)"/><rect class="cls-5" x="277.59" y="318.97" width="3.31" height="3.31" transform="translate(-391.92 236.09) rotate(-60)"/><rect class="cls-5" x="283.52" y="312.68" width="3.31" height="3.31" transform="translate(-386.77 75.12) rotate(-37.86)"/><polygon class="cls-5" points="74.24 179.19 72.4 177.8 58.23 195.76 60.06 197.15 74.24 179.19"/><ellipse class="cls-6" cx="330.82" cy="339.74" rx="2.98" ry="3.6" transform="translate(-383.04 288.96) rotate(-59.83)"/><path class="cls-7" d="M331.45,334a29.86,29.86,0,0,1-3.31,4.12.64.64,0,0,0,0,.89l2.35,2.27c.63.61,1.47,1.67,2.45,1.06a5.91,5.91,0,0,0,1.05-1.07l1.09-1.16,2.33-2.52c.55-.59-.33-1.48-.88-.89l-3.88,4.18c-.1.11-.24.34-.38.4.09,0,.05,0,0-.05a1.46,1.46,0,0,0-.19-.16l-1-1-2.05-2V339a31.35,31.35,0,0,0,3.49-4.38c.45-.67-.63-1.29-1.07-.63Z" transform="translate(-253.88 -166.05)"/><path class="cls-7" d="M329.65,339.14a14.1,14.1,0,0,1,2.2,1.88.64.64,0,0,0,.88,0l3.19-3.23a.63.63,0,0,0-.13-1,6.87,6.87,0,0,1-2.74-2.12.64.64,0,0,0-1-.13l-1.95,1.91a1.74,1.74,0,0,0-.67,1.14,1.66,1.66,0,0,0,.46,1.15,1.94,1.94,0,0,0,1,.68,1.17,1.17,0,0,0,1.14-.53l1.7-2.1a.63.63,0,0,0-.61-1,4.53,4.53,0,0,0-2.65,1.75c-.34.46.22,1.05.71.92l3.15-.83-.71-.92a8.6,8.6,0,0,1-2.18,2.32.65.65,0,0,0-.22.86.64.64,0,0,0,.86.22,10.43,10.43,0,0,0,2.62-2.76.63.63,0,0,0-.71-.92l-3.15.82.71.92a3.18,3.18,0,0,1,1.9-1.17l-.6-1.05-1.26,1.55-.31.38c-.07.08-.26.23-.29.34s.14,0,.14,0-.26-.25-.31-.33-.14-.15,0-.27.46-.45.68-.67l1.52-1.48-1-.13a8.16,8.16,0,0,0,3.19,2.57l-.13-1-3.18,3.23h.88a16.17,16.17,0,0,0-2.45-2.07.63.63,0,0,0-.85.23.64.64,0,0,0,.22.85Z" transform="translate(-253.88 -166.05)"/><ellipse class="cls-6" cx="309.02" cy="366.95" rx="2.98" ry="3.6" transform="translate(-417.41 283.64) rotate(-59.83)"/><path class="cls-7" d="M308.39,372.71a30.47,30.47,0,0,1,3.31-4.12.64.64,0,0,0,0-.88l-2.35-2.27c-.63-.61-1.47-1.67-2.45-1.06a5.85,5.85,0,0,0-1,1.06l-1.09,1.17-2.34,2.52c-.54.59.34,1.48.89.88l3.88-4.17a1.66,1.66,0,0,1,.38-.41c-.1.05-.05,0,0,.06l.18.15,1,1,2.05,2v-.88a32.7,32.7,0,0,0-3.5,4.37c-.44.67.64,1.3,1.08.63Z" transform="translate(-253.88 -166.05)"/><path class="cls-7" d="M310.18,367.56a15.74,15.74,0,0,1-2.19-1.88.64.64,0,0,0-.89,0l-3.18,3.23a.63.63,0,0,0,.13,1,6.87,6.87,0,0,1,2.74,2.12.63.63,0,0,0,1,.12l2-1.9a1.82,1.82,0,0,0,.67-1.15,1.64,1.64,0,0,0-.46-1.14,1.86,1.86,0,0,0-1-.68,1.17,1.17,0,0,0-1.14.53l-1.7,2.09a.63.63,0,0,0,.61,1.05,4.5,4.5,0,0,0,2.65-1.76c.34-.45-.22-1-.71-.91l-3.15.82.71.92a8.52,8.52,0,0,1,2.17-2.31.65.65,0,0,0,.23-.86.63.63,0,0,0-.86-.22,10.43,10.43,0,0,0-2.62,2.76.63.63,0,0,0,.7.92l3.15-.83-.7-.92a3.19,3.19,0,0,1-1.91,1.18l.61,1,1.26-1.55.31-.38a1.49,1.49,0,0,0,.28-.34c0-.11-.14,0-.13,0s.26.25.31.32.14.16,0,.28-.46.45-.68.67l-1.52,1.48,1,.13a8,8,0,0,0-3.18-2.57l.13,1,3.18-3.22h-.89a17.25,17.25,0,0,0,2.45,2.06.62.62,0,0,0,.86-.22.63.63,0,0,0-.23-.85Z" transform="translate(-253.88 -166.05)"/></g><g id="Layer_4" data-name="Layer 4"><circle class="cls-6" cx="49.12" cy="295.13" r="15.72"/><path class="cls-3" d="M320.18,497.24c-1.65-9.55-6.47-18.12-10-27l-4.57,1.93c.56.77,1.1,1.56,1.59,2.38.14.25.26.53.41.77s.1.2-.08-.21c.14.46.15.1,0-1.09l1.15-1.5h0l1.92-.25c.93.66,1.24.83.92.49.26.35.3.4.14.17s-.32-.5-.47-.75c-.47-.82-.89-1.68-1.28-2.55l-4.32,2.53c2.47,3.44,4.6,7.1,6.76,10.74,1,1.77,2.19,3.49,3.18,5.29a6.92,6.92,0,0,1,.71,1.55,4.23,4.23,0,0,1,.13.51c0-.05,0-.35,0-.05,0,.12,0,.24,0,.35,0,.49,0-.15,0,.14a1.8,1.8,0,0,1-.37.73,6.85,6.85,0,0,1-1.53,1.31,15.65,15.65,0,0,1-4.64,2.18,31.07,31.07,0,0,1-10.44.76c-4.1-.24-8.16-.85-12.25-1.06-2.36-.13-3.57,3.67-1.26,4.65a12.76,12.76,0,0,0,5.22,1.42c2.64,0,3.2-3.27,1.27-4.66-1.51-1.08-3.44-1.24-5.23-1.41-2.83-.29-3.36,4.24-.67,4.91,8.37,2.06,20.35,1,22.87-9,1.31-5.14-.22-11.65-4.36-15.17a5.79,5.79,0,0,0-4.13-1.68,7.65,7.65,0,0,0-4.43,2.29,36.81,36.81,0,0,0-6.48,7c-1.45,2.18-3.12,4.81-3.24,7.49a4.32,4.32,0,0,0,2,4,4.7,4.7,0,0,0,1.54.53,3.26,3.26,0,0,0,.57.1c-.2.12-.85-.63-.86-.89a2.51,2.51,0,0,0,4.91.67l2.63-8.31-4.91-.66-.07,4.62a2.5,2.5,0,0,0,2.17,2.46,2.55,2.55,0,0,0,2.74-1.79,45.31,45.31,0,0,1,5.65-9.8l-4.57-.6a20.27,20.27,0,0,1,1.57,9.48,2.52,2.52,0,0,0,2.5,2.5,2.56,2.56,0,0,0,2.5-2.5,56.93,56.93,0,0,0,.32-10.52,2.53,2.53,0,0,0-4.66-1.27c-2.86,4-6.53,10.31-4.06,15.32,1.28,2.61,5.12,4.38,6.94,1.21,1.47-2.55-.51-4.92-1.71-7.08l-3.42,3.42,5.92,4.43c1.53,1.15,3.82-.41,3.76-2.16q-.28-8.73-1-17.44l-4.91.67a55.68,55.68,0,0,0,4.63,8.38c1.52,2.52,2.77,5.08,2.63,8.09l3.16-2.41a.67.67,0,0,1,.3.19c.14.24.14.23,0,0,.1.25.1.23,0-.06s-.07-.32,0-.08a5.34,5.34,0,0,1,0-.8c0-.12.08-1,.05-.74.18-1.4.54-2.76.65-4.17a20.5,20.5,0,0,0-3.38-12.32,2.52,2.52,0,0,0-4.66,1.26l-.1,5.57c-.06,3.22,4.94,3.22,5,0l.1-5.57-4.66,1.26a17.59,17.59,0,0,1,2.5,6,13.14,13.14,0,0,1,.23,3.13c0,.28,0,.56,0,.84s-.09.59,0,.13c-.07.34-.13.69-.19,1-.65,3.42-1.11,7.71,2.92,9.12a2.52,2.52,0,0,0,3.17-2.41,17.89,17.89,0,0,0-2.76-9.67c-1.54-2.7-3.53-5.22-4.68-8.13a2.53,2.53,0,0,0-2.74-1.79,2.46,2.46,0,0,0-2.17,2.45q.68,8.71,1,17.44l3.76-2.16L301,487c-2.13-1.59-4.53,1.41-3.42,3.42.31.57.68,1.11,1,1.67.18.31.32.66.51,1-.06-.15,0-.09.05.18a1.39,1.39,0,0,1,.13-.77c.77-.79,1.46-1,2.07-.59q.18.12-.15-.18c0-.15-.07-.06-.16-.37a4.22,4.22,0,0,1-.09-1.88c.42-3.07,2.33-6,4.09-8.46l-4.66-1.26a56.93,56.93,0,0,1-.32,10.52h5a23.55,23.55,0,0,0-1.75-10.81,2.54,2.54,0,0,0-4.57-.59,50.64,50.64,0,0,0-6.15,11l4.91.66.07-4.62c0-2.88-4.08-3.31-4.91-.66l-2.63,8.3,4.91.66a4.08,4.08,0,0,0-1.46-3.27,3.87,3.87,0,0,0-2.31-.84c-.31.05,0,0,.26.28-.12-.13.45.69.29.57s.08-.7.1-.77a13.73,13.73,0,0,1,1.17-2.6,24.42,24.42,0,0,1,3.83-5.16c.87-.88,1.81-1.69,2.73-2.53a9.62,9.62,0,0,1,1.08-.93,3.22,3.22,0,0,1,.6-.33s-.15,0-.07.05c.67.23,1.29,1.13,1.68,1.69a10.32,10.32,0,0,1,1.33,2.68,11.23,11.23,0,0,1,.48,5.7,7.68,7.68,0,0,1-5.68,6,20.89,20.89,0,0,1-11.15,0l-.66,4.92a5.26,5.26,0,0,1,2.7.73l1.26-4.66a6.8,6.8,0,0,1-2.7-.73l-1.26,4.66c8,.42,16.3,2.4,24.2.07,3.4-1,7.72-3.05,9.37-6.41,1.74-3.53-.45-6.94-2.27-9.92-2.81-4.6-5.39-9.34-8.54-13.72a2.5,2.5,0,0,0-4.32,2.53c.9,1.94,2.67,6.4,5.62,4.68s-.05-5.47-1.3-7.21a2.53,2.53,0,0,0-3.12-1,2.47,2.47,0,0,0-1.45,2.95c3.57,8.9,8.39,17.47,10,27a2.5,2.5,0,1,0,4.82-1.33Z" transform="translate(-253.88 -166.05)"/><path class="cls-3" d="M295.54,498.74s.67.16.34,0,.21.18.11.08l.73,1.77c0-8,3-15.62,5.69-23.06a2.49,2.49,0,0,0-1.45-2.95,2.54,2.54,0,0,0-3.12,1,4.76,4.76,0,0,0,0,4.33,2.56,2.56,0,0,0,3.42.9c1.46-.84,1.31-2.54,1.23-4a2.53,2.53,0,0,0-4.27-1.77,12.39,12.39,0,0,0-2.24,3.09c-.88,1.79-.81,4.36,1.5,5,3.2.92,4.34-3.43,4.92-5.68s-2.5-4.42-4.18-2.43c-3.66,4.33-7.63,8.34-10.79,13.08-2.3,3.43-5.31,8.73-2.61,12.74a2.56,2.56,0,0,0,3.42.9,2.52,2.52,0,0,0,.9-3.42c0-.05-.34-.58-.24-.35s-.1-.4-.1-.41c.05.27,0,.08,0-.09s0-.44,0-.66c0-.06.09-.49.19-.85s.25-.82.38-1.14a26.5,26.5,0,0,1,2.85-4.9c2.83-4.09,6.34-7.58,9.54-11.36l-4.18-2.44c-.15.56-.31,1.11-.49,1.66-.06.18-.13.37-.2.56-.14.43.06-.08,0,.15a3.74,3.74,0,0,0-.22.45l-.1.15a1.73,1.73,0,0,1,1-.76h1.33l1.44,2.3.06-.19c-.12.06-.15.29,0,0s.4-.66.61-1l.18-.24.14-.18c.14-.15.27-.31.42-.46l-4.27-1.77c0,.4,0,.82.05,1.22s-.19.81.06-.08l1.15-1.5h0l3.42.9c.13.19.33.75.18.33.22.6,0,.4,0,.1a2.46,2.46,0,0,0,0-.47c-.06-.32-.1.58-.21.75l-4.57-1.93a116.78,116.78,0,0,0-4.87,15.59,45.64,45.64,0,0,0-1,7.9,3.31,3.31,0,0,0,1.52,3.3,4.19,4.19,0,0,0,3.62.53c3-1,1.74-5.83-1.33-4.82Z" transform="translate(-253.88 -166.05)"/><path class="cls-3" d="M324,496.91c2.91-10.14-3.66-20.61-10.75-27.34l-3,3.93a14.13,14.13,0,0,1,3,2.66l3-3.93a17,17,0,0,1-3-2.66l-3,3.93c6.61,4.6,12.45,11.72,13.35,20a2.57,2.57,0,0,0,2.5,2.5,2.51,2.51,0,0,0,2.5-2.5c-1.11-10.18-7.61-18.57-15.82-24.29-2.38-1.65-5,2-3,3.93a22.8,22.8,0,0,0,4,3.44,2.5,2.5,0,0,0,3.23-.64,2.57,2.57,0,0,0-.2-3.29,18.88,18.88,0,0,0-4-3.44c-2.32-1.67-5.07,2-3,3.93,5.75,5.46,11.85,14.11,9.46,22.47-.89,3.1,3.93,4.42,4.82,1.33Z" transform="translate(-253.88 -166.05)"/><path class="cls-3" d="M295.9,471.6c-9.08,5-14.7,16.34-15.16,26.48-.14,3.22,4.86,3.21,5,0a29.37,29.37,0,0,1,3.78-12.62,23.78,23.78,0,0,1,8.9-9.54c2.81-1.57.29-5.89-2.52-4.32Z" transform="translate(-253.88 -166.05)"/><path class="cls-3" d="M311.74,490.1c-3.14,0-6.28,0-9.42.1s-6.22.68-8.07,3.46a2.52,2.52,0,0,0,2.16,3.76,52.41,52.41,0,0,0,17.7-2.73,2.55,2.55,0,0,0,1.74-3.08,2.52,2.52,0,0,0-3.07-1.74,48,48,0,0,1-16.37,2.55l2.16,3.76c.16-.25.18-.27.06-.07l.17-.17c.46-.29-.16,0,.29-.2,0,0,.7-.3.3-.16a7.59,7.59,0,0,1,.78-.22,16.94,16.94,0,0,1,3.47-.18l8.1-.08a2.5,2.5,0,0,0,0-5Z" transform="translate(-253.88 -166.05)"/><path class="cls-3" d="M313.72,502.47c3.26.88,6.15-.88,8.92-2.35l3.78-2a4.83,4.83,0,0,0,2-1.62,3,3,0,0,0-.45-3.61,2.5,2.5,0,0,0-3.53,0,2.54,2.54,0,0,0,0,3.53l.08.1-.64-1.11a2,2,0,0,1,.76-2l-.35.18-.61.33-1.43.76-2.86,1.52-1.4.75-.6.3-.4.18c.26-.11.25-.11,0,0l-.62.2-.4.09c-.29.05-.27.05.05,0-.16.08-.45,0-.62,0s-.27,0,.06,0a2.6,2.6,0,0,1-.4-.1,2.5,2.5,0,0,0-1.33,4.83Z" transform="translate(-253.88 -166.05)"/><path class="cls-3" d="M282.54,500.58a105.67,105.67,0,0,0,33.72-.16,2.53,2.53,0,0,0,1.75-3.08,2.56,2.56,0,0,0-3.08-1.74,98.07,98.07,0,0,1-31.06.16,2.58,2.58,0,0,0-3.08,1.75,2.51,2.51,0,0,0,1.75,3.07Z" transform="translate(-253.88 -166.05)"/><path class="cls-3" d="M282.86,501c4.9,2.83,10.6,3.87,16.19,4.1a51.38,51.38,0,0,0,17.33-2.29c3.06-.95,1.75-5.78-1.33-4.82a47.22,47.22,0,0,1-15.53,2.13c-4.86-.16-9.87-1-14.14-3.44-2.79-1.61-5.31,2.71-2.52,4.32Z" transform="translate(-253.88 -166.05)"/><path class="cls-3" d="M300.68,419.06c1.83-.93,4.39-1.36,6.3-.39,1.69.87,1.81,2.93,1.2,4.54-.74,2-2.48,3.49-3.86,5.05a11.17,11.17,0,0,0-3.05,5.65,1.31,1.31,0,0,0,.88,1.54,1.27,1.27,0,0,0,1.54-.88c.36-2.61,2.29-4.4,4-6.26s3.26-4.06,3.35-6.72a5.49,5.49,0,0,0-3.68-5.47,10.19,10.19,0,0,0-7.92.78c-1.43.73-.17,2.89,1.26,2.16Z" transform="translate(-253.88 -166.05)"/><path class="cls-3" d="M303.1,441.13a1.25,1.25,0,0,0,0-2.5,1.25,1.25,0,0,0,0,2.5Z" transform="translate(-253.88 -166.05)"/><path class="cls-3" d="M272,450.79a3.87,3.87,0,0,1,1.43-.39,2.49,2.49,0,0,1,1.27.19.89.89,0,0,1,.35.28c-.06-.1.09.16.1.19-.08-.19,0,.13,0,.17.08.28,0-.11,0,.18,0,.13,0,.26,0,.39,0-.18,0,.06,0,.12s-.07.25-.11.37,0,.09,0,0l-.07.13a3.18,3.18,0,0,1-.23.4,4.69,4.69,0,0,1-.39.54c-.38.45-.8.87-1.19,1.31a6.38,6.38,0,0,0-1.74,3.22,1.29,1.29,0,0,0,.87,1.54,1.27,1.27,0,0,0,1.54-.88c.18-1.26,1.05-2.05,1.93-3a6.3,6.3,0,0,0,1.93-3.95,3.47,3.47,0,0,0-2.36-3.43,5.93,5.93,0,0,0-4.61.46,1.25,1.25,0,0,0,1.26,2.16Z" transform="translate(-253.88 -166.05)"/><path class="cls-3" d="M272.92,462.43a1.25,1.25,0,0,0,0-2.5,1.25,1.25,0,0,0,0,2.5Z" transform="translate(-253.88 -166.05)"/><path class="cls-3" d="M330.87,466.16a1.84,1.84,0,0,1,.76-.21,1.46,1.46,0,0,1,.68.1l.12.07s.12.14.08.09,0,.08.05.1,0,.08,0,.1,0-.05,0,.1,0,.13,0,.2,0,.05,0,.07a.66.66,0,0,1-.06.2s0,0,0,0l0,.07-.12.21a3.15,3.15,0,0,1-.22.29c-.19.23-.41.45-.62.68a3.33,3.33,0,0,0-.9,1.68.65.65,0,0,0,.43.77.63.63,0,0,0,.77-.44,3.24,3.24,0,0,1,1-1.6,3.18,3.18,0,0,0,1-2,1.77,1.77,0,0,0-1.21-1.77,3.07,3.07,0,0,0-2.39.24.64.64,0,0,0-.23.86.65.65,0,0,0,.86.22Z" transform="translate(-253.88 -166.05)"/><path class="cls-3" d="M331.39,472.26a.63.63,0,0,0,0-1.25.63.63,0,0,0,0,1.25Z" transform="translate(-253.88 -166.05)"/><path class="cls-3" d="M331.18,438.64a2.06,2.06,0,0,1,.76-.21,1.44,1.44,0,0,1,.68.1l.12.07s.12.14.08.09.05.09.05.1,0,.08,0,.1,0,0,0,.1a1.27,1.27,0,0,1,0,.2c0-.08,0,.05,0,.07a1.17,1.17,0,0,1-.05.2s0,0,0,0l0,.07-.12.21a1.94,1.94,0,0,1-.21.29c-.2.24-.42.45-.62.69a3.28,3.28,0,0,0-.91,1.67.65.65,0,0,0,.44.77.63.63,0,0,0,.77-.44,3,3,0,0,1,1-1.59,3.33,3.33,0,0,0,1-2.05,1.8,1.8,0,0,0-1.22-1.77,3.12,3.12,0,0,0-2.39.24.63.63,0,0,0-.22.86.64.64,0,0,0,.85.22Z" transform="translate(-253.88 -166.05)"/><path class="cls-3" d="M331.7,444.74a.63.63,0,0,0,0-1.25.63.63,0,0,0,0,1.25Z" transform="translate(-253.88 -166.05)"/><path class="cls-3" d="M271.52,480.77a1.88,1.88,0,0,1,.76-.21,1.5,1.5,0,0,1,.69.1l.11.07s.12.14.08.09a.39.39,0,0,1,0,.1c0-.09,0,.08,0,.1s0,0,0,.1a1.34,1.34,0,0,1,0,.2c0-.08,0,.05,0,.07l-.06.2s0,0,0,0l0,.07-.12.21a1.94,1.94,0,0,1-.21.29c-.2.23-.42.45-.62.68a3.35,3.35,0,0,0-.91,1.68.65.65,0,0,0,.44.77.63.63,0,0,0,.77-.44,3.11,3.11,0,0,1,1-1.6,3.28,3.28,0,0,0,1-2,1.79,1.79,0,0,0-1.22-1.77,3.07,3.07,0,0,0-2.39.24.62.62,0,0,0-.22.85.63.63,0,0,0,.85.23Z" transform="translate(-253.88 -166.05)"/><path class="cls-3" d="M272,486.87a.63.63,0,0,0,0-1.25.63.63,0,0,0,0,1.25Z" transform="translate(-253.88 -166.05)"/><path class="cls-3" d="M274.19,428a1.88,1.88,0,0,1,.76-.21,1.32,1.32,0,0,1,.68.1l.12.07s.12.14.08.08.05.09.05.11,0,.08,0,.09,0,0,0,.1a1.48,1.48,0,0,1,0,.21c0-.08,0,0,0,.07a1.46,1.46,0,0,1-.05.2s0,0,0,0l0,.08-.12.2c-.07.11-.14.2-.21.29-.2.24-.42.46-.62.69a3.36,3.36,0,0,0-.91,1.67.64.64,0,0,0,.44.77.62.62,0,0,0,.76-.43,3.2,3.2,0,0,1,1-1.6,3.24,3.24,0,0,0,1-2,1.81,1.81,0,0,0-1.22-1.78,3.07,3.07,0,0,0-2.39.25.62.62,0,0,0-.22.85.63.63,0,0,0,.85.23Z" transform="translate(-253.88 -166.05)"/><path class="cls-3" d="M274.71,434.09a.63.63,0,0,0,0-1.25.63.63,0,0,0,0,1.25Z" transform="translate(-253.88 -166.05)"/></g><g id="Layer_5" data-name="Layer 5"><rect class="cls-2" x="32.82" y="392.14" width="33.23" height="11.88"/><line class="cls-8" x1="49.44" y1="386.04" x2="49.41" y2="460.21"/><rect class="cls-2" x="14.3" y="423.12" width="33.23" height="11.88"/><rect class="cls-2" x="51.75" y="412.91" width="33.23" height="11.88"/><path class="cls-3" d="M338.92,579.77c2.63,1.82,5.14,3.8,7.65,5.79v-.89a51.73,51.73,0,0,1-7.86,5.45c-.7.39-.07,1.47.63,1.08a53.63,53.63,0,0,0,8.11-5.64.63.63,0,0,0,0-.89c-2.59-2-5.18-4.1-7.9-6-.66-.46-1.29.62-.63,1.08Z" transform="translate(-253.88 -166.05)"/><path class="cls-3" d="M268.29,600.29c-2.62-1.82-5.13-3.8-7.64-5.79v.89a51.15,51.15,0,0,1,7.85-5.45.63.63,0,0,0-.63-1.08,53.91,53.91,0,0,0-8.11,5.64.65.65,0,0,0,0,.89c2.59,2.05,5.19,4.09,7.9,6,.66.46,1.29-.62.63-1.08Z" transform="translate(-253.88 -166.05)"/><path class="cls-3" d="M286.81,569.3c-2.63-1.82-5.14-3.8-7.64-5.78v.88A51.09,51.09,0,0,1,287,559a.63.63,0,0,0-.63-1.08,52.7,52.7,0,0,0-8.11,5.64.62.62,0,0,0,0,.88c2.59,2.05,5.18,4.1,7.9,6,.66.46,1.29-.62.63-1.08Z" transform="translate(-253.88 -166.05)"/><path class="cls-3" d="M320.45,570.16c2.72-1.89,5.31-3.94,7.9-6a.62.62,0,0,0,0-.88,52.62,52.62,0,0,0-8.1-5.64.63.63,0,0,0-.64,1.08,52.4,52.4,0,0,1,7.86,5.44v-.88c-2.51,2-5,4-7.65,5.79-.65.45,0,1.54.63,1.08Z" transform="translate(-253.88 -166.05)"/><path class="cls-3" d="M338.83,588.41a26.6,26.6,0,0,0,3.68-.07,3,3,0,0,0,2.24-1.07,2.35,2.35,0,0,0-.22-3.1c-.86-.86-2.06-1.13-3.08-1.73a1.27,1.27,0,0,0-.29-.18l.14.11-.08-.07a2,2,0,0,0-.28-.3c.18.23.22.29.14.17L341,582l-.1-.18c.12.29.15.36.1.22s-.05-.22-.09-.32c0,.32,0,.41,0,.26a.61.61,0,0,1,0-.14c-.06.34-.06.41,0,.21a1.34,1.34,0,0,1,.07-.18L338.25,583l4.88,3.28.95-3.49a7.72,7.72,0,0,0-6.73,4,1.9,1.9,0,0,0,.14,2.08,1.85,1.85,0,0,0,2,.67l1.65-.67L339,586.2c-.05.12-.12.23-.18.35s.1-.12.11-.15-.14.14-.18.18.33-.21.15-.11l-.17.11c-.06,0-.28.13,0,0s0,0-.06,0a1.87,1.87,0,0,0,1,3.61,4,4,0,0,0,2.57-2.11,1.92,1.92,0,0,0-.15-2.08,1.83,1.83,0,0,0-2-.67l-1.65.67,2.12,2.75a5.63,5.63,0,0,1,.37-.62l.12-.17c-.19.25-.23.29-.1.14a2.2,2.2,0,0,1,.2-.23c.17-.18.35-.34.52-.5l-.13.1.17-.12.3-.19a6.48,6.48,0,0,1,.64-.34l-.22.09.2-.08.34-.11a5.88,5.88,0,0,1,.7-.16l-.24,0,.2,0h.42a1.93,1.93,0,0,0,1.81-1.38,2,2,0,0,0-.87-2.12l-4.88-3.28a1.78,1.78,0,0,0-1.66-.09,1.93,1.93,0,0,0-1.09,1.21,3.8,3.8,0,0,0,.87,3.7,6.59,6.59,0,0,0,2.59,1.69l.66.31c.1.06.21.11.31.18s.33.3,0,0q.21.22-.09-.21a1.18,1.18,0,0,1,0-1.41,1,1,0,0,1,.33-.36c.15-.11.17-.13.05-.06.43-.26.29-.13.11-.08s.51,0,.09,0c-1.15,0-2.3.09-3.45,0a1.9,1.9,0,0,0-1.88,1.87,1.92,1.92,0,0,0,1.88,1.88Z" transform="translate(-253.88 -166.05)"/><path class="cls-3" d="M320.31,563.24q-.39.15-.18.09c.15,0,.07,0-.23,0h.17c.15,0,.07,0-.22,0a1.07,1.07,0,0,0,.27.07c.21.06-.35-.19-.06,0l.31.18.15.1-.14-.11c0,.11.39.33.48.4a5.4,5.4,0,0,0,3.21,1.52l-1.32-3.2c-.41.44-.86.81-1.3,1.21l.15-.11-.2.13-.34.24a8.31,8.31,0,0,1-.76.44l-.37.19c-.13.06-.61.21-.1,0-.32.1-.64.24-.95.37a2.6,2.6,0,0,0-1.68,2.38,2.26,2.26,0,0,0,2.85,2.15,4.22,4.22,0,0,0,1.92-1.48c1.13-1.32,1.81-3.19.84-4.82a4.27,4.27,0,0,0-.83-1c-.05,0-.11-.1-.16-.16a.6.6,0,0,1-.08-.08c-.1-.11-.06,0,.11.16,0,0-.06-.11-.08-.15-.13-.19.16.41.06.1s.1-.14,0,.18a.81.81,0,0,0,0-.22c0-.16.1-.21,0,.17a1.55,1.55,0,0,0,.05-.23,4.74,4.74,0,0,1,.15-.5c.05-.14.26-.67,0-.14h-3.24a9.62,9.62,0,0,0,5.52,4.33,1.9,1.9,0,0,0,2.31-1.31l.05-.26a1.92,1.92,0,0,0-1.31-2.31,1.89,1.89,0,0,0-2.3,1.31l-.06.26,2.31-1.31c-.21-.06-.42-.14-.62-.21-.36-.13.35.17,0,0l-.3-.15a6.48,6.48,0,0,1-.57-.33,2.68,2.68,0,0,1-.28-.18l-.18-.13c.22.17.28.21.16.13a9.1,9.1,0,0,1-.95-.91l-.22-.26c-.12-.14.27.37,0,0a6.17,6.17,0,0,1-.39-.6,1.89,1.89,0,0,0-1.62-.93,1.84,1.84,0,0,0-1.62.93,7.67,7.67,0,0,0-.71,2.48,3.56,3.56,0,0,0,.94,2.65,3.34,3.34,0,0,0,.33.32s.28.33.32.32c-.16-.22-.2-.27-.13-.15s.05.06-.07-.2a.83.83,0,0,1,.06.21c0-.31,0-.37,0-.16a1.7,1.7,0,0,1,0,.22c.05-.31.05-.37,0-.17a1.41,1.41,0,0,1-.06.22c.12-.28.13-.32,0-.14l-.25.4c.18-.22.2-.25.07-.1l-.15.18-.34.34a1.37,1.37,0,0,1-.17.17c-.14.13-.1.1.13-.08.75-.36,1.45,0,2.1,1a1.32,1.32,0,0,1-.13,1,1.12,1.12,0,0,1-.39.42c.17-.09.11-.07-.17.06a4.2,4.2,0,0,0,.74-.29c.4-.16.81-.34,1.2-.54a11.77,11.77,0,0,0,3.26-2.53,1.92,1.92,0,0,0,.39-2,1.94,1.94,0,0,0-1.72-1.15c-.37,0,.39.13.07,0l-.2-.07.24.1a2.93,2.93,0,0,0-.56-.35c.23.18.26.21.11.08l-.09-.07-.26-.22q-.42-.36-.87-.69a4.72,4.72,0,0,0-1.61-.78,3.66,3.66,0,0,0-2.48.28,1.88,1.88,0,0,0,.45,3.43,2.12,2.12,0,0,0,1.44-.19Z" transform="translate(-253.88 -166.05)"/><path class="cls-3" d="M282.25,565.6l.27,0-.5-.07a5,5,0,0,1,1.2.33l-.45-.19a6,6,0,0,1,.79.42.86.86,0,0,0,.22.15s-.36-.29-.17-.13l.36.33.31.33c.1.12.16.3-.1-.13a1.88,1.88,0,0,0,.12.18,5,5,0,0,1,.45.82l-.19-.45a5.8,5.8,0,0,1,.19.59l3.14-1.82a36.19,36.19,0,0,0-5.23-3.72v3.24a27.59,27.59,0,0,0,5.08-2.86L285,560.54l-.48,3.55a2.08,2.08,0,0,0,.18,1.45,1.91,1.91,0,0,0,1.13.86,1.86,1.86,0,0,0,1.44-.19,1.76,1.76,0,0,0,.86-1.12l.48-3.56a2.36,2.36,0,0,0,0-1,1.89,1.89,0,0,0-2.75-1.12,28.13,28.13,0,0,1-5.08,2.85,1.84,1.84,0,0,0-.93,1.62,1.89,1.89,0,0,0,.93,1.62c.84.49,1.66,1,2.45,1.57l.61.43.27.21c.1.07.4.31,0,0,.39.31.78.62,1.16.94a1.87,1.87,0,0,0,3.13-1.82,6.59,6.59,0,0,0-2.11-3.33,7.07,7.07,0,0,0-4-1.64,1.89,1.89,0,0,0-1.87,1.88,1.91,1.91,0,0,0,1.87,1.87Z" transform="translate(-253.88 -166.05)"/><path class="cls-3" d="M269.44,596.56a11.44,11.44,0,0,1-1.6-.51l.16.07-.19-.08-.38-.19c-.23-.11-.46-.24-.69-.37s-.45-.28-.66-.43l-.34-.24.13.1-.17-.13a12,12,0,0,1-1.21-1.16l-.82,3.14a16,16,0,0,0,6.69-3.52,1.89,1.89,0,0,0,.3-2.27,1.93,1.93,0,0,0-2.12-.86,8.75,8.75,0,0,0-2.27.9,3.88,3.88,0,0,0-1.9,2.46,3.82,3.82,0,0,0,1,3.27,6,6,0,0,0,2.16,1.41,2,2,0,0,0,1.45.19,1.94,1.94,0,0,0,1-.67,1.9,1.9,0,0,0-.14-2.46,17.43,17.43,0,0,0-3.61-3.25,1.89,1.89,0,0,0-2.57.67,1.94,1.94,0,0,0,.67,2.57c.16.1.31.21.46.32l.18.14-.2-.16.13.11a10.69,10.69,0,0,1,.81.7,14.34,14.34,0,0,1,1.47,1.55l2.28-3-.7-.32c-.22-.11-.44-.31-.66-.4.24.18.28.21.13.09l-.08-.08-.13-.15c.18.25.22.3.11.14l-.05-.09q-.13-.26.06.18c0-.12-.08-.25-.1-.38l.07.5a2.42,2.42,0,0,1,0-.38l-.06.5,0-.2c0-.28-.06.2-.09.18l.1-.18s-.3.35-.1.15.2-.27.29-.28-.37.25-.13.11l.22-.13c.11-.07.24-.12.36-.18s-.38.14-.16.07l.19-.07c.28-.1.56-.18.85-.27l-1.83-3.13-.33.28c-.1.09-.53.38-.05,0-.21.14-.41.3-.63.44a12.5,12.5,0,0,1-1.36.81l-.74.35c-.36.17.42-.16,0,0l-.4.15a14.91,14.91,0,0,1-1.57.48,1.86,1.86,0,0,0-1.31,1.31,1.91,1.91,0,0,0,.48,1.82,13.19,13.19,0,0,0,6.6,3.91,1.88,1.88,0,0,0,1-3.62Z" transform="translate(-253.88 -166.05)"/><path class="cls-3" d="M345.29,586.45a1.25,1.25,0,0,0,0-2.5,1.25,1.25,0,0,0,0,2.5Z" transform="translate(-253.88 -166.05)"/><path class="cls-3" d="M262,596.21a1.25,1.25,0,0,0,0-2.5,1.25,1.25,0,0,0,0,2.5Z" transform="translate(-253.88 -166.05)"/><path class="cls-3" d="M280.69,564.91a1.25,1.25,0,0,0,0-2.5,1.25,1.25,0,0,0,0,2.5Z" transform="translate(-253.88 -166.05)"/><path class="cls-3" d="M326.46,565a1.25,1.25,0,0,0,0-2.5,1.25,1.25,0,0,0,0,2.5Z" transform="translate(-253.88 -166.05)"/><path class="cls-7" d="M286.05,571.59a5.13,5.13,0,0,1,1,0s0-.58,0-.63,0-.29,0-.44a1.07,1.07,0,0,0,0-.18,5.13,5.13,0,0,0-1,0s0,.58,0,.62,0,.63,0,.63Z" transform="translate(-253.88 -166.05)"/><path class="cls-7" d="M286.41,557.89a8.66,8.66,0,0,0,1.35-.08v-1.25a3.77,3.77,0,0,1-1.67.08s0,.57,0,.62v.44a1.15,1.15,0,0,0,0,.19,3.77,3.77,0,0,0,1.67-.08,1.2,1.2,0,0,0,0-.19c0-.14,0-.29,0-.44s0-.62,0-.62a8.66,8.66,0,0,1-1.35.08s0,1.25,0,1.25Z" transform="translate(-253.88 -166.05)"/><path class="cls-7" d="M319.35,557.84l2.84-.19s0-1.25,0-1.25l-2.84.19s0,1.25,0,1.25Z" transform="translate(-253.88 -166.05)"/><path class="cls-7" d="M319.33,557.94l3.2.06s0-1.25,0-1.25l-3.2-.06s0,1.25,0,1.25Z" transform="translate(-253.88 -166.05)"/><path class="cls-7" d="M320.26,570.28a7,7,0,0,0-2.35.48,1.28,1.28,0,0,0,0,.18v.89s0,.18,0,.18a7,7,0,0,1,2.35-.48s0-1.25,0-1.25Z" transform="translate(-253.88 -166.05)"/><path class="cls-7" d="M338.83,578.67h2.37s0-1.25,0-1.25h-2.37s0,1.25,0,1.25Z" transform="translate(-253.88 -166.05)"/><path class="cls-7" d="M338.88,578.72l2.76,0s0-1.25,0-1.25l-2.76,0s0,1.25,0,1.25Z" transform="translate(-253.88 -166.05)"/><path class="cls-7" d="M339.55,591.07l-.61.08c-.08,0-.4.1-.43,0v1.25c0-.07.12-.06.18-.06h.82c.37,0,.73,0,1.1.1,0,0,0-.58,0-.63s0-.62,0-.62a11.72,11.72,0,0,0-2-.11c-.06,0-.12,0-.14.06a.61.61,0,0,0,0,.19c0,.14,0,.29,0,.44s0,.29,0,.44a.54.54,0,0,0,0,.18s.05.06.1.07a1.65,1.65,0,0,0,.21,0l.22,0,.51-.07s0-.58,0-.63,0-.62,0-.62Z" transform="translate(-253.88 -166.05)"/><path class="cls-7" d="M267.68,602.55l1.55.15s0-.58,0-.63a6.2,6.2,0,0,0,0-.62l-1.55-.15v.62c0,.05,0,.63,0,.63Z" transform="translate(-253.88 -166.05)"/><path class="cls-7" d="M268.46,601.33h-1s0,1.25,0,1.25h1s0-1.25,0-1.25Z" transform="translate(-253.88 -166.05)"/><path class="cls-7" d="M268.42,601.35h-1s0,1.25,0,1.25h1s0-1.25,0-1.25Z" transform="translate(-253.88 -166.05)"/><path class="cls-7" d="M267.37,602.61s0-1.25,0-1.25,0,1.25,0,1.25Z" transform="translate(-253.88 -166.05)"/><path class="cls-7" d="M268.37,601.33l-.77,0s0,.57,0,.62v.63l.77,0s0-.58,0-.63,0-.62,0-.62Z" transform="translate(-253.88 -166.05)"/><path class="cls-7" d="M268.36,601.3a3.84,3.84,0,0,1-.76,0v1.25a3.84,3.84,0,0,0,.76,0,1.28,1.28,0,0,0,0-.18v-.88s0-.19,0-.19Z" transform="translate(-253.88 -166.05)"/><path class="cls-7" d="M267.59,602.56l.22,0v-1.25l-.22,0a1.28,1.28,0,0,0,0,.18v1a.28.28,0,0,0,0,.09Z" transform="translate(-253.88 -166.05)"/><path class="cls-7" d="M267.57,602.54a.63.63,0,0,1,.19,0,.11.11,0,0,0,0-.05V601.4a.25.25,0,0,0,0-.08.63.63,0,0,0-.19,0s0,.58,0,.62v.45a1,1,0,0,0,0,.18Z" transform="translate(-253.88 -166.05)"/><path class="cls-7" d="M268.59,587.67a5.8,5.8,0,0,1-1.61-.1s0,.58,0,.63v.44a1.07,1.07,0,0,0,0,.18,5.8,5.8,0,0,0,1.61.1s0-.58,0-.63v-.62Z" transform="translate(-253.88 -166.05)"/><path class="cls-3" d="M268,591.05h.23a.65.65,0,0,0,.44-.18.68.68,0,0,0,.19-.44.61.61,0,0,0-.19-.44.66.66,0,0,0-.44-.19,3,3,0,0,0-.42,0,1.4,1.4,0,0,0-.68.21,1.3,1.3,0,0,0-.18.15l0,0-.12.16a.79.79,0,0,0-.11.38v0a.75.75,0,0,0,0,.2,1,1,0,0,0,.06.16h0l.06.08.06.08a1.12,1.12,0,0,0,.33.2l.25,0h.11a2.31,2.31,0,0,0,.69-.11.67.67,0,0,0,.37-.29.49.49,0,0,0,.08-.23.53.53,0,0,0,0-.25.58.58,0,0,0-.28-.37.63.63,0,0,0-.48-.07,1.87,1.87,0,0,1-.32.08l.17,0a1,1,0,0,1-.34,0l.17,0-.07,0,.15.06,0,0,.12.1,0,0,.1.13,0,0,.07.14a0,0,0,0,1,0,0l0,.16v0l0,.17s0,0,0,0l-.06.15,0,0-.1.13a.23.23,0,0,1,.07-.07l-.13.1.14-.08-.15.06a.84.84,0,0,1,.24-.06l-.17,0a3.09,3.09,0,0,1,.43,0V589.8H268a.69.69,0,0,0-.45.18.64.64,0,0,0,0,.89.69.69,0,0,0,.45.18Z" transform="translate(-253.88 -166.05)"/><path class="cls-3" d="M303.28,552.81a5,5,0,1,0-5-5,5.06,5.06,0,0,0,5,5Z" transform="translate(-253.88 -166.05)"/></g></svg>