<svg xmlns="http://www.w3.org/2000/svg" viewBox="0 0 458.37 531.21"><defs><style>.cls-1{opacity:0.6;}.cls-2{fill:#ededed;}.cls-3{fill:#f6a214;}.cls-4{fill:#fff;}.cls-5{fill:#1d1d1b;}</style></defs><g id="Layer_4" data-name="Layer 4"><g class="cls-1"><path class="cls-2" d="M246.94,333.31a65.07,65.07,0,0,1-14.46,3.76l10.64-1.43a57.82,57.82,0,0,1-14.87.06l10.64,1.43a47.73,47.73,0,0,1-11.44-3l9.56,4a43,43,0,0,1-9.24-5.34l8.1,6.25a45.19,45.19,0,0,1-7.68-7.71l6.26,8.09a54.94,54.94,0,0,1-6.89-11.87l4,9.56a72,72,0,0,1-4.88-18.24l1.43,10.64a90.48,90.48,0,0,1,.12-23.71l-1.43,10.63A104.14,104.14,0,0,1,234,290.71l-4,9.56a116.66,116.66,0,0,1,15.12-25.73l-6.25,8.09a125.79,125.79,0,0,1,22.23-22l-8.1,6.25a157.61,157.61,0,0,1,34.59-20l-9.56,4a205,205,0,0,1,52-14l-10.63,1.43a156.69,156.69,0,0,1,41.33-.35l-10.64-1.43a113.78,113.78,0,0,1,28.43,7.64l-9.56-4a99.87,99.87,0,0,1,21.46,12.44l-8.1-6.25a85.7,85.7,0,0,1,15.16,15l-6.25-8.1a74.34,74.34,0,0,1,9.49,16l-4-9.56a70.91,70.91,0,0,1,4.81,17.56L400,266.63a69.21,69.21,0,0,1,.05,18.13l1.43-10.63a62.84,62.84,0,0,1-4.28,15.75l4-9.55a56.45,56.45,0,0,1-6.85,11.76l6.25-8.1a63,63,0,0,1-11,11l8.1-6.25a101,101,0,0,1-22.36,12.63l9.55-4c-22.43,9.41-46.56,15.16-70.46,19.37q-10.47,1.85-21,3.25l10.64-1.43c-11.8,1.58-23.63,2.82-35.48,3.81-10.93.92-22,1.81-32.88.39l10.63,1.43a59,59,0,0,1-14.82-3.92l9.56,4a45.24,45.24,0,0,1-9.38-5.44l8.09,6.26a46.75,46.75,0,0,1-8.3-8.33l6.26,8.1a53,53,0,0,1-6.62-11.5l4,9.56a60.06,60.06,0,0,1-4-14.89l1.43,10.63a61.73,61.73,0,0,1,0-16l-1.43,10.64A58.61,58.61,0,0,1,235.13,299l-4,9.55a70.75,70.75,0,0,1,9.2-15.65l-6.25,8.1A84.33,84.33,0,0,1,249,286.23l-8.1,6.26A101.8,101.8,0,0,1,263,279.68l-9.55,4a99.8,99.8,0,0,1,25.1-6.91l-10.64,1.43a89.47,89.47,0,0,1,23.12-.12l-10.63-1.43a71.9,71.9,0,0,1,17.89,4.72l-9.56-4a57.59,57.59,0,0,1,12.74,7.37l-8.1-6.26a52.47,52.47,0,0,1,9.22,9.26l-6.25-8.09a55.55,55.55,0,0,1,6.8,11.82l-4-9.56a67,67,0,0,1,4.38,16.57l-1.43-10.63a83.39,83.39,0,0,1-.11,21.41l1.43-10.64c-1.54,11.18-5.09,21.94-9.45,32.3l4-9.55c-3.63,8.55-7.8,16.85-12,25.13l-4,9.55-1.43,10.64,1.43,10.63a30.24,30.24,0,0,0,7.16,13.61,20.14,20.14,0,0,0,7.18,7.17,20,20,0,0,0,8.82,5.14,19.91,19.91,0,0,0,10.1,2.73,30.28,30.28,0,0,0,15.95-.71c19.44-7.75,38.92-15.41,58.32-23.26,9.62-3.89,18.19-7.29,25.44-15.19,5.81-6.34,9.75-12.61,12-21a43,43,0,0,0,1.54-12.87c-.37-9.4-2-13.85-6-22.25-3.12-6.53-8.56-11.91-13.95-16.65q-5.22-4.59-10.65-8.89c-16.74-13.28-34-25.47-53-35.28-10.91-5.63-22.24-10.47-33.63-15a109.66,109.66,0,0,0-36.61-8.14,40.78,40.78,0,0,0-6.44.27c-5.16.6-11.4,1-16.57,2.82-4,1.4-8,3.18-11.86,4.95-.75.35-1.48.71-2.2,1.12A77.84,77.84,0,0,0,225.34,245a26.71,26.71,0,0,0-3.14,3.24,98.06,98.06,0,0,0-8.84,11.8c-2.44,4.16-4.27,9.2-6,13.44a37.15,37.15,0,0,0-1.66,5,122.73,122.73,0,0,0-2.19,14.75,40.08,40.08,0,0,0-.27,5.13,112.41,112.41,0,0,0,1.82,15.3,35.78,35.78,0,0,0,1.13,5,69.75,69.75,0,0,0,8.43,18.54c3.8,5.6,8.13,11.52,13.36,16s11,9.14,17.24,12.36a106.57,106.57,0,0,0,19.43,7.91A110.64,110.64,0,0,0,286.31,377a65.39,65.39,0,0,0,13-.34c8.08-1,16.1-1.92,23.92-4.19,7.6-2.21,14.86-5.44,22.12-8.56a137.6,137.6,0,0,0,22.89-12.27,166.6,166.6,0,0,0,16.83-13,63.73,63.73,0,0,0,8.14-8.61c4.25-5.41,8.85-10.75,11.67-17.09a114.37,114.37,0,0,0,5.84-14.48c1.47-5.07,1.95-10.87,2.55-15.9.87-7.46-.42-15.18-1.79-22.46s-4.66-14.35-7.8-20.87c-3.28-6.81-8.21-12.72-12.89-18.58a61.61,61.61,0,0,0-8.14-8.33A128.52,128.52,0,0,0,366,199.89c-5.83-3.5-12.22-6-18.49-8.55-10.08-4.15-20.5-5.51-31.3-6.8a88.68,88.68,0,0,0-22.2.22c-10.85,1.42-21.31,2.85-31.52,6.88s-19.83,8.14-28.59,14.53c-9,6.58-17.72,13.46-25,21.93a167.42,167.42,0,0,0-19.47,27.08,192.51,192.51,0,0,0-13.57,30.89,146.42,146.42,0,0,0-6,23.58c-1.94,11.39-3.75,23.27-3.41,34.89a128.35,128.35,0,0,0,2.73,22.29,49.58,49.58,0,0,0,1.59,5.85c.34,1,.72,2,1.12,2.94,1.67,4.07,3.24,8.24,5.25,12.15a36.3,36.3,0,0,0,3,4.9c3.06,4.18,6.18,8.65,9.93,12.34a106.75,106.75,0,0,0,12.35,9.86,42.57,42.57,0,0,0,5.23,3.24,95.67,95.67,0,0,0,43.24,11c8.35.16,16.86-1.2,25-2.61A120.18,120.18,0,0,0,290,423.11,277.55,277.55,0,0,0,323,410.28a203.75,203.75,0,0,0,22.31-11.66c10.07-6.07,19.34-13.14,28.6-20.37a204.13,204.13,0,0,0,35.72-35.83c7.39-9.51,14.81-19,19.92-30,3.17-6.83,6.35-13.9,8.33-21.21a59.64,59.64,0,0,0,1.33-6.18,152.14,152.14,0,0,0,2.06-16.64c.36-7.31-.89-14.91-2.15-22a55.3,55.3,0,0,0-3-10.55c-2.62-6.58-5.26-13.36-9.05-19.4a136.76,136.76,0,0,0-12.61-16.64,75.17,75.17,0,0,0-8.46-8.28,150.22,150.22,0,0,0-17.07-12.74,79.22,79.22,0,0,0-10.34-5.38c-7.33-3.18-14.61-6.37-22.33-8.46A115,115,0,0,0,343,162.24c-8-1.18-16.07-2.33-24.17-2.72a206.26,206.26,0,0,0-28,.77c-12.38,1.12-24.76,2.75-37,5a224,224,0,0,0-60.14,20c-10.75,5.36-20.08,12.25-29.54,19.61a124.09,124.09,0,0,0-16.38,15.29c-12,13.42-22.45,28.44-29.59,45-4.28,9.91-8.41,19.77-11.22,30.19-2.85,10.57-4.3,21.33-5.66,32.18-2.32,18.55-.79,36.84,2.21,55.24,3,18.76,9.91,36.64,18,53.78,8.15,17.32,19.16,32.74,31.13,47.61a226.12,226.12,0,0,0,33.72,33.69c15.28,12.38,31.23,23.86,48.76,32.86a271.07,271.07,0,0,0,33.47,14.41,157.88,157.88,0,0,0,25.65,6.8c11.82,2,24,3.68,36,3.24a191.83,191.83,0,0,0,23.19-2.65,94.81,94.81,0,0,0,12.33-2.81,169.05,169.05,0,0,0,20.88-8.26,92.55,92.55,0,0,0,9.81-5.16c6.07-3.68,11.59-8.13,17.18-12.49a111.13,111.13,0,0,0,8.55-7.38c7.86-7.54,14.63-16.33,20.92-25.18a142.44,142.44,0,0,0,11.78-19.92C463.37,474,470,455.74,473.4,436.71a257.58,257.58,0,0,0,4.32-38.87c.32-13.1-1.19-25.94-3.12-38.89a143.71,143.71,0,0,0-6.67-27,193,193,0,0,0-14.21-31.72,179.79,179.79,0,0,0-20.16-27.71c-7.56-8.73-16.37-15.72-25.57-22.68a108.63,108.63,0,0,0-20.33-12.09c-10.09-4.59-20.35-8.83-31.17-11.36a188.62,188.62,0,0,0-33.37-4.62,141.74,141.74,0,0,0-24,.83c-11.42,1.36-22.76,2.94-33.84,6.08a220,220,0,0,0-31.53,12.11,150.59,150.59,0,0,0-20.9,11.69A251.41,251.41,0,0,0,186,273.23c-14.55,12.89-26.92,28.18-38,44.07a259.44,259.44,0,0,0-24.15,43.1c-8.44,19-16.25,38.5-21,58.76a239,239,0,0,0-4,24.26,106.4,106.4,0,0,0-.93,15.14,149.87,149.87,0,0,0,2.57,23.05,71.44,71.44,0,0,0,3,11.6,121.24,121.24,0,0,0,8.89,20.13,107.49,107.49,0,0,0,12.65,17,50.37,50.37,0,0,0,4.25,4.27,134.42,134.42,0,0,0,12.48,9.7c6.14,4.26,13.33,6.94,20.19,9.71,11.3,4.54,23.92,5.84,35.89,7.13,8.66.93,17.39,1.36,26.1,1.43,20.54.17,41-2.07,61.27-5.45A300.81,300.81,0,0,0,335,544.36a360.16,360.16,0,0,0,56.18-25c17.91-10,34.52-22,50.38-34.95A258.66,258.66,0,0,0,460.87,467c8.42-8.47,15.77-17.68,23-27.17a158.5,158.5,0,0,0,14-21.72A185.18,185.18,0,0,0,511.7,385c3.54-11.71,5.26-23.94,6.48-36.08a143.36,143.36,0,0,0,.18-26.61,209,209,0,0,0-5.86-36c-3.09-11.64-7.73-22.88-12.8-33.77a150,150,0,0,0-12.05-21.13A233.13,233.13,0,0,0,466.81,205a170.32,170.32,0,0,0-17.51-16.46,248.54,248.54,0,0,0-27.53-20,177.8,177.8,0,0,0-21.62-11.22c-10.77-4.66-21.51-9.12-32.85-12.14a229.22,229.22,0,0,0-35.29-6,146.88,146.88,0,0,0-25.51-.44,187.26,187.26,0,0,0-35,5.47,117.07,117.07,0,0,0-12.26,4A211.87,211.87,0,0,0,239,157.12c-10.2,5.27-19.37,12.3-28.21,19.57a138.59,138.59,0,0,0-17.24,17A262,262,0,0,0,160.78,242c-9.54,18.13-17.62,37.12-25.2,56.13-7.21,18.07-13.3,36.72-16,56-1.81,12.92-3.43,25.67-2.48,38.73.86,11.94,2.54,24.12,6.12,35.6,2.12,6.8,5,13.29,7.79,19.84,1.57,3.69,3.3,7.32,5.22,10.85,5.33,9.84,12.08,18.59,19,27.38,11.94,15.26,26.73,27.56,42.27,39,17,12.52,35.81,22.07,55.57,29.43a128.48,128.48,0,0,0,26.73,6.86c11.69,1.66,23.06,3,34.85,2,11.55-1,23.28-2.67,34.42-6a126.64,126.64,0,0,0,12-4.32c6.76-2.82,13.56-5.56,20-9,10.15-5.46,19.42-12.49,28.24-19.86a120.63,120.63,0,0,0,17.59-18.2c7.28-9.28,14.22-18.49,19.6-29a194.66,194.66,0,0,0,13.2-32.35c3.41-11.33,5.05-23,6.39-34.72a127.17,127.17,0,0,0,.4-25.95c-1.12-12.19-2.77-24.53-7.46-35.91-2.86-7-5.58-14.08-9.83-20.35-2.74-4.05-5.85-7.87-8.89-11.69-1.13-1.41-2.33-2.78-3.59-4.08-4.74-4.93-10.45-9.07-15.9-13.08a64.78,64.78,0,0,0-8.84-5.48,134.66,134.66,0,0,0-19.16-8.07,67.09,67.09,0,0,0-10.37-2.55c-6.76-1.11-13.82-2.25-20.75-2.29s-14.11,1.11-21,2.23a58.2,58.2,0,0,0-10.05,2.6,111.52,111.52,0,0,0-19,8.47,122.23,122.23,0,0,0-16,11.82,63.75,63.75,0,0,0-7.28,7.14c-6.67,7.68-13,16-17.11,25.36-2.64,6-5.44,12.14-7.19,18.5-1.82,6.63-2.55,13.62-3.31,20.4a59.48,59.48,0,0,0-.28,10.42,121.09,121.09,0,0,0,2.89,20.49l4,9.55a30.1,30.1,0,0,0,10.3,11.23,19.9,19.9,0,0,0,8.82,5.14,30.27,30.27,0,0,0,15.41,3.45,33.15,33.15,0,0,0,5.08.17c.85,0,1.7-.12,2.54-.22,4.38-.5,8.84-1,13.16-1.84a31.67,31.67,0,0,0,4.66-1.32c3.79-1.37,7.52-3.05,11.21-4.68.93-.41,1.84-.84,2.73-1.33,4.24-2.31,8.3-5.86,11.89-8.71a30.8,30.8,0,0,0,3.66-3.38,81.76,81.76,0,0,0,8.93-11.69,24.62,24.62,0,0,0,1.19-2.21,114,114,0,0,0,4.9-11.69c1-3,1.22-6.18,1.63-9.25a49.88,49.88,0,0,0,.86-9.82,89.2,89.2,0,0,0-2-14.65c-1.1-4.65-3.38-9.09-5.29-13.41a26.46,26.46,0,0,0-2.12-3.92,69.64,69.64,0,0,0-9.08-11.46c-7.32-7-14.73-11.18-24.31-14.36a19.89,19.89,0,0,0-2.39-.6c-3.55-.69-7.6-1.1-11.19-1.52-.55-.07-1.1-.14-1.66-.17-5.18-.3-10.68.83-15.6,1.76s-10.27,3.67-14.38,5.51a30.7,30.7,0,0,0-5.44,3.08,94.11,94.11,0,0,0-11.8,9.4,97.71,97.71,0,0,0-9.9,12.44c-4.31,6-6.95,13.36-9.71,20.11a162.8,162.8,0,0,0-7.82,25.58,192.44,192.44,0,0,0-3.6,23.88,73.89,73.89,0,0,0-.08,14c.66,7,1.42,14.26,3.4,21.05.51,1.74,1.12,3.46,1.79,5.14a147.27,147.27,0,0,0,6.22,14.23,89.51,89.51,0,0,0,12.18,16.71,37.59,37.59,0,0,0,3.57,3.57c1.88,1.64,3.94,3.13,5.9,4.64s4.05,3.25,6.22,4.67a35.13,35.13,0,0,0,4.82,2.63c4.8,2.19,9.78,4.56,14.93,5.93s10.42,1.8,15.59,2.41a47.91,47.91,0,0,0,6.56.36,109.81,109.81,0,0,0,22.1-2.9,77.17,77.17,0,0,0,12.12-3.92c6.76-2.79,13.65-5.51,20-9.13,6-3.42,11.39-7.78,16.8-12.08s9.42-9.87,13.72-15.54c4.08-5.39,6.83-12.1,8.76-18.46,5-16.43,2.1-34.85-6.42-49.57-2.43-4.19-5.82-8.12-8.76-11.77a37.79,37.79,0,0,0-4-4.28,127.09,127.09,0,0,0-11.89-9.3A43.48,43.48,0,0,0,377,369,139.67,139.67,0,0,0,363,362.89a53.49,53.49,0,0,0-6-2,107.15,107.15,0,0,0-22.31-3.23c-7.4-.36-14.87.91-22.13,2a56,56,0,0,0-12.27,3.35c-6.53,2.62-13.29,5.18-19.2,9.1a94.7,94.7,0,0,0-29.42,29.16,56.64,56.64,0,0,0-5.34,9.48c-2.77,6.3-5.71,12.63-7.29,19.37a30.37,30.37,0,0,0-.71,15.95A29.69,29.69,0,0,0,243.06,461l6.25,8.09A39.91,39.91,0,0,0,267,479.36a135.9,135.9,0,0,0,17,2.27,51.1,51.1,0,0,0,7,0,143.74,143.74,0,0,0,17-2.27,55.66,55.66,0,0,0,6.52-1.68,144.8,144.8,0,0,0,15.59-6.38,54.6,54.6,0,0,0,6.17-3.32,138.68,138.68,0,0,0,13.36-10,50.11,50.11,0,0,0,5.13-4.75c.74-.79,1.46-1.59,2.14-2.43,2.36-2.86,5.9-7,7.1-9.14s-.62,1.83,2.35-5.21a20,20,0,0,0,2.73-10.09,20.22,20.22,0,0,0,0-10.64c-.43-3.18-.28-4.23-1.14-6.45-1.36-3.47-2.83-7.06-4.41-10.44a24.46,24.46,0,0,0-1.59-2.88,115.32,115.32,0,0,0-7.62-10c-.65-.77-1.32-1.52-2-2.22s-1.52-1.36-2.31-2c-3.34-2.66-6.65-5.45-10.24-7.77a38.81,38.81,0,0,0-5.59-3,135.7,135.7,0,0,0-15.2-6.09c-7.41-2.22-15.35-3-23-3.89a153.47,153.47,0,0,0-34.61.09c-14.72,1.67-29.58,3.82-43.57,8.87-5.46,2-10.85,4.23-16.08,6.73a48.59,48.59,0,0,0-6.32,3.6c-3.69,2.51-7.19,5.35-10.65,8.15A34.78,34.78,0,0,0,182,391a69.79,69.79,0,0,0-5.4,6.61,68.28,68.28,0,0,0-4.91,6.65,27.58,27.58,0,0,0-1.55,3.07,109.26,109.26,0,0,0-5,12.29,66.08,66.08,0,0,0-2.45,16.83,24.56,24.56,0,0,0,.12,3.09c.4,3.81.9,7.86,1.57,11.64a18.92,18.92,0,0,0,.45,2,82.62,82.62,0,0,0,4.88,11.94,18.84,18.84,0,0,0,1.8,3.07c2.11,3,4.52,6.16,6.89,8.91.33.38.66.75,1,1.1s.71.66,1.08,1c2.82,2.43,6,4.84,9,7a18.33,18.33,0,0,0,2.63,1.58,98.75,98.75,0,0,0,12,5,23.46,23.46,0,0,0,3,.78c4.37.82,8.87,1.4,13.3,1.78a35.49,35.49,0,0,0,6.6-.08c7.88-.78,15.82-1.76,23.35-4.29s14.92-5.82,22.2-9c20.85-9,39.29-21.86,56.93-36.07a264.11,264.11,0,0,0,40.94-41.54c14.45-18.17,27.64-37.06,38.45-57.64,2.64-5,5.13-10.15,7.42-15.36,3.56-8.15,7.11-16.36,9.93-24.81a142.25,142.25,0,0,0,4.38-16.06,199.4,199.4,0,0,0,3.66-26.31,106.07,106.07,0,0,0,0-16.24c-.5-6-1.36-12.08-2.33-18.06-.41-2.55-.92-5.09-1.55-7.6-2.09-8.34-5.56-16.38-9.17-24.14a75.07,75.07,0,0,0-7.58-12.81c-4.67-6.35-9.47-12.76-15.16-18.27a160.06,160.06,0,0,0-18.31-14.77c-10.45-7.5-22.35-12.62-34.3-17.21a133.92,133.92,0,0,0-27.63-7.27c-13.84-2.11-27.63-3.75-41.64-2.77a214.84,214.84,0,0,0-25.39,3.33,113,113,0,0,0-15.18,4c-5.56,1.9-10.93,4.3-16.32,6.61-2.4,1-4.77,2.12-7.09,3.32a96.06,96.06,0,0,0-12.8,8c-10.18,7.52-19.7,15.32-27.7,25.15s-15.4,19.93-21.46,31.05c-6.18,11.35-11.19,23.35-16,35.34-3.54,8.92-6.68,18-9.63,27.12-7.26,22.46-14,45.21-18,68.52-2.54,15.06-4.56,30.38-4.76,45.69a225.66,225.66,0,0,0,3.62,40.5,145.6,145.6,0,0,0,7.46,27.67c4.54,11.95,9.67,23.86,16.82,34.51a189.29,189.29,0,0,0,14.56,18.94,98.48,98.48,0,0,0,9.87,9.83c10,8.6,20.74,16.43,32.8,21.82,12.23,5.47,24.44,10.15,37.61,12.67a245.1,245.1,0,0,0,40.7,4.45,262.78,262.78,0,0,0,29.69-1.14,30.07,30.07,0,0,0,15.41-3.45A36,36,0,0,0,332,527.79a30.07,30.07,0,0,0,3.45-15.41L334,501.74a40,40,0,0,0-10.29-17.65l-8.09-6.25a39.78,39.78,0,0,0-20.19-5.46c-17,1.55-34.11,1.78-51-.47l10.63,1.43a137.13,137.13,0,0,1-34.93-9.24l9.56,4a104.09,104.09,0,0,1-22.51-13.07l8.09,6.26a101.85,101.85,0,0,1-18.08-18.21l6.25,8.1a120.72,120.72,0,0,1-15.07-26.1l4,9.55a147.52,147.52,0,0,1-10.11-37.54l1.43,10.64c-2.23-16.87-1.64-34,.59-50.79l-1.43,10.63a350,350,0,0,1,10.21-47.49c4-14.14,8.34-28.2,13.17-42.07,2.43-7,5-13.87,7.89-20.67l-4,9.55c6.08-14.38,13.37-28.32,22.94-40.71l-6.26,8.1a113.3,113.3,0,0,1,19.72-19.91l-8.09,6.25A99.18,99.18,0,0,1,260.05,208l-9.56,4A114.33,114.33,0,0,1,279,204.41l-10.64,1.43a139.15,139.15,0,0,1,36.47.13l-10.64-1.43a135.3,135.3,0,0,1,33.95,9.1l-9.56-4a108.17,108.17,0,0,1,23.76,13.68L334.28,217a86.78,86.78,0,0,1,15.35,15.23l-6.25-8.1A78.16,78.16,0,0,1,353.24,241l-4-9.56a88.2,88.2,0,0,1,5.92,22.1L353.69,243a108.23,108.23,0,0,1-.11,28L355,260.35a149.49,149.49,0,0,1-10.64,37.45l4-9.56c-9.72,23-23.08,44.74-38.32,64.5l6.25-8.1a266.23,266.23,0,0,1-47.13,47.62l8.1-6.26a213.26,213.26,0,0,1-46.64,27.53l9.55-4c-7.1,3-14.34,5.82-22,6.94L228.83,415a37.86,37.86,0,0,1-9.63.16l10.63,1.43a24.34,24.34,0,0,1-6-1.59l9.55,4a20,20,0,0,1-4.06-2.41l8.1,6.26a19.36,19.36,0,0,1-2.79-2.79l6.26,8.1a18.47,18.47,0,0,1-2.31-4l4,9.56a20.27,20.27,0,0,1-1.17-4.4L242.86,440a23.25,23.25,0,0,1,0-6.18l-1.43,10.63a27.37,27.37,0,0,1,1.68-6.09l-4,9.55a26.84,26.84,0,0,1,3.44-5.91l-6.25,8.09A34.57,34.57,0,0,1,242,444.5l-8.1,6.26a51.2,51.2,0,0,1,11.15-6.28l-9.56,4c10.62-4.38,22.12-6.91,33.47-8.44l-10.64,1.43a151.64,151.64,0,0,1,39.13-.29l-10.63-1.43a64,64,0,0,1,16.05,4.15l-9.55-4a39.7,39.7,0,0,1,8,4.53l-8.1-6.25a27.5,27.5,0,0,1,5,4.91L292,435a23.73,23.73,0,0,1,2.82,4.88l-4-9.56c.18.45.35.91.51,1.36l4-30.82-.33.43,6.26-8.1a52.42,52.42,0,0,1-9.17,9.06l8.09-6.25A56.59,56.59,0,0,1,288,403l9.56-4a57.27,57.27,0,0,1-14,3.78l10.63-1.43a53.34,53.34,0,0,1-13.42,0l10.63,1.43c-1.07-.15-2.13-.33-3.19-.53l27.94,49.2a56.7,56.7,0,0,1,2.82-8.8l-4,9.55a58.93,58.93,0,0,1,7.37-12.69l-6.25,8.1a58.89,58.89,0,0,1,10.36-10.39l-8.09,6.26A55.77,55.77,0,0,1,330,436.63l-9.55,4a58,58,0,0,1,14.59-4l-10.64,1.43a59.47,59.47,0,0,1,15.14,0l-10.64-1.43a56.17,56.17,0,0,1,13.88,3.76l-9.56-4a44.7,44.7,0,0,1,9.3,5.45l-8.09-6.26a39.07,39.07,0,0,1,6.82,6.78l-6.25-8.1a30.52,30.52,0,0,1,3.68,6.26l-4-9.56a26,26,0,0,1,1.67,5.91l-1.43-10.63a24,24,0,0,1,0,6.28l1.43-10.63a25.37,25.37,0,0,1-1.67,6l4-9.55a31.49,31.49,0,0,1-4,6.69l6.25-8.09a46.71,46.71,0,0,1-8.17,7.91l8.09-6.26a82.34,82.34,0,0,1-17.45,9.89l9.55-4a74.71,74.71,0,0,1-18.41,5.27l10.63-1.43a49.58,49.58,0,0,1-12.59.12l10.63,1.43a39.36,39.36,0,0,1-9.77-2.64l9.56,4a37.39,37.39,0,0,1-7.56-4.42l8.1,6.26a41.53,41.53,0,0,1-7.13-7.14l6.26,8.09a49.21,49.21,0,0,1-6.2-10.73l4,9.56a56.28,56.28,0,0,1-3.69-13.62l1.43,10.63a76.91,76.91,0,0,1,.24-20.22L317,420.27a147.59,147.59,0,0,1,9.67-35.36l-4,9.55A53,53,0,0,1,329,383.21l-6.25,8.09a34,34,0,0,1,5.69-5.81l-8.09,6.25a30.17,30.17,0,0,1,6.36-3.76l-9.56,4a24.93,24.93,0,0,1,5.92-1.65l-10.63,1.43a21.33,21.33,0,0,1,5.53,0l-10.63-1.43a19.49,19.49,0,0,1,4.18,1.16l-9.55-4a19.2,19.2,0,0,1,3.77,2.19l-8.1-6.26a21.65,21.65,0,0,1,3.7,3.71L295,379a24.91,24.91,0,0,1,2.89,5l-4-9.55a26,26,0,0,1,1.67,6.07l-1.42-10.64a25.06,25.06,0,0,1,0,6.3l1.43-10.63a22.33,22.33,0,0,1-1.39,5.2l4-9.56a24.9,24.9,0,0,1-3,5.14l6.26-8.09a28.28,28.28,0,0,1-4.93,4.91l8.1-6.26a31.76,31.76,0,0,1-6.53,3.79l9.56-4a34.48,34.48,0,0,1-8.33,2.31L310,357.57a34,34,0,0,1-8.13.12l38.58,29.36a58.72,58.72,0,0,1-1.1-5.89l1.43,10.64a62,62,0,0,1,.09-15.87l-1.43,10.64a67.73,67.73,0,0,1,4.66-16.77l-4,9.55a69.39,69.39,0,0,1,8.53-14.64l-6.25,8.1a65.82,65.82,0,0,1,11.54-11.63l-8.09,6.26a59.14,59.14,0,0,1,12.85-7.53l-9.55,4a58.71,58.71,0,0,1,14.79-4l-10.64,1.43a65,65,0,0,1,16.78.08l-10.63-1.43a69.3,69.3,0,0,1,17.19,4.74l-9.55-4a67.44,67.44,0,0,1,14.52,8.48l-8.1-6.26a61.45,61.45,0,0,1,10.82,10.8l-6.25-8.1a63.24,63.24,0,0,1,7.82,13.61l-4-9.55a84.55,84.55,0,0,1,5.54,20.93L386,380a126.46,126.46,0,0,1-.27,33.21l1.43-10.64a139.56,139.56,0,0,1-9.57,35l4-9.56a133.65,133.65,0,0,1-17,29.23l6.25-8.09a122.57,122.57,0,0,1-21.75,21.79l8.1-6.25a123.82,123.82,0,0,1-27,15.71l9.56-4a121.77,121.77,0,0,1-30.61,8.36l10.63-1.43a112.36,112.36,0,0,1-29.37,0L301,484.74a132.2,132.2,0,0,1-32.73-9.24l9.56,4a199.27,199.27,0,0,1-43.6-25.71l8.1,6.25a174.45,174.45,0,0,1-31.28-30.93l6.25,8.1A133.45,133.45,0,0,1,200.08,408l4,9.56a112.91,112.91,0,0,1-7.69-28l1.42,10.63a132.18,132.18,0,0,1,.26-35l-1.43,10.64c3.15-22.81,11-44.64,19.91-65.77l-4,9.56c8.21-19.41,17.09-38.68,28.45-56.48q4.71-7.39,10.05-14.37l-6.25,8.1A143.94,143.94,0,0,1,270.18,231l-8.1,6.25a114.75,114.75,0,0,1,25.27-14.79l-9.55,4a123.58,123.58,0,0,1,31.11-8.32l-10.64,1.43a147.09,147.09,0,0,1,38.48.17l-10.63-1.43a165.92,165.92,0,0,1,41.66,11.43l-9.56-4a177.41,177.41,0,0,1,39.1,22.83l-8.1-6.26a169.36,169.36,0,0,1,30,29.91L413,264.13A153.4,153.4,0,0,1,432.86,298l-4-9.55A149.82,149.82,0,0,1,439,325.65L437.55,315a145.81,145.81,0,0,1,.1,38.48l1.42-10.63A133.15,133.15,0,0,1,430,376.42l4-9.55a151.74,151.74,0,0,1-19.59,33.07l6.25-8.1c-12,15.46-26.34,28.91-41.77,40.87l8.09-6.26a295.24,295.24,0,0,1-65.5,38.13l9.56-4a302.8,302.8,0,0,1-59.17,18q-8.65,1.68-17.42,2.86L265.12,480c-23.49,3.13-47.7,3.79-71.24.7l10.64,1.42a88.37,88.37,0,0,1-22.41-5.69l9.56,4a54.18,54.18,0,0,1-11.36-6.55l8.1,6.25a51.34,51.34,0,0,1-8.9-8.9l6.25,8.09A61.17,61.17,0,0,1,178,466l4,9.56a72.72,72.72,0,0,1-4.9-18.27L178.57,468a96.37,96.37,0,0,1,.26-24.53l-1.43,10.63c2.66-19.7,9.42-39,17.09-57.3l-4,9.55A257.48,257.48,0,0,1,223.39,349l-6.25,8.1a195.61,195.61,0,0,1,34.51-34.85l-8.1,6.25A158.32,158.32,0,0,1,278.19,308l-9.56,4a154.14,154.14,0,0,1,38.62-10.61l-10.63,1.43a141.21,141.21,0,0,1,37.42-.14l-10.63-1.43a122,122,0,0,1,30.43,8.2l-9.55-4a109.94,109.94,0,0,1,24.23,14.1l-8.1-6.26a118.36,118.36,0,0,1,20.92,21l-6.25-8.09A132.58,132.58,0,0,1,392,355.51L388,346a145.15,145.15,0,0,1,9.75,36.27l-1.42-10.63a175.49,175.49,0,0,1-.23,46.47l1.43-10.64a178.8,178.8,0,0,1-12.15,45.16l4-9.55a145.89,145.89,0,0,1-18.56,32.1l6.25-8.1a114.2,114.2,0,0,1-20,20.18l8.1-6.25a96.51,96.51,0,0,1-20.84,12.24l9.55-4a95.74,95.74,0,0,1-24.09,6.54l10.64-1.43a116.59,116.59,0,0,1-30.72-.2l10.64,1.43a162.92,162.92,0,0,1-40.92-11.6l9.56,4a228.58,228.58,0,0,1-49.78-29.47l8.1,6.25a227.43,227.43,0,0,1-40.82-40.61l6.25,8.09a194.74,194.74,0,0,1-25-42.56l4,9.56A165.58,165.58,0,0,1,180,357.1l1.43,10.64a159.23,159.23,0,0,1,.08-41.78l-1.43,10.63a156.38,156.38,0,0,1,10.8-39.66l-4,9.56a141.58,141.58,0,0,1,17.84-30.73l-6.25,8.1A126.11,126.11,0,0,1,221,261.29l-8.09,6.26a136.21,136.21,0,0,1,29.73-17.1l-9.56,4c17.39-7.31,35.88-11.51,54.53-14l-10.64,1.43c17.93-2.4,36.21-3.64,54.21-1.24l-10.64-1.43a108.13,108.13,0,0,1,26.69,7.08l-9.55-4A80.34,80.34,0,0,1,355,252.34l-8.09-6.25a76.46,76.46,0,0,1,13.7,13.62l-6.26-8.09a65,65,0,0,1,8.27,14.1l-4-9.55a55.8,55.8,0,0,1,3.75,13.6l-1.43-10.64a53.75,53.75,0,0,1-.05,14.11l1.43-10.63a67.6,67.6,0,0,1-4.58,16.24l4-9.56a113.38,113.38,0,0,1-14.9,24.65l6.26-8.09a205.54,205.54,0,0,1-36.42,36.37l8.1-6.25a208.19,208.19,0,0,1-45.88,26.87l9.56-4c-11.93,5-24.44,9.34-37.3,11.11l10.63-1.43a68.84,68.84,0,0,1-17.91.14l10.63,1.42A52.88,52.88,0,0,1,242,346.67l9.55,4a44.75,44.75,0,0,1-9.7-5.58l8.1,6.25a38,38,0,0,1-6.35-6.26l6.26,8.1a39.49,39.49,0,0,1-4.94-8.41l4,9.56a51.78,51.78,0,0,1-3.41-12.82L247,352.17c-1.16-8.85-.6-17.82.57-26.64l-1.43,10.63a147.72,147.72,0,0,1,10-37.16l-4,9.55a125,125,0,0,1,15.74-27.28l-6.26,8.09a105.52,105.52,0,0,1,18.54-18.7l-8.1,6.25a89.15,89.15,0,0,1,19.35-11.38l-9.55,4a91.4,91.4,0,0,1,22.78-6.23L294,264.76a89,89,0,0,1,23.46-.06l-10.63-1.43a78.64,78.64,0,0,1,19.4,5.21l-9.55-4a69.36,69.36,0,0,1,15.15,8.77L323.7,267a63.77,63.77,0,0,1,11.22,11.17L328.66,270a55.82,55.82,0,0,1,6.88,11.69l-4-9.56a45.78,45.78,0,0,1,3.12,11.18l-1.43-10.64a39,39,0,0,1,0,9.83l1.42-10.63a38.93,38.93,0,0,1-2.5,9.23l4-9.56a46.17,46.17,0,0,1-5.83,9.95l6.25-8.09a67.53,67.53,0,0,1-11.95,11.76l8.1-6.25a128,128,0,0,1-28.12,16l9.56-4a98.85,98.85,0,0,1-24.28,7l10.64-1.43a66.41,66.41,0,0,1-17.42.16L293.77,298a57.67,57.67,0,0,1-14.34-3.93l9.56,4a50.92,50.92,0,0,1-10.88-6.37L286.2,298a43.88,43.88,0,0,1-7.34-7.33l6.25,8.09a38,38,0,0,1-4.65-7.83l4,9.56a35,35,0,0,1-2.32-8.52l1.43,10.63a38.19,38.19,0,0,1,0-9.79l-1.42,10.63a36.35,36.35,0,0,1,2.44-8.91l-4,9.56a32.18,32.18,0,0,1,3.88-6.67l-6.26,8.09a28.33,28.33,0,0,1,4.74-4.8l-8.1,6.25a27.64,27.64,0,0,1,5.8-3.4l-9.55,4a32.21,32.21,0,0,1,7.67-2.06L268.13,307a43.49,43.49,0,0,1,11.11.15L268.6,305.7c9.24,1.35,18,4.84,26.56,8.45l-9.56-4a277.79,277.79,0,0,1,60.8,35.52l-8.1-6.26q5.37,4.15,10.53,8.54c3.24,2.77,6.8,5.5,9.42,8.89l-6.26-8.1a14.33,14.33,0,0,1,1.39,2.36l-4-9.56a9.24,9.24,0,0,1,.56,2.06l-1.43-10.63a10,10,0,0,1,0,1.55l1.42-10.63a8.8,8.8,0,0,1-.44,1.75l4-9.55a9.12,9.12,0,0,1-1.13,1.93l6.26-8.1a13.72,13.72,0,0,1-2,1.95l8.1-6.25a26.67,26.67,0,0,1-5.63,3.12l9.56-4c-19.47,8.09-39.18,15.64-58.77,23.45L355,386.88c6.2-12.18,11.91-24.47,17.07-37.14a125.93,125.93,0,0,0,8.35-29.28c1.12-7.74,2.35-15.52,2.27-23.36a141.22,141.22,0,0,0-2.61-23.3,66.11,66.11,0,0,0-3.85-13.15c-2.89-7.07-5.62-14.26-10.15-20.46-4.16-5.71-8.49-11.71-13.87-16.4a102.68,102.68,0,0,0-17.35-12.71,119.2,119.2,0,0,0-19.5-8.4,71.86,71.86,0,0,0-11.2-2.77C292.78,198,281.51,196.69,270,198s-22.85,2.9-33.75,7-21.71,8.71-31.33,15.26-19.1,13.89-26.43,22.92c-4.57,5.62-9.3,11.45-12.91,17.79a120.59,120.59,0,0,0-9.08,20.7c-2.3,6.79-3,13.91-3.86,21a61.38,61.38,0,0,0-.47,11.17,118.38,118.38,0,0,0,3,21.68c1.64,6.77,4.61,13.26,7.44,19.56a51.21,51.21,0,0,0,5.48,9.42c4.09,5.55,8.29,11.5,13.65,16s10.92,9.12,17.26,12.12c7.13,3.38,14.6,6.64,22.41,8.12a151,151,0,0,0,39.33,2.25c24.4-1.72,48.83-4.62,72.94-8.76a378.58,378.58,0,0,0,62-15.7c7.34-2.59,14.5-5.63,21.63-8.74a115.55,115.55,0,0,0,12.07-6.09,138.06,138.06,0,0,0,19-13.92c5.91-5,10.4-11.07,15.05-17.25a56.14,56.14,0,0,0,6.42-10.77c3.11-6.92,6.31-14,7.91-21.45a124.64,124.64,0,0,0,2.84-22.61c.19-7.61-1.06-15.27-2.2-22.74a69.18,69.18,0,0,0-3.16-12.6,125.82,125.82,0,0,0-9.21-20.81c-3.69-6.41-8.46-12.3-13.08-18a82.94,82.94,0,0,0-8.86-9.31c-8.66-7.8-18.34-15-28.8-20.3-11-5.51-22.65-10.22-34.68-12.82a214.26,214.26,0,0,0-25.34-3.69,146,146,0,0,0-15.93-.58A247.65,247.65,0,0,0,298,161.5a231.15,231.15,0,0,0-62.23,21.66c-11.29,5.8-21.27,13.1-31.27,20.9a127.13,127.13,0,0,0-20,19.25c-7.78,9.42-15.18,19.23-20.64,30.2s-10.36,22.73-12.91,34.8a177.12,177.12,0,0,0-3.23,23.25,89.84,89.84,0,0,0,0,13.92,145.79,145.79,0,0,0,3.41,22.86c1.82,7.3,4.93,14.32,8,21.11,3.2,7,8,12.9,12.8,18.87,4.66,5.78,10.75,10.27,16.76,14.53a40.71,40.71,0,0,0,5.34,3.19,114.27,114.27,0,0,0,15.3,6.37,46.44,46.44,0,0,0,6.58,1.61,140.23,140.23,0,0,0,16.85,2.09c7.54.35,15.32-.95,22.67-2.15a64.76,64.76,0,0,0,12.75-3.51,30.11,30.11,0,0,0,13.6-7.16,30.15,30.15,0,0,0,10.3-11.22,29.69,29.69,0,0,0,4.75-14.87,30.37,30.37,0,0,0-.71-15.95l-4-9.56a40.19,40.19,0,0,0-14.35-14.35l-9.55-4a40.19,40.19,0,0,0-21.27,0Z" transform="translate(-78.69 -124.72)"/></g></g><g id="Layer_3" data-name="Layer 3"><path class="cls-3" d="M294.14,470.72c-3.45,12.31,4.42,25.57,16.66,28.92,11.19,3.07,23.83-2.4,29.4-12.55a29.68,29.68,0,0,0,3.71-14.57,32.61,32.61,0,0,0-3.67-14.36c-2.32-4.66-6.11-8-10.19-11.08A32.74,32.74,0,0,0,319.26,442c-15.72-4.42-32.49,2.05-45,11.57A81.31,81.31,0,0,0,259.1,468a93.23,93.23,0,0,0-6.94,9.8A87.54,87.54,0,0,0,246.78,489a34.55,34.55,0,0,0-2.4,7.93,33.69,33.69,0,0,0-.65,7.63,27.76,27.76,0,0,0,2.83,10.77c2.59,5.68,8.15,9.54,13.9,11.48a26.71,26.71,0,0,0,15.19.13c8.37-2.37,15.15-8.4,21.24-14.33a133,133,0,0,0,14.63-17.25A89.62,89.62,0,0,0,321.29,479c2.21-5,4-9.93,3.93-15.53A23.28,23.28,0,0,0,324,456a24.81,24.81,0,0,0-5.82-9.56c-13.08-12.76-33.07-6.31-47.55.05a77.2,77.2,0,0,0-15.42,9,91.53,91.53,0,0,0-15.68,14.4c-2.45,2.95-5,6-6.55,9.48a32.9,32.9,0,0,0-2.6,6.94,26.45,26.45,0,0,0-.43,9.24,19.93,19.93,0,0,0,2.68,8.21,21.54,21.54,0,0,0,7.81,7.68,23.45,23.45,0,0,0,18.26,1.81,29.82,29.82,0,0,0,13.22-8.92,127.54,127.54,0,0,0,7.84-10.48A135.48,135.48,0,0,0,290,476.24c4.17-8.73,7.14-18.2,4.62-27.9a25.94,25.94,0,0,0-1.38-3.62,21.83,21.83,0,0,0-1.67-3.48,27,27,0,0,0-4.56-5.56,30.84,30.84,0,0,0-12.42-6.81c-7.55-2.09-15.23-1.43-22.83-.1a52.1,52.1,0,0,0-12.25,3.93,28.84,28.84,0,0,0-10.18,7.54c-3.26,3.88-6.18,8.38-6.95,13.49a28.4,28.4,0,0,0,.1,11.21,22,22,0,0,0,2.75,6.81c5,8.48,14.31,13.36,24,13.76A28.77,28.77,0,0,0,263.32,482a32.56,32.56,0,0,0,6-4.27,20.17,20.17,0,0,0,2.84-2.93,40.6,40.6,0,0,0,4.2-5.91,42.35,42.35,0,0,0,3.06-7.25,33.71,33.71,0,0,0,1.48-11.29,40.51,40.51,0,0,0-27.66-36.73,31.8,31.8,0,0,0-16.23-.72c-6.21,1.27-11.23,5.42-14.7,10.55a19,19,0,0,0-1.56,3.29,17.34,17.34,0,0,0-1.21,3.41c-.72,3.64-1,7.5.32,11.07a20.59,20.59,0,0,0,5.26,8.66,22.65,22.65,0,0,0,9.13,5.27,20.29,20.29,0,0,0,7,.9,23.29,23.29,0,0,0,7-1.21,25.5,25.5,0,0,0,9-5.45,23.62,23.62,0,0,0,4.76-6.2c4.6-8.57,5.07-18.52,3.22-27.9a36,36,0,0,0-15.7-22.81A30.87,30.87,0,0,0,222,389.63c-7.57,3-14.38,7.31-21.36,11.41l-19,11.17-18.81,11a15.91,15.91,0,0,0-5.38,5.38l-1.51,3.59a11.47,11.47,0,0,0-.27,6,7.51,7.51,0,0,0,1,3.78,7.4,7.4,0,0,0,1.93,3.31,14.23,14.23,0,0,0,7.79,5.38,43.5,43.5,0,0,1,6.89,2.2l-3.58-1.51a47.82,47.82,0,0,1,10.22,6l-3-2.34a57,57,0,0,1,10.25,10.34l-2.34-3A69,69,0,0,1,193.33,477l-1.52-3.59A88.29,88.29,0,0,1,197.69,496l-.53-4c1.78,13.49,1.28,27.12.73,40.68l28-7.57-4.18-8.83-2.34-3-3-2.34-3.58-1.51a11.28,11.28,0,0,0-6-.27,7.41,7.41,0,0,0-3.79,1,14.87,14.87,0,0,0-6,4.62,11.22,11.22,0,0,0-2.68,5.1l-4.82,13.21,29.46,4c-.15-12.51-.35-25-1.37-37.5-1.09-13.36-2.92-26.82-6.6-39.74a147.26,147.26,0,0,0-8.62-22.56,16.71,16.71,0,0,0-9-6.89l-4-.54a11.47,11.47,0,0,0-5.78,1.29,14.36,14.36,0,0,0-7.17,6.14c-1.8,3.41-2.88,7.8-1.51,11.56,9.33,25.67,18.43,51.54,24.24,78.28,1.63,7.5,3,15.07,4,22.68l-.54-4a232.82,232.82,0,0,1,2,25,142.16,142.16,0,0,1-.94,22.22l.54-4A64.92,64.92,0,0,1,200,605.36l1.51-3.59a40.64,40.64,0,0,1-4.94,8.61l2.34-3a33.87,33.87,0,0,1-5.74,5.8l3-2.35a17.66,17.66,0,0,1-3.74,2.22l3.58-1.51a17.57,17.57,0,0,1-4.16,1.14l4-.54a13.87,13.87,0,0,1-3.22,0l4,.54a10.31,10.31,0,0,1-2.12-.54l3.59,1.51a7.39,7.39,0,0,1-1.6-.9l3,2.34a7.76,7.76,0,0,1-1.11-1.11l2.35,3a7.44,7.44,0,0,1-.81-1.46l1.51,3.59a8.54,8.54,0,0,1-.41-1.56l.54,4a9.36,9.36,0,0,1,0-2l-.54,4a13.33,13.33,0,0,1,.93-3.14L200.5,624a66,66,0,0,1,4.05-7q2.05-3.45,3.83-7a125.9,125.9,0,0,0,7.28-18.11,101.25,101.25,0,0,0,3.51-15.66,126.1,126.1,0,0,0,1.55-19.59A121.75,121.75,0,0,0,218.36,535a16.87,16.87,0,0,0-6.9-9l-3.58-1.51a11.48,11.48,0,0,0-6-.27,7.51,7.51,0,0,0-3.79,1,11.14,11.14,0,0,0-4.82,3.1c-2.61,2.84-4.62,6.63-4.4,10.61l2.92,51.56c.22,3.83.29,7.7.76,11.51a35,35,0,0,0,1.59,8.36,27.07,27.07,0,0,0,6,10,28.43,28.43,0,0,0,14.91,7.48c4,.76,8,1.38,12,2,10.63,1.56,21.31,2.81,32,3.56a11.4,11.4,0,0,0,5.78-1.3,11.2,11.2,0,0,0,4.82-3.1l2.35-3a11.24,11.24,0,0,0,1.78-5.58,7.51,7.51,0,0,0,0-4,11.24,11.24,0,0,0-1.78-5.58,15.49,15.49,0,0,0-9-6.89,122.16,122.16,0,0,0-46.19-3.14,11.29,11.29,0,0,0-5.78,1.29,11.14,11.14,0,0,0-4.82,3.1l-2.35,3a11.18,11.18,0,0,0-1.78,5.58,7.51,7.51,0,0,0,0,4,11.15,11.15,0,0,0,1.78,5.58c2.07,3.21,5.14,6,9,6.89a268.09,268.09,0,0,0,65.56,6.55c22.22-.37,44.32-3,66.29-6.18,11.72-1.7,23.41-3.62,35.1-5.56l3.58-1.51a11.36,11.36,0,0,0,4.21-3.87,14.24,14.24,0,0,0,3.22-9.08,17.89,17.89,0,0,0-2-7.58,16.92,16.92,0,0,0-9-6.89,193.86,193.86,0,0,0-43-1.81,196.35,196.35,0,0,0-42.18,7.77,206.18,206.18,0,0,0-24,9.17,15.18,15.18,0,0,0-5.38,5.39,15,15,0,0,0,0,15.14,15.24,15.24,0,0,0,5.38,5.38,68,68,0,0,0,14.89,5.28,72.2,72.2,0,0,0,15.86,1.63A70.89,70.89,0,0,0,332,636.44a50.55,50.55,0,0,0,6.06-3.59,42.81,42.81,0,0,1,6.26-4.08l-3.59,1.51a10.85,10.85,0,0,1,2.67-.76l-4,.53a7.79,7.79,0,0,1,1.6,0l-4-.54a9.18,9.18,0,0,1,1.56.41L335,628.45a7.78,7.78,0,0,1,1.39.76l-3-2.34a6.38,6.38,0,0,1,1.08,1.06l-2.34-3a6.47,6.47,0,0,1,.45.77L331,622.08a4.47,4.47,0,0,1,.26.86l-.53-4a4.32,4.32,0,0,1,.05.62l11-14.47-5.55,1.15,16.94,22c1.76-2.79,3.53-5.58,5.53-8.21l-2.34,3a37.71,37.71,0,0,1,6.52-6.72l-3,2.35a23,23,0,0,1,5-2.93l-3.58,1.51a21.67,21.67,0,0,1,5.18-1.38l-4,.53a18.4,18.4,0,0,1,4.13,0l-4-.54a15.83,15.83,0,0,1,3.58.92l-3.58-1.51a14.91,14.91,0,0,1,2.3,1.23c4.43,2.9,10.69,2.61,15.15,0,4.77-2.79,7.1-7.57,7.43-12.95a568.23,568.23,0,0,0-.75-79.69q-.9-11.29-2.25-22.54l-22.57,13a84.65,84.65,0,0,0,38.57,10.29,14.56,14.56,0,0,0,11.78-5.91A14.89,14.89,0,0,0,415,505.63c-3.46-14-7-28.09-11.74-41.77-5-14.5-11.14-28.91-19.7-41.7a125.37,125.37,0,0,0-17.44-21.08c-2.7-2.57-6.78-4.56-10.6-4.39s-8.14,1.37-10.61,4.39a578.61,578.61,0,0,1-39.17,43.36q-5.89,5.9-11.95,11.62l-2.34,3L290,462.68l-.53,4a11.29,11.29,0,0,0,1.29,5.78,14.87,14.87,0,0,0,4.62,6,7.39,7.39,0,0,0,3.31,1.92,11.37,11.37,0,0,0,5.78,1.3,156.18,156.18,0,0,0,28.19.58A179.83,179.83,0,0,0,364,477.31a157.23,157.23,0,0,0,15.47-4.8c3.57-1.32,7.1-3.38,9-6.9s2.85-7.77,1.52-11.56a23.79,23.79,0,0,0-2.33-5.23,20.57,20.57,0,0,0-3.74-4.47c-3-2.49-6.24-4.59-10.14-5.32a28.79,28.79,0,0,0-12.05.08,13.48,13.48,0,0,0-2.14.64,28.43,28.43,0,0,0-5.55,2.56,26.31,26.31,0,0,0-8.28,8.48A32.91,32.91,0,0,0,343,457a16.5,16.5,0,0,0-.74,3.18,37,37,0,0,0-.5,10.11,60.63,60.63,0,0,0,1.9,10.28,34.5,34.5,0,0,0,3.69,8.66,26.83,26.83,0,0,0,3.78,4.84,30.59,30.59,0,0,0,3.76,3,8.41,8.41,0,0,0,1.37.77,22.24,22.24,0,0,0,9.51,2.44,21,21,0,0,0,9.9-2.53,22.11,22.11,0,0,0,5.08-3.68,8.75,8.75,0,0,0,1-1,28.35,28.35,0,0,0,3.14-4.24,28,28,0,0,0,3.35-13.48,56.67,56.67,0,0,0-.69-7.47,92.19,92.19,0,0,0-1.74-10.6,42,42,0,0,0-3.78-9.57,30.35,30.35,0,0,0-17.25-14.06,30,30,0,0,0-6.31-1.08,24.41,24.41,0,0,0-6.64.53c-4.26.69-8.08,3.11-11.26,5.92a28.87,28.87,0,0,0-4.14,5,20.76,20.76,0,0,0-1.66,2.85c-1.6,3.28-2.89,6.72-4.28,10.1l-6.36,15.48-25.64,62.39-25.63,62.38L269.58,605a15,15,0,0,0,3.85,14.59,26.24,26.24,0,0,0,12.6,6.79,32.39,32.39,0,0,0,14.49-.36,31.22,31.22,0,0,0,10.06-4.55,40.16,40.16,0,0,0,5.62-4.56,44.27,44.27,0,0,0,4.73-6,50.55,50.55,0,0,0,5.33-11.21,84.72,84.72,0,0,0,2.6-9c1.56-6.43,3.17-12.83,5.19-19.13,2.32-7.26,5-14.39,8-21.41l-1.52,3.58c6.69-15.8,14.68-31,23-46q3.54-6.43,7.14-12.84L343.2,483.37q-8.34,24-15.27,48.48t-12.3,49.07q-3.08,14-5.68,28.1a11.48,11.48,0,0,0-.27,6,11.21,11.21,0,0,0,1.78,5.58,15.27,15.27,0,0,0,9,6.89c3.84.88,8.15.69,11.56-1.51l3-2.35a14.9,14.9,0,0,0,3.86-6.62l18.91-47.32,5.44-13.62H334.3a96.25,96.25,0,0,1,4.08,17.56l-.54-4a95.88,95.88,0,0,1,0,24.93l.54-4c-.09.61-.17,1.22-.27,1.83l29.47,4a213.45,213.45,0,0,1,.25-54.28l-.53,4q1.23-9.08,3.21-18A15.88,15.88,0,0,0,369,516.52a15.28,15.28,0,0,0-9-6.89c-3.84-.88-8.15-.69-11.56,1.51a15.55,15.55,0,0,0-6.9,9,98.12,98.12,0,0,1-4.46,13l1.52-3.58a102.87,102.87,0,0,1-13.13,22.39l2.34-3A103.19,103.19,0,0,1,309.81,567l3-2.35a98.14,98.14,0,0,1-21.53,12.63l3.58-1.51a102.14,102.14,0,0,1-25.62,7l4-.53a103.52,103.52,0,0,1-27.41,0l4,.54a100,100,0,0,1-16.48-3.72l-4,29.46,42.47-.17a15.33,15.33,0,0,0,10.61-4.4l2.34-3a11.11,11.11,0,0,0,1.78-5.58,7.51,7.51,0,0,0,0-4,11.11,11.11,0,0,0-1.78-5.57,15.67,15.67,0,0,0-9-6.9,44.23,44.23,0,0,1-5.23-1.8l3.58,1.51a41.83,41.83,0,0,1-8.79-5.13l3,2.34c-.44-.35-.89-.7-1.32-1.07l-6.62,25.07,16.76-3.33,3.58-1.52a11.34,11.34,0,0,0,4.21-3.86,14.24,14.24,0,0,0,3.22-9.09,17.76,17.76,0,0,0-2.05-7.57c-1.87-3.54-5.39-5.55-9-6.89L254.33,559l-4,29.46,24.38,1.68a16.7,16.7,0,0,0,10.61-4.39l2.35-3a11.21,11.21,0,0,0,1.78-5.57,7.71,7.71,0,0,0,0-4,11.21,11.21,0,0,0-1.78-5.58,15.41,15.41,0,0,0-9-6.89,43.11,43.11,0,0,1-6.06-2l3.59,1.52a42.24,42.24,0,0,1-8.81-5.15l3,2.35c-.45-.35-.89-.71-1.32-1.07l-10.61,25.6,41.78-1.94,4-.53a11.34,11.34,0,0,0,5.1-2.69,14.32,14.32,0,0,0,5.38-7.79,17.91,17.91,0,0,0,0-8c-.85-3.69-3.78-7-6.9-9L273.69,530.4v25.9c.39-.18.79-.37,1.19-.54l-3.58,1.51a33.49,33.49,0,0,1,8-2.09l-4,.54c10.1-1.35,20.48,0,30.37-3.09a39.74,39.74,0,0,0,9-3.91,48.37,48.37,0,0,0,5.14-3.84,14.52,14.52,0,0,0,2-2,39.46,39.46,0,0,0,3.58-4.76,37.28,37.28,0,0,0,2.63-5.76,29.72,29.72,0,0,0,1.7-8.67,13.88,13.88,0,0,0-.06-2.81,28.61,28.61,0,0,0-1.06-6.22c-1.43-4-3.41-7.89-6.7-10.73-2.91-2.52-6.59-4.58-10.61-4.4a15.65,15.65,0,0,0-10.6,4.4q-22.44,22.2-43,46.24-5.85,6.85-11.54,13.86l23.56,18.18L304,532.35l1.51-3.58a11.27,11.27,0,0,0,.27-6,7.41,7.41,0,0,0-1-3.79,11.23,11.23,0,0,0-3.1-4.82l-2.91-3a15,15,0,0,0-14.6-3.86,113.05,113.05,0,0,0-47.23,34.31L262,548.25l-14.74-61.42-4.18-17.41a15.13,15.13,0,0,0-6.89-9l-3.59-1.51a11.27,11.27,0,0,0-6-.27,7.5,7.5,0,0,0-3.78,1A11.26,11.26,0,0,0,218,462.8l-2.35,3a14.93,14.93,0,0,0-2,7.57L223,546.48l2.66,20.74,29.46-4a501.4,501.4,0,0,1-18.82-73.15q-1.87-10.54-3.3-21.15l.54,4q-2.66-19.8-3.73-39.76c-.29-5.36-2.68-10.17-7.43-13a15,15,0,0,0-15.14,0l-8.53,4.31c-3.24,1.63-5.95,5.55-6.89,9A15.34,15.34,0,0,0,193.28,445c2.07,3.2,5.14,6,9,6.9l4,.53a14.91,14.91,0,0,0,7.57-2.05l8.53-4.3-22.57-13A540.84,540.84,0,0,0,206,490.08a500.8,500.8,0,0,0,11.33,52.26q4,14.56,8.84,28.87c1.2,3.54,3.46,7.15,6.9,9l3.58,1.51a11.27,11.27,0,0,0,6,.27,7.53,7.53,0,0,0,3.79-1,11.28,11.28,0,0,0,4.82-3.11l2.35-3a15,15,0,0,0,2.05-7.57l-9.36-73.08L243.6,473.4l-29.47,4,14.75,61.42,4.17,17.42a15,15,0,0,0,25.08,6.61,99,99,0,0,1,17.33-17.15l-3,2.34a99.17,99.17,0,0,1,21.77-12.68l-3.58,1.52,1.51-.62-14.6-3.86,2.91,3-2.34-18.18-34.3,49.91a11.31,11.31,0,0,0-1.78,5.57,11.47,11.47,0,0,0,.27,6,15.58,15.58,0,0,0,5.38,7.8,14.36,14.36,0,0,0,9.09,3.22c3.73-.17,8.14-1.37,10.6-4.4q19.92-24.48,41.83-47.26,6.26-6.49,12.67-12.84H300.64a11.07,11.07,0,0,1,1.31,1.34l-2.35-3a10.73,10.73,0,0,1,1.25,2.08L299.34,522a11.84,11.84,0,0,1,.81,2.92l-.54-4a14.14,14.14,0,0,1,0,3.44l.54-4a16.39,16.39,0,0,1-1.1,4.06l1.51-3.59a16.71,16.71,0,0,1-2.14,3.65l2.34-3a15.34,15.34,0,0,1-2.64,2.58l3-2.34a22.7,22.7,0,0,1-4.8,2.71l3.59-1.51a34.45,34.45,0,0,1-8.13,2.08l4-.54c-5.05.67-10.14.54-15.21.81a84.58,84.58,0,0,0-11.22,1.32,44,44,0,0,0-10.82,3.83c-4.66,2.22-7.43,8-7.43,13a15.24,15.24,0,0,0,7.43,12.95l34.19,21.57,7.57-28-41.78,1.94a16.67,16.67,0,0,0-7.57,2,14.92,14.92,0,0,0-6.14,7.17,15.1,15.1,0,0,0-1,7.78c.4,3,1.68,6.58,4.12,8.61a58.36,58.36,0,0,0,10.67,7.39,59.37,59.37,0,0,0,12.15,4.71l4-29.47-24.38-1.68a16.64,16.64,0,0,0-10.61,4.4l-2.34,3a11.11,11.11,0,0,0-1.78,5.58,7.51,7.51,0,0,0,0,4,11.11,11.11,0,0,0,1.78,5.57l2.34,3a15.11,15.11,0,0,0,6.62,3.86l22.91,8.61V567.57l-16.76,3.34c-5,1-9.16,5.71-10.47,10.47a15,15,0,0,0,3.85,14.6,55,55,0,0,0,22,11.86l4-29.46-42.47.17a15.31,15.31,0,0,0-10.6,4.4l-2.35,3a11.21,11.21,0,0,0-1.78,5.58,7.51,7.51,0,0,0,0,4,11.21,11.21,0,0,0,1.78,5.57,16.2,16.2,0,0,0,9,6.9,100.86,100.86,0,0,0,16.47,3.71,122.81,122.81,0,0,0,20.44,1.42,114.82,114.82,0,0,0,36.24-6.72,119.47,119.47,0,0,0,18.33-8.4,120.77,120.77,0,0,0,15.35-10.75,114.39,114.39,0,0,0,22.7-25,112.08,112.08,0,0,0,15.61-34.2l-28.93-8a228.27,228.27,0,0,0-5.38,60.21c.25,5.37.72,10.73,1.38,16.07A16.7,16.7,0,0,0,342,607l3,2.34a11.11,11.11,0,0,0,5.57,1.78,7.51,7.51,0,0,0,4,0,11.11,11.11,0,0,0,5.58-1.78c3.06-2,6.32-5.2,6.89-9a109.52,109.52,0,0,0-3.83-52.29l-1.51-3.59a11.33,11.33,0,0,0-3.87-4.2,14.24,14.24,0,0,0-9.08-3.22,17.75,17.75,0,0,0-7.58,2,16.92,16.92,0,0,0-6.89,9L315.39,595.4,310,609l28.93,8q4.62-25,10.71-49.68t13.57-48.74q4.26-13.68,9-27.23a16.82,16.82,0,0,0-1.51-11.56l-2.35-3a11.14,11.14,0,0,0-4.82-3.1,14.42,14.42,0,0,0-9.77-.76,15.43,15.43,0,0,0-9,6.89c-7.78,13.92-15.54,27.84-22.5,42.18-7.42,15.27-14.1,31-18.84,47.36-2.33,8-3.58,16.54-6.8,24.31l1.52-3.58a32.38,32.38,0,0,1-4,7l2.35-3a20.54,20.54,0,0,1-3.46,3.45l3-2.35a21.69,21.69,0,0,1-4.45,2.58l3.58-1.52a20,20,0,0,1-4.55,1.27l4-.54a16.11,16.11,0,0,1-4.22,0l4,.53a13.56,13.56,0,0,1-3.05-.85l3.58,1.51a12.42,12.42,0,0,1-2.48-1.48l3,2.35c-.26-.21-.51-.43-.75-.65L298.51,613,323,553.36l24.5-59.61c4.58-11.14,9.07-22.32,13.74-33.43l-1.51,3.58a24.52,24.52,0,0,1,2.79-5.13l-2.35,3a12.51,12.51,0,0,1,1.86-1.92l-3,2.35a9.81,9.81,0,0,1,2.12-1.24l-3.59,1.51a10.79,10.79,0,0,1,2.23-.59l-4,.54a11.74,11.74,0,0,1,2.65,0l-4-.53a13.52,13.52,0,0,1,3.29.91l-3.58-1.51a16.17,16.17,0,0,1,3.31,2l-3-2.34a15.53,15.53,0,0,1,2.46,2.47l-2.35-3a20.9,20.9,0,0,1,2.43,4.23L355.46,461A41.85,41.85,0,0,1,358,471.56l-.53-4a40.93,40.93,0,0,1,.6,9.69l.54-4a13.58,13.58,0,0,1-.72,2.94l1.51-3.59a10,10,0,0,1-1.25,2.17l2.34-3a9.8,9.8,0,0,1-1.52,1.5l3-2.34a9.36,9.36,0,0,1-1.5.88l3.59-1.51a7.18,7.18,0,0,1-1.65.44l4-.53a6.37,6.37,0,0,1-1.38,0l4,.54a7.67,7.67,0,0,1-1.25-.33l3.58,1.51a7.57,7.57,0,0,1-1.36-.77l3,2.34a9.57,9.57,0,0,1-1.59-1.59l2.35,3a15.21,15.21,0,0,1-1.83-3.27l1.51,3.58a36.76,36.76,0,0,1-2.23-8.52l.54,4a25.32,25.32,0,0,1-.13-6.33l-.53,4a17.42,17.42,0,0,1,1-4.09l-1.51,3.58a14.35,14.35,0,0,1,1.64-2.94l-2.34,3a9.88,9.88,0,0,1,1.75-1.73l-3,2.34a11.67,11.67,0,0,1,2.41-1.36l-3.58,1.51a13.18,13.18,0,0,1,3-.78l-4,.54a12,12,0,0,1,3,0l-4-.53a9.83,9.83,0,0,1,2.26.62L364.17,467a8.23,8.23,0,0,1,1.52.88l-3-2.35a8,8,0,0,1,1.24,1.23l-2.35-3a7.44,7.44,0,0,1,.78,1.34l-1.51-3.58c.07.17.13.34.19.51l10.47-18.45a157.29,157.29,0,0,1-33.18,8.22l4-.54a156.72,156.72,0,0,1-37.86.41l10.6,25.6a579.12,579.12,0,0,0,40.4-42.21q5.46-6.3,10.72-12.76H344.93A105.17,105.17,0,0,1,355.46,434l-2.35-3a139.59,139.59,0,0,1,17.64,31l-1.52-3.59c5.82,13.84,10,28.29,13.74,42.8,1.07,4.13,2.1,8.27,3.12,12.42l14.46-19a72,72,0,0,1-7.62-.58l4,.53a69.3,69.3,0,0,1-17.31-4.72l3.59,1.51c-2.08-.88-4.1-1.86-6.08-2.93a15.26,15.26,0,0,0-15.14,0,15.07,15.07,0,0,0-5.38,5.38,14.91,14.91,0,0,0-2.05,7.57,569.17,569.17,0,0,1,3.93,79.6q-.24,11.32-.93,22.63l22.57-13a28.06,28.06,0,0,0-16.84-4.26,36.74,36.74,0,0,0-16.59,5.09c-8.48,5.24-14.17,13.38-19.38,21.66l-1.51,3.58-.54,4a14.84,14.84,0,0,0,3.22,9.09,14.87,14.87,0,0,0,6,4.62,7.5,7.5,0,0,0,3.79,1,11.28,11.28,0,0,0,6-.27l5.54-1.15,3.58-1.51a11.26,11.26,0,0,0,4.21-3.86,14.21,14.21,0,0,0,3.22-9.09,21.19,21.19,0,0,0-.79-5.32,20.08,20.08,0,0,0-4.36-7.53,15.19,15.19,0,0,0-2.6-2.24,14.13,14.13,0,0,0-2.91-1.93c-3.43-1.57-6.54-2.64-10.41-2.52a25.37,25.37,0,0,0-10.94,3c-2.7,1.33-5,3.38-7.51,5a51.6,51.6,0,0,1-7.63,4l3.59-1.51a55.14,55.14,0,0,1-13.58,3.66l4-.53a56,56,0,0,1-14.46,0l4,.54a52.35,52.35,0,0,1-13.18-3.6l3.58,1.52c-.6-.26-1.19-.53-1.78-.81v25.91c1.23-.55,2.47-1.09,3.71-1.62l-3.58,1.51A178.68,178.68,0,0,1,331,624.84l-4,.54a178.34,178.34,0,0,1,47.13,0l-4-.53,1.79.25V596.14c-14.54,2.41-29.09,4.8-43.69,6.76l4-.53c-24.48,3.27-49.22,5.38-73.92,4.12q-10.42-.53-20.78-1.9l4,.53q-10.38-1.41-20.59-3.79l-4,29.47a111.73,111.73,0,0,1,29.23,0l-4-.53a112.78,112.78,0,0,1,13,2.56l4-29.46q-11.76-.82-23.44-2.38l4,.54q-5.83-.78-11.65-1.75c-3.3-.55-6.72-1-9.84-2.23l3.58,1.52a13,13,0,0,1-2.6-1.51l3,2.35a11.3,11.3,0,0,1-1.57-1.6l2.34,3a11.83,11.83,0,0,1-1.27-2.21l1.51,3.58a18.61,18.61,0,0,1-1.19-4.71l.53,4c-.46-3.73-.53-7.52-.74-11.26l-.71-12.46-1.42-25.16L218.89,539l-29.46,4q.57,2.91,1,5.84l-.53-4a101.71,101.71,0,0,1,0,26.55l.53-4a102.63,102.63,0,0,1-7.11,26l1.51-3.58a97.48,97.48,0,0,1-5.26,10.59c-2.57,4.48-5.5,8.58-7,13.62a25.88,25.88,0,0,0-.95,6.35,20,20,0,0,0,.86,6.34,28.83,28.83,0,0,0,1.83,4.37,7,7,0,0,0,.48.84,20.79,20.79,0,0,0,3.4,4.21,23.13,23.13,0,0,0,17.14,6,31.24,31.24,0,0,0,15.13-4.78A47.24,47.24,0,0,0,221.28,627a59.55,59.55,0,0,0,10.58-22.91,120.2,120.2,0,0,0,2.79-24.87A215.22,215.22,0,0,0,233.48,553a333,333,0,0,0-10.8-55.45c-4.79-17.07-10.59-33.83-16.6-50.5q-1.12-3.12-2.26-6.22l-27.41,11.55q1.14,2.4,2.17,4.85l-1.51-3.58a148.34,148.34,0,0,1,9.67,37.48l-.53-4c2.2,16.54,2.48,33.24,2.69,49.9a15.31,15.31,0,0,0,4.4,10.61l3,2.35a11.21,11.21,0,0,0,5.58,1.78,7.71,7.71,0,0,0,4,0,11.21,11.21,0,0,0,5.57-1.78l3-2.35a15,15,0,0,0,3.86-6.62l4.81-13.2-27.41,3.58,4.17,8.83,2.35,3a11.26,11.26,0,0,0,4.83,3.11,14.39,14.39,0,0,0,9.76.75,17.74,17.74,0,0,0,6.62-3.86c2.87-2.63,4.24-6.83,4.39-10.6.74-18.44,1.16-37.1-3.22-55.17a87.77,87.77,0,0,0-9.43-23.58,89.26,89.26,0,0,0-7.91-11.09,56.77,56.77,0,0,0-7.12-7.34c-7.5-6.42-16.13-11.52-25.84-13.75L178,449.16l43.17-25.35a108.91,108.91,0,0,1,11.63-6.43l-3.58,1.51a23.52,23.52,0,0,1,5.75-1.66l-4,.54a16.81,16.81,0,0,1,4,0l-4-.54a17,17,0,0,1,4,1.08l-3.58-1.51a19.2,19.2,0,0,1,4.22,2.47l-3-2.34a20.84,20.84,0,0,1,3.46,3.5l-2.34-3a22.8,22.8,0,0,1,2.63,4.6l-1.51-3.58a27.29,27.29,0,0,1,1.75,6.53l-.54-4a32.32,32.32,0,0,1,0,8.28l.53-4a22.05,22.05,0,0,1-1.32,5.06l1.51-3.58a14.82,14.82,0,0,1-1.82,3.16l2.35-3a11.78,11.78,0,0,1-1.79,1.81l3-2.34a9.16,9.16,0,0,1-1.88,1.12l3.59-1.52a9.74,9.74,0,0,1-2.37.62l4-.53a10.83,10.83,0,0,1-2.13,0l4,.53a8.72,8.72,0,0,1-2-.51l3.58,1.52a7.71,7.71,0,0,1-1.51-.85l3,2.35a7.48,7.48,0,0,1-1-1l2.35,3a6.45,6.45,0,0,1-.75-1.26l1.51,3.58a6.74,6.74,0,0,1-.42-1.6l.53,4a8.16,8.16,0,0,1,0-1.64l-.54,4a9.18,9.18,0,0,1,.45-1.61l-1.51,3.58a9.61,9.61,0,0,1,1.21-2.05l-2.34,3a9.48,9.48,0,0,1,1.47-1.43l-3,2.34a9.92,9.92,0,0,1,1.94-1.08L243,442.4a12.73,12.73,0,0,1,2.71-.71l-4,.54a16.23,16.23,0,0,1,4.06,0l-4-.54a21.84,21.84,0,0,1,5,1.4l-3.58-1.51a24.19,24.19,0,0,1,5.07,2.94l-3-2.34a26.24,26.24,0,0,1,4.66,4.64l-2.34-3a27.3,27.3,0,0,1,3.34,5.69l-1.51-3.59a26.23,26.23,0,0,1,1.76,6.33l-.54-4a23.53,23.53,0,0,1,0,5.87l.54-4a22.57,22.57,0,0,1-1.54,5.54l1.51-3.58a21.82,21.82,0,0,1-2.53,4.36l2.35-3a19.4,19.4,0,0,1-3.23,3.3l3-2.34a16.74,16.74,0,0,1-3.63,2.14L250.8,455a14.58,14.58,0,0,1-3.3.92l4-.53a14.3,14.3,0,0,1-3.58,0l4,.53a16,16,0,0,1-3.46-.94L252,456.5a15.39,15.39,0,0,1-3.35-2l3,2.34a13.63,13.63,0,0,1-2.23-2.26l2.35,3a12.44,12.44,0,0,1-1.27-2.17l1.51,3.59a11,11,0,0,1-.76-2.75l.53,4a12.55,12.55,0,0,1,0-2.6l-.54,4a13.73,13.73,0,0,1,.89-3.28L250.68,462a16.14,16.14,0,0,1,2-3.3l-2.35,3a18.24,18.24,0,0,1,3-3l-3,2.35a22.92,22.92,0,0,1,4.75-2.68L251.45,460A43.93,43.93,0,0,1,262,457.34l-4,.53a37,37,0,0,1,9.63-.13l-4-.54a21.38,21.38,0,0,1,5.11,1.34L265.18,457a14.56,14.56,0,0,1,3.28,1.91l-3-2.35a13.37,13.37,0,0,1,2,2l-2.35-3a13.3,13.3,0,0,1,1.48,2.49l-1.52-3.58a13.38,13.38,0,0,1,.93,3.34l-.53-4a18.49,18.49,0,0,1-.06,4.7l.54-4a33.41,33.41,0,0,1-2.35,7.88l1.52-3.59a123.13,123.13,0,0,1-15.45,25.74l2.35-3a27.05,27.05,0,0,1-4.49,4.77l3-2.35a13.83,13.83,0,0,1-2.71,1.63l3.58-1.51a11.07,11.07,0,0,1-2.47.7l4-.53a10.28,10.28,0,0,1-2.54,0l4,.54a9.5,9.5,0,0,1-1.72-.46l3.58,1.51a7.85,7.85,0,0,1-1.54-.88l3,2.35a8.37,8.37,0,0,1-1.18-1.2l2.35,3a7.89,7.89,0,0,1-.78-1.35l1.51,3.58a8,8,0,0,1-.47-1.8l.53,4a10.69,10.69,0,0,1,.05-2.59l-.54,4a17,17,0,0,1,1.06-3.7l-1.51,3.59a24.27,24.27,0,0,1,3.1-5.24l-2.35,3a76.28,76.28,0,0,1,13.27-13.12l-3,2.34a78.67,78.67,0,0,1,17.15-10l-3.58,1.51a64.45,64.45,0,0,1,16-4.65l-4,.54a24.62,24.62,0,0,1,5.88-.08l-4-.53a14.19,14.19,0,0,1,3.5.9l-3.59-1.51a10.94,10.94,0,0,1,2.2,1.27l-3-2.35a10.52,10.52,0,0,1,1.59,1.61l-2.35-3a10,10,0,0,1,1.11,2L295.08,464a11,11,0,0,1,.58,2.18l-.54-4a13.82,13.82,0,0,1,0,3.46l.54-4A24,24,0,0,1,294,467.1l1.51-3.58c-3,7-7.38,13.5-12,19.47l2.34-3a103.23,103.23,0,0,1-17.55,18l3-2.34a26.81,26.81,0,0,1-5.33,3.28l3.58-1.51a15.86,15.86,0,0,1-3.76,1.08l4-.54a13.58,13.58,0,0,1-3.31,0l4,.53a11.72,11.72,0,0,1-2.46-.64l3.59,1.52a10.38,10.38,0,0,1-2.17-1.25l3,2.34a9.6,9.6,0,0,1-1.28-1.27l2.35,3a10,10,0,0,1-1.23-2.1l1.52,3.59a11.5,11.5,0,0,1-.68-2.7l.53,4a17.18,17.18,0,0,1,.08-4l-.53,4a32.92,32.92,0,0,1,2.4-7.92l-1.51,3.58a65.9,65.9,0,0,1,8.46-14.4l-2.34,3a67.94,67.94,0,0,1,12.13-12.07l-3,2.34a63.6,63.6,0,0,1,13.33-7.91l-3.58,1.51a39.13,39.13,0,0,1,9.77-2.79l-4,.54a28.11,28.11,0,0,1,7,0l-4-.54a25.1,25.1,0,0,1,6.2,1.69l-3.59-1.51a22,22,0,0,1,4.51,2.65l-3-2.34a19.22,19.22,0,0,1,3.14,3.17l-2.35-3a16.49,16.49,0,0,1,1.95,3.38l-1.52-3.58a16.93,16.93,0,0,1,1.07,4.08l-.53-4a17,17,0,0,1,0,3.84l.53-4a15.49,15.49,0,0,1-.95,3.67l1.51-3.58a13.91,13.91,0,0,1-1.52,2.68l2.34-3a12.45,12.45,0,0,1-2,2l3-2.34a13.06,13.06,0,0,1-2.59,1.55l3.59-1.51a12.73,12.73,0,0,1-2.89.83l4-.54a11.36,11.36,0,0,1-3,0l4,.54a10,10,0,0,1-2.16-.59l3.58,1.51a9.61,9.61,0,0,1-1.79-1l3,2.35a10.57,10.57,0,0,1-1.72-1.69l2.34,3a10.59,10.59,0,0,1-1.22-2.08l1.51,3.59a9.66,9.66,0,0,1-.62-2.3l.53,4a9.18,9.18,0,0,1,0-2l-.54,4c.06-.35.14-.67.23-1a15.47,15.47,0,0,0-1.51-11.55,15.28,15.28,0,0,0-9-6.9c-3.84-.87-8.15-.68-11.55,1.51a15.73,15.73,0,0,0-6.9,9Z" transform="translate(-78.69 -124.72)"/><path class="cls-3" d="M142.45,485.79a196.52,196.52,0,0,0-6,34.89,5,5,0,0,0,3.67,4.83c2,.46,4.68-.26,5.65-2.3a76.08,76.08,0,0,0,7.16-40.45l-2.48,4.32-3.35-.11,2.53-9.32-2.55-.22c-2.61-.22-5.11,2.46-5,5a5.13,5.13,0,0,0,5,5l2.55.22a5,5,0,0,0,4.82-3.67c.46-2-.26-4.69-2.3-5.64a6.73,6.73,0,0,0-6.74.11,4.94,4.94,0,0,0-2.48,4.31,71.87,71.87,0,0,1,.38,9.39c0,1.65-.15,3.28-.31,4.92-.07.74-.16,1.48-.25,2.22.14-1.15,0,.33-.07.45l-.18,1.1a71.5,71.5,0,0,1-2.19,9.14c-.47,1.5-1,3-1.55,4.44-.13.35-.27.7-.41,1s-.39.91-.1.26c-.36.82-.73,1.63-1.11,2.44l9.31,2.52q.34-4.18.87-8.36c0-.09.14-1.05.07-.53s.11-.79.1-.76c.09-.63.19-1.27.28-1.9.22-1.43.45-2.85.7-4.27q1.45-8.28,3.64-16.42a5,5,0,1,0-9.64-2.65Z" transform="translate(-78.69 -124.72)"/><path class="cls-4" d="M210.53,394.93a128,128,0,0,0,36.6-3.21,5,5,0,0,0,3.49-6.15,5.11,5.11,0,0,0-6.15-3.49c-2.8.65-5.63,1.22-8.47,1.68-.71.12-1.43.23-2.14.33-.35.05-1.07.14-.33.05l-1,.12c-1.51.18-3,.34-4.53.46a123.31,123.31,0,0,1-17.51.21,5,5,0,0,0-5,5,5.1,5.1,0,0,0,5,5Z" transform="translate(-78.69 -124.72)"/><path class="cls-4" d="M271.51,413.9a203.12,203.12,0,0,1-30.66-31.52c-1.62-2.08-5.4-1.83-7.07,0-2,2.19-1.73,4.86,0,7.07A202.68,202.68,0,0,0,264.44,421c2,1.67,5.12,2.12,7.07,0,1.69-1.84,2.15-5.29,0-7.07Z" transform="translate(-78.69 -124.72)"/><path class="cls-4" d="M269,405.44l-13.23-17.56a5.47,5.47,0,0,0-3-2.29,5.12,5.12,0,0,0-3.85.5,5,5,0,0,0-2.3,3,4.84,4.84,0,0,0,.5,3.85l13.23,17.56a5.47,5.47,0,0,0,3,2.29,5,5,0,0,0,6.15-3.49,4.84,4.84,0,0,0-.5-3.85Z" transform="translate(-78.69 -124.72)"/><path class="cls-4" d="M308.9,432.71a9.06,9.06,0,0,0-8.14,2.14,15.22,15.22,0,0,0-1.82,1.86c-.23.28-1.18,1.68-1.59,1.71.51-.38.62-.46.32-.26a4,4,0,0,1-.45.25c.24-.37,1.76-.21.88-.3q1.15.21.36,0c.63.29.77.35.44.16-1-.79.43.63-.21-.17-.2-.26-.6-.49-.72-.8.36.48.44.58.22.28-.11-.14-.21-.29-.31-.44-.51-.72-1-1.45-1.49-2.17A78.07,78.07,0,0,0,280,418c-2.09-1.6-5.69-.39-6.85,1.79-1.39,2.65-.43,5.14,1.8,6.84-.88-.67.33.27.5.41.39.31.77.63,1.15.95.66.55,1.3,1.11,1.93,1.68q2.06,1.88,4,3.89t3.64,4.2c.17.22.35.44.52.67h0l.76,1c.54.74,1.05,1.49,1.56,2.25,2.57,3.8,6.32,7.42,11.34,6.09a10.87,10.87,0,0,0,5.27-3.51c.54-.63,1.09-1.24,1.65-1.86.43-.37.41-.37,0,0l.34-.22c-.6.21-.64.22-.11.06a2.36,2.36,0,0,1-1.15,0c2.54.6,5.54-.8,6.15-3.49a5.07,5.07,0,0,0-3.49-6.15Z" transform="translate(-78.69 -124.72)"/><path class="cls-4" d="M274.87,428.06a57.25,57.25,0,0,1,11.32,6.8l-1-.78.85.68,3.53-8.54-3.25,0a29.59,29.59,0,0,1-3,0l1.33.18a4.34,4.34,0,0,1-.93-.22l1.2.5a3.67,3.67,0,0,1-.48-.26l1,.78a3.48,3.48,0,0,1-.48-.46l.78,1a4.27,4.27,0,0,1-.42-.71l.5,1.19a6,6,0,0,1-.39-1.49l.18,1.32c-.2-1.71-.05-3.54-.72-5.16a5.5,5.5,0,0,0-2.3-3,5,5,0,0,0-6.84,1.79,4.86,4.86,0,0,0-.5,3.86,6,6,0,0,1,.36,1.4l-.18-1.33a32.86,32.86,0,0,0,.5,4.53,8.09,8.09,0,0,0,3.67,5,11,11,0,0,0,5.6,1.07l4.34,0a5,5,0,0,0,4.57-3.07,4.8,4.8,0,0,0,.35-2.59,4.61,4.61,0,0,0-1.38-2.88,61.27,61.27,0,0,0-13.18-8.25,5.43,5.43,0,0,0-3.85-.51,5.11,5.11,0,0,0-3,2.3,5,5,0,0,0-.5,3.85,4.82,4.82,0,0,0,2.29,3Z" transform="translate(-78.69 -124.72)"/><path class="cls-4" d="M173.24,648.07l6.64-.11a5.06,5.06,0,0,0,5-5c-.13-3-2.2-4.69-5-5,.68.07.51.08-.06,0l-.78-.19c-.33-.09-.64-.21-1-.31-.89-.28.38.25-.11,0s-1.05-.59-1.56-.91-.27-.23,0,.06c-.3-.27-.6-.53-.89-.81l-1,7.85c.38-.2.77-.38,1.15-.57s.52-.23,0,0l.59-.23a25,25,0,0,1,2.42-.74c.89-.22,1.79-.39,2.7-.54-.89.15-.07,0,.36,0s.85-.08,1.28-.1a58.26,58.26,0,0,1,10.56.41c3.91.45,7.79,1.09,11.71,1.43a48.81,48.81,0,0,0,12.83-.49c2.44-.43,3.88-3.24,3.58-5.48s-2.43-4.57-4.91-4.34a165.63,165.63,0,0,0-37.88,8,5.12,5.12,0,0,0-3.67,4.82c.09,2,1.46,4.46,3.67,4.83a204,204,0,0,0,53,1.9c2.59-.25,5.13-2.12,5-5-.11-2.49-2.21-5.27-5-5a197.77,197.77,0,0,1-25.64.84q-6.36-.19-12.69-.81c-2.11-.21-4.21-.47-6.32-.72-.36-.05-.32,0,.12,0l-1-.13L185,641.4c-1.13-.17-2.26-.35-3.38-.54v9.65a158.65,158.65,0,0,1,17.81-4.94c2.93-.63,5.89-1.18,8.86-1.64.78-.13,1.56-.24,2.34-.35l.47-.07-.15,0,1.17-.14c1.57-.2,3.14-.36,4.72-.51l-1.33-9.82-1,.16.14,0-1.44.13c-1,.07-2.07.1-3.11.1-1.93,0-3.86-.14-5.78-.33-4-.39-8-1.07-12-1.48-7.78-.8-15.75-.37-22.8,3.3a5,5,0,0,0-1,7.86A18.87,18.87,0,0,0,179.88,648V638l-6.64.11a5,5,0,0,0,0,10Z" transform="translate(-78.69 -124.72)"/><path class="cls-4" d="M288.74,654.91a111.74,111.74,0,0,1,14-3.34c1.11-.18,2.21-.35,3.32-.51-1,.15.86-.11,1.05-.13l1.9-.2q3.58-.36,7.17-.48l-1.33-9.82A100.76,100.76,0,0,1,301,645.08c-1.12.26-2.25.47-3.39.65,1.12-.18-.75.08-1,.1-.62,0-1.23.09-1.84.11a6.8,6.8,0,0,1-1.5,0q1.13.18.3,0c-.53-.17-.44-.11.25.16-.45-.28-.37-.21.24.2a3.3,3.3,0,0,1,.86,3.3c.15-.5.08-.36-.2.44-1,1.66-2.71,2.05-5.18,1.19l3.86-9.14a17,17,0,0,0-9.12-.68c-2.45.41-3.88,3.26-3.58,5.49a5,5,0,0,0,4.91,4.33h20.21a5,5,0,0,0,0-10H285.65l1.33,9.83c-1.12.18.15,0,.41,0a8.58,8.58,0,0,1,.88,0c.51,0,.58,0,.21,0-.63-.06.68.15.84.2a12.51,12.51,0,0,1,1.46.49c2.31.91,5-.82,5.9-2.9s.24-5.25-2.05-6.24c-2.65-1.15-5.46-1.06-7.56,1.17a7.16,7.16,0,0,0-1.74,6.64c1.27,4.75,6.41,5.74,10.63,5.45,7.53-.52,14.55-3.08,21.52-5.81,2.35-.92,3.94-2.85,3.58-5.49a5,5,0,0,0-4.91-4.33,116.68,116.68,0,0,0-30.07,5,5,5,0,0,0,2.66,9.64Z" transform="translate(-78.69 -124.72)"/><path class="cls-4" d="M391.34,582.84c.09,3.33.05,6.67-.13,10-.09,1.66-.21,3.32-.37,5-.08.79-.17,1.58-.26,2.37,0,.4-.09.79-.14,1.18-.19,1.56.15-1-.08.56a122.44,122.44,0,0,1-4.46,19.48l9.64,2.66a92.08,92.08,0,0,0,3.5-31.19c-.16-2.6-2.18-5.12-5-5-2.57.12-5.17,2.21-5,5a86.54,86.54,0,0,1-.33,14.84c-.06.55-.12,1.1-.19,1.64.13-1.08-.13.82-.15,1q-.3,1.86-.66,3.72c-.5,2.46-1.11,4.91-1.81,7.32a5,5,0,0,0,9.64,2.66,125.56,125.56,0,0,0,5.8-41.23,5,5,0,0,0-10,0Z" transform="translate(-78.69 -124.72)"/><path class="cls-4" d="M414.79,497.61c-.09,1.87-.26,3.74-.48,5.61-.18,1.54.16-1-.07.53-.07.47-.14.93-.22,1.4-.15.92-.32,1.85-.51,2.77a78.56,78.56,0,0,1-3,10.84l9.64,2.66q2.44-7.67,4.45-15.47c1.33-5.22,3.56-11.39.57-16.43-1.83-3.08-6.89-3.41-8.63,0a32.76,32.76,0,0,0-3,20.91c.46,2.58,3.75,4.27,6.15,3.49a5.14,5.14,0,0,0,3.49-6.15c0-.13-.21-1.31-.11-.6s-.05-.61-.05-.62c-.06-.63-.09-1.28-.1-1.92s0-1.28,0-1.92c0-.36.05-.72.09-1.07s.22-1.22,0-.16a37,37,0,0,1,.86-3.75c.22-.68.47-1.35.72-2-.16.44-.21.46,0,0s.37-.78.56-1.16H416.5q.4.75,0-.15a6.05,6.05,0,0,1,.2.73c-.08-.69-.09-.75-.05-.17,0,.26,0,.52,0,.79-.06.57,0,.53.05-.13,0,.2-.07.4-.11.59-.08.46-.18.92-.28,1.38-.54,2.37-1.14,4.74-1.75,7.1q-1.85,7.08-4.08,14.05a5,5,0,0,0,3.49,6.15,5.12,5.12,0,0,0,6.15-3.49,83.43,83.43,0,0,0,4.68-23.81,5,5,0,0,0-5-5,5.11,5.11,0,0,0-5,5Z" transform="translate(-78.69 -124.72)"/><path class="cls-4" d="M390.2,535.38q5.34.11,10.7-.1a10,10,0,0,0,3.63-.64,5.86,5.86,0,0,0,3.68-5.31,6.69,6.69,0,0,0-5.79-6.52,5.37,5.37,0,0,0-3.85.5,5,5,0,0,0-1.8,6.84,4.92,4.92,0,0,0,3,2.3,5.31,5.31,0,0,1,1.23.32l-1.2-.51a1.65,1.65,0,0,1,.36.22l-1-.79a1.36,1.36,0,0,1,.24.24l-.78-1a1.41,1.41,0,0,1,.18.29l-.5-1.2a1.31,1.31,0,0,1,.1.32l-.17-1.33a.91.91,0,0,1,0,.33l.18-1.33,0,.16.5-1.2a.9.9,0,0,1-.17.3l.79-1-.12.12,1-.78a1.22,1.22,0,0,1-.29.17l1.19-.5a4.25,4.25,0,0,1-.51.14l1.32-.18a51.29,51.29,0,0,1-5.82.19q-3,0-6.06,0a5,5,0,1,0,0,10Z" transform="translate(-78.69 -124.72)"/><path class="cls-4" d="M181.73,553.13c-.63,10.11,1.35,20.13,1.29,30.24,0,1.06,0,2.12-.1,3.17,0,.61-.07,1.21-.12,1.81l-.09.9c0,.13-.15,1.35-.07.68s0,.31-.07.45-.07.45-.1.67c-.1.59-.22,1.18-.34,1.76-.26,1.17-.56,2.33-.92,3.47-.18.57-.38,1.14-.59,1.7l-.33.84s.34-.75.1-.27c-.47.94-.91,1.88-1.45,2.79-.45.75-.94,1.46-1.44,2.17s.1-.11.1-.13a3.75,3.75,0,0,1-.48.58c-.36.42-.73.83-1.12,1.23a11.6,11.6,0,0,1-2.31,2.12c.9-.51.37-.29.13-.12l-.75.52c-.46.3-.92.58-1.4.85s-1,.49-1.46.73.34-.16.36-.15a7.92,7.92,0,0,0-1,.37c-.46.15-.92.29-1.39.4s-2.26.39-.83.21l3.53,8.53A71.21,71.21,0,0,0,192,589.82c.8-1.94-.51-4.7-2.29-5.64a5.14,5.14,0,0,0-6.06.78l-7,6.73a5,5,0,0,0,7.07,7.07l7-6.73-8.36-4.87c-.5,1.23.26-.57-.05.13-.14.32-.27.63-.41.94-.28.62-.57,1.24-.87,1.85-.6,1.23-1.23,2.44-1.91,3.62a64.61,64.61,0,0,1-4.48,6.86l-.49.65c.7-.93-.14.16-.23.28-.43.53-.86,1-1.31,1.57-.84,1-1.72,1.94-2.62,2.88a66.25,66.25,0,0,1-6.2,5.64c-1.53,1.24-1.73,3.81-1,5.46s2.63,3.32,4.57,3.08a26.11,26.11,0,0,0,13.71-6,29.63,29.63,0,0,0,8-10.56c4.56-10.1,4.3-21.12,3.4-31.93-.51-6.17-1.09-12.34-.7-18.53a5,5,0,0,0-5-5,5.1,5.1,0,0,0-5,5Z" transform="translate(-78.69 -124.72)"/><path class="cls-4" d="M157.53,413c-.27.94-.57,1.86-.9,2.77-.17.45-.35.9-.53,1.35-.24.62.41-.91.13-.3l-.33.74a41.27,41.27,0,0,1-2.8,5.09c-.49.77-1,1.52-1.56,2.26-.43.58-.24.24.1-.12a6.4,6.4,0,0,0-.4.51l-.94,1.11a42,42,0,0,1-4.24,4.2,5,5,0,0,0,0,7.07,5.12,5.12,0,0,0,7.07,0,46.34,46.34,0,0,0,14.05-22,5,5,0,0,0-9.65-2.66Z" transform="translate(-78.69 -124.72)"/><path class="cls-4" d="M349.21,401.7a59.94,59.94,0,0,1,8.89-.08l2.16.18,1.08.12c1.38.16-.62-.11.18,0,1.5.25,3,.5,4.48.83a60.13,60.13,0,0,1,8.3,2.52c.41.15.81.32,1.21.48-.44-.18-.42-.19,0,0,.73.32,1.45.65,2.17,1,1.36.66,2.7,1.38,4,2.14a5,5,0,1,0,5-8.63,64.79,64.79,0,0,0-37.54-8.59c-2.6.21-5.13,2.15-5,5,.11,2.53,2.2,5.23,5,5Z" transform="translate(-78.69 -124.72)"/><path class="cls-3" d="M302.94,500.88l-5.08,20.37,9.64,2.65.39-2.31a5.45,5.45,0,0,0-.51-3.86,5.06,5.06,0,0,0-3-2.29c-2.41-.55-5.69.73-6.15,3.49l-.38,2.32a5.43,5.43,0,0,0,.51,3.85,5,5,0,0,0,9.13-1.2l5.08-20.36a5,5,0,1,0-9.64-2.66Z" transform="translate(-78.69 -124.72)"/><path class="cls-3" d="M350.47,408.22a5,5,0,1,0-5-5,5.06,5.06,0,0,0,5,5Z" transform="translate(-78.69 -124.72)"/><path class="cls-5" d="M247.35,256.32c-1.75,4-3,8.53-.66,12.62a9.14,9.14,0,0,0,11,4c7.9-2.81,10.3-13.38,6.8-20.34a12.75,12.75,0,0,0-18.5-4.69,20.45,20.45,0,0,0-8.28,17.25,24,24,0,0,0,8.46,18.06c2,1.63,5.11,2.14,7.07,0,1.67-1.82,2.18-5.32,0-7.07a18.85,18.85,0,0,1-2.07-1.93l-.46-.53c-.62-.69.11.07.12.18,0-.37-.78-1.13-1-1.47s-.42-.71-.61-1.08c-.08-.16-.69-1.53-.42-.85s-.25-.73-.31-.89c-.16-.51-.31-1-.43-1.54s-.2-.92-.29-1.39c-.17-.92.07.16,0,.28a3,3,0,0,0-.07-.71,22.5,22.5,0,0,1,0-3.18c.05-.62-.2-.19,0,.28a3.51,3.51,0,0,1,.12-.7c.09-.46.2-.92.33-1.37s.28-.9.43-1.35c0-.12.29-.68,0-.07s.14-.27.21-.41c.24-.44.49-.88.77-1.3a4.93,4.93,0,0,1,.43-.62c-.75.76-.23.31-.07.14.35-.37.7-.72,1.06-1.07.75-.75-.13.15-.16.08a9.77,9.77,0,0,1,.92-.6c.08,0,.64-.31.64-.33s-1.15.35-.21.1l.69-.19c.75-.23-.25,0-.28,0a3,3,0,0,1,.72,0c.7,0,0-.19-.25-.08a2.79,2.79,0,0,1,.69.16c.23.06,1,.51.4.11-.82-.57,1.27.74.43.26-.58-.33,0,0,.18.18l.38.38c.7.65-.13-.06-.09-.19,0,0,.35.51.4.6s.23.41.35.62c.51.92-.19-.92.07.27.06.27.13.56.2.83-.05-.19,0-1,0-.06a16.22,16.22,0,0,1,0,1.71c0-.22.22-1,0-.05-.07.28-.12.56-.2.84s-.19.54-.27.81c.19-.58.14-.31-.07.11-.12.22-.24.44-.37.65-.55.9.06.12,0,.05s-.43.47-.5.54c-.66.75.74-.32-.16.12-.24.11-.84.36.17-.05-.83.34.57.09,0,.06-.32,0-.79-.24-.25,0,.94.47-1.06-.74.48.12.18.1.71.74.19.11l.35.45c-.21-.4-.24-.41-.08,0,.39.43,0,.05,0-.25-.3-1.11.06.06,0,.08s0-.73,0-.81c0,1,.08-.21.15-.45s.18-.59.28-.87.58-1.43.18-.5c1-2.4.79-5.48-1.79-6.84-2.16-1.15-5.73-.77-6.84,1.79Z" transform="translate(-78.69 -124.72)"/><path class="cls-5" d="M253.39,242.86a3.94,3.94,0,0,1-.69.21l2-.27a3.39,3.39,0,0,1-.9,0l2,.27a5.61,5.61,0,0,1-.89-.25l1.79.75a8.41,8.41,0,0,1-1.31-.73c-.22-.15-.43-.34-.65-.47.12.07,1.67,1.32.75.58a34.32,34.32,0,0,0-3.82-2.87,11.19,11.19,0,0,0-13.53,1.2c-3,2.76-4.81,7-6.32,10.71a45.59,45.59,0,0,0-2.74,11.34l14.73-2-.06-.42.26,2a17.61,17.61,0,0,1,0-4.23l-.27,2a17.61,17.61,0,0,1,1.07-4.09l-.75,1.79c.16-.39.34-.77.53-1.15l-13.71-5.78-3,15.88-1.48,7.81A60.27,60.27,0,0,0,225,284c-.24,6.54,3.87,13,10.55,14.24s12.87-1.68,16.53-7.39c3.49-5.46,3.38-12,2.66-18.22a8.38,8.38,0,0,0-1.61-4.54,7.16,7.16,0,0,0-3.89-2.69,7.78,7.78,0,0,0-8.47,3.45c-3,4.56-5.46,9.63-4.71,15.22a13.92,13.92,0,0,0,12.47,12.22c3.4.29,6.52-1.31,9-3.45a33.73,33.73,0,0,0,4.17-4.91c2.91-3.7,5.85-7.38,8.74-11.1,5.7-7.33,11.42-15.11,13.56-24.34a15.12,15.12,0,0,0-.81-10.43c-1.48-3-4.35-4.84-7.39-6a25.34,25.34,0,0,0-5.38-1.18,30.1,30.1,0,0,0-7.21-.51,17.34,17.34,0,0,0-8.77,2.87,17.93,17.93,0,0,0-6.24,8.34c-1.83,4.61-1.36,9.71-2,14.54l.27-2a17.64,17.64,0,0,1-1,4l.76-1.79c-.23.5-.47,1-.75,1.47a7.51,7.51,0,0,0,1.93,9.67,7.11,7.11,0,0,0,4.55,1.61,8.71,8.71,0,0,0,5.3-2.19l18.26-14.43a6.81,6.81,0,0,0,2.06-4.31,7.14,7.14,0,0,0-.89-4.78,9,9,0,0,0-2.69-2.69c-1.77-1.14-3.81-1.06-5.78-.76A67,67,0,0,0,236,258.81a7.51,7.51,0,0,0-2.2,5.3,7.61,7.61,0,0,0,2.2,5.3,7.49,7.49,0,0,0,5.3,2.2,8.51,8.51,0,0,0,5.3-2.2l.82-.66c.92-.74.06-.1-.35.26.52-.45,1.13-.84,1.7-1.24q1.72-1.22,3.54-2.31a61.66,61.66,0,0,1,7.51-3.83l-1.79.76a60.27,60.27,0,0,1,14.18-4l-7.3-12.54-18.26,14.43,11.78,9.09c3.22-5.53,2.64-11.61,3.46-17.69l-.27,2a18.43,18.43,0,0,1,1.11-4.26l-.75,1.79a10.19,10.19,0,0,1,.64-1.28c.06-.1.39-.49.38-.6,0,.21-1.32,1.55-.4.56.17-.18.36-.33.51-.5.52-.57-1.34.86-.64.49.5-.27.95-.56,1.47-.79l-1.79.76a11.88,11.88,0,0,1,2.49-.66l-2,.27a21.15,21.15,0,0,1,5.39.11l-2-.26a24.34,24.34,0,0,1,6.09,1.37l-1.79-.75c.21.09.41.2.61.3,1,.51-1.11-1.08-.56-.48.2.22.76.87,0-.12s-.19-.12-.05.21l-.75-1.79a7.3,7.3,0,0,1,.27,1.12l-.27-2a10,10,0,0,1,0,2l.27-2a29.65,29.65,0,0,1-2.06,6.82l.76-1.79a53.05,53.05,0,0,1-4.62,8.43C263,262,262,263.32,261,264.65l-1.3,1.73c-.91,1.2,1-1.25.11-.15l-.8,1q-3.27,4.17-6.56,8.33c-1.12,1.42-2.24,2.85-3.37,4.27-.47.59-1,1.19-1.48,1.74l-.27.26c-.57.51-.36.36.65-.45a10.26,10.26,0,0,0-.95.56l1.79-.76a5.85,5.85,0,0,1-1.36.38l2-.27a5.22,5.22,0,0,1-1,0l2,.27a5.46,5.46,0,0,1-1.24-.35l1.79.76c-.28-.13-.57-.37-.86-.48,1.05.86,1.29,1,.73.54a3.15,3.15,0,0,1-.36-.37c-.54-.5,1.13,1.71.33.41a8.68,8.68,0,0,1-.55-1.1l.75,1.8a8.27,8.27,0,0,1-.45-1.69l.26,2a9.89,9.89,0,0,1,.06-2.37l-.27,2a14.74,14.74,0,0,1,.81-2.83l-.76,1.8a34.32,34.32,0,0,1,3-5.25l-14-3.79a38.05,38.05,0,0,1,.31,8.79l.27-2a16.11,16.11,0,0,1-1,3.8l.75-1.79a12.68,12.68,0,0,1-.76,1.52c-.13.21-.28.41-.4.63-.38.66,1.29-1.44.37-.5l-.52.54c-.68.74.61-.37.67-.46a4.25,4.25,0,0,1-1.52.88l1.79-.75a8.65,8.65,0,0,1-1.89.51l2-.26a9.88,9.88,0,0,1-2,0l2,.26a7.41,7.41,0,0,1-1.86-.5l1.79.76c-.29-.13-.56-.29-.84-.44-1-.53,1.27,1.06.65.49s.22-.41.45.66a6.64,6.64,0,0,0-.56-1.05l.76,1.79a8.88,8.88,0,0,1-.41-1.51l.27,2a14,14,0,0,1,0-3.66l-.27,2c.68-4.77,1.76-9.51,2.65-14.25l2.77-14.65c.71-3.71-.72-7.32-4.34-8.85-3.22-1.36-7.7-.29-9.36,3.07a23,23,0,0,0-2.33,6.82,26.77,26.77,0,0,0,.08,8.84,7.42,7.42,0,0,0,3.45,4.48,7.71,7.71,0,0,0,4.78.89,7.12,7.12,0,0,0,4.3-2.06,8.76,8.76,0,0,0,2.2-5.31l.06-.43-.27,2a38.11,38.11,0,0,1,2.59-9.31l-.76,1.79a37.17,37.17,0,0,1,2.09-4.13c.18-.32.37-.63.57-.94s.84-1.17,0-.13c-1,1.31,0-.08.1,0s-1.84,1.12-.38.4l-1.79.75a4.63,4.63,0,0,1,.81-.22l-2,.27a4.22,4.22,0,0,1,.94,0l-2-.27a5.73,5.73,0,0,1,.92.27l-1.79-.76a8,8,0,0,1,1.12.6c.23.14.44.3.66.46.78.53-.87-.69-.86-.68a34.31,34.31,0,0,0,3.59,2.77c2.69,1.85,6.54,2.81,9.69,1.61a8.12,8.12,0,0,0,4.48-3.45,7.68,7.68,0,0,0,.76-5.78c-1.15-3.56-5.3-6.73-9.23-5.24Z" transform="translate(-78.69 -124.72)"/><path class="cls-5" d="M251.69,252.57c3.93,0,7.69-3.45,7.5-7.5a7.63,7.63,0,0,0-7.5-7.5c-3.92,0-7.68,3.45-7.5,7.5a7.63,7.63,0,0,0,7.5,7.5Z" transform="translate(-78.69 -124.72)"/><path class="cls-5" d="M330.62,201.6a54.1,54.1,0,0,0-23.17,21.69,59.36,59.36,0,0,0-3.72,8c-1.87,4.86-.43,10.4,4.17,13.13,2.62,1.55,5.73,1.92,8.66,2.45,2.78.49,5.57,1,8.34,1.44a87,87,0,0,1,18.31,4.91l-1.79-.76c5.34,2.3,10.53,6.08,16.64,4,6.34-2.15,9.95-8.12,10.29-14.61.28-5.25-2.1-10.5-5.13-14.65s-6.53-7.93-9.92-11.79l-11.52-13.1-9.09,11.78c4.87,2.16,9.79,4.34,14.15,7.45l.7.52c.75.53-1.26-1-.57-.44.46.39.92.76,1.37,1.16a29,29,0,0,1,2.52,2.56c.18.2.35.41.52.61.82,1-.83-1.16-.32-.42.3.43.61.86.9,1.31a22.68,22.68,0,0,1,1.74,3.31l-.75-1.79a20.08,20.08,0,0,1,1.23,4.38l-.27-2a18.34,18.34,0,0,1,0,4.74l.27-2a17.4,17.4,0,0,1-1,3.84l.76-1.79a17.26,17.26,0,0,1-1,1.92c-.18.3-.43.58-.59.9.82-1,1-1.26.51-.68-.12.14-.24.27-.37.4s-.5.51-.76.75c-1.14,1,1.1-.74.44-.33a18.24,18.24,0,0,1-1.94,1.06l1.79-.76a13.47,13.47,0,0,1-3.29.89l2-.27a12.88,12.88,0,0,1-3,0l2,.27a11.35,11.35,0,0,1-2.57-.69l1.79.76a12,12,0,0,1-1.19-.59c-1.56-.92,1,1,.16.19l-.49-.46c-.5-.57-.34-.34.48.67-.16-.44-.52-.87-.71-1.3l.75,1.79a7.5,7.5,0,0,1-.37-1.39l.27,2a6,6,0,0,1,0-1l-.27,2a5.49,5.49,0,0,1,.28-1l-.76,1.79c.54-1-1.09,1.11-.48.53s-1.66,1.09-.55.51l-1.79.75a5.44,5.44,0,0,1,1.31-.37l-2,.26a8.07,8.07,0,0,1,1.39,0l-2-.26a7.62,7.62,0,0,1,1.49.4l-1.79-.76a17.67,17.67,0,0,1,3.63,2.3,7.45,7.45,0,0,0,5.78.76,7.82,7.82,0,0,0,3.89-2.69,7.48,7.48,0,0,0-.58-9.85q-5-4.75-9.58-9.93c-1.49-1.7-2.95-3.43-4.36-5.19l-1-1.24-.55-.72c.71.93.82,1.07.34.45-.72-1-1.44-1.93-2.15-2.91a7.72,7.72,0,0,0-5.48-3.58,7.19,7.19,0,0,0-6.3,2.06l-10.05,11.25c-3.39,3.8-2.59,8.93,1.52,11.78a51.26,51.26,0,0,0,17.48,7.68A7.51,7.51,0,0,0,341,229.92l-9.82-5.62c-3.41-2-8.36-.91-10.27,2.69a7.63,7.63,0,0,0,2.7,10.26l9.82,5.62,5.78-13.7a47.78,47.78,0,0,1-7.39-2.36l1.79.75a46.24,46.24,0,0,1-8.3-4.57l1.52,11.78,10-11.24L325.13,222a163.58,163.58,0,0,0,19.64,22.58l9.09-11.78c-3.77-2.9-8.55-4.77-13.3-3.21a11.17,11.17,0,0,0-7.1,14.43c3.06,8.53,12.93,12.19,21.29,9.7a19.65,19.65,0,0,0,10.37-7.52A22.34,22.34,0,0,0,369,235.13c.79-7.69-2.75-15.09-7.77-20.69-5.63-6.27-13.38-9.94-20.95-13.29-1.82-.81-3.77-1.41-5.77-.76a7.74,7.74,0,0,0-3.9,2.69,7.57,7.57,0,0,0,.59,9.85l12.67,14.41c2,2.24,4,4.45,5.89,6.76a9,9,0,0,1,.67.83c-.14-.22-1-1.31-.39-.5.41.58.83,1.15,1.22,1.75a23.58,23.58,0,0,1,2,3.66l-.75-1.79a16,16,0,0,1,1.07,3.84l-.27-2a12.83,12.83,0,0,1,0,2.77l.27-2a10.77,10.77,0,0,1-.69,2.56l.75-1.8a14,14,0,0,1-.68,1.27c-.63,1.08,1.23-1.31.28-.4-.12.13-.25.25-.38.37-.44.39-.16.18.83-.62-.41.17-.8.48-1.21.66l1.79-.75a8,8,0,0,1-1.34.35l2-.27a7.49,7.49,0,0,1-1.64,0l2,.27a11.47,11.47,0,0,1-2.07-.62l1.79.76c-3.64-1.59-7.07-3.49-10.84-4.82a78.4,78.4,0,0,0-10-2.71c-3.34-.71-6.71-1.27-10.07-1.85-1.75-.3-3.51-.6-5.26-.93a23.43,23.43,0,0,1-4.54-1.07l1.79.75c-.71-.33-1-.82.43.5-.85-.79,1,1.64.48.5l.76,1.79-.11-.41.27,2a3.29,3.29,0,0,1,0-.83l-.27,2a16.15,16.15,0,0,1,1.17-3.43l-.75,1.79a47.68,47.68,0,0,1,3.89-7.25c.39-.58.79-1.16,1.2-1.73l.57-.77c.54-.73-1.13,1.42-.35.46s1.81-2.15,2.78-3.17,1.9-1.89,2.91-2.78c.53-.46,1.07-.91,1.62-1.36,1-.78-1.19.89-.46.35l.77-.57a47.08,47.08,0,0,1,7.24-4.29,7.57,7.57,0,0,0,3.45-4.48,7.68,7.68,0,0,0-.76-5.78c-2.35-3.65-6.46-4.5-10.26-2.69Z" transform="translate(-78.69 -124.72)"/><path class="cls-5" d="M293.32,245a30.29,30.29,0,0,1,6.73.09l-2-.27a30.56,30.56,0,0,1,3.53.69,7.54,7.54,0,0,0,8.47-11,21.14,21.14,0,0,0-7.17-7.45v13a117.71,117.71,0,0,0,19.95-13.17,7.53,7.53,0,0,0,2.2-5.31,7.51,7.51,0,0,0-7.5-7.5,8.65,8.65,0,0,0-5.31,2.2c-.68.55-1.37,1.1-2.07,1.64l1.52-1.17a110.11,110.11,0,0,1-16.36,10.36,7.44,7.44,0,0,0-3.71,6.47,7.66,7.66,0,0,0,3.71,6.48q.49.31,1,.66l-1.52-1.17a13.75,13.75,0,0,1,2.47,2.47l-1.17-1.52a17.55,17.55,0,0,1,1.05,1.64l8.47-11A35.7,35.7,0,0,0,293.32,230a8,8,0,0,0-5.3,2.2,7.59,7.59,0,0,0-2.2,5.3c.17,3.73,3.32,7.91,7.5,7.5Z" transform="translate(-78.69 -124.72)"/><path class="cls-5" d="M230.18,312.18l8.1-11.66-13.71-1.79a11,11,0,0,1,.37,1.68l-.27-2a11.33,11.33,0,0,1,0,2.4l.27-2a12.17,12.17,0,0,1-.72,2.66l.75-1.79a10.12,10.12,0,0,1-.62,1.23c-.15.26-1.08,1.54-.19.37s-.11,0-.34.26c-1.36,1.27,1.19-.8.15-.12l9.09,11.78a18.66,18.66,0,0,1,1.57-1.75c.3-.3.61-.58.93-.86s1.51-.93-.38.28a28.72,28.72,0,0,1,4.09-2.29l-1.8.76a21.8,21.8,0,0,1,4.88-1.34l-2,.27a20.34,20.34,0,0,1,5.4,0l-2-.27a20.88,20.88,0,0,1,2.47.53,7.35,7.35,0,0,0,6.54-1.34c1.71-1.32,3.19-3.61,3-5.89a35.3,35.3,0,0,1,.09-8.09l-.26,2a35.51,35.51,0,0,1,2.32-8.64l-.76,1.8a35.38,35.38,0,0,1,2.55-4.93,7.5,7.5,0,0,0-12.95-7.57,41,41,0,0,0-6,25.44l9.5-7.23c-9.75-2.72-21.36.53-27.76,8.54-1.23,1.54-2.29,3.22-2.2,5.3a7.79,7.79,0,0,0,1.61,4.55c2.17,2.81,6.53,4,9.67,1.93a17.63,17.63,0,0,0,7.5-19.64,7.54,7.54,0,0,0-6.23-5.37,7.64,7.64,0,0,0-7.47,3.58l-8.11,11.65a7.58,7.58,0,0,0-.75,5.78,7.68,7.68,0,0,0,3.44,4.49c3.83,2,7.87.75,10.27-2.69Z" transform="translate(-78.69 -124.72)"/><path class="cls-5" d="M226.12,322.25l5.11-6.68a5.51,5.51,0,0,0,.89-2.79,6.72,6.72,0,0,0-1.47-5.54,5.71,5.71,0,0,0-2.11-1.94l-1.79-.75a7.51,7.51,0,0,0-4,0l-1.79.75a7.65,7.65,0,0,0-2.69,2.7l-5.12,6.68a5.71,5.71,0,0,0-.89,2.79,7.72,7.72,0,0,0,3.58,7.47l1.8.76a7.47,7.47,0,0,0,4,0l1.79-.76a7.49,7.49,0,0,0,2.7-2.69Z" transform="translate(-78.69 -124.72)"/><path class="cls-5" d="M272,245.72a27.64,27.64,0,0,0,8.21-.67,25.43,25.43,0,0,0,3.8-1.21,10.12,10.12,0,0,0,3.68-2.09c2-2.18.82-5.24-1.6-6.43a6.17,6.17,0,0,0-3.92-.48c-1.09.2-2.19.79-3.24.35l.59,4.57a26.6,26.6,0,0,1,15.16-3.67,2.5,2.5,0,0,0,0-5A31.52,31.52,0,0,0,277,235.44c-2,1.2-1.3,3.78.6,4.57a6,6,0,0,0,3.28.24c.79-.13,1.69-.5,2.42-.56.2,0,.77,0,.75.23a1.14,1.14,0,0,1-.26-1.13l.36-.52s-1.24.64-1.33.68A22.82,22.82,0,0,1,272,240.72a2.51,2.51,0,0,0-2.5,2.5,2.55,2.55,0,0,0,2.5,2.5Z" transform="translate(-78.69 -124.72)"/><path class="cls-5" d="M252.88,309.55l4.76,1.69a2.48,2.48,0,0,0,2.62-.9,2.54,2.54,0,0,0,.2-2.77l-4.24-8.42a2.52,2.52,0,0,0-3.42-.9,2.56,2.56,0,0,0-.9,3.42l4.24,8.42,2.82-3.67-4.75-1.69a2.5,2.5,0,0,0-3.07,1.74,2.56,2.56,0,0,0,1.74,3.08Z" transform="translate(-78.69 -124.72)"/><path class="cls-5" d="M213.52,323.32c3.06,8.6,9.77,14.84,16.46,20.72a2.51,2.51,0,0,0,3.92-3,76.67,76.67,0,0,1-8.09-22.09,2.47,2.47,0,0,0-2.74-1.79,2.56,2.56,0,0,0-2.17,2.45,26.82,26.82,0,0,0,3.08,16l4.32-2.52a39.45,39.45,0,0,1-5.78-11.79c-.91-3.08-5.74-1.77-4.82,1.33a43.83,43.83,0,0,0,6.28,13c1.85,2.58,5.87.36,4.32-2.52a22.27,22.27,0,0,1-2.4-13.48l-4.91.67a80.69,80.69,0,0,0,8.6,23.28l3.92-3c-5.95-5.22-12.44-10.83-15.17-18.51a2.56,2.56,0,0,0-3.08-1.74,2.5,2.5,0,0,0-1.74,3.07Z" transform="translate(-78.69 -124.72)"/><g class="cls-1"><path class="cls-2" d="M205.12,394.33a116.55,116.55,0,0,0,50.14-11.85l-3.67-2.82c-2.74,6.85-10.78,9.58-17.56,9.79-9.16.29-18-2.63-27.16-3v5l18.67-1.89-.67-4.91-15.19,2.23,1.32,4.82a386.61,386.61,0,0,1,41.6-11.56c2.71-.59,2.17-5.13-.66-4.91a79,79,0,0,0-24.45,5.89,2.51,2.51,0,0,0,.67,4.91L244,388.18l-.66-4.91a39.18,39.18,0,0,1-12.47,1.36v5l26.41-.9-.66-4.91L241,388.18c-3.09.87-1.78,5.7,1.33,4.83l15.58-4.37c2.66-.75,2.21-5-.67-4.91l-26.41.9a2.5,2.5,0,0,0,0,5,43.77,43.77,0,0,0,13.8-1.54,2.5,2.5,0,0,0,1.79-2.74,2.55,2.55,0,0,0-2.46-2.17l-15.83-2.11.66,4.91a74.78,74.78,0,0,1,23.12-5.71l-.67-4.91a383.51,383.51,0,0,0-41.59,11.56c-3.12,1.05-1.81,5.28,1.32,4.82l15.2-2.23c2.76-.4,2.14-5.19-.66-4.91l-18.67,1.89c-3.15.32-3.28,4.88,0,5,9.88.35,19.54,3.79,29.49,2.82,8.52-.84,16.74-5,20.05-13.33.89-2.21-1.93-3.67-3.67-2.82a110.74,110.74,0,0,1-47.62,11.17c-3.22,0-3.22,5,0,5Z" transform="translate(-78.69 -124.72)"/></g><g class="cls-1"><path class="cls-2" d="M200.8,390.62a76.77,76.77,0,0,0,21.92-1.22,2.52,2.52,0,0,0,1.75-3.07,2.55,2.55,0,0,0-3.08-1.75,72.19,72.19,0,0,1-20.59,1,2.51,2.51,0,0,0-2.5,2.5,2.56,2.56,0,0,0,2.5,2.5Z" transform="translate(-78.69 -124.72)"/></g><g class="cls-1"><path class="cls-2" d="M210.82,384l-2-.1,1.26,4.66A88.18,88.18,0,0,1,238,380.94a2.56,2.56,0,0,0,2.5-2.5,2.53,2.53,0,0,0-2.5-2.5,95.25,95.25,0,0,0-30.37,8.26c-2.41,1.11-1,4.55,1.26,4.66l2,.1c3.22.16,3.21-4.84,0-5Z" transform="translate(-78.69 -124.72)"/></g><g class="cls-1"><path class="cls-2" d="M146.36,437.27c-1.73.61-1.21-1.11-1.13-.06a3.51,3.51,0,0,0,.3,1,4.6,4.6,0,0,0,1.26,1.86,4.51,4.51,0,0,0,5,.48,7.1,7.1,0,0,0,3-3.36c.74-1.44,1.48-2.88,2.31-4.29a64.61,64.61,0,0,1,11.77-14.58c2.11-2-.59-5.32-3-3.93A67.92,67.92,0,0,0,143.51,435c-1.59,2.32,2.08,5.19,3.93,3A173.42,173.42,0,0,0,165.85,412c1.19-2.07-.76-4-2.82-3.68-5.56.82-10.08,4.92-12.83,9.63a40.19,40.19,0,0,0-3.51,8.37c-.43,1.38-.71,2.88-1.27,4.22-.25.6-.63,1.41-1.34,1.15l1.1,4.18q12.51-11.24,24-23.56l-4.27-1.76a5,5,0,0,1-1.29,3.84c-2.2,2.35,1.33,5.9,3.53,3.54a10,10,0,0,0,2.76-7.38c-.12-2.05-2.71-3.44-4.27-1.77q-11.45,12.3-24,23.56c-1.49,1.34-.55,3.59,1.11,4.18,3.32,1.17,6.19-1.41,7.35-4.3s1.67-5.79,2.83-8.58c2.1-5,5.78-9.66,11.43-10.49l-2.82-3.68a166.73,166.73,0,0,1-17.64,25.11l3.93,3a62.23,62.23,0,0,1,20.53-18.9l-3-3.93a69.48,69.48,0,0,0-11.67,14.14c-.8,1.27-1.54,2.56-2.25,3.89-.32.61-.63,1.24-.95,1.86a7.52,7.52,0,0,1-.56,1c-.08.12-.33.32-.34.4s-.08,0-.08,0a.69.69,0,0,1,.67.37c.13.23.13.16,0-.19a6,6,0,0,0-.68-1.88,3.8,3.8,0,0,0-4.43-1.89,2.56,2.56,0,0,0-1.74,3.08,2.52,2.52,0,0,0,3.07,1.75Z" transform="translate(-78.69 -124.72)"/></g><g class="cls-1"><path class="cls-2" d="M240.39,398.63c10.06,7.09,20.38,13.94,29.92,21.72a116.79,116.79,0,0,1,12.74,11.92,76.28,76.28,0,0,1,5.24,6.41c1.65,2.28,3.19,4.86,6,5.87,3.51,1.29,6.61-1.23,9.4-3l9.6-6.17-3-3.93-9.43,8.46c-1.45,1.29-3.05,2.52-4.4,3.91-.16.17.11.06.2.11a2.49,2.49,0,0,1-.61-.47,11.77,11.77,0,0,1-1.45-2,42.17,42.17,0,0,0-7.28-8.21c-3-2.63-6.49-4.67-9.72-7-3-2.18-5.88-4.94-6.93-8.61L266,419.56a33.51,33.51,0,0,0,26.57,16.73,2.53,2.53,0,0,0,2.16-3.77c-3.53-5.75-8.77-10-14-14.06a2.5,2.5,0,0,0-3.54,3.54q10,11.7,20.78,22.71c2,2,5.41-.59,3.92-3l-10-16.43-3.92,3,5.54,6.54,2.85,3.36a10.39,10.39,0,0,0,3,2.79,6.18,6.18,0,0,0,6.89-1.21c2-1.78,2.55-4.44,2.91-6.95.21-1.46-.61-3.31-2.41-3.17A14.29,14.29,0,0,0,295.8,436a2.53,2.53,0,0,0,.39,3,2.62,2.62,0,0,0,3,.39l6.27-2.7a2.52,2.52,0,0,0,1.15-2.83,2.59,2.59,0,0,0-2.41-1.83,27.33,27.33,0,0,1-17.17-8.28,24.9,24.9,0,0,1-2.9-3.59c-1-1.47-1.7-3.19-3-4.37a5.21,5.21,0,0,0-5.09-1.24,4.19,4.19,0,0,0-3,4.09c.14,2.47,2.28,3.87,4.26,4.91A26.21,26.21,0,0,0,284,426a2.59,2.59,0,0,0,2.82-1.15,2.5,2.5,0,0,0-.39-3l-5.8-4.5-2.44,4.17a35.87,35.87,0,0,1,11.65,6.59l3-3.93a55.4,55.4,0,0,1-15.51-18c-1.86-3.45-3.53-8.23-8.29-8.07a5.06,5.06,0,0,0-4.76,3.85,11.44,11.44,0,0,0,.65,6,44.36,44.36,0,0,0,6.64,13.28c1.61,2.2,5.28,1,4.57-1.93l-3.19-13-4.57,1.93,4.16,7.44c1.58,2.83,5.77.33,4.32-2.52a41.5,41.5,0,0,0-7.4-10.28,2.52,2.52,0,0,0-4.18,1.1,49.86,49.86,0,0,0-1.63,14.33l4.91-.66-2.08-7.85a2.51,2.51,0,0,0-4.91.66v6l4.27-1.77-11.9-12.12-1.1,4.18a21.43,21.43,0,0,1,10.69.7,2.52,2.52,0,0,0,3.07-3.08,24.16,24.16,0,0,0-3.66-8.36,2.52,2.52,0,0,0-4.66,1.26,19.1,19.1,0,0,0,3.81,12.2c1.45,1.9,4.57,1.4,4.66-1.26a15.9,15.9,0,0,0-4.35-11.46,2.52,2.52,0,0,0-3.93.5,11.62,11.62,0,0,0-.17,10.83c1,2,4,1.34,4.57-.6a29.14,29.14,0,0,0,1.21-9.78c-.15-2.74-.36-6.57-3-8.21-3.24-2-5.79,1.08-7,3.74a23.6,23.6,0,0,0-2.23,9.45c-.06,2.05,2.85,3.45,4.27,1.76a21,21,0,0,0,4.45-8.73,2.5,2.5,0,0,0-4.57-1.92,22.36,22.36,0,0,0-1.54,13.31c.53,2.84,4.86,2.08,4.91-.66a33.72,33.72,0,0,1,1.34-8.87,2.54,2.54,0,0,0-1.15-2.82,18.42,18.42,0,0,0-13.27-2,2.51,2.51,0,0,0-1.75,3.07,10.25,10.25,0,0,0,6.88,6.65c2.25.65,3.71-1.79,2.83-3.67l-.7-1.5-3.42,3.42,1.7,1.09a2.5,2.5,0,1,0,2.52-4.32l-1.74-1.31a2.52,2.52,0,0,0-3.42.9,2.56,2.56,0,0,0,.9,3.42l1.74,1.31,2.52-4.32-1.7-1.08a2.54,2.54,0,0,0-3,.39,2.6,2.6,0,0,0-.39,3l.7,1.49,2.82-3.67a5.05,5.05,0,0,1-3.39-3.16l-1.74,3.08A13.17,13.17,0,0,1,257,399l-1.14-2.82a38.68,38.68,0,0,0-1.52,10.2l4.91-.67a16.41,16.41,0,0,1,1-9.46l-4.57-1.93a15.67,15.67,0,0,1-3.17,6.53l4.27,1.77a18.46,18.46,0,0,1,1.12-5.88,15,15,0,0,1,1.25-2.62,4.11,4.11,0,0,1,.24-.39c.21-.33-.12-.35-1-.07-.07.11.07-.11.08.32,0,.81.36,1.68.44,2.51a26.66,26.66,0,0,1,.11,3.22,24.19,24.19,0,0,1-1.05,6.38l4.57-.59a6.31,6.31,0,0,1,.17-5.78l-3.93.5a10.85,10.85,0,0,1,2.89,7.93l4.66-1.26a14.8,14.8,0,0,1-3.13-9.68l-4.65,1.26a20.75,20.75,0,0,1,3.15,7.17l3.08-3.07a27,27,0,0,0-13.35-.71c-1.9.37-2.34,2.92-1.1,4.18l11.89,12.13a2.53,2.53,0,0,0,4.27-1.77v-6l-4.91.67,2.08,7.85c.71,2.69,5,2.19,4.91-.67a44.58,44.58,0,0,1,1.46-13l-4.18,1.11a37,37,0,0,1,6.61,9.26l4.32-2.52-4.16-7.44c-1.4-2.52-5.23-.8-4.57,1.92l3.19,13,4.57-1.92a39.73,39.73,0,0,1-5.29-9.59,21.72,21.72,0,0,1-1.5-5,6.77,6.77,0,0,1,0-.78c0-.22.25-.4,0-.24s0,0,.08.05.4.07.57.16c1.22.63,1.8,2.62,2.38,3.77q1.2,2.42,2.62,4.7a62.48,62.48,0,0,0,6.47,8.61,61.82,61.82,0,0,0,9.07,8.19c2.26,1.69,5.19-2.09,3-3.93a42.49,42.49,0,0,0-13.86-7.87c-2.26-.76-4.42,2.64-2.43,4.18l5.81,4.5,2.43-4.18a21.22,21.22,0,0,1-6.11-2.26,11.89,11.89,0,0,0-1.08-.65,2.5,2.5,0,0,1-.33-.32.9.9,0,0,1,.07,1,.52.52,0,0,1-.47.38c.3-.08.36-.1.16-.06s.11,0,.14.07c1.09,1.29,1.83,2.85,2.82,4.23a34.1,34.1,0,0,0,3.57,4.21,32.65,32.65,0,0,0,20.18,9.21L303,432.41l-6.27,2.71,3.42,3.42a8.88,8.88,0,0,1,6.59-3.9l-2.41-3.16c-.21,1.44-.31,3.79-1.62,4.75S301,436,300.2,435l-8.71-10.26c-1.85-2.18-5.38.63-3.92,3l10,16.42,3.92-3q-10.77-11-20.77-22.71L277.18,422c4.9,3.79,10,7.69,13.26,13.05l2.16-3.76A28.33,28.33,0,0,1,270.35,417c-1.39-2.46-5.36-.82-4.57,1.92,2.5,8.72,11.06,12.08,17.45,17.42a45.55,45.55,0,0,1,7.87,8.93c1.19,1.67,2.69,3.26,4.84,3.49,2.48.26,4.15-1.59,5.84-3.1l12-10.73c2.11-1.89-.63-5.47-3-3.93l-8.36,5.37c-1.25.8-2.5,1.62-3.75,2.41-.77.49-1.78,1.33-2.74,1a4.73,4.73,0,0,1-1.9-1.76c-.83-1.08-1.57-2.21-2.38-3.29-1.76-2.31-3.61-4.55-5.58-6.68-7.65-8.28-16.72-15.1-25.86-21.63-5.73-4.08-11.5-8.11-17.25-12.16a2.52,2.52,0,0,0-3.42.89,2.55,2.55,0,0,0,.9,3.42Z" transform="translate(-78.69 -124.72)"/></g><g class="cls-1"><path class="cls-2" d="M391.1,411c-10.13-9.41-23.55-13.34-36.16-18.21-3.51-1.36-7-2.82-10.34-4.52l-1.26,4.66a22.91,22.91,0,0,1,14.37,3l.6-4.57a24.83,24.83,0,0,1-13.43-.58l-.67,4.91c17.17,1.54,34.54,5.51,49,15.23,2.68,1.8,5.17-2.52,2.52-4.32A189.41,189.41,0,0,0,358,386.86l-1.33,4.82a104.26,104.26,0,0,1,17.58,5.17c2.75,1.09,5.45,2.31,8.08,3.65.66.33,1.32.66,2,1,.12.07.38.3.49.27s.13-.78.1-.85c-.18-.34.17.17-.19-.21a17.86,17.86,0,0,0-1.8-1.15c-2.1-1.56-4.58,1.41-3.42,3.42l3.37,5.85,3.42-3.42-2.92-2.19c-2.26-1.7-5.16,2.06-3,3.92l9.58,8.36a2.57,2.57,0,0,0,3.54,0,2.53,2.53,0,0,0,0-3.54l-9.58-8.35-3,3.92,2.92,2.19c2.1,1.57,4.58-1.41,3.42-3.42l-3.37-5.84-3.42,3.42c1.67,1.25,3.71,2.31,5.86,1.74a4.64,4.64,0,0,0,3.52-4.2c0-2-1.45-3.42-3.09-4.32s-3.63-1.86-5.48-2.71A106.17,106.17,0,0,0,358,386.86a2.5,2.5,0,0,0-1.33,4.82,183.79,183.79,0,0,1,36.58,19.25l2.52-4.32c-15.23-10.21-33.52-14.3-51.55-15.91-2.91-.26-3.23,4.09-.66,4.91a29.92,29.92,0,0,0,16.09.58,2.53,2.53,0,0,0,.6-4.57,27.4,27.4,0,0,0-16.9-3.68,2.6,2.6,0,0,0-2.41,1.83,2.52,2.52,0,0,0,1.15,2.82c11.87,6,25.12,8.94,36.69,15.58a47.48,47.48,0,0,1,8.79,6.37c2.36,2.19,5.9-1.34,3.54-3.53Z" transform="translate(-78.69 -124.72)"/></g><g class="cls-1"><path class="cls-2" d="M412.48,489a83.74,83.74,0,0,0,1.42,14.57,2.5,2.5,0,0,0,2.08,1.8,2.57,2.57,0,0,0,2.49-1.2,170.37,170.37,0,0,0,11.83-19.09,2.52,2.52,0,0,0-3.42-3.42,23.67,23.67,0,0,0-11.73,13.09H420a13.92,13.92,0,0,1,0-6.06c.59-2.71-3.09-4.45-4.57-1.93l-1.45,2.46c-1.64,2.77,2.68,5.29,4.31,2.52l1.45-2.46-4.57-1.92a20,20,0,0,0,0,8.72,2.52,2.52,0,0,0,2.41,1.83,2.6,2.6,0,0,0,2.41-1.83A18.7,18.7,0,0,1,429.4,486L426,482.53a172.69,172.69,0,0,1-11.82,19.09l4.57.6A74.59,74.59,0,0,1,417.48,489c0-3.21-5-3.22-5,0Z" transform="translate(-78.69 -124.72)"/></g></g><g id="Layer_2" data-name="Layer 2"><path class="cls-5" d="M349.91,250.53c7.27,22.68,14.4,46.16,12.87,70.27-1.24,19.44-8.66,39.41-23.55,52.51-8.74,7.69-20.19,12.64-32,11.88a2.5,2.5,0,0,0,0,5c22.34,1.45,41.59-15,51.16-33.94,10.43-20.67,11.24-44.18,7.19-66.62-2.49-13.75-6.63-27.14-10.89-40.43-1-3-5.81-1.74-4.82,1.33Z" transform="translate(-78.69 -124.72)"/><path class="cls-5" d="M247.63,339.66a14.6,14.6,0,0,1-14.18-23.34c3.63-4.92,10.37-6.58,16.08-4.84a14.06,14.06,0,0,1,4.12,2c1.64,1.16,3.24,2.2,5.35,1.81,3.35-.61,5.1-4.4,4.67-7.53-.51-3.63-3.57-6.19-4.14-9.79-.51-3.25.68-6.6,2.23-9.41,3.54-6.36,9.67-10.77,13.7-16.8,3.61-5.4,4.31-11.76,6.47-17.75A12.37,12.37,0,0,1,286,248c2.84-2,6.47-1.88,9.76-1.42,4.2.58,8.36,1.46,12.53,2.21l13.26,2.37,26.29,4.71,6.63,1.19a2.57,2.57,0,0,0,3.08-1.74,2.52,2.52,0,0,0-1.75-3.08l-55.52-9.95c-4-.72-8.13-1.43-12.19-.56a13.87,13.87,0,0,0-8.42,5.78c-3.69,5.25-4,12-6.34,17.84-2.88,7-9.37,11.59-13.77,17.51a25.3,25.3,0,0,0-4.79,10.4,16,16,0,0,0,2.11,11.42c.75,1.25,2,2.91,1.88,4.24a2.78,2.78,0,0,1-.37,1.21,1.67,1.67,0,0,1-.31.35c.14-.13-.11-.06,0,0-1.42-.72-2.61-1.82-4.06-2.53a19.09,19.09,0,0,0-5.25-1.75,19.74,19.74,0,0,0-19.3,7.22,20.25,20.25,0,0,0-2.32,20c2.87,6.52,9.65,10.77,16.62,11.38a18.66,18.66,0,0,0,5.22-.32,2.53,2.53,0,0,0,1.75-3.07,2.56,2.56,0,0,0-3.08-1.75Z" transform="translate(-78.69 -124.72)"/><path class="cls-5" d="M352.68,252.36a16.62,16.62,0,0,0,10.47-9.93,22.83,22.83,0,0,0,.44-15.28,50.08,50.08,0,0,0-7.88-15.1,39,39,0,0,0-11.07-10.74,20.36,20.36,0,0,0-14.93-2.64c-4.82,1.07-9,4-12.59,7.23-3.83,3.39-7.18,7.28-11,10.68a66.94,66.94,0,0,1-12.92,9,68.78,68.78,0,0,1-30.71,8.07c-10.35.3-22-.33-30,7.6-7.11,7.1-8.51,18-8.55,27.53,0,5.78.27,11.6-.43,17.35a31.85,31.85,0,0,1-5.69,14.64c-2.92,4.21-6.24,8.15-8,13a20.29,20.29,0,0,0,1,15.35c4.74,10.47,15.68,15.51,26.25,18.14,2.72.68,5.48,1.24,8.24,1.8a2.55,2.55,0,0,0,3.07-1.74,2.52,2.52,0,0,0-1.74-3.08c-9.94-2-21-4.16-28-12.16A18.57,18.57,0,0,1,213.73,320c0-4.73,2.71-8.78,5.37-12.49,2.93-4.07,5.87-8,7.56-12.77,1.84-5.19,2.25-10.81,2.32-16.28.13-9.29-.94-19.34,3.18-28a18.63,18.63,0,0,1,8.9-9.15c4.29-2,9.25-2.35,13.92-2.5,5-.16,10-.08,15-.71a73,73,0,0,0,41.47-19.63c3.46-3.32,6.65-6.92,10.33-10,3.13-2.61,6.91-4.95,11.08-5.23,9.54-.64,16.64,8,21.17,15.31,4.64,7.49,9,18.4,2,26a10.21,10.21,0,0,1-4.74,3c-3.09.9-1.77,5.72,1.33,4.82Z" transform="translate(-78.69 -124.72)"/><path class="cls-5" d="M286.66,295.5c-.05.38,0-.17,0-.24s.09-.43.14-.64c.11-.42.24-.84.38-1.26a11.42,11.42,0,0,1,1-2,8.72,8.72,0,0,1,1.36-1.78,11.5,11.5,0,0,1,.95-.9l.36-.3.38-.27a11.15,11.15,0,0,1,9.62-1.45,2.5,2.5,0,0,0,1.33-4.83,16.19,16.19,0,0,0-13.69,2.11,16.53,16.53,0,0,0-6.87,11.56,2.51,2.51,0,0,0,2.5,2.5,2.56,2.56,0,0,0,2.5-2.5Z" transform="translate(-78.69 -124.72)"/><path class="cls-5" d="M338.65,288.8a10,10,0,0,1,5.5-.68c-.37-.06.43.08.41.08.27.05.54.12.8.19a12.29,12.29,0,0,1,1.3.42c-.31-.12.34.16.4.18l.72.39c.34.2.93.58,1.1.71a10.31,10.31,0,0,1,3.11,4.08c.1.21,0-.11.1.25s.18.5.26.75a12.81,12.81,0,0,1,.34,1.39c0,.13.09.59.05.24,0,.26.05.52.07.78,0,.53,0,1.05,0,1.57a2.51,2.51,0,0,0,2.5,2.5,2.55,2.55,0,0,0,2.5-2.5A15.16,15.16,0,0,0,337.32,284a2.57,2.57,0,0,0-1.74,3.08,2.51,2.51,0,0,0,3.07,1.74Z" transform="translate(-78.69 -124.72)"/><path class="cls-5" d="M330.67,320.73c.22.13.43.27.64.42-.51-.36.14.14.24.23s.35.38.53.56.17.2,0-.05l.23.32a5.44,5.44,0,0,1,.65,1.18c-.21-.63,0,.19.08.3s.12.5.18.75c.11.5,0-.47,0,.19,0,.23,0,.45,0,.68a2.4,2.4,0,0,1,0,.37c.06-.37.06-.41,0-.13s-.11.47-.18.7-.07.23-.12.34c.14-.32.16-.35,0-.1s-.16.32-.25.48a2,2,0,0,1-.39.61c.21-.27.23-.3.05-.09a1.55,1.55,0,0,1-.24.27c-.16.18-.34.33-.52.5s-.18.15.08-.06l-.29.2-.47.26-.32.16c.32-.14.35-.16.1-.06l-.7.18c-.28.05-.23.05.15,0l-.34,0h-.52q-.42,0,.15,0l-.34-.06c-.22-.05-.44-.13-.66-.19s-.22-.07.11.07l-.31-.15a5.88,5.88,0,0,1-.6-.35l-.21-.15.17.13c-.13,0-.42-.38-.5-.47a2.85,2.85,0,0,1-.23-.26c.22.29.24.32.09.1l-.35-.59c-.11-.25-.1-.2.05.13,0-.11-.08-.22-.11-.33a2.5,2.5,0,1,0-4.82,1.33,8.32,8.32,0,0,0,10.46,5.34,9.2,9.2,0,0,0,5.7-11.06,10.48,10.48,0,0,0-4.67-6,2.5,2.5,0,1,0-2.52,4.32Z" transform="translate(-78.69 -124.72)"/><path class="cls-5" d="M306.59,349.77c4.42,3.71,9.21,7.58,15.19,8.06,4.76.38,10.22-1.83,12.19-6.42a2.58,2.58,0,0,0-.89-3.42,2.51,2.51,0,0,0-3.42.9c-1.35,3.13-4.82,4.35-8.19,3.91-4.22-.55-8.08-3.82-11.34-6.56a2.56,2.56,0,0,0-3.54,0,2.51,2.51,0,0,0,0,3.53Z" transform="translate(-78.69 -124.72)"/><path class="cls-5" d="M295.83,316.31a12,12,0,0,1,18.23-3,2.54,2.54,0,0,0,3.53,0,2.5,2.5,0,0,0,0-3.53,17.4,17.4,0,0,0-14.5-4.19,17.14,17.14,0,0,0-11.58,8.16c-1.64,2.77,2.68,5.29,4.32,2.52Z" transform="translate(-78.69 -124.72)"/><path class="cls-5" d="M338.33,313.23c5.48-3.29,13.46-1.44,16.83,4.09,1.67,2.75,6,.24,4.32-2.52-4.76-7.81-15.81-10.61-23.67-5.88-2.76,1.65-.25,6,2.52,4.31Z" transform="translate(-78.69 -124.72)"/><path class="cls-5" d="M267.47,371.33A29,29,0,0,1,238,390.9a2.52,2.52,0,0,0-2.5,2.5,2.55,2.55,0,0,0,2.5,2.5c15.16,1.24,29.66-8.89,34.32-23.24,1-3.07-3.83-4.38-4.82-1.33Z" transform="translate(-78.69 -124.72)"/><path class="cls-5" d="M339.88,395.79l-10.73-11.33a2.5,2.5,0,0,0-3.54,3.53l10.74,11.33a2.5,2.5,0,0,0,3.53,0,2.54,2.54,0,0,0,0-3.53Z" transform="translate(-78.69 -124.72)"/><path class="cls-5" d="M237.36,392.17a88.79,88.79,0,0,0-39.35,6.9,94,94,0,0,0-33,23.06,87.19,87.19,0,0,0-13.09,18.66c-1.47,2.85,2.84,5.38,4.32,2.52A84.24,84.24,0,0,1,181,414.43a90,90,0,0,1,35-15.72,82,82,0,0,1,21.43-1.54c3.22.19,3.2-4.81,0-5Z" transform="translate(-78.69 -124.72)"/><path class="cls-5" d="M138.4,554.14a203.36,203.36,0,0,1,3.71-58.55c1.16-5.5,2.56-10.94,4.16-16.32.93-3.09-3.9-4.41-4.82-1.33a208.54,208.54,0,0,0-8.72,59.14q0,8.53.67,17.06a2.56,2.56,0,0,0,2.5,2.5,2.52,2.52,0,0,0,2.5-2.5Z" transform="translate(-78.69 -124.72)"/><path class="cls-5" d="M153.42,446.66c9.77-.16,17.85,6.67,22.63,14.7,6,10.08,6.71,22.22,7.19,33.66.27,6.4.52,12.78,1.22,19.15.73,6.53,1.75,13,2.81,19.5,2,12.52,4.26,25.08,4.41,37.8.14,11.7-1.24,24.38-7.5,34.54-5.23,8.48-15.15,15.15-25.45,12.76-9.11-2.1-15.7-10.24-19.09-18.56-4.45-11-4.11-23.48-2-34.92,4.6-25.17,17.77-48.11,20.06-73.79a77.37,77.37,0,0,0,.29-9.26c-.09-3.21-5.09-3.23-5,0,.75,26.86-13.29,51-19.13,76.63-2.86,12.56-4.11,26.2-.4,38.72,2.88,9.74,9.17,19.48,18.53,24a25.2,25.2,0,0,0,16,2.11,30.38,30.38,0,0,0,14.82-8c9-8.63,12.36-21.48,13.5-33.51,1.27-13.37-.48-26.81-2.56-40s-4.5-26.35-5.15-39.74c-.62-12.84-.41-26.32-5.53-38.37-4.05-9.54-11.75-18.37-22-21.41a25.09,25.09,0,0,0-7.65-1c-3.22,0-3.23,5,0,5Z" transform="translate(-78.69 -124.72)"/><path class="cls-5" d="M343.26,401.29c10.52-1.46,21.25,3.25,29,10.12,8.44,7.47,14.13,17.44,18.8,27.56a208.54,208.54,0,0,1,12.31,34.46q2.34,8.88,3.9,17.95c1,5.66,2.22,11.67,1.8,17.45a11.75,11.75,0,0,1-8.29,10.7c-4.82,1.62-10,1.55-15,1.3-3.22-.16-3.21,4.85,0,5,9.33.46,21.82-.08,26.51-9.79,2.79-5.77,1.85-12.3,1-18.41q-1.33-9.79-3.57-19.44a218.08,218.08,0,0,0-12.48-37.65c-4.8-11-10.55-22-19.14-30.51-9.48-9.45-22.63-15.44-36.16-13.56-1.34.18-2.07,1.89-1.75,3.07a2.57,2.57,0,0,0,3.08,1.75Z" transform="translate(-78.69 -124.72)"/><path class="cls-5" d="M382.42,525.67a441.4,441.4,0,0,1,1.45,80.46q-.83,11.26-2.24,22.49a2.51,2.51,0,0,0,2.5,2.5,2.57,2.57,0,0,0,2.5-2.5,443,443,0,0,0,2.69-80.43q-.66-11.28-1.9-22.52a2.57,2.57,0,0,0-2.5-2.5,2.53,2.53,0,0,0-2.5,2.5Z" transform="translate(-78.69 -124.72)"/><path class="cls-5" d="M171.83,620.16l.53,9.51a2.53,2.53,0,0,0,2.5,2.5c29.47-.15,58.52,5.37,87.73,8.5,27.27,2.92,55.53,3.66,82.09-4.22,3.64-1.08,7.22-2.34,10.75-3.73a102.06,102.06,0,0,1,10.75-3.89c5.9-1.6,13.07-1.74,17.68,2.91,2.27,2.29,5.81-1.25,3.54-3.54-4.33-4.36-10.76-5.88-16.76-5.27-7,.71-13.38,3.87-19.95,6.27a144,144,0,0,1-40.19,8.07c-28.68,1.88-57.17-2.73-85.53-6.33-16.62-2.11-33.33-3.86-50.11-3.77l2.5,2.5-.53-9.51c-.18-3.2-5.18-3.23-5,0Z" transform="translate(-78.69 -124.72)"/><path class="cls-5" d="M437.47,478.4a214.61,214.61,0,0,0-42.63,60.72q-4.48,9.6-8,19.61a2.52,2.52,0,0,0,1.74,3.07,2.56,2.56,0,0,0,3.08-1.74,208.3,208.3,0,0,1,35.42-62.76q6.58-8,13.95-15.36c2.28-2.28-1.26-5.82-3.54-3.54Z" transform="translate(-78.69 -124.72)"/><path class="cls-5" d="M505.51,485.66c-12.76.37-26.11,1.16-37.7,7-11.35,5.74-18.26,16.22-22.92,27.69-2.3,5.65-4.09,11.48-5.92,17.3q-3.27,10.44-7,20.74a424.84,424.84,0,0,1-17.36,40.48q-2.7,5.46-5.53,10.85a64.76,64.76,0,0,1-5.77,9.51c-4,5.14-10.49,9.52-17.23,7.36-3.07-1-4.38,3.85-1.33,4.83,6.47,2.06,13.4-.44,18.37-4.72,5.12-4.41,8.29-10.63,11.36-16.53A435.66,435.66,0,0,0,433,569.59q4-10.23,7.58-20.66c2.15-6.36,4.05-12.81,6.19-19.18,3.67-10.93,8.54-22.48,18.19-29.48,11.62-8.41,26.73-9.21,40.56-9.61,3.21-.1,3.22-5.1,0-5Z" transform="translate(-78.69 -124.72)"/><path class="cls-5" d="M237.35,326.57A21.2,21.2,0,0,1,254,332.38c2.32,2.24,5.86-1.29,3.54-3.53a26.2,26.2,0,0,0-20.19-7.28,2.57,2.57,0,0,0-2.5,2.5,2.52,2.52,0,0,0,2.5,2.5Z" transform="translate(-78.69 -124.72)"/><path class="cls-5" d="M440.13,478.74a11.9,11.9,0,0,1,2.42-11.21c2.83-3.16,7.05-5,10.7-7l12.87-7.09c1.48-.82,3.45-2.14,5.25-1.8,2.18.42,1.41,3.14.74,4.49-2.07,4.23-5.7,7.93-9.32,10.86-1.25,1,.52,2.77,1.77,1.77,3.77-3,7.53-7,9.71-11.36.89-1.8,1.56-4.11.57-6a4.63,4.63,0,0,0-5.17-2.15c-2.43.44-4.62,1.94-6.75,3.11l-7.72,4.25c-2.52,1.39-5.06,2.78-7.58,4.18a29.12,29.12,0,0,0-6,4.09,14.45,14.45,0,0,0-3.91,14.52,1.25,1.25,0,0,0,2.41-.67Z" transform="translate(-78.69 -124.72)"/><path class="cls-5" d="M461.86,468.62a86.55,86.55,0,0,0,48.66-8.7c1.6-.8,4.57-3.07,6.5-2.23,1.12.5.75,1.94.15,2.7a10.29,10.29,0,0,1-3.35,2.27,87.15,87.15,0,0,1-18.58,7.25,1.25,1.25,0,0,0,.66,2.41,89.81,89.81,0,0,0,18.36-7.07c2.29-1.19,5.12-2.49,5.83-5.22a3.83,3.83,0,0,0-3.33-4.92c-2.57-.25-4.92,1.34-7.11,2.45a80.27,80.27,0,0,1-8.92,3.9,86,86,0,0,1-17.81,4.45,84.82,84.82,0,0,1-21.06.21c-1.6-.18-1.58,2.32,0,2.5Z" transform="translate(-78.69 -124.72)"/><path class="cls-5" d="M498.25,471.34c8.94,2.47,17.25-2.48,24.85-6.52a46.15,46.15,0,0,1,6.2-2.93,4.6,4.6,0,0,1,2.87-.34c.91.29,1.51,1.09,1,2-.92,1.6-3.43,2.34-5,3.06q-3.33,1.54-6.68,3-7.68,3.44-15.46,6.61c-1.47.6-.83,3,.67,2.41q7.62-3.12,15.15-6.46c2.54-1.12,5.06-2.27,7.58-3.43,1.94-.9,4.14-1.71,5.5-3.44a3.73,3.73,0,0,0-.1-5c-1.54-1.58-3.83-1.62-5.81-1-4.74,1.49-9,4.41-13.42,6.62-5.12,2.57-11,4.55-16.7,3a1.25,1.25,0,0,0-.67,2.41Z" transform="translate(-78.69 -124.72)"/><path class="cls-5" d="M512.87,477.17,528.44,476l3.89-.29c.75-.06,2.07-.39,2.24.63.32,2-3.26,3.05-4.61,3.63a93.71,93.71,0,0,1-28.42,7.23c-1.58.15-1.6,2.65,0,2.5a96.93,96.93,0,0,0,26.17-6.12c2-.78,4-1.57,5.91-2.53a5.74,5.74,0,0,0,3.35-3.63,3.51,3.51,0,0,0-1.49-3.84,4.68,4.68,0,0,0-2.66-.41c-1.3.08-2.6.2-3.89.29l-16.06,1.22c-1.6.12-1.61,2.62,0,2.5Z" transform="translate(-78.69 -124.72)"/><path class="cls-5" d="M137.5,464.5a47.4,47.4,0,0,1-20.75-8.17c-2.66-1.87-5.32-4.68-8.85-4.37s-5.27,3.29-4.22,6.55c1.91,6,6.83,11.22,11.93,14.66a32.74,32.74,0,0,0,17.94,5.64c4.4,0,8.74-1.26,13.15-.92,3.45.27,7.29,2.09,8.17,5.71.38,1.56,2.8.9,2.41-.67a9.52,9.52,0,0,0-5.39-6.2c-3.13-1.47-6.52-1.55-9.91-1.2s-6.79,1-10.25.71a29.45,29.45,0,0,1-8.87-2.05,30.67,30.67,0,0,1-13.92-11c-1.18-1.71-4.89-6.84-2.09-8.39s6,1.79,8.11,3.32a49.27,49.27,0,0,0,21.88,8.8c1.57.22,2.25-2.19.66-2.42Z" transform="translate(-78.69 -124.72)"/><path class="cls-5" d="M105.62,450.4,85.36,438.69a1.3,1.3,0,0,0-1.71.45c-4.47,6.39,1.1,14.58,5.86,19,5.46,5,12.33,8.16,19,11.12,1.46.65,2.73-1.51,1.26-2.16-6-2.67-12.3-5.42-17.41-9.72-4.31-3.63-10.69-11.09-6.6-16.94l-1.71.45,20.26,11.7a1.25,1.25,0,0,0,1.26-2.15Z" transform="translate(-78.69 -124.72)"/><path class="cls-5" d="M123.71,447.78a48,48,0,0,1-23.4-7.89,61.42,61.42,0,0,1-9.55-8.31c-2.51-2.52-6.55-4.85-10-2.46a5.46,5.46,0,0,0-2.07,5.23c.3,2.42,1.82,4.34,3.31,6.16,1,1.25,2.78-.53,1.77-1.76-1.16-1.42-2.5-3-2.63-4.94a2.78,2.78,0,0,1,3-3.15c1.87,0,3.38,1.27,4.65,2.53s2.55,2.69,3.91,3.95A50.8,50.8,0,0,0,111.5,448a50.22,50.22,0,0,0,12.21,2.27c1.6.1,1.6-2.4,0-2.5Z" transform="translate(-78.69 -124.72)"/><path class="cls-5" d="M106.51,451.35a2.9,2.9,0,0,1-.47-.16l.3.13a4.12,4.12,0,0,1-.81-.48l.25.2a4,4,0,0,1-.65-.65,1,1,0,0,0-.4-.26,1,1,0,0,0-.48-.11,1.28,1.28,0,0,0-.89.37,1.22,1.22,0,0,0-.36.88l0,.33a1.31,1.31,0,0,0,.32.56,4.83,4.83,0,0,0,1.12,1,3.29,3.29,0,0,0,.52.29,5,5,0,0,0,.84.32,1.24,1.24,0,0,0,1.54-.87,1.24,1.24,0,0,0-.13-1,1.26,1.26,0,0,0-.74-.58Z" transform="translate(-78.69 -124.72)"/><path class="cls-5" d="M100.69,439.3a3.37,3.37,0,0,1,.36-4.19,6,6,0,0,1,5-1.53,19.46,19.46,0,0,1,6.12,2c1.83.84,3.69,1.63,5.58,2.32a73.32,73.32,0,0,0,24.72,4.31c3.55,0,7.77,0,10.18,3.05,1,1.26,2.76-.52,1.77-1.77-2.38-3-6.35-3.61-10-3.75a101.37,101.37,0,0,1-14.14-1,69.2,69.2,0,0,1-14-4c-4.19-1.7-8.37-4.39-13.08-3.46-4,.79-7.38,5.48-4.69,9.31.92,1.31,3.08.06,2.16-1.26Z" transform="translate(-78.69 -124.72)"/><path class="cls-5" d="M144.51,457.75c4.82.63,9.62-.5,14.45-.22,4,.23,8.56,1.91,9.85,6.1.47,1.54,2.89.88,2.41-.66-1.38-4.49-5.69-7.06-10.14-7.72-5.52-.82-11.05.73-16.57,0-1.59-.21-1.58,2.29,0,2.5Z" transform="translate(-78.69 -124.72)"/><path class="cls-5" d="M136.84,527.12a31.11,31.11,0,0,0,7.71-.36,1.26,1.26,0,0,0,.87-1.54,1.28,1.28,0,0,0-1.54-.87c-.64.11-1,.16-1.64.22s-1.18.1-1.77.13a29.33,29.33,0,0,1-3.63-.08,1.26,1.26,0,0,0-1.25,1.25,1.29,1.29,0,0,0,1.25,1.25Z" transform="translate(-78.69 -124.72)"/><path class="cls-5" d="M236.75,398.89,283.42,440l13.31,11.72c1.81,1.59,4.47-1.06,2.66-2.65L252.71,408,239.4,396.24c-1.81-1.59-4.47,1.06-2.65,2.65Z" transform="translate(-78.69 -124.72)"/><path class="cls-5" d="M299.75,450.6a255.77,255.77,0,0,0,37.51-36.12q4.82-5.7,9.29-11.66a1.87,1.87,0,0,0-.67-2.56,1.93,1.93,0,0,0-2.57.67,253.34,253.34,0,0,1-34.94,37.66q-5.5,4.85-11.27,9.36a1.88,1.88,0,0,0,0,2.65,1.92,1.92,0,0,0,2.65,0Z" transform="translate(-78.69 -124.72)"/><path class="cls-5" d="M269.48,366.73c-1.86-1.75-3.65-3.58-5.35-5.48a1.89,1.89,0,0,0-2.65,0,1.91,1.91,0,0,0,0,2.65c1.7,1.91,3.49,3.73,5.35,5.48a1.87,1.87,0,0,0,2.65-2.65Z" transform="translate(-78.69 -124.72)"/><path class="cls-5" d="M288.41,380.09A85.72,85.72,0,0,1,274,370.67a1.92,1.92,0,0,0-2.65,0,1.89,1.89,0,0,0,0,2.65,89.47,89.47,0,0,0,15.18,10,1.87,1.87,0,1,0,1.89-3.23Z" transform="translate(-78.69 -124.72)"/><path class="cls-5" d="M244.73,347.39c5.18,4.86,10.37,9.73,15.34,14.81,4.59,4.69,8.87,9.75,14.33,13.47,2,1.36,3.88-1.89,1.9-3.24-5.31-3.61-9.45-8.68-13.92-13.22-4.86-5-9.93-9.72-15-14.47-1.75-1.65-4.41,1-2.65,2.65Z" transform="translate(-78.69 -124.72)"/><path class="cls-5" d="M309.63,386.49a53.67,53.67,0,0,1-20.37-5.68c-2.15-1.1-4.05,2.14-1.89,3.23a58.29,58.29,0,0,0,22.26,6.2c2.41.17,2.4-3.58,0-3.75Z" transform="translate(-78.69 -124.72)"/><path class="cls-5" d="M247.58,343.6c3,9.84,11,16.49,18.82,22.6a1.92,1.92,0,0,0,2.65,0,1.89,1.89,0,0,0,0-2.65c-7.21-5.65-15.08-11.81-17.85-20.95-.7-2.3-4.32-1.32-3.62,1Z" transform="translate(-78.69 -124.72)"/><path class="cls-5" d="M307.48,386.39c-15.94-1.86-28.44-13.26-39.77-23.62-1.78-1.63-4.44,1-2.65,2.65,12.18,11.15,25.34,22.73,42.42,24.72a1.88,1.88,0,1,0,0-3.75Z" transform="translate(-78.69 -124.72)"/><path class="cls-5" d="M246.81,346.55a1.88,1.88,0,0,0,0-3.75,1.88,1.88,0,0,0,0,3.75Z" transform="translate(-78.69 -124.72)"/><path class="cls-5" d="M306.9,385.91c-4.09-.41-8-2.11-11.64-3.84-3.47-1.62-6.87-3.41-10.17-5.35A122.2,122.2,0,0,1,266.17,363c-1.81-1.58-4.47,1.06-2.65,2.66a127.48,127.48,0,0,0,20.06,14.48,118.88,118.88,0,0,0,11,5.68,39.15,39.15,0,0,0,12.33,3.8,1.9,1.9,0,0,0,1.88-1.88,1.92,1.92,0,0,0-1.88-1.87Z" transform="translate(-78.69 -124.72)"/><path class="cls-5" d="M307.36,385.48,295,382.43a1.87,1.87,0,1,0-1,3.61l12.38,3.06a1.88,1.88,0,0,0,1-3.62Z" transform="translate(-78.69 -124.72)"/></g></svg>