<svg width="167" height="307" viewBox="0 0 167 307" fill="none" xmlns="http://www.w3.org/2000/svg">
<path fill-rule="evenodd" clip-rule="evenodd" d="M18.5447 305.149C31.481 305.511 43.7013 305.911 56.6127 305.149C77.2734 303.87 137.907 306.175 151.235 305.149C152.24 305.071 155.699 306.175 155.771 305.149C156.357 298.004 156.737 225.714 154.997 220.74C153.256 215.766 144.664 191.855 133.716 180.705C130.664 177.693 126.018 176.526 123.452 173.046C121.24 169.25 121.412 167.022 119.227 165.025C118.279 164.158 116.042 163.807 114.381 162.604C112.71 160.943 114.292 157.287 113.606 154.974C112.193 149.198 106.986 145.493 101.294 144.62C93.3845 142.727 85.0334 144.517 81.2444 150.733C79.8344 153.047 80.5844 155.859 78.8504 159.567C78.9744 162.368 75.7045 163.045 73.7495 164.156L69.8684 168.08C57.9107 174.81 43.8438 178.445 33.3664 187.488C24.4585 196.528 15.5983 206.977 11.646 219.207C10.8277 222.54 10.5607 225.985 10.2216 229.39C9.25365 239.342 6.55805 249.002 4.23835 258.696C1.59325 270.909 -0.872352 283.875 2.69255 296.204C3.72035 298.814 16.2049 305.027 18.5447 305.149Z" fill="white"/>
<path fill-rule="evenodd" clip-rule="evenodd" d="M80.5585 151.728C80.6615 151.39 81.1075 151.485 81.1415 151.806C81.4775 154.993 81.0555 158.324 80.6495 161.49C80.4555 163.018 80.3425 164.608 80.0475 166.114C80.0095 166.275 79.9735 166.438 79.9395 166.599C80.0365 166.772 80.3245 166.966 80.4615 167.099L81.0575 167.679L82.2525 168.837C84.5915 171.102 86.9305 173.37 89.2695 175.636L92.7025 178.965C93.8795 180.106 95.2165 181.199 96.2495 182.471C96.8095 183.162 96.9355 184.009 96.3845 184.749C96.1115 185.115 95.6225 185.381 95.1255 185.436C95.3195 185.707 95.4695 186.013 95.5645 186.353C95.7595 187.047 95.0575 187.898 94.3125 187.609C93.4655 187.283 92.7655 186.7 91.9035 186.421C91.0335 186.138 90.0865 186.083 89.1845 186.235C88.7705 186.305 88.3645 186.408 87.9695 186.539C92.1975 188.486 96.7715 189.604 101.436 189.764C102.386 189.796 103.335 189.783 104.279 189.72C105.868 189.617 107.446 189.376 108.997 188.987C110.216 188.68 111.422 188.296 112.593 187.831C113.167 187.602 113.735 187.351 114.285 187.066L114.333 187.037C114.457 186.96 116.754 185.657 116.794 185.462C116.834 185.266 116.833 185.198 116.758 185.027C116.684 184.857 116.477 184.74 116.477 184.74C115.768 184.436 115.032 184.154 114.257 184.149C112.474 184.138 110.528 185.457 109.054 186.356C107.434 187.343 105.944 188.496 104.385 189.566C104.349 189.591 104.31 189.602 104.271 189.602C104.106 189.602 103.954 189.399 104.059 189.24C105.177 187.594 106.685 186.224 108.263 185.027L108.899 184.551C110.344 183.473 112.034 182.279 113.791 182.018C115.943 181.701 118.192 183.044 120.113 183.83L123.513 185.223C124.119 185.47 124.779 185.681 125.389 185.962L123.964 181.501C123.251 179.27 122.542 177.038 121.839 174.805L121.701 174.368C121.001 172.101 120.357 169.743 119.19 167.672C118.911 167.176 118.592 166.708 118.278 166.237C117.95 165.749 117.828 165.21 117.416 164.774C116.6 163.91 115.432 163.403 114.316 163.071C114.044 162.991 114.124 162.632 114.38 162.604C115.525 162.483 116.616 162.75 117.651 163.233L118.081 163.439C119.059 163.902 120.014 164.332 120.74 165.163C122.396 167.061 123.256 169.451 124.046 171.809L124.257 172.442C124.552 172.345 126.562 172.958 126.813 173.104C134.345 176.289 140.146 182.219 144.388 189.168C149.036 196.783 151.568 205.485 153.658 214.095C154.301 216.753 154.919 219.418 155.51 222.09C152.871 223.106 150.066 223.637 147.595 225.068C146.654 225.613 147.505 227.075 148.449 226.528C150.762 225.188 153.398 224.693 155.875 223.751C157.218 229.936 158.413 236.155 159.414 242.399C162.488 261.565 164.429 281.042 164.307 300.47C164.304 300.899 164.178 301.379 163.943 301.791C164.081 301.723 164.188 301.643 164.25 301.546C165.029 300.322 166.984 301.457 166.201 302.687L166.085 302.865C165.497 303.772 164.948 304.466 163.914 304.978C162.872 305.494 161.744 305.58 160.595 305.61C156.688 305.713 152.779 305.78 148.869 305.828C148.333 301.644 148.115 297.42 147.376 293.26C147.186 292.19 145.557 292.643 145.746 293.709C146.46 297.726 146.688 301.804 147.186 305.848C138.826 305.938 130.462 305.939 122.108 305.963C110.787 305.996 99.4685 305.973 88.1485 305.966L83.2965 305.965C70.2195 305.965 57.1416 305.923 44.0643 305.836L40.9542 305.814C39.7171 298.518 38.875 291.16 38.8593 283.745C38.857 282.658 37.1669 282.655 37.1692 283.745C37.1848 291.151 38.0176 298.511 39.2434 305.804C36.1471 305.791 33.0522 305.802 29.9557 305.912L28.3796 305.968C25.2262 306.076 22.0665 306.143 18.919 305.891C15.4247 305.61 11.8904 304.967 8.7573 303.321C7.3462 302.578 6.1038 301.629 5.0419 300.512C6.1213 299.884 7.2161 299.281 8.2616 298.597C9.1682 298.003 8.3225 296.539 7.4085 297.137C6.2819 297.875 5.0975 298.517 3.9374 299.199C3.0974 298.078 2.408 296.833 1.8845 295.491C1.0585 293.37 0.7395 291.09 0.4627 288.845C0.1354 286.202 0 283.536 0 280.874C0 275.273 0.589499 269.689 1.4115 264.156C2.1976 258.855 3.2367 253.597 4.3351 248.355L4.4852 247.641C5.569 242.488 6.6021 237.32 7.8444 232.204C8.993 227.472 10.3204 222.763 11.9024 218.145C13.3105 219.016 14.7841 219.777 16.1702 220.685C17.0831 221.282 17.9309 219.819 17.0233 219.225C15.5445 218.257 13.9671 217.452 12.4747 216.506C14.2437 211.561 16.32 206.731 18.8094 202.105C23.7951 192.842 30.5136 184.555 39.1185 178.438C43.4261 175.378 48.1521 172.874 53.115 171.052C58.1749 169.192 63.4183 168.173 68.7805 167.755C68.9335 167.743 69.0195 167.884 69.0135 168.015L69.0105 168.04L69.2225 168.074C69.3005 167.543 69.4605 167.03 69.7675 166.558C70.4645 165.485 71.7865 164.796 72.8425 164.136L73.0935 163.98C74.3505 163.201 75.6765 162.433 77.1385 162.16C77.1885 162.152 77.2205 162.204 77.1865 162.245C76.2225 163.35 74.9905 164.195 73.8605 165.13L73.6005 165.347C72.6645 166.118 71.3585 166.992 71.3235 168.281C71.2845 169.798 71.5945 171.377 71.7065 172.89C71.8185 174.399 71.8965 175.906 71.9365 177.419C72.0825 182.841 71.9075 188.264 71.4275 193.664L73.5485 192.244C76.8495 190.033 80.1615 187.829 83.5415 185.759C85.5865 184.506 87.8855 183.435 90.3355 183.483C91.0225 183.496 91.7975 183.595 92.5415 183.807C91.7415 183.048 90.9745 182.241 90.1905 181.478C88.8995 180.22 87.6085 178.963 86.3175 177.707L82.5955 174.08L78.8725 170.453C77.7195 169.327 76.3665 168.289 76.4895 166.514C76.5885 165.098 77.3095 163.688 77.8015 162.323C77.8715 162.126 77.9345 161.932 77.9935 161.74C78.9865 158.438 79.5505 155.016 80.5585 151.728ZM128.661 293.374C127.892 292.603 126.696 293.798 127.466 294.569L127.874 294.975C128.554 295.654 129.229 296.354 129.699 297.193L129.768 297.32C130.275 298.283 131.735 297.429 131.227 296.466C130.6 295.276 129.602 294.315 128.661 293.374ZM95.6765 293.156C93.2255 292.688 90.8635 292.688 88.4125 293.156C87.3455 293.36 87.7975 294.99 88.8615 294.787C91.0055 294.377 93.0835 294.377 95.2275 294.787C96.2895 294.99 96.7455 293.36 95.6765 293.156ZM62.577 276.113C61.5224 275.846 61.0724 277.476 62.1278 277.743L62.6475 277.874C64.414 278.31 66.0964 278.636 67.9315 278.23C68.9795 277.999 68.5555 276.408 67.5235 276.592L67.4815 276.6C65.784 276.975 64.2198 276.529 62.577 276.113ZM121.36 265.131C120.58 264.372 119.384 265.566 120.165 266.326C121.141 267.275 122.291 267.996 123.684 268.035C124.756 268.064 124.77 266.424 123.731 266.346L123.684 266.344C122.751 266.318 122.006 265.758 121.36 265.131ZM21.8911 260.615C22.8642 260.128 22.0092 258.669 21.0382 259.155L15.1971 262.077C14.224 262.563 15.079 264.022 16.05 263.537L21.8911 260.615ZM137.312 260.987C136.225 260.957 136.225 262.648 137.312 262.678C138.335 262.707 139.383 263.094 140.294 263.536C141.269 264.01 142.126 262.552 141.146 262.076C139.956 261.498 138.648 261.025 137.312 260.987ZM82.7355 252.824C83.6305 252.216 82.7855 250.75 81.8825 251.364C80.6505 252.201 79.5345 253.191 78.3225 254.054L77.9885 254.285C77.0945 254.894 77.9385 256.359 78.8415 255.746C80.1855 254.832 81.3925 253.737 82.7355 252.824ZM145.587 240.535C144.5 240.535 144.498 242.226 145.587 242.226L145.794 242.225C146.691 242.22 147.637 242.196 148.472 242.554L148.568 242.598C149.548 243.059 150.405 241.601 149.421 241.138C148.197 240.561 146.918 240.536 145.587 240.535ZM51.7262 239.327L51.8681 239.274C52.8843 238.909 52.4462 237.275 51.4188 237.644C49.8706 238.2 48.6662 239.252 47.3231 240.164C46.4282 240.772 47.2729 242.237 48.176 241.624C49.3332 240.838 50.4099 239.842 51.7262 239.327ZM115.12 234.929L115.348 234.807C116.316 234.308 115.463 232.849 114.495 233.347C113.729 233.741 113.042 234.267 112.289 234.685L112.061 234.807C111.094 235.305 111.948 236.765 112.914 236.267C113.681 235.872 114.368 235.347 115.12 234.929ZM89.4095 218.552L89.2355 218.383C88.4575 217.622 87.2615 218.816 88.0395 219.579C89.9845 221.483 92.2845 222.929 94.6035 224.327L95.0255 224.581C95.9605 225.142 96.8115 223.68 95.8785 223.121L95.2595 222.748C93.1975 221.504 91.1595 220.22 89.4095 218.552ZM42.6382 216.973C43.2936 216.122 41.8683 215.289 41.2022 216.09L41.1788 216.12C40.4965 217.006 39.6871 217.808 38.841 218.54L38.682 218.676C38.1783 219.105 37.2616 220.023 36.5541 220.083C35.4783 220.175 35.4686 221.867 36.5541 221.774C37.6489 221.681 38.5909 220.91 39.418 220.25C40.6218 219.289 41.6987 218.193 42.6382 216.973ZM132.557 210.814C133.342 210.076 132.182 208.901 131.389 209.593L131.361 209.618C129.893 210.998 127.782 211.368 125.893 211.835C124.837 212.097 125.285 213.728 126.342 213.466L127.203 213.253C129.134 212.771 131.072 212.21 132.557 210.814ZM99.0835 200.149C98.0295 199.881 97.5795 201.511 98.6345 201.779C100.427 202.235 102.125 202.824 103.786 203.642C104.759 204.12 105.616 202.663 104.639 202.182C102.852 201.302 101.013 200.639 99.0835 200.149ZM116.35 164.506C116.325 164.43 116.404 164.343 116.482 164.371C118.38 165.078 117.37 167.563 116.781 169.051L116.674 169.323C115.752 171.707 114.46 174.028 113.053 176.162C111.581 178.396 109.946 180.535 108.175 182.543C107.407 183.415 106.611 184.261 105.787 185.083L105.477 185.389C104.645 186.208 103.572 187.645 102.281 187.486C100.89 187.319 100.116 185.834 101.13 184.705C101.847 183.906 102.839 183.27 103.639 182.543C104.434 181.824 105.203 181.082 105.952 180.319C107.486 178.753 108.94 177.098 110.27 175.355C111.555 173.669 112.785 171.936 113.902 170.134L114.124 169.773C114.976 168.372 116.942 166.311 116.35 164.506ZM49.1496 182.217C48.2492 181.601 47.4028 183.066 48.2965 183.677C49.9397 184.8 51.3854 186.161 53.1641 187.085C54.1164 187.58 54.9633 186.162 54.0509 185.644L54.0172 185.626C52.2398 184.702 50.792 183.34 49.1496 182.217Z" fill="#FAA307"/>
<path fill-rule="evenodd" clip-rule="evenodd" d="M86.914 75.7816C118.936 74.2063 133.386 96.7612 134.321 106.835C134.97 113.828 130.84 121.889 130.84 128.138C130.84 131.327 134.743 138.175 132.926 142.824C128.881 153.172 120.316 164.655 109.402 164.655C98.488 164.655 84.284 167.675 72.224 150.401C71.093 148.78 56.7806 139.568 55.3901 130.815C51.9267 109.011 64.0655 76.9057 86.914 75.7816Z" fill="white"/>
<path fill-rule="evenodd" clip-rule="evenodd" d="M85.405 61.7453C86.55 60.4349 88.483 59.9108 90.201 60.0122C92.696 60.1602 94.866 61.7009 97.348 61.815C99.951 61.9355 102.463 61.033 105.072 61.4515C106.671 61.7094 108.256 62.4512 109.28 63.7024C112.83 62.6858 116.683 64.0321 118.944 66.972C121.733 66.5387 124.766 68.3861 125.62 71.0743C129.163 71.1884 132.507 74.0353 132.902 77.6029C134.318 77.977 135.547 78.9536 136.302 80.2448C137.178 81.7411 137.324 83.4573 137.166 85.1439C138.833 85.9956 139.68 87.8259 139.902 89.7619C141.425 90.8989 142.086 92.9427 141.775 94.8723C142.942 95.5296 143.544 97.0598 143.537 98.4251C143.531 99.6996 143.193 100.828 143.669 102.058C144.092 103.154 144.244 104.067 144.011 105.214L143.987 105.326C143.946 105.513 143.912 105.692 143.881 105.869C144.196 106.146 144.463 106.493 144.663 106.897C145.394 108.372 145.285 110.055 144.728 111.551C144.972 112.503 144.941 113.51 144.58 114.426C145.255 115.399 145.611 116.593 145.506 117.831C145.389 119.218 144.756 120.459 143.796 121.377C144.052 123.271 143.282 125.318 141.89 126.652C142.088 127.785 141.917 128.974 141.297 130.049C140.855 130.815 140.26 131.386 139.574 131.783C139.596 132.416 139.511 133.063 139.3 133.711C139.008 134.611 138.514 135.439 137.862 136.107C138.251 138.592 136.764 141.349 134.146 142.047C133.926 142.105 133.716 142.132 133.515 142.136C133.255 144.526 132.687 146.883 131.808 149.122C129.573 154.822 125.508 159.805 120.207 162.914C117.585 164.451 114.64 165.503 111.634 165.943C109.471 166.26 107.39 166.182 105.218 165.966C102.492 165.693 99.754 165.286 97.105 164.584L96.679 164.471C95.581 164.176 94.423 163.837 93.471 163.244C92.406 162.58 91.853 161.557 91.608 160.353C91.471 159.682 91.896 158.961 92.63 158.947H92.677C92.837 158.951 92.997 158.944 93.158 158.934L93.279 158.926H93.285C93.294 158.924 93.298 158.924 93.306 158.924C93.378 158.913 93.448 158.892 93.518 158.882C94.325 158.746 95.031 158.881 95.789 159.133L95.884 159.165C97.16 159.604 98.425 160.012 99.744 160.315C101.106 160.625 102.486 160.873 103.87 161.067L104.007 161.084L104.049 161.09L104.071 161.092C104.075 161.092 104.079 161.092 104.083 161.094L104.491 161.145C104.812 161.183 105.133 161.217 105.454 161.251C106.046 161.31 106.637 161.357 107.229 161.39C117.44 161.965 126.015 153.923 128.603 144.282C129.541 140.792 129.602 137.311 129.325 133.828C129.237 133.575 129.184 133.293 129.186 132.985C129.186 132.824 129.195 132.666 129.205 132.505C128.861 129.136 128.263 125.765 127.889 122.384C127.452 118.434 127.209 114.461 127.297 110.485C127.342 108.521 127.551 106.577 127.825 104.633L127.925 103.934C126.684 103.692 125.53 103.103 124.611 102.251C122.617 103.402 120.036 103.505 118.068 102.288C115.862 103.672 112.781 103.797 110.56 102.445C109.217 103.403 107.526 103.817 105.866 103.453C105.119 103.289 104.376 102.935 103.74 102.445C103.286 102.525 102.826 102.556 102.369 102.533L102.275 102.585C101.22 103.141 100.052 103.507 98.851 103.466C97.961 103.436 97.044 103.261 96.195 102.928C95.289 103.476 94.297 103.849 93.235 103.983C91.685 104.179 90.012 103.836 88.723 102.956C86.367 104.299 83.47 104.506 80.927 103.603C80.406 104.486 79.685 105.247 78.842 105.833C78.993 106.375 79.041 106.952 78.989 107.507C78.904 108.421 78.675 109.241 78.3 109.977C78.695 110.798 78.814 111.807 78.593 112.82C78.278 114.264 77.438 115.521 76.35 116.499C76.254 118.804 74.99 120.965 72.934 122.166C72.83 122.227 72.726 122.276 72.623 122.321C72.532 122.445 72.424 122.554 72.3 122.647C70.992 123.855 68.922 123.759 67.283 123.076C67.251 123.078 67.22 123.08 67.188 123.081C66.6023 123.096 66.2032 122.868 65.9663 122.532C65.7278 122.544 65.491 122.57 65.2525 122.614C64.3818 122.777 63.4269 123.09 62.6389 123.496C60.5938 124.548 59.6473 126.408 59.3642 128.644C59.056 131.083 59.7572 133.568 61.644 135.219C62.5607 136.022 63.7332 136.525 64.9248 136.736C66.241 136.971 67.648 136.394 68.62 137.525C68.814 137.749 68.947 138.062 68.842 138.364C68.512 139.306 67.969 139.668 67.12 139.799C68.347 141.255 69.606 142.663 71.001 143.971C72.509 145.389 74.068 146.763 75.429 148.327C76.868 149.982 78.167 151.736 79.069 153.744C79.585 154.898 79.999 156.088 80.445 157.269L80.524 157.475C81.022 158.73 81.683 159.94 80.918 161.251C80.614 161.767 79.925 162.265 79.291 162.183C77.506 161.955 76.908 160.748 76.359 159.175C75.945 157.988 75.628 156.766 75.182 155.589C75.099 155.371 75.008 155.155 74.912 154.941C73.883 155.228 72.751 155 71.833 154.413C70.851 154.848 69.764 155.065 68.714 155.047C67.307 155.022 66.0227 154.631 64.9182 153.926C64.8303 153.903 64.742 153.88 64.6544 153.855C62.9742 154.499 61.0064 154.384 59.4851 153.341C58.4999 152.665 57.8264 151.763 57.4436 150.759C56.1707 150.735 54.9115 150.283 53.9995 149.38C53.162 148.551 52.6725 147.481 52.5272 146.369C51.4315 146.152 50.4044 145.622 49.5988 144.729C48.9261 143.984 48.5173 143.034 48.3792 142.049C47.0448 141.668 45.8414 140.796 45.1842 139.581C44.5725 138.45 44.4842 137.222 44.7834 136.106L44.7058 135.994C43.3313 135.275 42.2824 134.097 42.1746 132.414C42.1442 131.935 42.1958 131.455 42.3257 131.002C42.2788 130.495 42.3088 129.988 42.4417 129.498C40.5931 127.699 39.9234 124.81 40.9269 122.422C39.1206 120.477 38.6431 117.402 39.9677 115.095C39.0593 113.995 38.5924 112.594 38.6706 111.098C38.7677 109.23 39.6234 107.598 40.648 106.087C39.8875 105.245 39.4818 104.072 39.5116 102.94C39.5537 101.297 40.4262 99.8834 41.5187 98.7127C40.5656 95.8214 41.6304 92.6849 43.9692 90.8546C43.4959 90.0747 43.3206 89.1088 43.475 88.1303C43.7452 86.4204 45.0276 85.2559 46.4114 84.3344C46.122 83.392 46.198 82.3752 46.6586 81.4009C47.2734 80.1011 48.4332 79.2768 49.6438 78.5793C49.9565 75.6965 53.1762 73.2343 55.8762 74.7222C55.2065 72.577 57.1356 70.2606 59.3539 70.0154C60.4396 66.7226 64.1853 64.6471 67.553 65.4651C69.275 63.1106 72.48 62.2041 75.201 63.2142C78.193 60.921 81.904 60.5808 85.405 61.7453ZM64.0946 126.399C66.1967 126.285 67.773 128.001 68.88 129.572C69.919 131.045 67.253 132.6 66.4756 130.977C66.1967 130.398 65.8798 129.785 65.4552 129.278C65.3839 129.378 65.3209 129.481 65.2582 129.587L65.1953 129.694C65.1489 129.773 65.1003 129.853 65.0601 129.935C65.0643 129.95 65.001 130.145 64.9989 130.153C64.8256 130.679 64.4474 131.017 63.9322 131.199C63.2665 131.432 62.6369 130.931 62.4235 130.343C62.0836 129.405 62.8735 128.587 63.6953 128.215C62.8883 128.084 62.0939 128.359 61.5108 128.98C61.4308 129.067 61.2953 128.997 61.2913 128.889C61.2235 127.416 62.7636 126.471 64.0946 126.399Z" fill="black"/>
<path fill-rule="evenodd" clip-rule="evenodd" d="M110.195 148.541C108.775 147.962 107.508 146.995 106.581 145.76C106.259 145.33 106.176 144.877 106.243 144.462C106.319 143.996 106.595 143.573 106.971 143.29C107.348 143.006 107.82 142.865 108.276 142.937C108.673 142.999 109.067 143.216 109.38 143.666L109.445 143.756C109.996 144.502 110.713 145.113 111.531 145.508C112.319 145.888 113.201 146.065 114.113 145.962C115.851 145.766 117.048 144.826 118.321 143.549C118.479 143.388 118.637 143.222 118.795 143.053C118.895 142.9 119.035 142.801 119.189 142.75C119.36 142.692 119.554 142.696 119.732 142.758C119.903 142.817 120.056 142.931 120.159 143.082C120.256 143.225 120.312 143.402 120.294 143.606C120.177 144.928 119.486 146.109 118.504 147.036C117.413 148.066 115.967 148.778 114.606 149.028C113.107 149.303 111.579 149.106 110.195 148.541ZM115.314 128.133C116.909 129.103 119.34 131.365 117.624 133.77C115.603 135.891 112.695 133.46 111.262 132.36C109.933 131.508 108.439 133.7 109.672 134.695C120.029 142.366 124.233 128.387 116.121 126.993C115.227 126.839 114.896 127.833 115.314 128.133ZM96.7544 119.21C96.9304 117.021 100.262 116.524 100.594 118.69C100.89 120.63 100.541 122.412 99.6674 124.159C98.8334 125.828 96.7354 125.05 96.5764 123.53C96.3634 121.493 96.6444 120.571 96.7544 119.21ZM122.119 118.241C122.584 117.632 123.255 117.216 124.058 117.451C126.569 118.185 125.829 121.752 124.947 123.487C124.468 124.43 122.919 124.669 122.219 123.839C121.078 122.486 120.532 119.782 121.982 118.449C122.022 118.38 122.066 118.311 122.119 118.241ZM99.6324 109.632L100.029 109.563C101.256 109.35 102.781 109.146 103.649 110.133C104.11 110.657 104.268 111.629 103.649 112.13C102.561 113.011 101.357 112.67 100.053 112.745C98.9784 112.806 97.9454 112.984 96.9104 113.28C94.6384 113.93 92.7874 115.115 90.8474 116.417C90.5934 116.588 90.3334 116.262 90.4544 116.024C91.5744 113.83 93.7444 112.027 95.9184 110.928C97.0794 110.342 98.3484 109.855 99.6324 109.632ZM119.83 108.649L120.134 108.711C123.438 109.402 127.73 110.782 129.294 114.028C129.354 114.487 129.291 114.586 129.24 114.65L129.223 114.671C129.18 114.726 129.147 114.802 128.948 114.864C128.893 114.851 128.837 114.837 128.781 114.823C128.063 114.635 127.496 114.376 126.947 114.107L126.351 113.813C125.66 113.474 124.963 113.148 124.224 112.907C122.648 112.392 121.026 112.03 119.38 111.836C119.023 111.795 118.679 111.674 118.408 111.467C118.151 111.271 117.954 111 117.864 110.639C117.748 110.172 117.782 109.819 118.032 109.398C118.22 109.081 118.49 108.862 118.799 108.736C119.114 108.608 119.473 108.578 119.83 108.649Z" fill="black"/>
<path fill-rule="evenodd" clip-rule="evenodd" d="M124.043 153.358C123.306 153.117 122.582 152.836 121.854 152.565C118.134 150.696 113.64 150.357 109.739 151.931C107.824 152.704 106.038 154.092 104.117 155.002C103.66 155.172 103.2 155.327 102.735 155.457C102.45 155.357 102.165 155.252 101.881 155.146C99.8434 154.378 97.9264 153.43 96.0654 152.387C95.8664 152.107 95.6604 151.835 95.4394 151.574C96.7864 151.383 98.1054 151.065 99.2984 150.737C102.961 149.733 106.413 148.098 110.064 147.049C113.463 146.071 117.152 145.536 120.566 146.751C122.186 147.328 123.612 148.338 125.188 149.019C126.004 149.37 126.982 149.714 127.935 149.765C127.32 151.238 126.543 152.614 125.48 153.76C124.994 153.656 124.512 153.51 124.043 153.358ZM131.97 141.82C131.644 142.091 130.298 142.966 129.861 143.488C129.748 143.445 129.636 143.401 129.524 143.356C129.332 143.12 129.05 143.016 128.761 143.023C126.748 142.086 124.956 140.762 123.357 139.103C122.22 137.925 121.056 136.693 119.537 136.01C117.747 135.203 115.988 135.575 114.107 135.698C112.107 135.831 110.131 135.262 108.133 135.535C106.671 135.736 105.302 136.355 104.118 137.228C101.704 139.01 100.039 141.512 97.9984 143.67C95.6834 146.117 92.8354 147.681 89.6684 148.48C89.6304 148.455 89.5904 148.429 89.5494 148.406C87.2154 146.293 85.1074 143.907 83.2414 141.364C81.4204 138.881 76.6184 127.702 75.4584 126.722C74.9764 126.314 74.4484 126.138 73.9434 126.153C73.0284 126.174 72.1834 126.81 71.8054 127.812C71.1634 129.516 71.4844 131.718 71.5354 133.5C71.5984 135.681 71.7424 137.86 71.9704 140.03C72.1964 142.176 72.4964 144.314 72.8704 146.438C73.0584 147.512 73.2674 148.584 73.4974 149.651C73.5694 149.987 73.6604 150.287 73.7704 150.566C73.8824 151.092 74.0024 151.617 74.1314 152.136C74.9724 155.541 76.2994 158.95 78.8324 161.463C81.4684 164.082 85.0524 165.821 88.3794 167.377C91.5484 168.859 94.8694 170.175 98.2774 171.207C101.237 172.549 104.406 173.61 107.588 174.168C111.09 174.783 114.773 174.821 118.155 173.603C119.818 173.005 121.39 172.17 122.816 171.131C124.838 170.08 126.657 168.637 128.146 166.726C130.814 163.302 132.087 159.147 132.644 154.862C132.787 153.765 133.323 149.562 133.365 148.907C133.501 146.794 133.637 144.681 133.773 142.567C133.838 141.57 132.614 141.285 131.97 141.82Z" fill="black"/>
<path d="M82.625 19.875C82.625 8.89834 91.5233 0 102.5 0C113.477 0 122.375 8.89834 122.375 19.875V23.1875C122.375 31.1174 118.365 35.3215 115.521 38.3033L115.462 38.3657C113.162 40.7768 112.438 41.7573 112.438 43.0625V46.375C112.438 50.0339 109.471 53 105.812 53H99.1875C95.5286 53 92.5625 50.0339 92.5625 46.375V43.0625C92.5625 41.7573 91.8378 40.7768 89.5384 38.3657L89.4789 38.3033C86.6349 35.3215 82.625 31.1174 82.625 23.1875V19.875Z" fill="#252422"/>
<path d="M102.5 3.3125C93.3528 3.3125 85.9375 10.7278 85.9375 19.875V23.1875C85.9375 29.7901 89.1605 33.1697 91.9355 36.0796C94.0333 38.2792 95.875 40.2104 95.875 43.0625V46.375C95.875 48.2044 97.3581 49.6875 99.1875 49.6875H105.812C107.642 49.6875 109.125 48.2044 109.125 46.375V43.0625C109.125 40.2104 110.967 38.2792 113.064 36.0796C115.839 33.1697 119.062 29.7901 119.062 23.1875V19.875C119.062 10.7278 111.647 3.3125 102.5 3.3125Z" fill="#FEAA01"/>
<path d="M95.875 46.375V43.0625H109.125V46.375C109.125 48.2044 107.642 49.6875 105.812 49.6875H99.1875C97.3581 49.6875 95.875 48.2044 95.875 46.375Z" fill="#7E8FA0"/>
<path d="M102.5 3.3125C93.3528 3.3125 85.9375 10.7278 85.9375 19.875C85.9375 31.4688 95.875 33.125 95.875 39.75H109.125C109.125 33.125 119.062 31.4688 119.062 19.875C119.062 10.7278 111.647 3.3125 102.5 3.3125Z" fill="#FAA307"/>
<path fill-rule="evenodd" clip-rule="evenodd" d="M102.5 10.7656C97.469 10.7656 93.3906 14.844 93.3906 19.875C93.3906 21.2471 92.2783 22.3594 90.9062 22.3594C89.5342 22.3594 88.4219 21.2471 88.4219 19.875C88.4219 12.0999 94.7249 5.79688 102.5 5.79688C103.872 5.79688 104.984 6.90917 104.984 8.28125C104.984 9.65333 103.872 10.7656 102.5 10.7656Z" fill="#FFF8EB"/>
</svg>
