<svg xmlns="http://www.w3.org/2000/svg" viewBox="0 0 413.44 361.7"><defs><style>.cls-1{fill:#fff;}.cls-2{fill:#f6a214;}.cls-3{fill:#1d1d1b;}</style></defs><g id="Layer_5" data-name="Layer 5"><path class="cls-1" d="M296.25,226.75a86.6,86.6,0,0,0-23.78,5.87,93.86,93.86,0,0,0-21.27,12c-13,9.93-23.87,22.68-30.42,37.75a96.92,96.92,0,0,0-4.94,13.7,92.05,92.05,0,0,0-2.53,14.84l.35,2.66,1,2.38a10,10,0,0,0,4.78,4.1,9.72,9.72,0,0,0,5.19.68,9.27,9.27,0,0,0,5.74-2.75,246.34,246.34,0,0,1,38.56-36.65l-2,1.56a381,381,0,0,1,36.71-24.82,10.36,10.36,0,0,0,4.59-6,10,10,0,0,0-14.69-11.3,204.59,204.59,0,0,0-60.23,51.72,219.85,219.85,0,0,0-13.93,19.82,10,10,0,0,0,15.7,12.12,705.07,705.07,0,0,1,56.72-52.17q8.41-6.94,17.06-13.62l-2,1.56q5.32-4.11,10.73-8.13l-12.12-15.7q-19.5,16.28-37.47,34.3t-34,37.43q-9.78,11.81-18.94,24.12c-1.4,1.86-1.7,5.56-1,7.7a10.35,10.35,0,0,0,3.58,5.2c4.09,3.16,9.34,2.53,13.13-.78q19.69-17.22,40.4-33.22l-2,1.56q20.7-16,42.33-30.71l-10.1-17.27c-22.06,16.46-42.95,34.38-63.47,52.7Q229.37,325,221,332.59c-3.89,3.51-3.83,10.62,0,14.14a10.07,10.07,0,0,0,7.08,2.93l2.65-.36a9.94,9.94,0,0,0,4.42-2.57q7.72-6.32,15.63-12.42l-2,1.56a731.74,731.74,0,0,1,63-43.57q9.29-5.71,18.74-11.17l-12.12-15.7a620.8,620.8,0,0,0-59.69,56.81q-7.8,8.49-15.27,17.25a10.67,10.67,0,0,0-2.93,7.07,10,10,0,0,0,17.07,7.07c18-17.53,37.06-33.86,56.67-49.52q8.22-6.57,16.57-13l-2,1.57c14.45-11.16,29.1-22.08,43.74-33,2.16-1.62,3.85-3.28,4.59-6a10,10,0,0,0-7-12.3l-2.66-.36a10,10,0,0,0-5.05,1.37A234.09,234.09,0,0,0,316.71,269a422.28,422.28,0,0,0-41.89,35.55c-7.25,6.94-14.32,14.06-21.33,21.26a10.37,10.37,0,0,0-2.92,7.07,10,10,0,0,0,10,10,11.37,11.37,0,0,0,7.07-2.93q12.17-10.12,24.69-19.8l-2,1.57q34.26-26.46,71-49.45,10.47-6.54,21.1-12.78l-10.09-17.27c-16.47,9.93-31.86,21.56-46.67,33.8-14.27,11.79-28,24.26-41.73,36.63q-5.82,5.22-11.66,10.41c-3.9,3.45-7.74,7-11.84,10.26l2-1.57a13.29,13.29,0,0,1-2.8,1.69l2.39-1a10.39,10.39,0,0,1-1.54.44l2.66-.36a9.35,9.35,0,0,1-2.18,0l2.66.36a66.59,66.59,0,0,0-7.44-1.19,16.59,16.59,0,0,0-6.35,1c-4.64,1.77-9.09,4.9-11.15,9.59a11.17,11.17,0,0,0-1.19,6.38,10.06,10.06,0,0,0,2.75,5.74c7.93,8.47,18.8,13.53,29.79,16.73a179.87,179.87,0,0,0,35.61,6.24c22.87,1.84,47-1.86,66.42-14.72a77.34,77.34,0,0,0,22.85-22.83,61.72,61.72,0,0,0,9.47-29.72,60.07,60.07,0,0,0-6.2-29.84,50.28,50.28,0,0,0-8.67-12.33A44.11,44.11,0,0,0,370.36,256,37.62,37.62,0,0,0,364.2,255a26.86,26.86,0,0,0-10,.87,35.07,35.07,0,0,0-15.84,10.09,88.25,88.25,0,0,0-10.48,14.26A136.63,136.63,0,0,0,320,295a147.63,147.63,0,0,0-11,33.51c-1.32,6.83-2.72,13.92-1.47,20.85,1.4,7.81,7.66,13.47,15,15.84,6.47,2.1,13.71,1,19.88-1.52a99.51,99.51,0,0,0,16.47-8.59c10.12-6.56,20-14.79,26.86-24.84a36.19,36.19,0,0,0,4.45-9.17,26.32,26.32,0,0,0,.75-12.12c-1.06-7.11-5.88-12.65-11.43-16.82A45.77,45.77,0,0,0,364.3,285a55.5,55.5,0,0,0-16.91-2c-12.05.48-24.14,4.57-33.36,12.48a23,23,0,0,0-6.59,9.63,16.79,16.79,0,0,0,1.19,13.23c3,5.89,9.73,9.29,15.93,10.65A52.55,52.55,0,0,0,360.77,324a47.38,47.38,0,0,0,13.32-10.69,56.13,56.13,0,0,0,9.77-16.39A49.31,49.31,0,0,0,387,280.56c.11-3.21-1.91-7.26-5-8.64a35.63,35.63,0,0,0-4.25-1.72,28.28,28.28,0,0,0-4.74-.8,24.7,24.7,0,0,0-7.07.44,34.37,34.37,0,0,0-11.66,4.65c-7,4.16-13,9.93-19.07,15.32q-17.35,15.49-33.21,32.57-8.94,9.63-17.36,19.71c-2.11,2.52-3.2,5.08-2.75,8.4a10.06,10.06,0,0,0,4.77,7.3,14.92,14.92,0,0,0,11.38,1.88,19.62,19.62,0,0,0,8.43-4.5c3.54-2.88,5.55-6.94,8.26-10.5l-1.56,2a19.69,19.69,0,0,1,3-3.16l-2,1.57a11,11,0,0,1,2-1.23l-2.39,1a6.94,6.94,0,0,1,1.82-.5l-2.66.35a6.62,6.62,0,0,1,1.26,0l-2.65-.36a7.4,7.4,0,0,1,1.29.33l-2.39-1a7.06,7.06,0,0,1,1.48.86L310,343a9.22,9.22,0,0,1,1.19,1.23l-1.56-2a13.17,13.17,0,0,1,1.55,2.8l-1-2.39a54.41,54.41,0,0,1,3.07,12.78l-.36-2.66a70,70,0,0,1,0,18.18l.35-2.66a69,69,0,0,1-4.66,17.12l1-2.39c-.78,1.83-1.63,3.61-2.55,5.36A10.22,10.22,0,0,0,310.58,402a45,45,0,0,0,43.47,2,10,10,0,0,0,4.6-6,10.52,10.52,0,0,0-1-7.71,136.79,136.79,0,0,0-18.49-25,10,10,0,0,0-10.93-2.07,9.63,9.63,0,0,0-4,3.08,9.34,9.34,0,0,0-2.14,6.06l1.16,15.3a10.7,10.7,0,0,0,2.93,7.07,10,10,0,0,0,14.14,0c1.72-1.87,3.13-4.44,2.93-7.07l-1.16-15.3L325,379.51q4,4.25,7.51,8.84l-1.56-2a126.77,126.77,0,0,1,9.41,14.11L344,386.76c-.49.22-1,.44-1.47.65l2.39-1a35.51,35.51,0,0,1-8.48,2.31l2.66-.36a36.65,36.65,0,0,1-9.59,0l2.65.36a36.39,36.39,0,0,1-8.87-2.39l2.39,1a35.57,35.57,0,0,1-5-2.6l3.59,13.69a78.57,78.57,0,0,0,9.19-38.1,77.5,77.5,0,0,0-2.8-19.39,28.39,28.39,0,0,0-5.32-10.87,15.51,15.51,0,0,0-12-5.38c-4.92.1-9.45,2.64-12.78,6.14-2.59,2.72-4.31,5.95-6.53,8.92l1.57-2a19.17,19.17,0,0,1-3.2,3.29l2-1.56a12.32,12.32,0,0,1-2.44,1.46l2.39-1a8.77,8.77,0,0,1-1.57.45l2.65-.35a6.78,6.78,0,0,1-1.56,0l2.66.35a6,6,0,0,1-1.23-.36l2.39,1a9,9,0,0,1-.89-.52l2,15.71a501.23,501.23,0,0,1,48-50c4.73-4.28,9.48-8.64,14.52-12.55l-2,1.56a43.64,43.64,0,0,1,9.39-5.69l-2.39,1a22.62,22.62,0,0,1,5.36-1.51l-2.66.35a17,17,0,0,1,4.22,0l-2.66-.35a15.42,15.42,0,0,1,3.39,1l-2.39-1,.37.17-5-8.63a40.73,40.73,0,0,1-.35,4.27l.35-2.66a42.39,42.39,0,0,1-2.91,10.48l1-2.38a43.77,43.77,0,0,1-5.52,9.38l1.56-2a41.59,41.59,0,0,1-7.14,7.14l2-1.56a41.84,41.84,0,0,1-9,5.23l2.39-1A44.07,44.07,0,0,1,339,310.29l2.66-.36a42.72,42.72,0,0,1-11.24,0l2.66.36a31.17,31.17,0,0,1-7.31-1.81l2.39,1a16.21,16.21,0,0,1-3.3-1.85l2,1.56a10.47,10.47,0,0,1-1.66-1.6l1.56,2a8.64,8.64,0,0,1-1-1.65l1,2.39a7.66,7.66,0,0,1-.46-1.57l.36,2.66a7.8,7.8,0,0,1,0-1.87l-.36,2.66a9.86,9.86,0,0,1,.6-2.14l-1,2.39a12.57,12.57,0,0,1,1.39-2.3l-1.57,2a20,20,0,0,1,3.42-3.33l-2,1.56a43.64,43.64,0,0,1,9.1-5.2l-2.39,1a47.61,47.61,0,0,1,12-3.23l-2.65.35a48.79,48.79,0,0,1,12.43,0l-2.66-.36a46.09,46.09,0,0,1,11.23,3l-2.39-1a35.3,35.3,0,0,1,7.62,4.3l-2-1.56a22.94,22.94,0,0,1,3.74,3.63l-1.57-2a16.51,16.51,0,0,1,2.08,3.44l-1-2.39a14.5,14.5,0,0,1,1,3.77l-.35-2.66a16.94,16.94,0,0,1,0,3.63l.35-2.66a20.71,20.71,0,0,1-1.45,5.11l1-2.39a33.3,33.3,0,0,1-4.23,6.94l1.57-2a84.87,84.87,0,0,1-14.77,14.2l2-1.56a96.61,96.61,0,0,1-20.64,12.36l2.39-1a31.53,31.53,0,0,1-7.72,2.26l2.66-.35a18.93,18.93,0,0,1-4.45.05l2.66.36a16.17,16.17,0,0,1-3.82-1l2.39,1a14.37,14.37,0,0,1-3.07-1.76l2,1.56a12.24,12.24,0,0,1-2-2l1.57,2a10.88,10.88,0,0,1-1.11-1.89l1,2.39a13.78,13.78,0,0,1-.89-3.27l.36,2.66a29.74,29.74,0,0,1,.27-7.36l-.36,2.66a138.32,138.32,0,0,1,9.65-35.27l-1,2.38a124.11,124.11,0,0,1,15.48-27.18l-1.57,2a41.57,41.57,0,0,1,6.81-7l-2,1.56a24.88,24.88,0,0,1,5.22-3.12l-2.39,1a20.42,20.42,0,0,1,4.91-1.34l-2.66.36a20.91,20.91,0,0,1,5,0l-2.66-.36a26.62,26.62,0,0,1,6.5,1.82l-2.39-1a34.49,34.49,0,0,1,7.12,4.21l-2-1.57a40,40,0,0,1,7,7l-1.56-2a44.91,44.91,0,0,1,5.63,9.67l-1-2.39a50.36,50.36,0,0,1,3.4,12.59l-.36-2.66a53.15,53.15,0,0,1,0,13.86l.35-2.66A50.27,50.27,0,0,1,381,323.77l1-2.39a57.77,57.77,0,0,1-7.45,12.72l1.56-2a66.73,66.73,0,0,1-11.79,11.72l2-1.57a77.84,77.84,0,0,1-17.11,9.95l2.39-1a89.5,89.5,0,0,1-22.58,6l2.66-.36a131.52,131.52,0,0,1-34.5-.37l2.66.35c-11.36-1.53-23-3.71-33.64-8.18l2.39,1a53.38,53.38,0,0,1-11.31-6.44l2,1.56a42.42,42.42,0,0,1-5-4.51L256,352.38a9.63,9.63,0,0,1,1.07-1.87l-1.57,2a10.65,10.65,0,0,1,1.77-1.78l-2,1.56a11.21,11.21,0,0,1,2.17-1.27l-2.39,1a10.16,10.16,0,0,1,2.43-.66l-2.66.36a9.87,9.87,0,0,1,2.24,0l-2.66-.36c2.64.39,5.26,1.28,8,1.2a18,18,0,0,0,9.06-2.74c3.67-2.34,6.91-5.53,10.19-8.39,5.71-5,11.36-10,17-15.12,11.34-10.19,22.63-20.44,34.24-30.32,6.5-5.53,13.09-10.94,19.84-16.15l-2,1.56a339.46,339.46,0,0,1,31.8-21.95,10.41,10.41,0,0,0,4.6-6,10,10,0,0,0-14.69-11.3Q348.24,256.35,325.09,272q-24,16.23-46.9,34-12.53,9.67-24.7,19.8l14.15,14.14c13.55-13.93,27.41-27.6,42.22-40.2q6.28-5.36,12.82-10.41l-2,1.56a254.88,254.88,0,0,1,39.59-25.47q6-3.07,12.19-5.73l-10.1-17.27c-16.39,12.21-32.76,24.44-48.9,37-15.58,12.1-30.91,24.52-45.72,37.55q-12.47,11-24.37,22.54l14.14,14.14a619.92,619.92,0,0,1,57.54-59q8.57-7.69,17.43-15.06a10,10,0,0,0,2.93-7.07,10.36,10.36,0,0,0-2.15-6.06,10,10,0,0,0-12.9-2.58A730.8,730.8,0,0,0,243,315.21q-11.17,8.51-22.08,17.38l14.15,14.14c17.86-16.08,35.73-32.18,54.3-47.43q7.94-6.53,16.05-12.8l-2,1.56c2.65-2,5.31-4.07,8-6.06,2.16-1.62,3.85-3.27,4.59-6a10.23,10.23,0,0,0-1-7.71,10.07,10.07,0,0,0-6-4.59,9.94,9.94,0,0,0-7.71,1q-34.74,23.65-67.15,50.53-8.9,7.37-17.59,15l15.71,12.12q2.82-3.78,5.71-7.52l-1.56,2q14.31-18.49,30.14-35.75T299.62,268q9.78-9,20-17.48a9.92,9.92,0,0,0,2.92-7.07,10.29,10.29,0,0,0-2.14-6.06,9.58,9.58,0,0,0-5.2-3.59c-2.45-.56-5.59-.56-7.7,1A726,726,0,0,0,238.41,293q-8.88,8.5-17.48,17.33l15.71,12.11a199.47,199.47,0,0,1,11.62-16.82l-1.57,2a199,199,0,0,1,35.47-35.51l-2,1.56a198.3,198.3,0,0,1,23.5-15.61l-10.1-17.27c-22.39,13.44-43.95,28.77-62.61,47.12q-7.72,7.6-14.68,15.92l17.07,7.07c.09-1,.19-1.88.32-2.82l-.36,2.66a78.49,78.49,0,0,1,5.51-20l-1,2.38a86.83,86.83,0,0,1,11.09-18.84l-1.57,2A89.61,89.61,0,0,1,263,260.55l-2,1.56A86.16,86.16,0,0,1,279.85,251l-2.39,1a78.32,78.32,0,0,1,19.69-5.43l-2.66.36,1.76-.22c2.73-.3,5.05-.91,7.07-2.93a10,10,0,0,0,0-14.14c-1.83-1.68-4.49-3.22-7.07-2.93Z" transform="translate(-97.12 -136.87)"/></g><g id="Layer_4" data-name="Layer 4"><path class="cls-2" d="M277.68,425.86c3.6,3.31,7.77,6.78,13,6.47a9.65,9.65,0,0,0,6.38-2.83,23.64,23.64,0,0,0,3.41-5,10.06,10.06,0,0,1,3.34-4,8.24,8.24,0,0,1,5.14-.89c4.34.5,7.73,3.67,10.56,6.75,3.6,3.92,7,8,10.48,12.06,3.2,3.69,6.45,8.31,11.31,9.88a6.19,6.19,0,0,0,7.1-2.24,32.89,32.89,0,0,0,3.43-6.51,70.54,70.54,0,0,0,2.82-7.46c.36-1.14.67-2.29,1-3.45a6.35,6.35,0,0,1,1-2.57c1-1.09,2.76-.33,3.76.42,1.65,1.23,2.55,3.38,3.55,5.12,2.23,3.89,6.3,8.14,11.29,6.68,3.49-1,2.23-5,.66-7.2s-3.37-4.51-5.05-6.76l-10.12-13.53-2.38-3.19a19.69,19.69,0,0,0-2.48-3.11c-2.25-2-4.5-.87-6.9.08a51.68,51.68,0,0,1-13.64,3.4A52.51,52.51,0,0,1,308,403.63a21.61,21.61,0,0,0-3.33-1.5,5.26,5.26,0,0,0-4.14.7c-2.26,1.34-4.4,2.93-6.55,4.44Q287.31,411.92,281,417c-1.76,1.4-4.45,2.95-5.12,5.25-.89,3.13,2,4.61,4.22,5.93s4.93,3.49,7.63,2c2-1.1,3.57-3.51,5-5.26,1.71-2.07,3.34-4.2,4.92-6.36,1.16-1.59-.41-3.76-2.15-3.77a17.89,17.89,0,0,0-11.36,4.08,12.47,12.47,0,0,0-3.86,4.76,4.53,4.53,0,0,0,2.45,5.56c4.43,2.23,9-.94,12.31-3.65a68.42,68.42,0,0,0,9.42-9.3c1.31-1.56.56-4.35-1.77-4.27a24.17,24.17,0,0,0-19.53,11.16,2.53,2.53,0,0,0,2.83,3.67,26,26,0,0,0,17.76-17,2.52,2.52,0,0,0-3.67-2.82,33.13,33.13,0,0,0-8.63,8.23c-1.71,2.33,2,5,3.92,3a34.53,34.53,0,0,1,10.69-7.31l-3.42-.89a5.09,5.09,0,0,1,1,3.8h4.82a7.65,7.65,0,0,0-1.69-2.92,2.53,2.53,0,0,0-3.54,0l-2.12,2.24,4.18,1.1a3.44,3.44,0,0,1-.21-1.95L302,414.05a128.27,128.27,0,0,1,15.88,3.55c2.65.77,4.56-3.38,1.93-4.57a127.26,127.26,0,0,0-12.06-4.74c-2.25-.76-4.43,2.63-2.43,4.18a73.17,73.17,0,0,0,19.2,10.73c2.49.94,4-2.48,2.43-4.18a78.33,78.33,0,0,0-10.69-9.66c-2.25-1.7-5.28,2.19-3,3.92q12.66,9.8,24.78,20.26l3-3.93a152.72,152.72,0,0,0-15.33-10.07,2.52,2.52,0,0,0-3.42,3.42,83.85,83.85,0,0,0,8.58,12.69,34.71,34.71,0,0,0,5.45,5.11c1.09.83,4.15,2.17,4,3.62a2.47,2.47,0,0,0,2.17,2.45,2.54,2.54,0,0,0,2.74-1.79,141.35,141.35,0,0,1,7.12-15.16q2-3.67,4.2-7.22c.37-.59.75-1.17,1.12-1.77.07-.11.25-.3.26-.43-1.15-.07-1.49.05-1,.34l.35.26,3.59,2.75c2.06,1.58,4.62-1.42,3.42-3.42l-8.43-14a2.55,2.55,0,0,0-3.42-.9c-9.89,5.39-21.64,4.87-32.54,4.41a2.52,2.52,0,0,0-2.16,3.76,102.93,102.93,0,0,0,22.47,26,2.53,2.53,0,0,0,3.92-.51c2.78-5.33,1.54-11.79-2-16.48-3.76-5-9.43-7.86-15-10.48a2.52,2.52,0,0,0-3.42,3.42,48,48,0,0,0,16.14,17.08c2,1.3,4.87-1.35,3.42-3.42a47.86,47.86,0,0,0-9.84-10.4l-3,3.93,12.29,6.56c2.05,1.09,4.95-1.25,3.42-3.42a11.69,11.69,0,0,0-5.55-4.33,2.51,2.51,0,0,0-3.07,3.08,12.35,12.35,0,0,0,4.8,6.07c2.34,1.56,5.17-2,3-3.93l-10.12-8.86-.5,3.92a27.4,27.4,0,0,1,10.8-4c2.77-.41,2.14-5.12-.66-4.91l-8.05.6v5l12.26-1.38-.67-4.91a79.21,79.21,0,0,1-19.22,2.17c-3.23,0-3.19,4.82,0,5A58.3,58.3,0,0,0,354.9,415c2.26-.94,2.46-3.93,0-4.82a5.38,5.38,0,0,0-5.49,1.4,7.88,7.88,0,0,0-2.22,5.45c-.11,1.9.25,3.79-.29,5.66a13.51,13.51,0,0,1-2.55,4.56l4.18,2.43a22.92,22.92,0,0,1,6.82-13.57l-3.92-.5a4.63,4.63,0,0,1,.32,3.35l1.75-1.75a49.41,49.41,0,0,1-14.62,0,2.58,2.58,0,0,0-3.07,1.74,2.52,2.52,0,0,0,1.74,3.08,13.46,13.46,0,0,1,7.29,3.46c2,1.88,5.49-.55,3.92-3a4.21,4.21,0,0,1,.33-5,2.51,2.51,0,0,0-.9-3.42,2.56,2.56,0,0,0-3.42.89,9,9,0,0,0-.32,10.07l3.92-3a18,18,0,0,0-9.49-4.74l-1.33,4.82a57.53,57.53,0,0,0,17.28,0,2.42,2.42,0,0,0,1.74-1.74,10.08,10.08,0,0,0-.82-7.21,2.53,2.53,0,0,0-3.93-.5,27.2,27.2,0,0,0-8.11,15.77,2.64,2.64,0,0,0,1.15,2.83,2.52,2.52,0,0,0,3-.4,17.46,17.46,0,0,0,4.27-9.22c.1-1-.57-7.27,1.41-6.56v-4.82a54.87,54.87,0,0,1-24.34,4.21v5a85.1,85.1,0,0,0,20.55-2.35c2.68-.64,2.18-5.23-.66-4.91l-12.26,1.38a2.59,2.59,0,0,0-2.5,2.5,2.51,2.51,0,0,0,2.5,2.5l8.05-.6-.67-4.91a31.09,31.09,0,0,0-12,4.51,2.53,2.53,0,0,0-.5,3.93l10.11,8.87,3-3.93a6.57,6.57,0,0,1-2.5-3.08l-3.08,3.08a5.72,5.72,0,0,1,2.56,2l3.42-3.42L333,418.43a2.52,2.52,0,0,0-3.22.64,2.49,2.49,0,0,0,.19,3.29,43.62,43.62,0,0,1,9.06,9.39l3.42-3.43A42.65,42.65,0,0,1,328.1,413l-3.42,3.42c4.6,2.19,9.42,4.43,12.84,8.33,2.69,3.08,4.3,8,2.3,11.8l3.93-.51a98.89,98.89,0,0,1-21.68-25l-2.16,3.77c11.86.5,24.34.76,35.07-5.09l-3.42-.9,8.42,14,3.42-3.42c-2.47-1.89-6-5.66-9-2.57a22.11,22.11,0,0,0-2.65,4c-.89,1.45-1.75,2.91-2.59,4.4a150.09,150.09,0,0,0-8.75,18.38l4.91.67c.21-2.85-2-4.83-4.12-6.29a33.27,33.27,0,0,1-5.76-4.77c-3.58-3.82-6.24-8.39-8.88-12.88l-3.42,3.42a152.26,152.26,0,0,1,15.34,10.07c2.26,1.69,5.17-2.08,3-3.93q-12.12-10.46-24.79-20.25l-3,3.92a70.31,70.31,0,0,1,9.68,8.89l2.44-4.18a65.35,65.35,0,0,1-17-9.45l-2.44,4.18a116.27,116.27,0,0,1,10.86,4.24l1.93-4.57a128.68,128.68,0,0,0-15.88-3.55,2.54,2.54,0,0,0-3.07,1.75,8.4,8.4,0,0,0,.21,4.61,2.53,2.53,0,0,0,4.18,1.1l2.12-2.24h-3.54a1.67,1.67,0,0,1,.41.72c.68,2.16,4.36,2.58,4.82,0a10.2,10.2,0,0,0-1.49-7.66,2.59,2.59,0,0,0-3.42-.89,37.86,37.86,0,0,0-11.7,8.09l3.92,3a26.73,26.73,0,0,1,6.84-6.45l-3.67-2.82A20.81,20.81,0,0,1,284.65,422l2.82,3.67A18.93,18.93,0,0,1,302.68,417l-1.76-4.27a69.65,69.65,0,0,1-6.9,7.16c-2.06,1.84-4.74,4.62-7.61,5-.49.07-1.05-.22-1.46-.16a.47.47,0,0,1-.1-.1c-.14.45-.09.66.14.63s.19-.1.2-.28a20.18,20.18,0,0,1,2.58-2.65,12.85,12.85,0,0,1,7.72-2.54L293.33,416c-1.33,1.83-2.71,3.61-4.14,5.36-.69.83-1.39,1.66-2.1,2.48L286,425.09a3.74,3.74,0,0,0-.51.55.62.62,0,0,1-.14.14c-.16.11,0,.09.48-.07,0,.09-5.06-3.26-5.44-3.18s-.13,1.26.28,1.15c.11,0,.18-.21.29-.27a7.53,7.53,0,0,0,1.17-1c1-.8,2-1.59,2.93-2.37q5.39-4.26,11-8.21,2.9-2,5.83-4a12.94,12.94,0,0,1,1.26-.82c.4-.19,0-.12.35,0a22.88,22.88,0,0,1,2.88,1.36,57.76,57.76,0,0,0,24.9,4.85,58.42,58.42,0,0,0,12.55-1.77,52.82,52.82,0,0,0,6-1.92c.94-.37,1.88-.76,2.8-1.16.29-.13-.09-.11-.13-.14a5.59,5.59,0,0,1,.86,1.08l10,13.33,4.91,6.57,2.38,3.18c.43.57.87,1.13,1.26,1.71.12.18.25.36.35.54.18.33.18.6.21.42l1.75-1.75c-3.88,1.34-6.12-4.69-7.64-7.12-2.25-3.55-6.35-6.79-10.82-5.36-4.8,1.53-5.13,7.6-6.51,11.64a58.41,58.41,0,0,1-2.71,6.61c-.51,1.07-1.05,2.14-1.64,3.18-.3.51-.63,1.28-1.29,1.38a4.5,4.5,0,0,1-2.62-1,13.8,13.8,0,0,1-2.35-2c-1.76-1.75-3.33-3.7-5-5.58-3.4-3.93-6.74-7.92-10.22-11.78-3-3.34-6.48-6.48-10.81-7.94-3.84-1.29-8.56-1.16-12,1.22a15.52,15.52,0,0,0-4.37,5.12c-.94,1.63-1.78,3.55-3.28,4.75-3.95,3.15-9.06-1.56-11.82-4.1-2.36-2.17-5.91,1.35-3.53,3.54Z" transform="translate(-97.12 -136.87)"/><path class="cls-2" d="M265.52,467.31a1,1,0,0,1,0,.25l-4.27-1.77a14.79,14.79,0,0,1-1.83,5.59,2.53,2.53,0,0,0,1.49,3.67,404.8,404.8,0,0,0,75,17.62q11,1.49,22,2.41v-5c-17.69.18-34.83-4.71-51.69-9.54a2.53,2.53,0,0,0-2.82,3.68c3.87,7.32,13.09,5.5,19.82,6.89,3.76.78,7.4,2.05,11.11,3a41,41,0,0,0,12,1.3c4-.18,8-.73,12.07-.93a120.48,120.48,0,0,0,12.15-.93c6.75-1,13.42-4,17.33-9.86a16.39,16.39,0,0,0,2.45-11.05c-.47-4.16-1.86-8.26-1.31-12.48l-4.66,1.26a13.87,13.87,0,0,1,1.56,8.34,2.53,2.53,0,0,0,2.5,2.5,2.55,2.55,0,0,0,2.5-2.5,11.79,11.79,0,0,0-1.14-6.4c-.92-1.92-2.57-4.12-4.88-4.27-4.44-.29-6.18,4.72-7.58,8a6.27,6.27,0,0,1-2.39,3.21,6.38,6.38,0,0,1-4.25.61c-3.94-.66-6.88-3.85-9.66-6.46-3-2.81-6.4-5.68-10.54-6.5a15.61,15.61,0,0,0-11.54,2.49,39.25,39.25,0,0,0-8.76,8.26,47.07,47.07,0,0,1-7.63,8c-2.95,2.22-6.58,3.55-10.21,2.26a9.74,9.74,0,0,1-6.34-7.61l-4.66,1.26A36.81,36.81,0,0,0,312,484.83a2.52,2.52,0,0,0,3.42-.9,2.56,2.56,0,0,0-.9-3.42c-3.75-2.79-6.63-6.6-9.41-10.32l-10-13.35-2.83,3.67a6.75,6.75,0,0,1,3.89,3.63l4.18-2.43a24.84,24.84,0,0,0-7.46-6.18,7.44,7.44,0,0,0-5.17-1.07,19.73,19.73,0,0,0-4.74,2.23L263,467.45c-1.84,1-1.51,4.13.59,4.57Q284,476.3,304,482.07A2.51,2.51,0,0,0,307.1,479a44.24,44.24,0,0,0-12.34-19.74c-2-1.8-4.55,0-4.18,2.43a44.46,44.46,0,0,0,8.24,19.67c1.88,2.54,5.82.4,4.31-2.52A83.7,83.7,0,0,0,290.73,461c-1.77-1.95-4.69.13-4.18,2.43a84.16,84.16,0,0,0,7.85,21.15c1.36,2.54,5.25.77,4.57-1.93a128.92,128.92,0,0,0-8.89-24.46c-1-2.09-3.92-1.26-4.57.59-1.53,4.38-3.1,9-2.74,13.71.31,4,1.81,8,5,10.58A2.54,2.54,0,0,0,292,481.3,17.31,17.31,0,0,0,287.69,468a2.57,2.57,0,0,0-3.54,0,14,14,0,0,1-5.78,2.63,11.54,11.54,0,0,1-3.26.26l-.43,0c-.5,0-.15-.18-.17,0,0,0,.11.43.12.43s-.57.64.05-.23a8.31,8.31,0,0,1,4.64-2.91,19.3,19.3,0,0,1,7.2-.84,2.47,2.47,0,0,0,2.46-2.16,2.56,2.56,0,0,0-1.79-2.75c-5.3-2.05-10.44,2.63-12.64,7.06-.69,1.4-1.17,3-.35,4.5a4.48,4.48,0,0,0,3.41,2.07c3,.44,6.1.71,9.14,1.07l-1.26-4.66c.23-.12.28.13.12-.07s-.41-.29-.51-.59c-.26-.79.33-2,.69-2.77,1.33-2.74,2.61-5.15,2.09-8.3-.38-2.32-3.47-2.18-4.57-.6l-4.39,6.37c-1.47,2.13-3.3,4.33-1.82,7,2,3.71,6.78,5.55,10.69,6.42,4.71,1,9.59,1.44,14.37,2.08l16,2.14,18,2.42v-5l-14.52.17a2.5,2.5,0,0,0,0,5c10.92,1,21.91,2.05,32.88,1.22a79.93,79.93,0,0,0,16.19-2.76,29.72,29.72,0,0,0,11.83-6c3.76-3.4,6.73-9.49,3.61-14.24a2.52,2.52,0,0,0-4.31,0c-2.23,3.86-4.7,7.61-8.38,10.24a34.49,34.49,0,0,1-11.25,5.09c-9.5,2.51-19.45,1.89-29.15,2.88-2,.2-3.52,2.68-1.77,4.27A25.49,25.49,0,0,0,348,493.5c7,.17,13.78-1.92,20.37-4a2.5,2.5,0,0,0,1.79-2.74,2.47,2.47,0,0,0-2.46-2.17,117.05,117.05,0,0,1-26.26.05v5c9.88-.51,19.73,2.06,29.59.75,7.77-1,15.57-4.43,19.71-11.42,1.34-2.27-1.27-4.48-3.42-3.42l-23.89,11.67,2.53,4.32,8.47-4.73c2-1.11,1.34-3.87-.59-4.57a17.36,17.36,0,0,1-6.79-4.5l-.51,3.93,2.89-1.31a2.54,2.54,0,0,0,.9-3.42c-2.34-4.55-7-7.28-11.32-9.71-4.91-2.77-10.51-4.75-15.91-2.09-4.21,2.08-6.7,6.38-10.64,8.82a16.25,16.25,0,0,1-3.16,1.55,18.63,18.63,0,0,1-1.8.54,11.05,11.05,0,0,0-1.75.34h-.2a1.22,1.22,0,0,1,.84,1.52c.12,0-.87.5.09-.18.18-.12.38-.43.6-.59a20.85,20.85,0,0,1,3.82-1.88l18.8-8.84c2.3-1.08,1.11-4.7-1.26-4.66a20,20,0,0,0-16.63,9.53c-1.23,2,1.35,4.95,3.42,3.42,5.52-4,12.7-9.44,20-8,6.55,1.31,10.87,7.26,15.89,11.16l1.77-4.27a88.72,88.72,0,0,0-46.57,6.55,2.5,2.5,0,0,0,1.27,4.66,181.1,181.1,0,0,0,27.74-1.23,2.51,2.51,0,0,0,.67-4.91,62,62,0,0,0-13.61-3.21v5l15.91.76c2.76.13,3.48-4.48.66-4.91l-4.33-.67-.67,4.91a62.85,62.85,0,0,1,12.55,1v-4.82a6.54,6.54,0,0,1-6.16-.45,7.52,7.52,0,0,1-2.27-2.58A12.54,12.54,0,0,0,355,470.2c-5.26-3.91-12-1.54-17,1.54a2.52,2.52,0,0,0,1.26,4.66l22.28-.06a2.5,2.5,0,0,0,0-5,53.69,53.69,0,0,0-25.93,3.18,2.57,2.57,0,0,0-1.74,3.07,2.51,2.51,0,0,0,3.07,1.75,50.47,50.47,0,0,1,24.6-3v-5l-22.28.06,1.26,4.66c2.32-1.43,4.89-2.89,7.69-2.92a6.64,6.64,0,0,1,3.13.67,6.56,6.56,0,0,1,2.5,2.69,11.93,11.93,0,0,0,6.11,5.22,11,11,0,0,0,7.85-.08,2.61,2.61,0,0,0,1.83-2.41,2.51,2.51,0,0,0-1.83-2.41,70.23,70.23,0,0,0-13.88-1.2,2.49,2.49,0,0,0-2.45,2.17,2.45,2.45,0,0,0,1.79,2.74l4.33.67.67-4.91-15.91-.76a2.5,2.5,0,0,0,0,5,56,56,0,0,1,12.28,3l.66-4.91a181.1,181.1,0,0,1-27.74,1.23l1.26,4.66a83.94,83.94,0,0,1,44-5.87c2.07.28,3.41-3,1.77-4.27-5.83-4.52-10.81-11.2-18.51-12.52-8.79-1.52-16.68,3.58-23.44,8.55l3.42,3.42a14.84,14.84,0,0,1,12.31-7.06l-1.26-4.66-17.68,8.32c-2.55,1.2-5.49,2.13-7.16,4.53-1.82,2.62-.5,6.14,2.83,6.41,2.71.21,5.79-1,8.17-2.18a25.13,25.13,0,0,0,6.37-4.76,27.43,27.43,0,0,1,5.29-4.63,8.31,8.31,0,0,1,7-.37,37.48,37.48,0,0,1,8.23,4.35,15.21,15.21,0,0,1,5.8,5.68l.9-3.42L364,477.37c-1.52.69-1.52,2.87-.51,3.93a23.06,23.06,0,0,0,9,5.79l-.6-4.57-8.48,4.72c-2.84,1.59-.34,5.72,2.53,4.32l23.88-11.68-3.42-3.42c-3.47,5.88-10.48,8.49-17,9.14-9.34.92-18.65-1.42-28-.94-3.27.17-3.15,4.65,0,5a117.05,117.05,0,0,0,26.26-.05L367,484.7c-10,3.13-23.28,7.17-32.18-.88l-1.76,4.27c15.27-1.57,32.38.27,45-10.27,3.42-2.85,5.89-6.6,8.09-10.42h-4.31c2,3.07-1.19,6.93-3.53,8.77-3,2.37-6.77,3.62-10.41,4.58-9.57,2.49-19.51,2.75-29.34,2.28-5.65-.27-11.29-.8-16.92-1.33v5l14.52-.17a2.5,2.5,0,1,0,0-5l-28.85-3.87c-4.65-.62-9.3-1.23-13.94-1.87-3.47-.47-7.23-1-10.17-3a7.08,7.08,0,0,1-.9-.74c-.24-.22-.57-.77-.83-.9.08.05-.08.48,0,.47s.33-.53.38-.6c.36-.54.74-1.06,1.1-1.59l4.67-6.76-4.57-.6c.26,1.58-1.06,3.31-1.69,4.65a10,10,0,0,0-1.19,5.78c.55,3.59,4.5,6.08,7.83,4.29a2.54,2.54,0,0,0,1.15-2.83,2.61,2.61,0,0,0-2.41-1.83l-6.13-.71c-.75-.09-1.67-.27-2.34-.29-.74-.28-.58.11.47,1.17l0-.11c.27-.22.47-.89.65-1.19,1.31-2.17,3.67-4.81,6.43-3.74l.66-4.92a23.45,23.45,0,0,0-10.78,1.88c-2.94,1.26-6.26,3.64-6.1,7.25.2,4.23,4.92,4.69,8.16,4.29a19.62,19.62,0,0,0,9.89-4.22h-3.54a12.45,12.45,0,0,1,2.88,9.8l4.26-1.77c-6-4.85-3.06-13.39-1-19.43l-4.57.6A122.43,122.43,0,0,1,294.15,484l4.57-1.93a78.81,78.81,0,0,1-7.35-20l-4.18,2.43a78.61,78.61,0,0,1,11.63,16.84l4.31-2.52a41.49,41.49,0,0,1-7.73-18.48l-4.18,2.43a39.22,39.22,0,0,1,11.06,17.54l3.08-3.08q-20-5.78-40.47-10.05l.6,4.57,17.9-9.59c1.46-.78,2.91-1.57,4.37-2.34a2.24,2.24,0,0,1,2.68,0,21.17,21.17,0,0,1,6.44,5.39c1.54,1.88,5.12-.15,4.18-2.43a12.23,12.23,0,0,0-7.38-7.12c-1.95-.7-4.12,1.94-2.82,3.67q5.24,7,10.48,14c3.17,4.22,6.44,8.26,10.7,11.43l2.52-4.32a31,31,0,0,1-9-10.43c-1.12-2.07-4.94-1.25-4.66,1.27.87,7.71,8,14,15.89,13s13-7.77,17.94-13.48c2.44-2.85,5.19-5.66,8.63-7.28a9.82,9.82,0,0,1,9.9.95c3.52,2.29,6.2,5.67,9.57,8.16a14.79,14.79,0,0,0,11.32,3,9.3,9.3,0,0,0,5.54-3.13,20.78,20.78,0,0,0,2.87-5.53,10.46,10.46,0,0,1,1.19-2.27,6.1,6.1,0,0,1,.61-.64c.73-.7-.17.08-.15-.13,0,.17.69.93.78,1.08a6.45,6.45,0,0,1,.56,1.26,7.85,7.85,0,0,1,.27,3.34h5a18.52,18.52,0,0,0-2.24-10.86,2.53,2.53,0,0,0-2.82-1.15,2.62,2.62,0,0,0-1.84,2.41c-.46,3.56.38,7.08,1,10.56.5,2.8.79,5.74-.34,8.44-2.22,5.31-8.08,8.1-13.39,9.2a70,70,0,0,1-11,1c-3.69.16-7.35.51-11,.81a38.93,38.93,0,0,1-11.15-.37c-3.4-.69-6.69-1.79-10-2.7a57.09,57.09,0,0,0-11.84-1.75c-3.11-.18-6.89-.64-8.5-3.7l-2.82,3.67c17.27,5,34.88,9.91,53,9.72,3.26,0,3.17-4.74,0-5a401.31,401.31,0,0,1-75.16-13.52q-10.31-2.9-20.47-6.33l1.5,3.67a20.69,20.69,0,0,0,2.51-8.11c.24-2.25-2.84-3.17-4.27-1.77a4.8,4.8,0,0,0,0,6.83c2.29,2.26,5.83-1.27,3.54-3.54Z" transform="translate(-97.12 -136.87)"/></g><g id="Layer_3" data-name="Layer 3"><path class="cls-3" d="M299.49,399.13c12.87,12.84,33.91,17,50.46,9.12,4.9-2.33,9-6,11.07-11.06a2.52,2.52,0,0,0-1.75-3.07,2.54,2.54,0,0,0-3.07,1.74c-1.44,3.58-4.76,6.05-8.08,7.74a34.87,34.87,0,0,1-11.07,3.3,41.4,41.4,0,0,1-23-3.61,39.34,39.34,0,0,1-11-7.7c-2.28-2.28-5.82,1.26-3.54,3.54Z" transform="translate(-97.12 -136.87)"/><path class="cls-3" d="M358.42,410.41a20.81,20.81,0,0,0,6.82,6.83c2.06,1.27,4.85-1.33,3.42-3.42a143.39,143.39,0,0,1-11.14-19.49c-1.54-3.27-2.93-6.6-4.22-10a35,35,0,0,0-5.08-9.78,2.43,2.43,0,0,0-2.43-.65A118.13,118.13,0,0,1,305,378.59c-3.22-.19-3.2,4.81,0,5a122.36,122.36,0,0,0,42.11-4.85l-2.43-.64c2,2.56,3.09,5.77,4.25,8.77q2,5.28,4.46,10.4a141.87,141.87,0,0,0,10.94,19.07l3.42-3.42a15.5,15.5,0,0,1-5-5c-1.69-2.73-6-.23-4.31,2.52Z" transform="translate(-97.12 -136.87)"/><path class="cls-3" d="M261.08,461a6.05,6.05,0,0,0,5.69,5.62c3.06.35,5.64-1.5,7.82-3.43,4.29-3.8,9.07-7.7,15.13-7.62,5.55.08,8.75,4.18,11.18,8.67,2.6,4.81,4.69,9.95,9.08,13.47a13.62,13.62,0,0,0,7.48,3.23,11.82,11.82,0,0,0,7.91-2.46c4.87-3.63,7.66-9.26,11.64-13.73,3.33-3.74,8.46-7.48,13.75-5.82,4.91,1.55,7.44,7,11.09,10.27,4.58,4,12.32,6.68,16.87,1.07,2-2.5,2.49-5.6,3.77-8.46a6.73,6.73,0,0,1,2.05-2.64,3.33,3.33,0,0,1,1.33-.63,1.1,1.1,0,0,1,.91.23c2.76,1.67,5.27-2.65,2.52-4.32a6.76,6.76,0,0,0-7.56.61,13.3,13.3,0,0,0-4.58,6.81c-.69,2-1.21,4.59-3,5.94s-4.08.7-5.83-.19c-4.72-2.39-7.12-7.42-11.14-10.67a14.38,14.38,0,0,0-7.82-3.35,16.34,16.34,0,0,0-8.4,1.74c-5.34,2.54-8.9,7.42-12.3,12.05-2.61,3.57-6.32,9.49-11.55,8.49-4.86-.93-7.8-6.15-9.84-10.17-2.37-4.69-4.75-9.66-9.26-12.69-5.88-3.94-13.56-2.66-19.35.75a54.69,54.69,0,0,0-7.91,6.16c-.92.8-2.2,1.8-3.34,1.75a1.86,1.86,0,0,1-1.12-.39c-.16-.12-.2-.19-.2-.29-.16-3.2-5.16-3.22-5,0Z" transform="translate(-97.12 -136.87)"/><path class="cls-3" d="M274.13,424.28c.16,4.69,3.59,8.43,7.95,9.83,4.68,1.5,9.86-.28,13.67-3.09,3.54-2.62,6.14-6.64,10.11-8.64s8.59-.37,11.86,2.05c3.83,2.83,6.46,7,9.08,10.88l4.64,6.86a33,33,0,0,0,4.32,5.76,7.53,7.53,0,0,0,6.49,2.23,9.38,9.38,0,0,0,5.52-3.81c2.66-3.4,4.07-7.44,5.75-11.36,1.47-3.41,3.87-8.78,8.15-9.26,2.37-.26,3.47,2.32,4.54,4l5.29,8.32c1.72,2.71,6.05.2,4.32-2.52l-4.5-7.08c-1.3-2.05-2.51-4.43-4.41-6-4.07-3.33-9.55-1.31-12.83,2.11-3,3.1-4.57,7.11-6.18,11a47.79,47.79,0,0,1-2.49,5.33c-.84,1.49-2,3.56-3.69,4.24-1.51.6-2.85-1.08-3.65-2.12-1.51-2-2.83-4.15-4.22-6.22-2.86-4.22-5.57-8.64-9-12.47-3.11-3.52-7.12-6.48-11.79-7.45a15.16,15.16,0,0,0-13.29,3.6c-3.76,3.17-6.66,7.44-11.65,8.79a7.77,7.77,0,0,1-6.1-.62,5.46,5.46,0,0,1-2.94-4.39c-.1-3.21-5.1-3.22-5,0Z" transform="translate(-97.12 -136.87)"/><path class="cls-3" d="M372.37,438.55a5.12,5.12,0,0,0,5,1.33,6.87,6.87,0,0,0,4-3.11,24.09,24.09,0,0,0,2-4.29c.6-1.45,1.12-2.93,1.58-4.43a2.54,2.54,0,0,0-1.75-3.08,2.57,2.57,0,0,0-3.08,1.75c-.38,1.27-.81,2.52-1.3,3.76a8.68,8.68,0,0,1-.34.84c.3-.59,0,0,0,.07l-.18.41c-.25.56-.5,1.11-.78,1.65-.14.25-.28.5-.43.73l-.22.32c-.17.26.36-.41.06-.08l-.31.33c-.09.08-.43.28-.09.1s-.45.25-.45.24.65-.23.17-.09l-.32.08c-.46.12.59,0,.14,0,0,0-.37,0-.38,0s.65.19.23,0,.08.12.18.11a1.5,1.5,0,0,1-.32-.19l.31.23-.17-.18a2.53,2.53,0,0,0-3.54,0,2.55,2.55,0,0,0,0,3.53Z" transform="translate(-97.12 -136.87)"/><path class="cls-3" d="M284,437.17c-6.3-1.57-10.79,3.09-14.38,7.54-3.36,4.18-6.63,8.79-7.41,14.23-.35,2.5.41,4.85,2.9,5.9a5.05,5.05,0,0,0,6.24-2c.29-.43.6-.85.9-1.27s.31-.42-.07.08c.16-.21.32-.41.49-.61.66-.8,1.36-1.57,2.09-2.31s1.31-1.27,2-1.86c.4-.34.8-.67,1.21-1-1,.79.36-.25.55-.38a35.52,35.52,0,0,1,5.06-2.95c.22-.1,1.74-.89.59-.28a10.68,10.68,0,0,1,1.46-.55,30.5,30.5,0,0,1,3-.9c.51-.13,1-.24,1.54-.34l.89-.16c-.59.08-.59.08,0,0a26.71,26.71,0,0,1,3.58-.09l.88.08c-.59-.09-.59-.09,0,0s.87.17,1.31.28a5.54,5.54,0,0,1,1.7.54c-.64-.28-.71-.31-.21-.08l.65.32q.63.35,1.23.75l.59.41c-.53-.41-.59-.45-.17-.1.26.26.54.49.79.74s1.36,1.3.38.35a5.6,5.6,0,0,1,.79,1.19c.12.2.23.41.34.62.23.5.21.42-.07-.23a4,4,0,0,1,.43,1.34c.05.23.1.46.14.7-.08-.75-.1-.84-.05-.27l8.54-3.54a36.06,36.06,0,0,0-28.75-9.54c-2.59.34-5.13,2.06-5,5,.11,2.56,2.2,5.19,5,5a34.16,34.16,0,0,1,3.92,0c.58,0,1.16.08,1.74.13,1,.08.16,0,0,0q.64.09,1.29.21a35.85,35.85,0,0,1,3.81.93c.55.17,1.1.36,1.65.56l.81.31c1.1.42-.55-.28.41.19a37.68,37.68,0,0,1,3.43,1.84c.46.28.9.59,1.35.89.76.53.09.08-.05,0,.31.27.62.52.92.8a15.21,15.21,0,0,1,1.1,1.17c-.69-.79-.11-.13,0,.12a8.1,8.1,0,0,1,.42.7c.12.23.5,1.1.11.14.11.25.2.52.29.79.23.66.41,1.34.58,2,1.28,5.08,2.8,10.92,8.11,13.24,6.09,2.67,12.34-.45,16.29-5.31a65.9,65.9,0,0,0,4.43-6.42c.6-.94,1.21-1.89,1.86-2.8.18-.27.38-.53.57-.8.41-.59-.53.63-.07.08s.83-1,1.28-1.47.82-.83,1.25-1.22l.6-.5c-.78.66-.27.21-.07.08.49-.32,1-.63,1.49-.91l.69-.35a5.05,5.05,0,0,1,.53-.24c-.55.22-.65.27-.3.14,1.06-.31,2.09-.63,3.18-.86.93-.2,0,0-.17,0a5.23,5.23,0,0,1,1-.09c.66-.05,1.31-.06,2-.05s1.18.07,1.77.12c.37,0,.75-.12-.16,0a3.85,3.85,0,0,1,.78.14,22.58,22.58,0,0,1,3.42,1s1.25.5.54.19.5.24.51.25c.49.23,1,.48,1.44.74a31,31,0,0,1,3.09,2s1.06.82.47.35.18.15.3.25c.47.39.93.79,1.39,1.2.91.83,1.78,1.7,2.61,2.6,1.72,1.86,3.2,4.07,5.53,5.25A8.21,8.21,0,0,0,380,468.07c2-3,1.59-6.23,1.57-9.59,0,0,0-1.58,0-.69,0,.68,0-.18.1-.35s.24-1.12.06-.29.13-.14.25-.37.53-.72.06-.13.22-.2.34-.32.32-.28.47-.43-.94.56,0,0l.55-.32c.94-.56-.43.08,0,0,.2,0,.4-.14.6-.19s1.28-.19.42-.13-.08,0,.11,0,1.1.25.43,0-.13,0,.11,0,.7.2,1.05.34c3,1.17,6.4-1.82,6.33-4.82a91.54,91.54,0,0,0-2.16-17.53c-.86-3.89-5.7-4.56-8.35-2.21A28.86,28.86,0,0,0,373.33,445l7.34-3c-.56-.33-1.12-.67-1.67-1-.32-.22-1.4-1.05-.58-.38a29.31,29.31,0,0,1-2.9-2.67c-.36-.38-.71-.78-1-1.18,0,0-.79-1-.34-.42s-.1-.16-.19-.29a23.71,23.71,0,0,1-1.94-3.2c-.12-.22-1-2.09-.49-1-.34-.76-.63-1.54-1-2.3a11.13,11.13,0,0,0-2.74-3.83c-2.84-2.41-6.83-3.27-10.14-1.19a11.81,11.81,0,0,0-3.42,3.85l-2.64,4.11-4.75,7.4c-.77,1.2-1.64,2.38-2.33,3.64a6.4,6.4,0,0,0,.45,7.21,13,13,0,0,0,4,2.92l4,2.29q8.79,5,17.83,9.51a5.06,5.06,0,0,0,7.52-4.31,44.45,44.45,0,0,0-2.57-17.22c-2-5.51-5.08-10.42-10.83-12.52-2.1-.77-4.54.53-5.65,2.3-4.85,7.78-1.82,19.26,6.39,23.48a5.05,5.05,0,0,0,5.55-.39c1.46-1.13,2.5-3.41,1.79-5.26a16.43,16.43,0,0,0-10.16-9.8A15.84,15.84,0,0,0,349.5,443a5,5,0,1,0,5.05,8.63c.23-.14.94-.37,1.08-.58-.68.28-.85.35-.49.22.14-.06.29-.1.43-.15.39-.12.79-.2,1.18-.29.94-.21-1.15,0-.12,0a19.19,19.19,0,0,0,2.14.06c-.83-.11-1-.13-.42,0l.45.1c.35.08.69.18,1,.29s.39.13.58.21l-.62-.27c.13.21.86.43,1.09.56s.52.33.78.49q.64.45-.27-.24l.46.39c.23.21.45.42.66.64s.27.3.4.46c-.46-.62-.54-.72-.23-.29.16.26.33.51.48.77s.2.36.28.54c-.29-.72-.34-.84-.14-.34l7.34-5.65c-.38-.19-.73-.42-1.1-.63-.91-.52.78.74,0,0-.27-.25-.54-.49-.8-.75l-.32-.35c-.34-.41-.27-.32.19.27,0-.06-1.07-1.76-1.14-1.89-.47-.84.32,1,0,0-.11-.35-.24-.7-.34-1.06s-.17-.72-.25-1.08c-.25-1.07.05,1.16,0,.07,0-.43,0-.85,0-1.27,0-.22.15-.79.05-1-.12.81-.13.94,0,.4l.06-.31c.09-.41.22-.81.33-1.21.27-1-.53,1,0,0,.2-.37.39-.74.62-1.1l-5.65,2.29c.52.2.46.17-.18-.08a6.44,6.44,0,0,1,.63.36c.21.13.4.26.6.4-.53-.41-.59-.44-.18-.08s.86.67,1,1.07c-.4-.53-.43-.58-.11-.13l.42.63c.47.75.85,1.53,1.25,2.32.23.52.21.46-.06-.16.11.26.21.52.31.78.22.58.42,1.16.61,1.74a40.22,40.22,0,0,1,1.58,6.74c-.16-1.12.07.77.09,1,.05.61.09,1.23.11,1.84.05,1.23,0,2.47,0,3.7l7.52-4.32q-6.34-3.18-12.57-6.59-3.06-1.67-6.09-3.41l-2.91-1.68-1.66-1-.67-.4c1,1.36,1.39,1.67,1,.91l.68,2.53c-.59,1.45-.66,1.79-.23,1l.53-.82.79-1.23,1.85-2.88L360,438l1.85-2.88.92-1.43a4.86,4.86,0,0,1,.8-1.22c-.43.52-.46.59-.09.19L363,433a2.44,2.44,0,0,1-1.26.35c-.77-.15-.89-.17-.34,0-1-.44,0-.23.05.09-.54-.44-.62-.48-.23-.11-.32-.45-.38-.53-.17-.23s.47.79.68,1.21c.07.15.65,1.38.14.27.51,1.11.93,2.26,1.49,3.35a32.71,32.71,0,0,0,12.27,12.76,5,5,0,0,0,7.34-3c.14-.52.29-1,.46-1.53s.66-1.64.22-.67a26,26,0,0,1,1.58-3c.28-.46.57-.9.88-1.33.07-.1.61-.77.21-.29s.17-.19.24-.27a26,26,0,0,1,2.39-2.42l-8.36-2.2c.28,1.25.53,2.51.76,3.77.11.63.21,1.26.31,1.9,0,.31.09.63.14.95-.11-.74,0,0,0,.34.32,2.62.49,5.26.56,7.91l6.33-4.82c-4.77-1.84-10.7.06-14,3.85a12.82,12.82,0,0,0-3.18,8.17c-.05,1.44.15,2.88.14,4.33s-.05-.21,0-.21a3,3,0,0,1-.17.64s.57-1,0-.14c-.37.63-.19.27.12-.12-.54.67.42-.19.61-.33l.32-.13c-.52.13-.4.11.37,0a6.78,6.78,0,0,1,1.23.35c-.13.06-.48-.38-.59-.34.21-.09.7.65.18.11-.17-.17-.35-.33-.52-.51-.47-.5-.9-1-1.34-1.56a43.45,43.45,0,0,0-5.23-5.19c-4.17-3.43-9-6.3-14.38-7.31A25.5,25.5,0,0,0,336,449.63c-4.8,2.44-8,6.87-10.83,11.3-.61.95-1.21,1.9-1.83,2.84-.32.5-.66,1-1,1.47-.16.23-.73.94,0,.09-.21.26-.42.52-.64.76a17.46,17.46,0,0,1-1.28,1.3l-.62.53c.74-.65.26-.19,0-.06s-.54.35-.83.51-.87.51-.26.18-.36.11-.46.14l-.36.09c-.56.11-.48.11.25,0-.1.13-.67-.11-.73,0s1.32.08.24,0c-.9-.05,0-.13.14.14a5.45,5.45,0,0,0-.61-.33c-.95-.44.47.52.06.06-.1-.11-.63-.48-.61-.62s.68,1,.14.18c-.19-.3-.38-.6-.55-.91s-.22-.43-.33-.64c-.33-.66.19,0,.09.2a7,7,0,0,0-.45-1.36c-.4-1.36-.67-2.75-1-4.12a18.76,18.76,0,0,0-4.73-8.67,27.2,27.2,0,0,0-7.57-5.15,38.44,38.44,0,0,0-19-3.82v10a30.9,30.9,0,0,1,6.52-.17l.79.08c.13,0,1,.15.32,0s.19,0,.31.07l.78.14a32.6,32.6,0,0,1,3.27.83c.5.16,1,.33,1.5.52l.74.28c.58.23.24,0-.1,0a5,5,0,0,1,1.44.68c.47.23.93.48,1.39.75a29,29,0,0,1,2.83,1.82c.09.07.77.6.29.21s.18.16.26.23c.46.38.9.78,1.34,1.18a5,5,0,0,0,5.46,1,4.92,4.92,0,0,0,3.07-4.57,17,17,0,0,0-5.41-11.27,21.06,21.06,0,0,0-12.21-5.28c-8.13-.92-17,2.47-23.38,7.33a41.85,41.85,0,0,0-9.65,10.13l9.14,3.85a16.87,16.87,0,0,1,.74-3.14c.06-.18.59-1.38.09-.3.23-.49.45-1,.71-1.46.45-.84.95-1.65,1.48-2.44.31-.46.62-.91.95-1.35.16-.23.33-.45.49-.67-.31.41-.36.48-.14.19a48.53,48.53,0,0,1,3.79-4.44c.17-.17,1.34-1.41.47-.49a5.63,5.63,0,0,1,1-.62c.5-.25.43-.23-.2.05a5.27,5.27,0,0,1,.68-.19c-.75.08-.85.1-.28.08-.74-.13-.82-.13-.26,0a5,5,0,0,0,2.66-9.65Z" transform="translate(-97.12 -136.87)"/><path class="cls-3" d="M332.48,449.15l3.52-1,.61.28c-.76-.4.39.5,0,.06l-.25-.25c-.19-.21-.17-.17.05.11s.24.32,0,0l-.29-.4-2.44-3.42-5-7-9.91-13.85L311,429.79a26.93,26.93,0,0,1,2.33,2.2c.37.4.71.81,1.06,1.21s.33.42,0-.06l.47.66a26.41,26.41,0,0,1,1.66,2.75c.24.47.47,1,.69,1.45-.52-1.16.16.45.24.67l8.35-4.86q-4.32-4.79-8.65-9.56a12.19,12.19,0,0,0-5.51-3.91,8.78,8.78,0,0,0-7.36,1.5c-3.59,2.4-7.15,4.86-10.73,7.29l-5.56,3.78c-.77.52-1.53,1-2.31,1.55-.38.23-.75.46-1.14.66l-.58.29c.65-.29.18-.09-.23,0a1.93,1.93,0,0,0-.54.12c.2-.17,1.06,0,.35-.09a2.68,2.68,0,0,0-.49,0c-.52.07.84.24.35.05-.1,0-1.11-.23-1.1-.32s1,.54.29.09a6.48,6.48,0,0,0-.57-.33c-.12-.07-.58-.43,0,0s0,0-.12-.14l-.35-.35c-.59-.57.2.23.17.24a3.61,3.61,0,0,1-.35-.56c-.48-.67.18.3.08.31a6.35,6.35,0,0,1-.34-1.27l-7.34,5.65,14.27,6.52c2.38,1.09,5.5.76,6.84-1.79a5.08,5.08,0,0,0-1.79-6.84c-7.11-4.12-17.08-2.74-22.45,3.64l7.85,1-.51,4.69c-.63.46-.72.55-.24.28-.15.08-1.07.36-.27.18-1.42.32-.41.07,0,0l1.24-.07c1.64-.09,3.28-.17,4.93-.24q4.94-.23,9.87-.3c6.34-.11,12.72-.16,19.06.16.75,0,1.49.1,2.23.17-1-.1-.21,0,0,0,.44.1.87.17,1.3.28s.57.18.86.25c1.34.37-.59-.35.07,0a10.73,10.73,0,0,1,1.75,1s-.77-.67,0,0c.16.14.59.45.63.65,0,0-.61-1-.14-.14,0,.06.61,1.1.24.36s.11.47.13.52c.26.95,0,.23,0,0,0,.46,0,.91,0,1.37,0-.89,0,.16-.09.49a50.5,50.5,0,0,1-2.65,8.59c-.08.21-.47,1.15-.11.3l-.37.85c-.28.63-.59,1.24-.9,1.86s.05,0,.18-.17l-.23.24a3.28,3.28,0,0,1,4-.45c.26.15.61.7.8.78-.22-.09-.44-.77-.56-1s-.36-.76-.53-1.15c.35.81,0,0-.13-.36-.24-.66-.45-1.33-.64-2s-.41-1.63-.56-2.46c-.05-.28-.09-.55-.13-.83.17,1.19,0-.08,0-.35a26,26,0,0,1,0-4.83c0-.29.18-1.23,0-.13.07-.42.14-.83.22-1.25.17-.82.38-1.64.63-2.44l-9.14,1.19a27.4,27.4,0,0,1,2,3.68c-.29-.64-.11-.26.05.17s.24.66.35,1c.22.67.4,1.34.56,2a10.42,10.42,0,0,1,.4,2.06c0-.43-.07-.64,0-.07,0,.35.06.69.08,1,0,.7,0,1.4,0,2.11,0,.35,0,.7-.05,1s-.18,1.54,0,.35h9.64a42,42,0,0,1-2.2-7.67c-.06-.3-.11-.6-.16-.9,0-.1-.13-1-.07-.47s-.07-.72-.06-.7c0-.3-.06-.6-.08-.91a40.27,40.27,0,0,1-.08-4.11l-7.53,4.32,7.82,3.38,3.8,1.64,1.79.77c.34.15.69.32,1,.46,1.71.66-1.82.88-1.37-2.92l.68-2.52,1.31-1.25,2.52-.69h-.24l4.32,2.47A110.65,110.65,0,0,0,320,435.34c-2.89-2.77-6.15-4.81-10.23-5.06a13.14,13.14,0,0,0-10.08,4.11,5,5,0,1,0,7.07,7.08c.52-.55,1.09-1,1.65-1.54s-.65.43.13-.08c.34-.23.68-.46,1-.67.59-.36,1.21-.64,1.81-1-1,.53.1,0,.32-.11.39-.14.78-.26,1.17-.38a5,5,0,1,0-2.65-9.64,23.91,23.91,0,0,0-10.53,6.3l7.07,7.08c.06-.07.77-.79.78-.77s-1,.64-.13.14l.48-.27a4.47,4.47,0,0,0,.49-.24c0,.09-.89.27-.35.17a4.77,4.77,0,0,0,1.25-.3c-.07.06-1,0-.43.08.24,0,.49,0,.73,0s.46.08.55,0c-.09.05-.93-.22-.43,0,.15.06,1.21.38.64.15s0,0,.13.08c.28.17.57.33.85.51l.49.34c-.06,0-.63-.55-.23-.17s.61.53.91.8c.73.68,1.43,1.39,2.13,2.1,1.37,1.4,2.71,2.84,4,4.31s2.53,3,3.76,4.54c.49.61-.43-.57,0,.06l.42.54.81,1.09a26.89,26.89,0,0,0,2.36,3.22c3.49,3.5,9,.36,9.26-4.07.17-3-2.06-5.06-4.62-6.17l-13.41-5.79a5.24,5.24,0,0,0-5.05,0,5,5,0,0,0-2.47,4.31,44.87,44.87,0,0,0,3,17.42c.78,2,2.48,3.77,4.82,3.67,2-.09,4.52-1.47,4.82-3.67a30.39,30.39,0,0,0-4.4-21.11,5.07,5.07,0,0,0-9.14,1.2,32.26,32.26,0,0,0,2,23.13,8.42,8.42,0,0,0,5.21,4.88c3.14.82,5.92-.83,7.7-3.31a26.26,26.26,0,0,0,2.6-5.55c.72-1.79,1.36-3.61,1.9-5.45,1.3-4.43,2.19-9.09,0-13.4-1.87-3.67-5.78-6.12-9.68-7.08s-8.33-.88-12.45-.94-8.22-.07-12.34,0q-6.9.12-13.81.48c-2.52.14-5.16.08-7.42,1.36a6.77,6.77,0,0,0-3,3.23,6.27,6.27,0,0,0,.31,5.41c1.29,2.78,5.89,3.33,7.85,1A15.15,15.15,0,0,1,279,446c.82-.76-.89.56.06,0,.29-.18.57-.37.87-.54a4.57,4.57,0,0,0,.91-.46l-.42.17a4.68,4.68,0,0,1,.48-.18,17,17,0,0,1,2-.53c1-.21-1.07,0,0,0,.34,0,.68-.05,1-.05a8.69,8.69,0,0,1,1,0l.34,0c.56.06.45.05-.32,0a8.82,8.82,0,0,1,1.81.45c1.08.36-.31-.21.07,0s.71.36,1.05.56l5.05-8.63-14.27-6.53a5,5,0,0,0-7.35,5.65c.79,4.27,4.24,7.55,8.2,9,4.41,1.6,8.7-.09,12.36-2.57s7.29-5,10.93-7.43l5.57-3.79,1.15-.78a3.49,3.49,0,0,1,.67-.4s-.88.29-.31.13-.37.06-.4.06a3.69,3.69,0,0,1-.89-.17c-.88-.14.59.25-.14-.09-.51-.24.07.06.23.21,1.71,1.59,3.2,3.46,4.76,5.19l5.16,5.7a5,5,0,0,0,6.06.78c1.77-1.14,3.06-3.52,2.3-5.65a30.7,30.7,0,0,0-9-13.29,5.07,5.07,0,0,0-6.57-.4c-1.82,1.41-2.74,4.42-1.28,6.45l11.92,16.67c2,2.75,3.89,5.52,5.89,8.24a11,11,0,0,0,3.85,3.56,6.86,6.86,0,0,0,4,.73,7.08,7.08,0,0,0,3.65-1.75c2.07-1.62,1.83-5.39,0-7.07-2.2-2-4.86-1.72-7.07,0Z" transform="translate(-97.12 -136.87)"/></g><g id="Layer_2" data-name="Layer 2"><path class="cls-3" d="M267.63,150.59c-5.77-.35-11.56-.7-17.35-.73a165.54,165.54,0,0,0-26.07,2.33,64.65,64.65,0,0,0-14.07,3.74c-7,2.76-14.12,5.51-20.16,10-4.26,3.19-8.8,6.36-12.48,10.29-1.84,2-3.43,4.16-5.08,6.3a82,82,0,0,0-4.91,6.69l65.22,17.67,0-.36-1.25,9.3a8.33,8.33,0,0,1,.44-1.7l-3.53,8.36a10.39,10.39,0,0,1,1.26-2.13l-5.48,7.08a17,17,0,0,1,2.95-2.8l-7.09,5.47a88.64,88.64,0,0,1,11.1-6.8q5.94-3.22,12.18-5.85L235,221a128.14,128.14,0,0,1,31.41-8.94l-9.3,1.25a44.24,44.24,0,0,1,11.38-.23l-9.3-1.25c5.27.73,10.07,3,15.17,4.41a70.47,70.47,0,0,0,7.75,1.58c5.54.81,11.13,1.64,16.72,2,8.05.58,16.13.92,24.08-.86a35.1,35.1,0,0,0,9.52-3.89,37,37,0,0,0,4-3c1.13-.88,2.72-1.95,3.91-3.07,7.07-6.61,10.79-16.71,10.93-26.21.11-6.77-1-9.8-3.34-15.26a29.37,29.37,0,0,0-2.3-5.09,45.35,45.35,0,0,0-6.33-8,41.78,41.78,0,0,0-8-6.07l-.28-.13-8.36-3.53c-.3-.1-.57-.18-.88-.26l-4.65-.62-5.09-.68a11.45,11.45,0,0,0-1.31,0,60.08,60.08,0,0,0-10.82,1.5c-2.85.67-5.45,2-8.38,2.41l9.3-1.25a22.74,22.74,0,0,1-5.77,0l9.31,1.25a22.67,22.67,0,0,1-4.31-1.08l-9.31,68.75,17.28-.4,9.31-1.25a26.37,26.37,0,0,0,11.9-6.26,17.66,17.66,0,0,0,6.28-6.28,26.37,26.37,0,0,0,6.26-11.9L343,179.4l-1.25-9.3a26.32,26.32,0,0,0-6.26-11.9,26.48,26.48,0,0,0-9.82-9c-7.95-3.56-12.61-5.61-21.61-5.66-.41,0-.81,0-1.22.07l-9.3,1.25c-.27,0-.54.08-.81.14-3.6.77-7,2.73-10.28,4.17a26.38,26.38,0,0,0-9.82,9,26.28,26.28,0,0,0-6.27,11.91l-1.25,9.3a26.33,26.33,0,0,0,3,13.49,17.51,17.51,0,0,0,4.5,7.72,26.38,26.38,0,0,0,9.82,9l8.36,3.53a35.19,35.19,0,0,0,18.61,0,80.8,80.8,0,0,1,15-3.47l-9.3,1.25a81.84,81.84,0,0,1,21.21,0l-9.3-1.25a75.13,75.13,0,0,1,18.52,4.9l-8.36-3.52a43.41,43.41,0,0,1,9.44,5.37L339.53,211a30.41,30.41,0,0,1,5.13,5l-5.48-7.08a8.88,8.88,0,0,1,1,1.64l-3.53-8.36a6.82,6.82,0,0,1,.32,1.09L335.72,194a6.25,6.25,0,0,1,0,1.06l1.25-9.3a6.21,6.21,0,0,1-.25.94l3.52-8.36a6.23,6.23,0,0,1-.66,1.15l5.47-7.09a10,10,0,0,1-1.5,1.48l7.08-5.48a43.84,43.84,0,0,1-5.44,3.24l-6.46,3.58-6.46,3.58c-2.06,1.15-4.09,2.42-6.25,3.38l8.36-3.53a8.59,8.59,0,0,1-1.64.49l9.3-1.25a6.83,6.83,0,0,1-1.63,0l9.31,1.25a10,10,0,0,1-1.54-.42l8.36,3.53a17.72,17.72,0,0,1-3.83-2.4l7.08,5.48c-4-3.11-7.73-6.53-11.72-9.64s-8.23-6.7-12.75-9.41c-1-.62-2.1-1.2-3.19-1.73-1.85-.88-3.79-1.63-5.66-2.42s-3.93-1.74-6-2.45c-5.38-1.89-11.37-2.33-16.95-3a61.08,61.08,0,0,0-8.12-.37c-8.58.14-17.11,1.42-25.59,2.59a165.45,165.45,0,0,0-32.23,7.75,253.27,253.27,0,0,0-23.51,9.72,105.2,105.2,0,0,0-14,7.7c-7.23,4.85-14.37,10.32-19.79,17.21A166.69,166.69,0,0,0,170,215.36c-1.64,2.61-3.19,5.28-4.73,7.95l-3.52,8.36a26.49,26.49,0,0,0-.63,14,17.48,17.48,0,0,0,2.39,8.84,26.2,26.2,0,0,0,7.24,11.26l7.08,5.47,8.36,3.53a26.53,26.53,0,0,0,14,.63,26.11,26.11,0,0,0,13-4.16l59.24-40.51,16.86-11.53,7.09-5.47,5.47-7.09,3.53-8.36a26.39,26.39,0,0,0,.62-13.95,17.47,17.47,0,0,0-2.38-8.84,17.57,17.57,0,0,0-4.51-7.72,17.55,17.55,0,0,0-6.27-6.28,26.35,26.35,0,0,0-11.91-6.26q-5.92-1.38-12-2.21c-7-.95-13.92-2-21-2.26-11.22-.45-22.25.89-33.33,2.57a124.65,124.65,0,0,0-13.51,2.83l27,64L243.28,212a26.38,26.38,0,0,0,9.82-9,26.29,26.29,0,0,0,6.27-11.9l1.25-9.31a26.27,26.27,0,0,0-3-13.48,17.49,17.49,0,0,0-4.5-7.73,26.38,26.38,0,0,0-9.82-9L234.92,148a35.19,35.19,0,0,0-18.61,0c-2.88.87-5.72,1.89-8.5,3a172,172,0,0,0-15.74,7.05,83.25,83.25,0,0,0-7.36,4.46,169.53,169.53,0,0,0-14,10.65,54.88,54.88,0,0,0-6.18,5.92,109.37,109.37,0,0,0-7.83,10.1,26.49,26.49,0,0,0-2.16,3.72c-1.54,3.25-2.93,6.64-4.23,10-.27.69-.52,1.38-.74,2.08a40.4,40.4,0,0,0-1.19,4.73,161.17,161.17,0,0,0-2.32,17.94,111.23,111.23,0,0,0,.54,22.34,26.4,26.4,0,0,0,3,13.49,31.52,31.52,0,0,0,18.5,18.5,26.4,26.4,0,0,0,13.49,3l9.3-1.25a35,35,0,0,0,15.45-9l5.47-7.08A34.92,34.92,0,0,0,216.65,250a109.47,109.47,0,0,1,0-27.9l-1.25,9.3a42.93,42.93,0,0,1,2.6-10.29l-3.53,8.36a28.69,28.69,0,0,1,3.7-6.3l-5.48,7.08a57.4,57.4,0,0,1,10.22-9.72L215.85,226a86.09,86.09,0,0,1,18.93-11l-8.36,3.53a88.61,88.61,0,0,1,8.5-3l-27-64-15.18,8.11a26.48,26.48,0,0,0-9.82,9,26.49,26.49,0,0,0-6.27,11.9l-1.25,9.3a26.41,26.41,0,0,0,3,13.49,17.46,17.46,0,0,0,4.5,7.72,26.48,26.48,0,0,0,9.82,9l8.36,3.52a35.19,35.19,0,0,0,18.61,0,129.15,129.15,0,0,1,15.59-3.12l-9.3,1.25a128.55,128.55,0,0,1,33.6,0l-9.31-1.25q6,.83,12,2.21l-8.37-64-59.23,40.51-16.87,11.53,47.89,47.89a132.12,132.12,0,0,1,9.46-14.8l-5.47,7.08a54.18,54.18,0,0,1,9.5-9.52l-7.08,5.48c7-5.36,15.06-9.26,23.15-12.69l-8.36,3.53a165,165,0,0,1,41.56-11.35l-9.3,1.25c8.16-1.1,16.64-2,24.85-.91l-9.3-1.25a36.56,36.56,0,0,1,9,2.36l-8.36-3.53a48.53,48.53,0,0,1,10.34,6.33l-7.09-5.47c3.46,2.69,6.71,5.62,10.12,8.37,3.07,2.47,6.18,4.89,9.34,7.23a16.36,16.36,0,0,0,3,1.82c2.21,1,6.24,2.79,8.55,3.61.25.09.5.18.76.25a46.94,46.94,0,0,0,10.48,1.46,7.12,7.12,0,0,0,.8,0l.43,0,9.31-1.25a34.77,34.77,0,0,0,5.82-2.25,70.78,70.78,0,0,0,7-3.23l3.66-2,6.89-3.82,7.11-3.95c.93-.52,1.89-1,2.8-1.58.36-.23.71-.47,1.05-.71,2.4-1.73,5.09-3.82,7.38-5.7.27-.22.55-.45.81-.7a40.88,40.88,0,0,0,3.42-4.31,32,32,0,0,0,3.34-4.54,42.07,42.07,0,0,0,3.82-9.29c.27-1.07,1.21-8.32,1.28-9.47a9.37,9.37,0,0,0,0-1.06l-.63-4.65a42.38,42.38,0,0,0-.7-5c-.07-.25-.15-.47-.24-.72-.63-1.79-2.77-6.87-3.61-8.53-.11-.23-.23-.45-.36-.67a61.3,61.3,0,0,0-7.31-9.39c-.73-.79-1.5-1.53-2.3-2.24-2.94-2.57-6.13-4.91-9.27-7.22a39.54,39.54,0,0,0-5.49-3.36,105.23,105.23,0,0,0-20.43-8A132.61,132.61,0,0,0,332,140.47a81.16,81.16,0,0,0-16.27.34c-8.48,1-16.82,2.09-24.94,4.81l27,64,.37-.16L309.81,213a10.66,10.66,0,0,1,2.36-.62l-9.31,1.25a11.71,11.71,0,0,1,2.44,0L296,212.35a10.7,10.7,0,0,1,2.36.64L290,209.46l.38.16L308,144.4l-17.28.4a26.39,26.39,0,0,0-13.48,3A26.33,26.33,0,0,0,266,155.05l-5.48,7.08a26,26,0,0,0-4.15,13,17.68,17.68,0,0,0,0,9.3,26,26,0,0,0,4.15,13l5.48,7.09a34.86,34.86,0,0,0,15.44,9c4.4,1.57,9.66,1.93,14.05,2.39a23.59,23.59,0,0,0,5.11,0c4.36-.49,9.49-.83,13.85-2.34a28.16,28.16,0,0,1,5.14-1.55l-9.3,1.25a9.35,9.35,0,0,1,2.18,0l-9.3-1.25a6.68,6.68,0,0,1,.87.26l-8.36-3.53a6.3,6.3,0,0,1,1.06.63l-7.09-5.48a6.58,6.58,0,0,1,.88.87l-5.47-7.08a6,6,0,0,1,.63,1l-3.52-8.36a5.24,5.24,0,0,1,.32,1.09l-1.25-9.3a4.38,4.38,0,0,1,0,.81l1.25-9.3a2.27,2.27,0,0,1-.14.51l3.53-8.36a3.16,3.16,0,0,1-.42.71l5.47-7.08a3.27,3.27,0,0,1-.47.44l7.08-5.48a2.73,2.73,0,0,1-.6.34l8.37-3.53a6.32,6.32,0,0,1-1.36.35l9.31-1.25a75.86,75.86,0,0,1-10.22-.21c-3.58-.16-7.15-.43-10.71-.9l9.31,1.25a67.77,67.77,0,0,1-10.91-2.36c-3.46-1.08-6.81-2.52-10.37-3.31a90.81,90.81,0,0,0-14.23-1.92,41.71,41.71,0,0,0-5.7.08,151.61,151.61,0,0,0-20,3,137.28,137.28,0,0,0-19.95,5.94,199.59,199.59,0,0,0-26.79,12.22q-2.5,1.41-4.95,2.94a122.2,122.2,0,0,0-11.09,8.15c-3.5,2.75-6.14,6.58-8.63,10.18-4.59,6.62-5.54,13.82-6.3,21.57l1.25,9.3a26.37,26.37,0,0,0,6.27,11.91,17.47,17.47,0,0,0,6.28,6.27,26.24,26.24,0,0,0,11.9,6.27l9.3,1.25,9.31-1.25a26.29,26.29,0,0,0,11.9-6.27,26.38,26.38,0,0,0,9-9.82c.68-1.08,1.4-2.13,2.18-3.15l-5.48,7.08a41.92,41.92,0,0,1,7.29-7.23l-7.08,5.48a51.23,51.23,0,0,1,11-6.36l-8.36,3.53a66.19,66.19,0,0,1,16.76-4.45l-9.31,1.25c10.85-1.44,21.81-.81,32.69-.15a26.3,26.3,0,0,0,13.49-3,31.52,31.52,0,0,0,18.5-18.5,26.3,26.3,0,0,0,3-13.49l-1.25-9.3a35,35,0,0,0-9-15.45l-7.08-5.47a34.92,34.92,0,0,0-17.67-4.78Z" transform="translate(-97.12 -136.87)"/><path class="cls-3" d="M376.73,215.3l2.58,1.07L371,212.84a109.71,109.71,0,0,1,24.49,13.73l-7.08-5.48a65.09,65.09,0,0,1,11.36,11.26l-5.47-7.09c.58.76,1.14,1.52,1.68,2.3l47.88-47.89-21.66-10.11-17.66,65.22a44.18,44.18,0,0,0,5.14.44c10.71-.27,21.38-3.74,29.12-11.47,6.58-6.59,11.06-16.6,10.18-26.05-.33-3.54-.54-7.78-1.7-11.4a65.94,65.94,0,0,0-4.21-10A36.29,36.29,0,0,0,439.2,171c-1.83-2.37-3.35-4.6-5.67-6.43-3.33-2.63-6.79-5.73-10.69-7.69a81.13,81.13,0,0,0-16.16-6.35,26.49,26.49,0,0,0-13.95-.63,26,26,0,0,0-13,4.16,26.53,26.53,0,0,0-9.82,9,26.37,26.37,0,0,0-6.26,11.9l-1.25,9.31A34.81,34.81,0,0,0,367.16,202l5.47,7.09a35.14,35.14,0,0,0,15.45,9,79.36,79.36,0,0,1,9.2,3.18l-8.37-3.53a79.18,79.18,0,0,1,17.48,10.19l-7.08-5.47A78.45,78.45,0,0,1,411,233.65a38.92,38.92,0,0,0,24.75,10.25l9.31-1.25a26.37,26.37,0,0,0,11.9-6.26,17.66,17.66,0,0,0,6.28-6.28,26.37,26.37,0,0,0,6.26-11.9l1.25-9.31A34.76,34.76,0,0,0,466,191.24a73.45,73.45,0,0,0-11.86-18,21.16,21.16,0,0,0-2.26-2.28c-2.56-2.17-5.34-4.32-8.08-6.25-.42-.3-.86-.58-1.31-.84a50.42,50.42,0,0,0-5.43-2.39,55.87,55.87,0,0,0-5.5-2.25,50.81,50.81,0,0,0-12.33-1.74l-9.31,1.25A26.29,26.29,0,0,0,398,165a17.55,17.55,0,0,0-6.28,6.27,26.35,26.35,0,0,0-6.26,11.91l-1.25,9.3,1.25,9.3a26.35,26.35,0,0,0,6.26,11.91,26.45,26.45,0,0,0,9.82,9l.32.25-7.08-5.47a63.55,63.55,0,0,1,11.16,11.19l-5.47-7.08a63.2,63.2,0,0,1,8,13.64l-3.53-8.36c.32.75.62,1.51.91,2.26A26.28,26.28,0,0,0,412.09,241a26.38,26.38,0,0,0,9.82,9l8.36,3.53a26.49,26.49,0,0,0,14,.63,17.48,17.48,0,0,0,8.84-2.39,26.39,26.39,0,0,0,11.26-7.24l5.47-7.08a34.82,34.82,0,0,0,4.78-17.67,93.37,93.37,0,0,0-2-14.22,57,57,0,0,0-3.41-9.3,61.08,61.08,0,0,0-4.12-8.78,89.58,89.58,0,0,0-8.56-11.24l-42.41,55,.57.43-7.08-5.47a31.36,31.36,0,0,1,5.47,5.39l-5.47-7.08a28.62,28.62,0,0,1,3.61,6.13l-3.53-8.36a32.41,32.41,0,0,1,2.22,8.21l-1.25-9.31a46.6,46.6,0,0,1-.13,12.26l1.25-9.3a93.14,93.14,0,0,1-6.83,23.18l3.53-8.36c-1.3,3.07-2.7,6.11-4.16,9.11a26,26,0,0,0-4.15,13A31.38,31.38,0,0,0,405,286.94a26.38,26.38,0,0,0,9.82,9l8.36,3.53a35.19,35.19,0,0,0,18.61,0l8.36-3.53a35.1,35.1,0,0,0,12.55-12.55c3.31-6.78,6.28-13.73,9-20.75a97.82,97.82,0,0,0,4.36-13.8,155.89,155.89,0,0,0,2.46-16,50,50,0,0,0,.39-7.13c0-1.09-.08-2.18-.19-3.26-.43-4.22-.92-8.48-1.75-12.64-1-5-3.37-9.86-5.4-14.46-2.21-5-5.87-9.25-9.28-13.46-3.56-4.41-8.46-7.74-12.93-11a26,26,0,0,0-13-4.15,26.52,26.52,0,0,0-14,.62l-8.36,3.53a26.48,26.48,0,0,0-9.82,9,17.4,17.4,0,0,0-4.5,7.72,26.37,26.37,0,0,0-3,13.48l1.25,9.31a35,35,0,0,0,9,15.44c.45.52.89,1.06,1.31,1.6l-5.47-7.08a33.5,33.5,0,0,1,4.13,7.15l-3.53-8.36a33.48,33.48,0,0,1,2.16,8l-1.25-9.3c.08.68.15,1.37.2,2.06l68.75-9.3c-3.16-8.28-6.59-16.5-11.93-23.62a128,128,0,0,0-11-13.55c-4.11-4.15-8.87-7.55-13.49-11.1L419.2,227.46c.44,0,.87.06,1.31.11l-9.3-1.25a13.27,13.27,0,0,1,3,.86l-8.36-3.53a14.87,14.87,0,0,1,2.94,1.76l-7.08-5.48a22.2,22.2,0,0,1,3.59,3.66l-5.47-7.08a48.8,48.8,0,0,1,5.67,10.06l55-42.42a77.71,77.71,0,0,0-8.25-8.38,139.83,139.83,0,0,0-16.17-12.28,78,78,0,0,0-10.34-5.57,138.88,138.88,0,0,0-19.06-7.35l-18.6,67.5A43.33,43.33,0,0,1,394,220l-8.36-3.52a26,26,0,0,1,5.52,3.1L384,214.11A16.09,16.09,0,0,1,387,217l-5.48-7.09a12.43,12.43,0,0,1,1.46,2.52l-3.53-8.36a12,12,0,0,1,.72,2.62l-1.25-9.3A14.51,14.51,0,0,1,379,199l17.33-30.22a10.26,10.26,0,0,1-1,.56l8.36-3.53a9.35,9.35,0,0,1-2.21.58l9.31-1.25a31.35,31.35,0,0,1-6.27-.36L395.18,166a26.37,26.37,0,0,0-11.9,6.26,17.66,17.66,0,0,0-6.28,6.28,26.37,26.37,0,0,0-6.26,11.9l-1.25,9.31,1.25,9.3A26.35,26.35,0,0,0,377,221a26.45,26.45,0,0,0,9.82,9l21.66,10.12,8.36,3.52a26.54,26.54,0,0,0,14,.63,17.44,17.44,0,0,0,8.83-2.39,26.18,26.18,0,0,0,11.27-7.24l5.47-7.08,3.53-8.36a26.43,26.43,0,0,0,.62-14,26,26,0,0,0-4.15-13,103.06,103.06,0,0,0-13.64-16.49,129.37,129.37,0,0,0-16.68-13c-9.51-6.33-20.19-10.66-30.72-14.94a26.49,26.49,0,0,0-13.95-.63,26,26,0,0,0-13,4.16,26.53,26.53,0,0,0-9.82,9,26.37,26.37,0,0,0-6.26,11.9L351,181.55a34.78,34.78,0,0,0,4.78,17.66l5.47,7.09a35,35,0,0,0,15.45,9Z" transform="translate(-97.12 -136.87)"/><path class="cls-3" d="M360.85,207.71l.21-.17L354,213a5.27,5.27,0,0,1,.88-.53L346.49,216a5.58,5.58,0,0,1,1.4-.38l-9.31,1.25a14.35,14.35,0,0,1,3.14.14,33.71,33.71,0,0,0,11.8-1.16A37.43,37.43,0,0,0,376,198.92c4.46-7.32,4.71-12.23,5.67-20.57l-1.25,9.3a8.11,8.11,0,0,1,.49-1.86l-3.53,8.37a6.27,6.27,0,0,1,.74-1.28L372.63,200a7.13,7.13,0,0,1,1.17-1.16l-7.08,5.48a8.69,8.69,0,0,1,1.45-.84L359.81,207a12.26,12.26,0,0,1,2.94-.78l-9.31,1.25a22.58,22.58,0,0,1,5.69.1l-9.3-1.25a31.29,31.29,0,0,1,3.69.74,26.53,26.53,0,0,0,14,.62,26,26,0,0,0,13-4.15,26.48,26.48,0,0,0,9.82-9,26.43,26.43,0,0,0,6.27-11.9l1.25-9.3a34.92,34.92,0,0,0-4.78-17.67l-5.48-7.08a34.86,34.86,0,0,0-15.44-9,86.15,86.15,0,0,0-14.35-2.14c-4.84-.42-10.1.49-14.67,1.48-7.11,1.53-14.29,5.91-19.43,11-.14.14-.26.29-.4.44q-1.45,1.84-2.88,3.73c-1,1.21-1.95,2.46-2.88,3.73a10.36,10.36,0,0,0-.59,1.09c-.12.24-3.12,6.36-3.86,9.37-.07.28-.11.56-.16.84-.55,3.28-1,6.67-1.33,10l1.25-9.31a7.25,7.25,0,0,1-.36,1.46L316,162.8a4.74,4.74,0,0,1-.45.79L321,156.5a4,4,0,0,1-.42.41l7.08-5.47a2.91,2.91,0,0,1-.49.27l8.36-3.53a3.74,3.74,0,0,1-.73.19l9.3-1.25a31.48,31.48,0,0,1-4.33-.28,10,10,0,0,0-1.09,0c-1.59.16-3.18.37-4.77.64s-3.26.42-4.89.65c-.16,0-.32.06-.47.11s-.38.12-.58.19l-4.29,1.81a43.9,43.9,0,0,0-4.41,1.88l-.43.26q-1.92,1.41-3.76,2.89t-3.75,2.91a26.36,26.36,0,0,0-7.24,11.27,26.36,26.36,0,0,0-3,13.48,26.4,26.4,0,0,0,3,13.49,26.33,26.33,0,0,0,7.24,11.26l7.08,5.47A34.82,34.82,0,0,0,336.1,218l9.3-1.25a35,35,0,0,0,15.45-9Z" transform="translate(-97.12 -136.87)"/><path class="cls-3" d="M164.48,330.43A56,56,0,0,0,152,333.91c-6.65,2.7-13.27,5.3-19.15,9.44a135.18,135.18,0,0,0-11.83,9.24,58.38,58.38,0,0,0-9.5,11.46A47.62,47.62,0,0,0,106,377a52.59,52.59,0,0,1-1.56,5l3.52-8.36a10.35,10.35,0,0,1-1.19,2.13l5.47-7.08a7.45,7.45,0,0,1-1,1.07l7.08-5.47a7.15,7.15,0,0,1-1,.68l51.42,20.92a9.36,9.36,0,0,1-.45-1.73l1.25,9.31a9.62,9.62,0,0,1,0-1.78l-1.25,9.3a9.68,9.68,0,0,1,.27-1.3l-64,8.36a4,4,0,0,1,.36.64l-3.52-8.36a5.21,5.21,0,0,1,.27,1l-1.25-9.3a7,7,0,0,1,0,1.45l1.25-9.3a30.76,30.76,0,0,1-1.12,3.85,40.88,40.88,0,0,0-1.84,12.73c0,.31,0,.61.06.92.3,3,.74,6.94,1.34,9.85a12.17,12.17,0,0,0,.5,1.79c1.2,3.33,2.85,8.09,5.16,11.39a72,72,0,0,0,7.8,9.82,64.81,64.81,0,0,0,6.26,5.1c3.19,2.46,6.5,4.73,9.7,7.16l-7.08-5.47a24.67,24.67,0,0,1,4.51,4.33l-5.47-7.08a15.27,15.27,0,0,1,1.66,2.81l-3.53-8.36.14.35,43.06-43.06a13.21,13.21,0,0,1-2.46-.76l8.36,3.52a13.63,13.63,0,0,1-2.52-1.5l7.08,5.47a13.57,13.57,0,0,1-2.07-2.08l5.47,7.08a13.29,13.29,0,0,1-1.18-1.86l-47.88,47.88a27.16,27.16,0,0,1,2.46,1.66l-7.08-5.47c4.21,3.26,7.42,7.55,11.26,11.21a111,111,0,0,0,9.75,7.77,25.42,25.42,0,0,0,3.41,2.2,71.57,71.57,0,0,0,11.86,4.95c4.24,1.29,9.24,1.62,13.39,2.1,5.92.68,12-.57,17.78-1.38a64.84,64.84,0,0,0,8.81-1.88,84.77,84.77,0,0,0,8.36-2.84,137.73,137.73,0,0,0,15.95-7.12c5.05-2.81,9.53-6.5,14.05-10.07a37.15,37.15,0,0,0,6.1-5.92c2.51-3.12,5.53-6.58,7.6-10.22a66.61,66.61,0,0,0,5.12-11.91c1.34-4.07,1.66-8.68,2-12.8a14.28,14.28,0,0,0,0-1.85,76.21,76.21,0,0,0-1.5-11,13.61,13.61,0,0,0-.65-2c-1.08-2.72-2.39-6.09-3.69-8.7-.16-.34-.34-.67-.53-1a48.16,48.16,0,0,0-7.83-10,57.41,57.41,0,0,0-13.5-9.83A96,96,0,0,0,214,357.24a80.54,80.54,0,0,0-18.08-2.92c-4.7-.27-9.73.68-14.18,1.52a38.85,38.85,0,0,0-17.6,8.7,45.57,45.57,0,0,0-4.9,3.95c-6,6.19-8,10.57-11,18.4a32.08,32.08,0,0,0-1.91,13,43.92,43.92,0,0,0,5.73,20.84c3.57,6.55,8.63,10.92,14.68,15,6.64,4.48,13,5.08,20.65,5.91l9.3-1.25a26.37,26.37,0,0,0,11.91-6.27,17.47,17.47,0,0,0,6.27-6.28,26.24,26.24,0,0,0,6.27-11.9c1.25-3.24,1.55-9.28,1.76-11.15a11.66,11.66,0,0,0,0-2.21,52.68,52.68,0,0,0-1.63-11.18,55,55,0,0,0-2.09-5.09c-.62-1.47-1.34-3.46-2.17-5.05-1.57-3-5.24-7.18-6.52-8.7A14.64,14.64,0,0,0,209,371c-5.83-4.95-11.21-8.81-18.86-10.65a26.59,26.59,0,0,0-14-.62,26.14,26.14,0,0,0-13,4.15,26.48,26.48,0,0,0-9.82,9,26.37,26.37,0,0,0-6.26,11.9l-1.25,9.3a34.82,34.82,0,0,0,4.78,17.67l5.47,7.08a34.91,34.91,0,0,0,15.44,9,10,10,0,0,1,1.52.5l-8.36-3.53a10.37,10.37,0,0,1,1.89,1.15l-7.08-5.47a11.16,11.16,0,0,1,1.57,1.58L155.58,415A11.88,11.88,0,0,1,157,417.5l-3.53-8.36a11.56,11.56,0,0,1,.67,2.47l-1.25-9.31a10.2,10.2,0,0,1,0,2.53l1.25-9.3a9.64,9.64,0,0,1-.51,1.84l33.75-25.69-.33,0,9.31,1.25a6.28,6.28,0,0,1-1.55-.45L203.2,376a8.39,8.39,0,0,1-1.37-.84l7.09,5.47a9.6,9.6,0,0,1-1.14-1.16l5.47,7.08a9.12,9.12,0,0,1-1-1.7l3.53,8.36a8.8,8.8,0,0,1-.63-2.24l1.25,9.3a8.74,8.74,0,0,1,0-2l-1.25,9.3a9.94,9.94,0,0,1,.61-2.06l-3.53,8.36a10.59,10.59,0,0,1,1.29-2.14L208,418.8a12.82,12.82,0,0,1,2.08-2L203,422.25a14.11,14.11,0,0,1,2.85-1.63l-8.36,3.53a16.45,16.45,0,0,1,3.71-.95l-9.3,1.25a25.07,25.07,0,0,1,6.24.1l-9.31-1.25a47.48,47.48,0,0,1,11.58,3.24L192.09,423a38.15,38.15,0,0,1,7.91,4.38l-7.08-5.47a19.44,19.44,0,0,1,3.25,3.16L190.69,418a13.67,13.67,0,0,1,1.54,2.57l-3.53-8.36a12.72,12.72,0,0,1,.82,2.91l-1.25-9.31a13.74,13.74,0,0,1,0,3.33l1.25-9.3a17.42,17.42,0,0,1-1.11,4l3.53-8.36a24.91,24.91,0,0,1-3,5.11l5.47-7.08a36.61,36.61,0,0,1-6.67,6.49l7.08-5.47A60.51,60.51,0,0,1,181.76,402l8.36-3.53a73.19,73.19,0,0,1-18.34,5.2l9.31-1.25a35.35,35.35,0,0,1-8.9.08l9.3,1.25a24.41,24.41,0,0,1-5.63-1.51l8.36,3.53a23.62,23.62,0,0,1-4.94-2.92l7.08,5.48a72.84,72.84,0,0,1-8.1-8,70.86,70.86,0,0,0-15.37-12.64l-8.36-3.53a26.53,26.53,0,0,0-14-.62,17.34,17.34,0,0,0-8.83,2.39,26.25,26.25,0,0,0-11.27,7.23L115,400.24l-3.53,8.36a26.49,26.49,0,0,0-.62,13.95,26,26,0,0,0,4.15,13c3.83,7.34,9.34,11.77,15.81,16.5a15.71,15.71,0,0,0,2.52,1.51c2.4,1.14,7.26,3.56,10.82,4.29a35,35,0,0,0,43-43.05c-1.38-3.34-2.54-7-4.42-10.17a78.7,78.7,0,0,0-6.49-8.58,22.55,22.55,0,0,0-3.23-3.25c-4.65-3.88-9.61-7.2-14.41-10.83l7.08,5.47a26.86,26.86,0,0,1-4.58-4.46l5.47,7.08a16.56,16.56,0,0,1-2-3.32l3.53,8.36a11.47,11.47,0,0,1-.7-2.5l1.25,9.3a10.4,10.4,0,0,1,0-2.23L167.45,409c.26-1.87,1.08-3.57,1.51-5.4q.09-.37.15-.75l1.25-9.31a10,10,0,0,0,0-1.45l-1.25-9.31a4.26,4.26,0,0,0-.15-.69,32.1,32.1,0,0,0-4-9.34l-5.47-7.09-7.09-5.47-8.36-3.53a26.52,26.52,0,0,0-14-.62,17.37,17.37,0,0,0-8.83,2.39,17.46,17.46,0,0,0-7.72,4.5,17.58,17.58,0,0,0-6.28,6.28,26.32,26.32,0,0,0-6.26,11.9c-1.93,7.14-2.36,16.33.2,23.41a35,35,0,0,0,9,15.45,26.33,26.33,0,0,0,11.26,7.24,26.4,26.4,0,0,0,13.49,3,34.81,34.81,0,0,0,17.66-4.78c6.6-3.6,10.44-8.32,14.63-14.31,2.31-3.29,3.6-7.44,5-11.09.85-2.28,1.27-4.7,2.2-7l-3.53,8.37a14.59,14.59,0,0,1,1.6-2.76L167,405.77a35,35,0,0,1,6.44-6.08l-7.09,5.47A56.36,56.36,0,0,1,178.61,398l-8.36,3.53a56.25,56.25,0,0,1,12.83-3.64A26.28,26.28,0,0,0,195,391.66a26.38,26.38,0,0,0,9-9.82,26,26,0,0,0,4.15-13,26.43,26.43,0,0,0-.62-14L204,346.51A35.13,35.13,0,0,0,191.44,334l-8.36-3.53a35.15,35.15,0,0,0-18.6,0Z" transform="translate(-97.12 -136.87)"/><path class="cls-3" d="M129.82,392.28a28.58,28.58,0,0,0-1.39,10.21,36.27,36.27,0,0,0,1.33,9.59l3.52,8.36a34.78,34.78,0,0,0,6,7.9,4.79,4.79,0,0,0,.53.48l7.09,5.48a44.32,44.32,0,0,0,5.42,2.73,69.71,69.71,0,0,1,10.76,6.81L156,438.36a20.37,20.37,0,0,1,3.47,3.28L154,434.56a10.46,10.46,0,0,1,1.18,2l-3.52-8.36a13.54,13.54,0,0,1,.67,2.88l-1.25-9.3c.51,4,.69,8.14,1.7,12.06a46.09,46.09,0,0,0,4.49,10.73c1.87,3.39,4.7,6.51,7,9.4.61.75,1.24,1.5,1.92,2.2a24.73,24.73,0,0,0,2.13,2c2.45,2,5.15,4.11,7.73,6,.44.32.89.63,1.35.92a59,59,0,0,0,10.5,4.6c3.55,1.3,8.4,1.54,11.54,1.85,8.12.81,14.87-2.1,22-5.29a12.27,12.27,0,0,0,1.95-1.06,82.64,82.64,0,0,0,8.58-6.69c2.41-2.18,4.26-4.9,6.82-6.92L231.72,457a14.38,14.38,0,0,1,2.89-1.67l-8.36,3.53c5.43-2.26,11.26-3.86,16.07-7.32s9.39-7.27,13.9-11.15c2.44-2.09,4.9-4.15,7.29-6.28,3.11-2.77,5.47-6.3,7.93-9.61a10.85,10.85,0,0,0,1.13-1.77,51.75,51.75,0,0,0,4.09-10,26.53,26.53,0,0,0,.63-14,26,26,0,0,0-4.16-13,26.45,26.45,0,0,0-9-9.82,26.37,26.37,0,0,0-11.9-6.26l-9.31-1.25a34.87,34.87,0,0,0-17.66,4.77l-7.09,5.48a35,35,0,0,0-9,15.44,10.68,10.68,0,0,1-.33,1.1l3.53-8.36a10.74,10.74,0,0,1-1.36,2.28l5.47-7.08c-2.09,2.57-4.86,4.6-7.36,6.75-2.71,2.33-5.36,4.73-8.16,6.94l7.08-5.47a25.39,25.39,0,0,1-5.17,3.18l8.36-3.53c-4.37,1.81-8.9,3.24-13.09,5.47a47.54,47.54,0,0,0-10.45,8c-2.1,2.07-3.85,4.49-6.17,6.33l7.08-5.47a12.1,12.1,0,0,1-2.46,1.44l8.36-3.53a9.92,9.92,0,0,1-2,.53l9.3-1.25a9.4,9.4,0,0,1-2.31,0l9.31,1.25a11.81,11.81,0,0,1-2.61-.75l8.36,3.53a17.39,17.39,0,0,1-3.45-2.1l7.09,5.48a28.3,28.3,0,0,1-4.64-4.77l5.47,7.08a16.13,16.13,0,0,1-1.78-2.93l3.53,8.37a13.12,13.12,0,0,1-.82-3.32l1.25,9.3c-.46-3.6-.89-7.21-1.45-10.8a13.7,13.7,0,0,0-.44-1.87c-.58-1.54-1.22-3.05-1.91-4.55s-1.2-2.92-1.84-4.36a8.93,8.93,0,0,0-.45-.87,64.83,64.83,0,0,0-6.26-8.21,18.91,18.91,0,0,0-2.56-2.5c-3.25-2.66-6.59-5.26-10-7.69a66.68,66.68,0,0,0-6.82-4.28c-1.24-.68-2.5-1.32-3.79-1.92a18.93,18.93,0,0,1-3.41-1.75l7.08,5.47a5.82,5.82,0,0,1-.75-.74l5.48,7.08a2,2,0,0,1-.31-.55l3.53,8.36-.08-.29,1.25,9.31,0-.3-1.25,9.3a1.41,1.41,0,0,1,.16-.6,26.53,26.53,0,0,0,.62-14,26,26,0,0,0-4.15-13,26.38,26.38,0,0,0-9-9.82,26.33,26.33,0,0,0-11.91-6.27l-9.3-1.25a34.82,34.82,0,0,0-17.67,4.78l-7.08,5.47a35,35,0,0,0-9,15.45Z" transform="translate(-97.12 -136.87)"/><path class="cls-3" d="M388.75,424.37c.71.22,1.4.47,2.08.75l-8.36-3.53a22.83,22.83,0,0,1,4.74,2.8l-7.08-5.47a23.59,23.59,0,0,1,3.89,3.91l-5.48-7.08a22.66,22.66,0,0,1,2.77,4.76l-3.53-8.36a38.25,38.25,0,0,1,1.7,6.14,65.1,65.1,0,0,0,5.33,14.29,15.17,15.17,0,0,0,1.21,2.11,91.42,91.42,0,0,0,6.74,8.7c3,3.34,7.31,6.22,10.68,8.67a72.26,72.26,0,0,0,9,5.2,60.78,60.78,0,0,1,9.21,5.73l-7.08-5.47c5.58,4.34,10.36,9.58,15.55,14.38a126.41,126.41,0,0,0,14.78,11.73,37.86,37.86,0,0,0,4.29,2.55,94.34,94.34,0,0,0,13,5.47,35.39,35.39,0,0,0,18.61,0,39.17,39.17,0,0,0,20.91-16.09,34.81,34.81,0,0,0,4.78-17.66c0-1.24-.1-2.46-.23-3.69-.46-4.24-.95-8.52-1.77-12.72a42.1,42.1,0,0,0-2.13-7.3L451,473.72a6.84,6.84,0,0,1,1.3.77L445.21,469a7.73,7.73,0,0,1,1.05,1.09L440.79,463a8.71,8.71,0,0,1,.58,1,39.09,39.09,0,0,0,20.91,16.08l9.31,1.25a26.26,26.26,0,0,0,13.48-3,17.4,17.4,0,0,0,7.72-4.5,26.48,26.48,0,0,0,9-9.82l3.53-8.36a35.39,35.39,0,0,0,0-18.61,29.39,29.39,0,0,0-1.77-6.63c-1.89-4.74-3.75-9.74-6.47-14.13a133,133,0,0,0-9.29-12.46c-1.46-1.84-3-3.61-4.61-5.33A277.45,277.45,0,0,0,461,377.05c-6.62-5.73-13.55-11.07-20.5-16.4a26.08,26.08,0,0,0-13-4.16,31.47,31.47,0,0,0-25.86,6.89,26.53,26.53,0,0,0-9,9.82l-3.53,8.37a35.15,35.15,0,0,0,0,18.6l3.53,8.36a35.13,35.13,0,0,0,12.55,12.56l.73.56-7.08-5.47q11.13,8.61,21.42,18.24c6.52,6.13,13.1,12.46,18.62,19.53l-5.48-7.09a46.14,46.14,0,0,1,5.94,9.76l-3.53-8.36a30,30,0,0,1,2.08,7.37l64-27c-2.87-5.68-9.67-12.71-15.49-15.39L478,409.75l-9.31-1.25-9.3,1.25a26.32,26.32,0,0,0-11.9,6.26,34.67,34.67,0,0,0-10.78,14,17.34,17.34,0,0,0-2.39,8.83,26.52,26.52,0,0,0,.62,14,43.09,43.09,0,0,1,2.54,9.8l-1.25-9.3a44.27,44.27,0,0,1,.34,4.6l44.31-33.75c-.8-.27-1.59-.56-2.37-.89l8.36,3.53a41.34,41.34,0,0,1-9.16-5.5l7.08,5.47c-5.21-4.07-9.72-8.93-14.53-13.45A153.07,153.07,0,0,0,456,401.77a63.2,63.2,0,0,0-8.35-5,66,66,0,0,1-9.44-5.53l7.09,5.47a21.93,21.93,0,0,1-3.7-3.57l5.48,7.09a16.58,16.58,0,0,1-2.19-3.75l3.53,8.36c-1.11-2.84-1.49-5.88-2.31-8.81-.18-.65-.39-1.3-.63-1.93-1.24-3.26-2.62-6.56-4.1-9.72a21.38,21.38,0,0,0-2-3.33c-2-2.81-4.17-5.59-6.37-8.25-.39-.48-.8-.93-1.23-1.37a78.34,78.34,0,0,0-9.57-7.66,22.71,22.71,0,0,0-3.28-2,77.42,77.42,0,0,0-11.61-4.82,26.52,26.52,0,0,0-14-.62,26,26,0,0,0-13,4.15,39.17,39.17,0,0,0-16.08,20.92l-1.25,9.3a34.91,34.91,0,0,0,4.77,17.67l5.48,7.08a34.86,34.86,0,0,0,15.44,9Z" transform="translate(-97.12 -136.87)"/><path class="cls-3" d="M392.06,431.11l10.8,10.27c3.48,3.31,7.07,6.52,10.29,10.08s6.06,7.29,9,11l9.31,11.66L426,467a1.7,1.7,0,0,1,.24.44l-3.53-8.36a1.72,1.72,0,0,1,.11.51l-1.25-9.3a1.55,1.55,0,0,1,0,.48l1.25-9.31-.05.2,3.52-8.36-.09.16,12.56-12.56-.13.1L447,417.5l-.16,0h18.61l-.2,0a26.49,26.49,0,0,0-13.95-.63,26.14,26.14,0,0,0-13,4.15,39.17,39.17,0,0,0-16.08,20.92l-1.25,9.31a34.81,34.81,0,0,0,4.78,17.66l5.47,7.09a35.14,35.14,0,0,0,15.45,9l3.67,1.12a26.49,26.49,0,0,0,13.95.63,26.15,26.15,0,0,0,13-4.16l7.08-5.47a26.39,26.39,0,0,0,7.24-11.26A17.48,17.48,0,0,0,494,457a26.49,26.49,0,0,0-.63-13.95l-3.53-8.36a35.13,35.13,0,0,0-12.55-12.56c-5.94-4.44-11.91-8.83-17.81-13.31l7.08,5.47a11.76,11.76,0,0,1-2.12-2l5.47,7.08a6.25,6.25,0,0,1-.53-.9l3.53,8.36a4.84,4.84,0,0,1-.27-1l1.25,9.31a3.28,3.28,0,0,1,0-.7,38.92,38.92,0,0,0-10.25-24.75,39,39,0,0,0-24.75-10.25l-9.3,1.25a35,35,0,0,0-15.45,9l-5.47,7.09a34.88,34.88,0,0,0-4.78,17.66c0,.24,0,.46,0,.7l1.25,9.3.06.34c.06.22.13.43.21.65l3.53,8.36.15.31c.12.2.25.4.38.6l5.47,7.08.22.28a10.41,10.41,0,0,0,1,1.06c3,2.63,6.25,4.92,9.43,7.3L429,472.9,442,482.56l27-64-3.67-1.12L446.64,485a32.09,32.09,0,0,0,4.84.68c5.54.74,7.63,1.41,14-.64.35-.11,8.09-3.34,8.44-3.54l.07-.05,3.6-2.78c4.22-3.26,6.07-4.26,9.06-9.9.18-.34,3.46-8,3.57-8.44a31.26,31.26,0,0,0,.69-4.85,36.52,36.52,0,0,0,.63-5.13c0-.55-1.14-9-1.27-9.44l-.09-.38c-.09-.39-3.41-8.18-3.58-8.48a33.65,33.65,0,0,0-2.92-3.87c-1.58-2-3.15-4.06-4.76-6.07l-8.54-10.69c-2.68-3.36-5.31-6.78-8.24-9.94s-6.27-6.19-9.46-9.22l-11.17-10.62a26.21,26.21,0,0,0-11.26-7.23,31.62,31.62,0,0,0-27,0,26.21,26.21,0,0,0-11.26,7.23l-5.48,7.09a34.85,34.85,0,0,0-4.78,17.66l1.25,9.31a35.08,35.08,0,0,0,9,15.44Z" transform="translate(-97.12 -136.87)"/><path class="cls-3" d="M412.76,293.14q.21,34-1.71,67.88-.56,9.66-1.28,19.3l28-7.57a3,3,0,0,1-.3-.52l1.51,3.58a4.94,4.94,0,0,1-.25-.83l.54,4a4.51,4.51,0,0,1,0-1.16l-.53,4a6.56,6.56,0,0,1,.23-.87l-1.51,3.59a5.43,5.43,0,0,1,.77-1.32l-2.35,3a6.45,6.45,0,0,1,.89-.84l-3,2.35a4.83,4.83,0,0,1,.8-.45l-3.59,1.51a6.16,6.16,0,0,1,1.39-.35l-4,.53a7.41,7.41,0,0,1,1.49,0l-4-.54a8.8,8.8,0,0,1,1.81.55l-3.58-1.52a10.7,10.7,0,0,1,1.66,1l-3-2.34a10.4,10.4,0,0,1,.87.75,16.41,16.41,0,0,0,6.62,3.86l4,.53a11.29,11.29,0,0,0,5.78-1.29,14.87,14.87,0,0,0,6-4.62,14.63,14.63,0,0,0,3.22-9.09c-.17-12.35-4.53-23.91-6.2-36l.53,4a57.71,57.71,0,0,1,0-15l-.53,4A57.48,57.48,0,0,1,446.88,319l-1.51,3.58c2.29-5.33,5.56-10,8.63-14.91a69.3,69.3,0,0,0,5.17-10.34,37.11,37.11,0,0,0,2.49-11.66l-.54-4a11.32,11.32,0,0,0-2.68-5.1,14.35,14.35,0,0,0-7.79-5.38,17.91,17.91,0,0,0-8,0,15.09,15.09,0,0,0-9,6.9,184.79,184.79,0,0,0-18.51,53.76c-.84,4.86-1.1,10-3,14.56l1.51-3.58a18.7,18.7,0,0,1-2.21,3.73l2.34-3a73.45,73.45,0,0,1-7.71,7.77c-2.63,2.44-5.32,4.82-8.16,7l3-2.35a52.54,52.54,0,0,1-11,6.67l3.58-1.51q-1.35.57-2.73,1.05l18.45,18.45L412.49,364a15,15,0,0,0-3.85-14.59,15.31,15.31,0,0,0-14.6-3.86,20.46,20.46,0,0,0-10.08,6,21.9,21.9,0,0,0-4.77,8.07,22.73,22.73,0,0,0-1,6l.54,4,1.51,3.58a14.92,14.92,0,0,0,7.17,6.14,15.1,15.1,0,0,0,7.78,1c3-.39,6.67-1.67,8.61-4.12a136.27,136.27,0,0,0,11.54-16.6,140.13,140.13,0,0,0,8.62-18.36,128,128,0,0,0,8-35.82,110.52,110.52,0,0,0,0-19.08,16.64,16.64,0,0,0-4.4-10.61,15.23,15.23,0,0,0-10.6-4.39c-3.88.17-7.91,1.44-10.61,4.39-2.56,2.79-4.73,6.69-4.39,10.61a111.61,111.61,0,0,1-.61,24.44l.54-4a115.7,115.7,0,0,1-8,29.15l1.51-3.58a112.81,112.81,0,0,1-14.17,24.34l2.34-3-1,1.31,25.6,10.6,0-.34-.54,4a7.24,7.24,0,0,1,.47-1.65l-1.51,3.58a8.42,8.42,0,0,1,.7-1.19L405,373a8.22,8.22,0,0,1,1.2-1.23l-3,2.34a8.4,8.4,0,0,1,1.48-.86L401,374.75a8.62,8.62,0,0,1,1-.29L383.57,356l-3.23,16.6a15.21,15.21,0,0,0,0,8,15.05,15.05,0,0,0,3.86,6.62c3.6,3.6,9.63,5.57,14.6,3.86a61.83,61.83,0,0,0,11.48-5.21,89.85,89.85,0,0,0,10.05-7.28c2.37-1.89,4.63-3.91,6.84-6s4.68-4.23,6.76-6.57a35.82,35.82,0,0,0,7.94-13.73,67.61,67.61,0,0,0,1.78-9.58,170.67,170.67,0,0,1,11.44-40.31L453.58,306q2.76-6.53,6-12.8l-27.95-7.57q0,.6-.12,1.2l.54-4a25.59,25.59,0,0,1-1.84,6.47l1.51-3.58c-2,4.63-5,8.74-7.67,13a74,74,0,0,0-8,17.4,71,71,0,0,0-3.08,19.3,84.55,84.55,0,0,0,2.29,19.84c1.34,6.21,3.07,12.34,3.93,18.65l-.53-4a56.87,56.87,0,0,1,.47,6.38l25.61-10.6a23.85,23.85,0,0,0-10.6-6.08,20.82,20.82,0,0,0-15.34,2,19.68,19.68,0,0,0-8.91,11.58,18.72,18.72,0,0,0,1.91,14.66l2.35,3A11.14,11.14,0,0,0,419,394a14.4,14.4,0,0,0,9.76.76,17.74,17.74,0,0,0,6.62-3.86c3-2.72,4.11-6.76,4.39-10.6q2.55-33.87,2.94-67.85.1-9.66.05-19.33a15.55,15.55,0,0,0-4.4-10.61,15.23,15.23,0,0,0-10.6-4.39c-3.88.17-7.91,1.45-10.61,4.39a15.52,15.52,0,0,0-4.39,10.61Z" transform="translate(-97.12 -136.87)"/><path class="cls-3" d="M433.06,285.68v-8.53a16.64,16.64,0,0,0-4.4-10.61,16.64,16.64,0,0,0-10.6-4.39l-4,.54a14.94,14.94,0,0,0-6.62,3.85l-2.34,3a14.91,14.91,0,0,0-2.05,7.57v8.53a11.29,11.29,0,0,0,1.29,5.78,13.53,13.53,0,0,0,7.93,7.93,11.36,11.36,0,0,0,5.78,1.29l4-.54a14.92,14.92,0,0,0,6.61-3.86l2.35-3a14.91,14.91,0,0,0,2.05-7.57Z" transform="translate(-97.12 -136.87)"/><path class="cls-3" d="M425.54,272.33a58.28,58.28,0,0,0,.55-13.45,37.5,37.5,0,0,0-2.07-10,39.32,39.32,0,0,0-4.49-8.75,158.8,158.8,0,0,0-11-13.12,77.42,77.42,0,0,0-9.34-9.39,36.5,36.5,0,0,0-11.75-6.71,27.07,27.07,0,0,0-6.54-1.06,24.7,24.7,0,0,0-7,.77l-3.59,1.51a11.34,11.34,0,0,0-4.21,3.86,7.55,7.55,0,0,0-1.93,3.31,11.39,11.39,0,0,0-1.29,5.78,10.15,10.15,0,0,0,.26,2.54c.32,2.4.36,3.42,1.85,5.83a19.54,19.54,0,0,0,2.93,3.77,20.45,20.45,0,0,0,8.72,4.82,52.26,52.26,0,0,1,6.43,2.17l-3.58-1.51a48.61,48.61,0,0,1,10.43,6.14l-3-2.34a51.45,51.45,0,0,1,9.07,9.11l-2.35-3A51.33,51.33,0,0,1,400,263.7l-1.52-3.58a47.23,47.23,0,0,1,3.18,11.68l-.54-4a15,15,0,0,1,.23,3.54l.53-4-.08.32,1.51-3.58-.14.29,2.34-3-.22.25,3-2.35-.24.16,3.58-1.51a3.71,3.71,0,0,1-.92.26l4-.54a5.15,5.15,0,0,1-1.11,0l4,.54a6.55,6.55,0,0,1-1.44-.4l3.58,1.51a8.84,8.84,0,0,1-1.33-.77l3,2.35a9.26,9.26,0,0,1-1.65-1.66l2.34,3a38.31,38.31,0,0,1-2.85-5.13,48.5,48.5,0,0,0-2.88-4.86,81.65,81.65,0,0,0-9.19-11.44c-6.09-6.29-13.26-11.59-20.51-16.45-3.63-2.43-7.34-4.74-11.05-7a15,15,0,0,0-20.52,5.38c-1.84,3.48-2.77,7.7-1.52,11.56a16,16,0,0,0,6.9,9,221.29,221.29,0,0,1,19.12,12.82l-3-2.35a79.19,79.19,0,0,1,14,13.58l-2.35-3a53.49,53.49,0,0,1,5.24,8.17,42.07,42.07,0,0,0,2.29,4.3,24.53,24.53,0,0,0,8.15,8.12,20.59,20.59,0,0,0,14.81,2.26c7.51-1.6,12.54-8.61,12.67-16.1a48.62,48.62,0,0,0-.85-7.53c-.22-1.54-.51-3.06-.88-4.56a68.66,68.66,0,0,0-4.33-11.66,49.32,49.32,0,0,0-4.2-7.47,76,76,0,0,0-7.52-9.44,72.62,72.62,0,0,0-9.47-8,47.52,47.52,0,0,0-8.26-4.92,84.33,84.33,0,0,0-7.89-3.24c-1.52-.52-3.14-.81-4.61-1.43l3.58,1.52a6.56,6.56,0,0,1-.81-.47l3,2.35a2,2,0,0,1-.42-.39l2.34,3a1.71,1.71,0,0,1-.28-.45l1.52,3.59-.08-.25.54,4a1.45,1.45,0,0,1,0-.55l-11,14.47c.38-.09.76-.15,1.14-.21l-4,.54a11.28,11.28,0,0,1,2.25,0l-4-.53a12.66,12.66,0,0,1,3.25.9l-3.58-1.52a21.05,21.05,0,0,1,4.07,2.45l-3-2.35a70.22,70.22,0,0,1,8.67,8.66c2.91,3.21,5.9,6.38,8.57,9.78l-2.34-3a29.48,29.48,0,0,1,3.76,6.2l-1.52-3.58a23.12,23.12,0,0,1,1.47,5.54l-.53-4c.59,4.63.07,9.28-.49,13.89a16.64,16.64,0,0,0,4.39,10.6,15.31,15.31,0,0,0,10.61,4.4c3.88-.18,7.9-1.45,10.61-4.4l2.34-3a14.94,14.94,0,0,0,2.05-7.57Z" transform="translate(-97.12 -136.87)"/><path class="cls-3" d="M213.44,235.77c0,.47-.09.94-.15,1.4l.53-4a29,29,0,0,1-2,7.07l1.51-3.59a31.88,31.88,0,0,1-4.08,6.92l2.34-3a35,35,0,0,1-5.71,5.71l3-2.35a33.38,33.38,0,0,1-7.24,4.27l3.58-1.51a30.59,30.59,0,0,1-7.39,2l4-.54c-3.24.42-6.41,0-9.65,0a21.76,21.76,0,0,0-2.42.1,31.28,31.28,0,0,0-6.08.95,24.6,24.6,0,0,0-5.33,2.28,25.21,25.21,0,0,0-2.25,1.67,16.94,16.94,0,0,0-2.43,2,24.15,24.15,0,0,0-5.56,10.07,36.4,36.4,0,0,0-1,8.58c0,3.93,0,7.84-.14,11.76q-.33,7-1.27,14l.54-4a162.12,162.12,0,0,1-11.12,40.84l1.51-3.58A46.86,46.86,0,0,1,151.44,343l2.35-3a17.88,17.88,0,0,1-2.81,2.89l3-2.34a17.48,17.48,0,0,1-3.69,2.16l3.58-1.51a32.11,32.11,0,0,1-8.08,2l4-.53a27.87,27.87,0,0,1-5.38.46l4,.53a5.11,5.11,0,0,1-1-.24l3.59,1.51a2.59,2.59,0,0,1-.58-.34l3,2.34-.25-.24,2.34,3a2.55,2.55,0,0,1-.37-.59l1.52,3.59a2.71,2.71,0,0,1-.18-.66l.54,4a5.47,5.47,0,0,1,0-1.07l-.54,4a13.41,13.41,0,0,1,1-3L156,359.54c2.47-5.57,6.67-10.11,9.83-15.27a95,95,0,0,0,8.7-19.09c4.17-12.29,5.77-25.48,6.48-38.38.37-6.74.42-13.5.38-20.26a15.5,15.5,0,0,0-4.4-10.6,15.24,15.24,0,0,0-10.6-4.4c-3.88.18-7.9,1.45-10.61,4.4a15.49,15.49,0,0,0-4.39,10.6,246,246,0,0,1-1.62,33.79l.54-4a104.63,104.63,0,0,1-6.88,26.56l1.51-3.58a73.41,73.41,0,0,1-6.57,12.23c-2.64,3.93-5.76,7.58-7.83,11.88a48.77,48.77,0,0,0-2.62,6.29,24.83,24.83,0,0,0-.32,10.3c1.82,8,9.62,13.19,17.57,13.11a67.57,67.57,0,0,0,10.24-1.26,29.85,29.85,0,0,0,6.49-1.77,31.24,31.24,0,0,0,17.45-15,71.78,71.78,0,0,0,3.08-6.59c1.47-3.46,2.93-6.92,4.23-10.45a160.25,160.25,0,0,0,7.9-29.84,202,202,0,0,0,2.4-20.95c.16-2.92.25-5.84.25-8.76a66.44,66.44,0,0,1,.14-7.6l-.53,4a13,13,0,0,1,.8-3.13l-1.51,3.58a8.89,8.89,0,0,1,.87-1.52l-2.35,3a8.41,8.41,0,0,1,1.25-1.28l-3,2.34a8.8,8.8,0,0,1,1.82-1l-3.59,1.51a11.71,11.71,0,0,1,2.4-.6l-4,.53c3.73-.45,7.47.34,11.21,0a50.52,50.52,0,0,0,9-1.45,54.08,54.08,0,0,0,8.17-3.2,44.71,44.71,0,0,0,11.72-8.26,53.16,53.16,0,0,0,5.66-6.68,33.52,33.52,0,0,0,2.88-4.39,46.38,46.38,0,0,0,5.37-18.56c.33-3.62-1.91-8.12-4.39-10.61a15.23,15.23,0,0,0-10.61-4.39c-3.88.17-7.9,1.45-10.6,4.39l-2.35,3a14.91,14.91,0,0,0-2.05,7.57Z" transform="translate(-97.12 -136.87)"/><path class="cls-3" d="M175.44,271.82c.54,10.06-.48,20.11-.29,30.17.23,12.2,2.37,24.24,8.35,35,5.18,9.33,12.83,17.21,20.57,24.44,8.1,7.56,16.81,14.86,26.58,20.17,11.1,6,23.26,9.83,35.32,13.41a15,15,0,0,0,18.46-10.47c.87-3.84.68-8.15-1.52-11.56a15.85,15.85,0,0,0-9-6.89,231.09,231.09,0,0,1-23.34-7.88l3.59,1.51a93,93,0,0,1-20.56-12l3,2.34a174.86,174.86,0,0,1-13.31-11.62A113,113,0,0,1,212,326.15l2.35,3a53.79,53.79,0,0,1-7.1-11.88l1.51,3.58a53,53,0,0,1-3.42-13.17l.54,4c-1.7-13.25.32-26.6-.39-39.89a15.81,15.81,0,0,0-4.39-10.6,15.29,15.29,0,0,0-10.61-4.4c-3.88.18-7.9,1.45-10.61,4.4s-4.6,6.62-4.39,10.6Z" transform="translate(-97.12 -136.87)"/><path class="cls-3" d="M198.94,249.42a47.25,47.25,0,0,0-7.08,10.09,83,83,0,0,0-4.71,11.57A178.7,178.7,0,0,0,182,290a90.65,90.65,0,0,0-1.9,13.92,62.69,62.69,0,0,0,1,13.25c1,6.13,3.13,12,5.42,17.72,2.61,6.53,5.42,13,7.11,19.84a15,15,0,0,0,18.45,10.48c3.63-1.17,7.13-3.42,9-6.89a15.92,15.92,0,0,0,1.51-11.56c-3.25-13.19-10.77-25.06-12.68-38.61l.53,4a49.84,49.84,0,0,1,.12-13l-.53,4a117.5,117.5,0,0,1,3.66-15.91,117.22,117.22,0,0,1,4.44-13.55l-1.51,3.58a37.29,37.29,0,0,1,4.62-8.09l-2.35,3c.42-.53.86-1.05,1.31-1.56A15.81,15.81,0,0,0,224.54,260a15.24,15.24,0,0,0-4.39-10.6c-2.86-2.63-6.61-4.58-10.61-4.4-3.84.18-8,1.43-10.6,4.4Z" transform="translate(-97.12 -136.87)"/><path class="cls-3" d="M292.33,378.3a30.93,30.93,0,0,0-5.89-1,13.07,13.07,0,0,0-2.34,0,28.14,28.14,0,0,0-8.19,1.6,30,30,0,0,0-7.2,3.62,39.09,39.09,0,0,0-6.37,5.52c-5.44,6.24-9.62,13.56-13.43,20.87-1.78,3.4-2.74,7.78-1.51,11.56a15.52,15.52,0,0,0,5.37,7.79,14.3,14.3,0,0,0,9.09,3.22l4-.54a15,15,0,0,0,6.62-3.85l17.75-14.66c3.46-2.85,7.3-5.59,9.31-9.76a18.55,18.55,0,0,0,2.34-8.75,18.1,18.1,0,0,0-2.36-8.91c-1.89-3.25-4.63-5.2-7.6-7.36l3,2.34a5.7,5.7,0,0,1-.85-.78l2.35,3a2.27,2.27,0,0,1-.3-.46l1.51,3.58a2,2,0,0,1-.17-.53l-14.46,19c.73,0,1.45.06,2.17.14l-4-.53a19.65,19.65,0,0,1,4.63,1.22l-3.59-1.52c.68.29,1.33.6,2,.95a15.73,15.73,0,0,0,11.56,1.51,15.29,15.29,0,0,0,9-6.89c1.84-3.48,2.76-7.7,1.51-11.56a15.26,15.26,0,0,0-6.89-9A35.18,35.18,0,0,0,283,373.82a14.57,14.57,0,0,0-11.78,5.91,14.9,14.9,0,0,0-2.69,13.07,17.14,17.14,0,0,0,4.72,8c1.46,1.35,3.15,2.41,4.72,3.62l-3-2.35a5.49,5.49,0,0,1,.83.84l-2.35-3a2.63,2.63,0,0,1,.31.57l-1.51-3.58a2.6,2.6,0,0,1,.15.67l-.54-4a3.1,3.1,0,0,1,0,.68l.53-4a3.67,3.67,0,0,1-.18.67l1.51-3.58a7.35,7.35,0,0,1-.74,1.31l2.35-3a32.55,32.55,0,0,1-5.35,4.8l-6.3,5.2-12.41,10.24L274.81,424a112.77,112.77,0,0,1,9.89-16.36l-2.35,3a27.48,27.48,0,0,1,4.37-4.52l-3,2.35a18,18,0,0,1,3.78-2.24l-3.58,1.52a15.7,15.7,0,0,1,3.42-1l-4,.53a13.57,13.57,0,0,1,3.12,0l-4-.54a13.88,13.88,0,0,1,1.91.43,15,15,0,0,0,18.45-10.48c.87-3.84.69-8.15-1.51-11.55a16.08,16.08,0,0,0-9-6.9Z" transform="translate(-97.12 -136.87)"/><path class="cls-3" d="M349.66,397c12,14.34,26.88,25.92,39.84,39.37A141.9,141.9,0,0,1,399.65,448l-2.35-3a86,86,0,0,1,11.1,18.65L432,445.47a225.56,225.56,0,0,0-20.71-18.37l2.35,3c-7.74-15.71-21.05-27.67-31.67-41.33l2.34,3a92.77,92.77,0,0,1-7.74-11.59,15,15,0,0,0-25.9,0,6.46,6.46,0,0,0-.79,1.34,23.33,23.33,0,0,0-1.82,4.63,22.86,22.86,0,0,0,0,10.31,10,10,0,0,0,.39,1.35,23.77,23.77,0,0,0,2,4.56,22.28,22.28,0,0,0,7.13,7.13,14.94,14.94,0,0,0,7.57,2.05,11.37,11.37,0,0,0,5.78-1.3,11.14,11.14,0,0,0,4.83-3.1,15.05,15.05,0,0,0,3.86-6.62,15.72,15.72,0,0,0,.89-6.06,23.63,23.63,0,0,0-.92-5.94,36,36,0,0,1-1.47-4.95l.54,4a7.9,7.9,0,0,1,0-1.46l-.53,4a7.54,7.54,0,0,1,.43-1.68L377,392.07a9.71,9.71,0,0,1,1-1.83l-2.34,3a17.62,17.62,0,0,1,3.19-3.09l-3,2.35c5.44-4.11,11.29-7.76,16.92-11.6l17.55-12a16,16,0,0,0,6.89-9,15.3,15.3,0,0,0-1.51-11.56c-2.06-3.2-5.14-6-9-6.89s-8.24-.75-11.56,1.51l-21.64,14.75-10.81,7.37a56.93,56.93,0,0,0-6.64,5.12,14,14,0,0,0-1.6,1.76,24.2,24.2,0,0,0-3.4,4.85,22.71,22.71,0,0,0-2.49,9.43,9.12,9.12,0,0,0,0,1.28,35.4,35.4,0,0,0,.7,4.91c.44,1.91,1.38,3.67,1.66,5.63l-.54-4a6.55,6.55,0,0,1,0,1.4l.54-4a6.4,6.4,0,0,1-.31,1l22-9a3.54,3.54,0,0,1-.51-.35l3,2.34a7.23,7.23,0,0,1-.87-.88l2.34,3a7.86,7.86,0,0,1-.79-1.34l1.51,3.58a7.58,7.58,0,0,1-.49-1.81l.53,4a8.24,8.24,0,0,1,0-1.57l-.54,4a7.67,7.67,0,0,1,.38-1.5l-1.51,3.58a6.65,6.65,0,0,1,.79-1.34h-25.9c8,14.51,20.39,25.86,30.45,38.87l-2.34-3a95,95,0,0,1,5.78,8.32q1.31,2.12,2.45,4.32a14.28,14.28,0,0,0,3.62,4.9c.8.62,1.6,1.26,2.39,1.9a224.73,224.73,0,0,1,17.76,16,15.25,15.25,0,0,0,10.61,4.39l4-.53a11.34,11.34,0,0,0,5.1-2.69,14.32,14.32,0,0,0,5.38-7.79l.53-4a14.91,14.91,0,0,0-2.05-7.57c-5.15-12.11-13.54-22.75-22.54-32.24-8.46-8.92-17.79-17-26.65-25.47a192,192,0,0,1-14.23-15c-2.34-2.79-7.1-4.39-10.61-4.39a15.28,15.28,0,0,0-10.61,4.39c-2.62,2.86-4.57,6.62-4.39,10.61l.54,4a15.09,15.09,0,0,0,3.85,6.62Z" transform="translate(-97.12 -136.87)"/><path class="cls-3" d="M382.21,423.45a89.3,89.3,0,0,0,2.65,14.24,91.69,91.69,0,0,0,5.25,13.36,67.25,67.25,0,0,0,5.46,9.4,89.83,89.83,0,0,0,9,11.12,87.39,87.39,0,0,0,11,9.36,66.51,66.51,0,0,0,9.5,5.84,80,80,0,0,0,24.41,8.09c6.63,1,13.23,1.84,19.86.28a14,14,0,0,0,1.66-.54,27.1,27.1,0,0,0,4.61-2.05,20.68,20.68,0,0,0,4.79-3.9,23.73,23.73,0,0,0,4.84-8.3,14.81,14.81,0,0,0,.53-3,13,13,0,0,0,.27-3.39,16.64,16.64,0,0,0-4.39-10.6,15.2,15.2,0,0,0-10.61-4.4c-3.88.18-7.9,1.45-10.61,4.4-2.5,2.73-4.85,6.74-4.39,10.6a5.47,5.47,0,0,1,0,1.4l.54-4a6.89,6.89,0,0,1-.4,1.34l1.51-3.59a7.87,7.87,0,0,1-.73,1.22l2.34-3a9.6,9.6,0,0,1-1.27,1.28l3-2.35a9,9,0,0,1-1.62.95l3.59-1.51a12.78,12.78,0,0,1-3,.77l4-.54a42.27,42.27,0,0,1-10.17-.44l4,.53a68.24,68.24,0,0,1-17.11-4.72l3.58,1.52a68.3,68.3,0,0,1-14.62-8.52l3,2.35A65.73,65.73,0,0,1,421,444.87l2.34,3a68,68,0,0,1-8.52-14.58l1.51,3.59a66,66,0,0,1-4.59-16.66l.53,4c0-.27-.07-.53-.1-.8a16.7,16.7,0,0,0-4.39-10.61,15.23,15.23,0,0,0-10.61-4.39c-3.88.17-7.9,1.45-10.61,4.39-2.49,2.72-4.87,6.76-4.39,10.61Z" transform="translate(-97.12 -136.87)"/><path class="cls-3" d="M348.31,386a5,5,0,1,0-5-5,5.05,5.05,0,0,0,5,5Z" transform="translate(-97.12 -136.87)"/><path class="cls-3" d="M345.62,390.72a5,5,0,1,0-5-5,5.05,5.05,0,0,0,5,5Z" transform="translate(-97.12 -136.87)"/><path class="cls-3" d="M303.25,388.71a5,5,0,1,0-5-5,5.06,5.06,0,0,0,5,5Z" transform="translate(-97.12 -136.87)"/><path class="cls-3" d="M219.56,258a5.64,5.64,0,0,1,.21.76c-.09,0,0-1-.07-.37a5.61,5.61,0,0,0,0,.58c0,.84,0-.19,0-.17a5.92,5.92,0,0,1-.32,1.15c-.28.88,0,.07,0-.08-.13.23-.25.48-.38.71s-.29.46-.43.69c0,.07-.44.63-.08.14s-.08.08-.14.15l-.58.65c-.7.74-1.44,1.44-2.19,2.13a32.69,32.69,0,0,0-7.8,10.35,128.18,128.18,0,0,0-4.74,12.69q-2.24,6.61-4.27,13.28-2.28,7.5-4.3,15.06a5,5,0,1,0,9.64,2.66q3.67-13.71,8.18-27.18c.75-2.24,1.51-4.46,2.29-6.69.33-.94.67-1.87,1-2.81.17-.46.36-.93.54-1.39-.38.95.22-.48.35-.76.42-.9.87-1.78,1.37-2.64.25-.42.51-.84.79-1.25.11-.18.23-.35.35-.52.75-1.09-.39.39.12-.17,1.42-1.58,3-3,4.48-4.45,4.06-3.89,7.3-9.39,5.52-15.18a5,5,0,0,0-9.64,2.66Z" transform="translate(-97.12 -136.87)"/><path class="cls-3" d="M217,267.26c-2,3.67-4.57,7-6.9,10.43a46.64,46.64,0,0,0-5.76,11.75c-2.61,8.05-3,16.72-2.87,25.12a5,5,0,0,0,10,0,111.61,111.61,0,0,1,.37-11.85c0-.51.1-1,.15-1.53,0-.23.26-1.8.08-.62.14-.93.29-1.86.47-2.79A48,48,0,0,1,214,292.1c.31-1,.66-1.9,1-2.84-.33.82,0-.09.18-.39s.37-.79.57-1.18a49,49,0,0,1,3.22-5.33,118.07,118.07,0,0,0,6.64-10.06,5,5,0,1,0-8.63-5Z" transform="translate(-97.12 -136.87)"/><path class="cls-3" d="M273.36,376.64a225.83,225.83,0,0,0,30.77,7.48c2.57.44,5.51-.68,6.15-3.49.55-2.42-.74-5.68-3.49-6.15A228.82,228.82,0,0,1,276,367a5,5,0,0,0-6.15,3.49,5.1,5.1,0,0,0,3.49,6.15Z" transform="translate(-97.12 -136.87)"/><path class="cls-3" d="M298.89,230.2c.19.11.37.23.56.33.91.46-.54-.59-.13-.12a6,6,0,0,0,.45.42c.28.26.26.61.11.08s-.09-.15.07.11.27.44.39.67.25.56.28.56c-.2,0-.39-1.14-.1-.16.13.47.24.94.36,1.41.18.72-.24-.18,0-.36a5.82,5.82,0,0,0,.07.66c0,.44,0,.89,0,1.34l0,.67c0,.16,0,.33,0,.5,0,.39,0,.22.07-.5a17.19,17.19,0,0,1-.61,2.59c-.08.24-.17.47-.25.71-.44,1.29.28-.55-.07.2-.28.58-.54,1.17-.84,1.74-1.15,2.24-2.5,4.37-3.7,6.59-2.3,4.24-4,8.91-3.56,13.82.55,5.57,3.41,10.44,8.82,12.47s11.46,0,15.8-3.28a68.38,68.38,0,0,0,6-5.37c.86-.84,1.73-1.66,2.64-2.44.41-.35.83-.69,1.25-1,.57-.46-.65.46,0,.05.33-.23.65-.48,1-.71a48.9,48.9,0,0,1,6-3.59c1-.48,1.94-.93,2.92-1.37s.08,0-.08,0l.75-.31c.62-.25,1.25-.49,1.89-.73a121.78,121.78,0,0,1,13.76-4c2.52-.61,5.06-1.17,7.58-1.75a18,18,0,0,0,8.08-3.69c5.68-5,3.25-12.82-.07-18.38a5,5,0,1,0-8.63,5c.56.95,1.07,1.92,1.56,2.91.11.22.27.85,0-.05.08.26.19.51.27.77s.16.52.23.78.23,1.26.13.5c-.13-1,0,1.6,0,.56,0-.72-.07.07-.09.25-.05.63.46-.68.09-.14-.1.15-.53.88-.12.29s0-.06-.07,0c-.56.71,0-.12.2-.09a9.55,9.55,0,0,0-.91.57l-.65.31c0-.09,1.14-.38.17-.1-.48.15-.95.31-1.43.44-1,.26-2,.48-3,.71-2.2.5-4.4,1-6.6,1.53-8.84,2.16-17.84,4.89-25.55,9.86-4.14,2.66-7.51,6-11.1,9.36-.42.38-.84.76-1.27,1.12l-.65.54c.15-.12.77-.54,0,0a25.08,25.08,0,0,1-2.82,1.66c1-.5-.36.11-.7.21a5.75,5.75,0,0,1-1.57.35c1.26,0-.29,0-.63,0a4.14,4.14,0,0,1-.78,0c1.09.38.3,0,0-.07s-1-.26-.32-.06-.12-.07-.29-.17-.37-.26-.57-.35c-.57-.27.65.67.26.19a6.14,6.14,0,0,0-.45-.43c-.2-.19-.4-.68-.11-.08s.05.06-.06-.12-.27-.44-.39-.67a3.17,3.17,0,0,0-.27-.56c.12.06.38,1.14.16.31-.1-.41-.24-.82-.33-1.24a5.49,5.49,0,0,0-.12-.63c.08,0,.1,1.28.06.35,0-.5-.05-1,0-1.5s0-.78.06-1.17c.06-.89,0,.22-.05.33a4.54,4.54,0,0,0,.12-.66,18.88,18.88,0,0,1,.88-2.95c-.37,1,.25-.53.36-.77q.33-.67.69-1.35c.57-1.08,1.19-2.13,1.8-3.19,2.71-4.68,5.24-9.52,5.24-15.07,0-5.25-2.26-10.61-7-13.23a5,5,0,1,0-5.05,8.63Z" transform="translate(-97.12 -136.87)"/><path class="cls-3" d="M305,264.68c5.55.3,10.64-2.39,14.93-5.66,2.3-1.75,4.51-3.6,6.74-5.43a48.82,48.82,0,0,0,5.73-4.91c2.64-3,4.24-7.38,1.19-10.73-2.12-2.34-6.1-2.31-9-2.77l-3.83-.61a36.09,36.09,0,0,0-5.23-.78,6.55,6.55,0,0,0-5.7,3,27.09,27.09,0,0,0-1.85,4.4q-3.5,9.14-6.46,18.45a5,5,0,0,0,2.89,5.9c2.07.87,5.25.24,6.25-2.05a47.58,47.58,0,0,1,3.59-7.13c.18-.28.38-.56.57-.84.3-.43.23-.27-.05.05.45-.5.88-1,1.37-1.49.23-.23.51-.44.74-.67.42-.42-.74.49,0,0,.52-.36,1-.71,1.58-1,4.54-2.78,14.7-7.14,10.78-14.07a5,5,0,0,0-8.64,5.05l.14.23-.69-2.52c0-.11.57-2.3.81-2.19,0,0-.59.6-.66.67s-.38.32-.56.49c-.43.41.75-.51,0,0s-1.79,1.17-2.73,1.7a52.69,52.69,0,0,0-6.17,3.87c-4.25,3.28-6.63,8-8.73,12.86l9.14,3.85q2.11-6.63,4.5-13.19,1.21-3.33,2.49-6.63l.27-.69.09-.22a1.74,1.74,0,0,1-1.7,1.36c-1.31.72-1.09.92-2.07.7.31.07.65.11,1,.16l3.36.53,6.94,1.11c.52.09,1,.19,1.54.26,2.09.27-2.06,3.51-2.15-4.27,0,.18-.31.62,0,.09s0,0-.07,0c-.62.81.15-.11.13-.13a9.48,9.48,0,0,1-1,1.06c-3.13,2.86-6.57,5.46-9.87,8.13l.18-.14c-.28.21-.55.42-.84.62-.45.33-.91.65-1.37,1a26.26,26.26,0,0,1-2.86,1.66l-.55.26c.94-.48.13-.06-.11,0-.51.18-1,.34-1.53.47l-.58.13c-1.2.27.64,0-.06,0s-1.2.05-1.81,0a5,5,0,0,0-5,5,5.11,5.11,0,0,0,5,5Z" transform="translate(-97.12 -136.87)"/><path class="cls-3" d="M289.44,211.83A65.31,65.31,0,0,0,267.3,219,126.83,126.83,0,0,0,249,231.12c-11.21,8.65-22,18-30.22,29.64a63.33,63.33,0,0,0-9,18.44c-2.2,7.52-3.06,16.09-.34,23.59,2.64,7.32,7.42,13.67,11.19,20.42.9,1.62,1.77,3.26,2.56,4.94.18.38.36.77.53,1.16s.49,1.17.17.36c.33.85.67,1.7,1,2.56a38.55,38.55,0,0,1,1.42,5.26c.08.42.14.84.22,1.25.1.58,0-.22,0-.28,0,.21,0,.42.07.63.09.88.14,1.77.15,2.65s0,1.75-.05,2.62a9,9,0,0,1-.24,2.6s.14-.92,0-.33l-.09.6c-.06.4-.13.8-.2,1.2-.16.86-.34,1.73-.53,2.59-.77,3.41-1.79,6.76-2.79,10.1-2,6.84-4.11,13.9-4,21.11a40.43,40.43,0,0,0,.62,6.11c.44,2.58,3.76,4.26,6.15,3.49,2.79-.9,4-3.38,3.49-6.15,0-.23-.36-1.53,0-.27a7.87,7.87,0,0,1-.12-1.19c-.06-.8-.09-1.59-.09-2.39s0-1.59.08-2.38c0-.4.05-.79.09-1.19,0-.25.16-2,.07-.65.22-3.3,1.34-6.71,2.25-9.88,2-6.88,4.23-13.63,5.09-20.77a41.59,41.59,0,0,0-3.53-21.54c-2.81-6.59-6.79-12.57-10.42-18.72-.93-1.58-1.83-3.17-2.62-4.82-.2-.41-.39-.83-.57-1.25.42,1-.14-.4-.17-.49a25.07,25.07,0,0,1-.89-3.07c-.1-.44-.17-.89-.26-1.34-.26-1.44,0,1-.05-.47,0-.92-.12-1.82-.12-2.74s0-1.83.11-2.74c0-.46.08-.91.13-1.37s.07-.6,0,0c0-.28.09-.56.14-.84a48.92,48.92,0,0,1,2.38-9c.26-.72.53-1.44.84-2.15-.52,1.18,0,0,.11-.21l.48-1.05q1.08-2.26,2.34-4.43,1.17-2,2.48-4c.44-.64.88-1.28,1.34-1.91.23-.32.46-.64.7-.95s1.2-1.54.41-.55c2.06-2.59,4.22-5.08,6.52-7.46a157.22,157.22,0,0,1,14.53-13.13q2.22-1.78,4.47-3.53l.35-.27,1.37-1,2.43-1.79A119.84,119.84,0,0,1,269,229.5c1.72-1,3.48-1.95,5.27-2.83.89-.44,1.8-.84,2.7-1.25,1.29-.58-.95.36.37-.16.52-.2,1-.42,1.57-.61a56.65,56.65,0,0,1,5.63-1.8c1-.24,1.92-.47,2.89-.66l1.25-.23c.23,0,2-.29.78-.13,2.59-.33,5.13-2.06,5-5-.11-2.42-2.22-5.36-5-5Z" transform="translate(-97.12 -136.87)"/><path class="cls-3" d="M226.94,257.51l0,.35c-.06.56,0,.47.06-.29.08.11-.17.87-.2,1-.13.55-.32,1.07-.5,1.61-.36,1.11.52-1,0,.06-.16.3-.3.61-.47.91-.33.6-.7,1.19-1.08,1.76l-.61.86c-.52.72.06-.06.13-.17a14.66,14.66,0,0,1-1.37,1.67c-.92,1.06-1.87,2.09-2.81,3.13a56.52,56.52,0,0,0-5.75,7.16,34.32,34.32,0,0,0-4,9.19,46.86,46.86,0,0,0-.75,19.93c1.07,6.81,3.75,13.24,5.34,19.92.48,2,.9,4.06,1.27,6.11.17.94.33,1.89.48,2.84l.21,1.42.08.58c.55,4.13.9,8.28,1.16,12.44l9.82-1.33-5.09-22.06c-.78-3.39-1.29-7-2.6-10.27-1.68-4.15-5.23-7.82-10.06-7.54-2.6.14-5.12,2.19-5,5,.12,2.58,2.21,5.15,5,5,1.08-.07-.56-.29,0-.09s-.85-.42,0,0-.5-.59.2.16c.5.54.13-.07-.06-.11.16,0,.54.94.61,1.07-.32-.6-.14-.35,0,.14.21.65.38,1.32.54,2,.77,3.23,1.5,6.48,2.25,9.71l4.54,19.67a5,5,0,0,0,5.49,3.58A5,5,0,0,0,228,348a165.66,165.66,0,0,0-2.78-22.53c-1.42-7-4.08-13.66-5.59-20.64-.14-.66-.27-1.33-.39-2-.07-.4-.13-.81-.19-1.21-.22-1.31.06.74,0-.08-.14-1.56-.29-3.11-.31-4.68a41.46,41.46,0,0,1,.16-4.46c0-.4.06-.81.13-1.21-.22,1.15,0,.23,0-.06.14-.86.31-1.71.51-2.56a37.57,37.57,0,0,1,1.32-4.18c.08-.23.4-.85-.05.09.17-.36.33-.73.51-1.08.35-.72.73-1.42,1.14-2.11s.85-1.33,1.31-2c0-.05.76-1,.25-.35s.25-.29.29-.34c.92-1.13,1.9-2.22,2.88-3.3,4.72-5.19,9.28-10.5,9.71-17.83a5,5,0,0,0-5-5,5.11,5.11,0,0,0-5,5Z" transform="translate(-97.12 -136.87)"/><path class="cls-3" d="M240.39,353.16a47.76,47.76,0,0,0-.57-19.88,48.66,48.66,0,0,0-8.31-17.1c-1.8-2.45-3.7-4.82-5.44-7.3-.83-1.18-1.62-2.39-2.34-3.63-.36-.62-.7-1.24-1-1.88-.19-.37-.36-.76-.55-1.13-.48-1,.26.74-.16-.35a39.64,39.64,0,0,1-1.32-4c-.18-.67-.34-1.36-.48-2-.09-.41-.16-.83-.23-1.24s-.31-1.51-.07-.33a21.85,21.85,0,0,1-.26-4.2,21.53,21.53,0,0,1,.27-4.61c-.27,1.23,0-.13.07-.33.07-.41.15-.83.24-1.24.17-.82.37-1.63.6-2.44s.5-1.61.79-2.4c0,0,.46-1.21.17-.47s.32-.68.38-.8a20.9,20.9,0,0,1,1.13-2c.14-.22.29-.42.43-.64.32-.45.29-.41-.1.1.16-.2.32-.39.49-.58s.34-.37.52-.54,1.26-1.41.4-.44a6.06,6.06,0,0,1,1.95-1.14c2.37-1.12,3.17-4.71,1.79-6.84a5.14,5.14,0,0,0-6.84-1.8c-6,2.85-9.37,9.55-11,15.72a41.62,41.62,0,0,0-.23,19.72c1.47,6.41,4.71,12,8.62,17.21,1.86,2.48,3.79,4.92,5.52,7.51a45,45,0,0,1,2.42,4.07c.33.63.62,1.28.93,1.93.6,1.23-.21-.6.09.18.19.47.37.93.55,1.4a40.39,40.39,0,0,1,1.46,4.93c.2.83.36,1.67.51,2.52,0,.18.21,1.6.06.37.06.42.1.85.14,1.28a39.92,39.92,0,0,1,.17,5.13c0,.86-.08,1.72-.16,2.57,0,.43-.09.85-.15,1.28.17-1.26-.11.57-.14.79-.46,2.56.69,5.51,3.49,6.15,2.43.55,5.66-.74,6.15-3.5Z" transform="translate(-97.12 -136.87)"/></g><g id="Layer_1" data-name="Layer 1"><path class="cls-3" d="M209.74,289.06a57.56,57.56,0,0,0,15.5,59.13c8.18,7.6,18.13,12.87,28.35,17.17a233.19,233.19,0,0,0,34.23,11.47c12.07,3,24.59,4.8,37.05,4.16a84.08,84.08,0,0,0,32.47-8.13,82.94,82.94,0,0,0,40.58-43.53c8.27-20.81,7.12-45-2.39-65.14a75.57,75.57,0,0,0-3.88-7.2c-1.67-2.74-6-.23-4.32,2.53a78.06,78.06,0,0,1,8.37,60.73c-5.18,18.72-17.94,34.85-34.52,44.84a77,77,0,0,1-28.38,10.14c-11.61,1.73-23.57.88-35.05-1.32a214.58,214.58,0,0,1-34.47-10.07c-9.83-3.66-19.56-7.92-28.15-14a54.19,54.19,0,0,1-18.93-23,53,53,0,0,1-3.43-29.28,53.82,53.82,0,0,1,1.79-7.18c1-3.07-3.83-4.38-4.82-1.33Z" transform="translate(-97.12 -136.87)"/><path class="cls-3" d="M306.22,381.22c1.82,12.87-8.92,23.34-18.52,30.06a2.56,2.56,0,0,0-.9,3.42,2.53,2.53,0,0,0,3.42.9c5.93-4.15,11.48-9,15.62-15a29,29,0,0,0,5.2-20.76,2.51,2.51,0,0,0-3.08-1.74,2.55,2.55,0,0,0-1.74,3.07Z" transform="translate(-97.12 -136.87)"/><path class="cls-3" d="M332.65,381c3.21,0,3.22-5,0-5s-3.23,5,0,5Z" transform="translate(-97.12 -136.87)"/><path class="cls-3" d="M200.41,279.67c10.55,2.41,21-2.49,28.82-9.33,8.19-7.14,14.2-16.39,22.4-23.53a71,71,0,0,1,40-16.86,67.9,67.9,0,0,1,7.27-.22,17.58,17.58,0,0,1,6.48.94,4.2,4.2,0,0,1,2.68,4.76c-.31,3-1.63,5.93-2.55,8.73L299.11,264a2.52,2.52,0,0,0,3.08,3.08,215.92,215.92,0,0,0,26.4-9.76,250.48,250.48,0,0,0,24.46-12.81c7.68-4.47,15.56-8.94,24.38-10.66,7.38-1.43,16-.86,22.14,4,5.47,4.34,9.2,12.52,6.18,19.31a2.57,2.57,0,0,0,.9,3.42,2.53,2.53,0,0,0,3.42-.9c3.3-7.43,1.37-15.67-3.56-21.89-5.36-6.77-14.05-9.67-22.48-9.59-9.54.1-18.48,3.72-26.77,8.2-8.55,4.62-16.75,9.79-25.53,14a206.4,206.4,0,0,1-30.87,11.88l3.07,3.07,5.83-18c.95-2.93,2-5.85,2.8-8.83.71-2.76.91-5.69-.42-8.3-2.31-4.59-8-5.38-12.59-5.52A73.72,73.72,0,0,0,283.79,226a75,75,0,0,0-40.57,21.93c-3.9,4.07-7.43,8.47-11.23,12.63-7.52,8.22-18.26,17-30.25,14.27-3.14-.71-4.47,4.11-1.33,4.83Z" transform="translate(-97.12 -136.87)"/><path class="cls-3" d="M270.86,427.89q-8.49,21.84-15.57,44.21c-1,3.07,3.84,4.39,4.82,1.33q7.13-22.33,15.57-44.21a2.52,2.52,0,0,0-1.74-3.08,2.56,2.56,0,0,0-3.08,1.75Z" transform="translate(-97.12 -136.87)"/><path class="cls-3" d="M274.61,144.2c-21.57-1.92-43.76-1.25-64.64,5-18.53,5.52-35.68,15.61-48.33,30.38a82.08,82.08,0,0,0-14.09,23.14,72.59,72.59,0,0,0-4.85,27.94c.33,20.57,7.3,40.38,7.78,60.92.23,9.55-1.2,19.14-5.53,27.74-3.73,7.44-9.07,13.87-14.69,19.94-11.39,12.31-24.75,23.95-30.45,40.22-6.89,19.67.29,41.7,12,58a92.88,92.88,0,0,0,43.76,33,91.18,91.18,0,0,0,82.85-12.13c8-5.81,14.49-13.27,22.05-19.6a42.91,42.91,0,0,1,11.72-7.25,2.58,2.58,0,0,0,1.74-3.08,2.51,2.51,0,0,0-3.07-1.74c-9.06,3.53-16,10.21-22.92,16.86s-14.21,12.66-22.81,17.15a84.71,84.71,0,0,1-101.26-16.5c-13.18-13.64-23-32.72-21.61-52.09,1.26-17.52,13.55-30.5,25.1-42.51,5.79-6,11.58-12,16.47-18.84a59.59,59.59,0,0,0,10.55-24.16c3.55-19.74-2.25-39.54-5.16-59-1.45-9.7-2.3-19.75-.74-29.49a68.33,68.33,0,0,1,9-24.38c9.22-15.35,23.64-27.24,39.88-34.58,19.23-8.69,40.7-11.29,61.63-10.81,5.2.12,10.39.44,15.57.9,3.21.29,3.19-4.72,0-5Z" transform="translate(-97.12 -136.87)"/><path class="cls-3" d="M278.71,150a221.66,221.66,0,0,1,68.52-7.9,229,229,0,0,1,66.57,13c18.19,6.41,37,14.63,49.79,29.64s14.67,35.6,11.41,54.26c-3.78,21.61-14.06,41.21-22,61.42-7.61,19.26-15.4,42.43-7.25,62.78,3.71,9.3,10.63,16.57,18,23.1,8.26,7.29,16.73,14.4,23.91,22.8C500.4,424,509.51,444.36,504,464.16a37.1,37.1,0,0,1-13.23,20A35.08,35.08,0,0,1,468,490.88c-19.7-1-35.62-15.26-50.56-26.58-4.38-3.32-8.83-6.54-13.5-9.45-2.73-1.71-5.25,2.61-2.52,4.31,17.57,11,32.33,27,52.28,33.89,8.74,3,18.32,3.92,27.29,1.38a39.48,39.48,0,0,0,20.49-14c12.5-16.3,10.85-38.5,2.21-56.12a97.61,97.61,0,0,0-18.9-25.63c-7.75-7.78-16.61-14.38-24.24-22.27a49.94,49.94,0,0,1-8.89-12,41.53,41.53,0,0,1-4.12-15.18c-1-11.23,1.54-22.41,5-33,6.89-21.36,17.92-41.18,24.2-62.75,5.61-19.29,7.25-40.95-1.42-59.62-8.57-18.44-26.92-29.91-45-37.64a239.22,239.22,0,0,0-65.54-17.66,226.73,226.73,0,0,0-70.42,2.62q-8.58,1.68-17,4c-3.09.86-1.78,5.68,1.33,4.82Z" transform="translate(-97.12 -136.87)"/><path class="cls-3" d="M291.23,408.94c-3.54,3.38-7.66,6.05-11.38,9.21-3.91,3.33-6.92,7.4-9.85,11.58a2.52,2.52,0,0,0,.89,3.42,2.55,2.55,0,0,0,3.42-.9,54.48,54.48,0,0,1,9.35-10.8c3.65-3.05,7.65-5.67,11.1-9,2.33-2.23-1.21-5.76-3.53-3.54Z" transform="translate(-97.12 -136.87)"/><path class="cls-3" d="M338.92,376.44c-.46,15.88,9.82,29.31,20.39,40.08,5.48,5.59,11.25,10.9,16.34,16.85a59.26,59.26,0,0,1,11.5,19.75,55.15,55.15,0,0,1,2.24,25.72,2.58,2.58,0,0,0,1.75,3.07,2.5,2.5,0,0,0,3.07-1.74A60.68,60.68,0,0,0,383,434.64c-9.35-12.55-22.49-21.78-31.27-34.79-4.69-7-8.08-14.88-7.83-23.41.09-3.22-4.91-3.22-5,0Z" transform="translate(-97.12 -136.87)"/><path class="cls-3" d="M256.48,475.81a242.6,242.6,0,0,0,82.69,21.95c9.13.76,18.54,1.4,27.63-.14a36.11,36.11,0,0,0,14.06-5.34c4.28-2.85,7.86-6.55,11.38-10.27,2.21-2.33-1.32-5.87-3.54-3.53a69.33,69.33,0,0,1-9.3,8.75A31.18,31.18,0,0,1,368,492.31c-8.46,1.94-17.48,1.28-26.06.66A237.42,237.42,0,0,1,288,482.7a233,233,0,0,1-29-11.21,2.57,2.57,0,0,0-3.42.9,2.51,2.51,0,0,0,.89,3.42Z" transform="translate(-97.12 -136.87)"/><path class="cls-3" d="M404.75,455.45c-.27-.06-.54-.14-.81-.22s-.17-.1,0,0l-.37-.19a14.5,14.5,0,0,1-1.44-.91,35.65,35.65,0,0,0-3-2,25.05,25.05,0,0,0-7.15-2.7,2.5,2.5,0,1,0-1.33,4.82,22.78,22.78,0,0,1,3.43,1l.41.16c.2.08.25.11,0,0,.28.12.55.24.81.37.57.27,1.13.57,1.68.89,2.11,1.24,3.95,3.06,6.42,3.57a2.5,2.5,0,1,0,1.33-4.82Z" transform="translate(-97.12 -136.87)"/><path class="cls-3" d="M259.58,303a20.09,20.09,0,0,1,7.92-6.33,29,29,0,0,1,11.34-3.27,13.6,13.6,0,0,1,13.4,10.85c.48,2.36,4.09,1.36,3.62-1a17.38,17.38,0,0,0-16.55-13.6c-4.58,0-9.25,1.67-13.35,3.61a23.91,23.91,0,0,0-9.62,7.85c-1.38,2,1.87,3.86,3.24,1.89Z" transform="translate(-97.12 -136.87)"/><path class="cls-3" d="M342.18,303a20.09,20.09,0,0,1,7.92-6.33,29.14,29.14,0,0,1,11.34-3.27,13.61,13.61,0,0,1,13.41,10.85c.47,2.36,4.09,1.36,3.61-1a17.36,17.36,0,0,0-16.54-13.6c-4.58,0-9.26,1.67-13.36,3.61a24,24,0,0,0-9.62,7.85c-1.37,2,1.87,3.86,3.24,1.89Z" transform="translate(-97.12 -136.87)"/><path class="cls-3" d="M317.16,326.55a12.71,12.71,0,0,0,4.56.07,5.63,5.63,0,0,0,3.46-2.32c1.62-2.38.79-5.35-.23-7.77a2.09,2.09,0,0,0-.86-1.12,2,2,0,0,0-1.44-.19,1.89,1.89,0,0,0-1.31,2.31,16.06,16.06,0,0,1,1,3c.05.24,0-.36,0,0,0,.12,0,.24,0,.37s0,.24,0,.37v.12c0,.21,0,.17,0-.13a3.81,3.81,0,0,0-.14.6,2.09,2.09,0,0,1-.08.23l.1-.22a3.24,3.24,0,0,0-.17.32c-.05.09-.11.17-.16.25l.1-.14-.12.14s-.21.22-.23.21c.21-.15.25-.19.14-.11l-.15.1-.32.18c-.3.16.27-.09.05,0a5,5,0,0,1-.66.19l-.36.07c.51-.12.1,0,0,0h-.74c-.3,0-.59,0-.89-.06l-.44-.06c-.41,0,.35.05-.09,0a2.06,2.06,0,0,0-1.44.19,2,2,0,0,0-.87,1.12,1.9,1.9,0,0,0,1.31,2.31Z" transform="translate(-97.12 -136.87)"/><path class="cls-3" d="M297.17,338.41c-1.09,2.75,1.81,4.82,3.82,6a26.47,26.47,0,0,0,7.08,2.95,26.79,26.79,0,0,0,15.21-.53c2.27-.77,1.3-4.39-1-3.61a23.14,23.14,0,0,1-11.73.86,23.38,23.38,0,0,1-5.66-1.82c-.7-.34-4.42-2.08-4.1-2.88a1.9,1.9,0,0,0-1.31-2.31,1.93,1.93,0,0,0-2.31,1.31Z" transform="translate(-97.12 -136.87)"/><path class="cls-3" d="M251.66,284.87a28.65,28.65,0,0,1,30.82-6.72,1.9,1.9,0,0,0,2.31-1.31,1.92,1.92,0,0,0-1.31-2.31A32.33,32.33,0,0,0,249,282.22c-1.67,1.74,1,4.4,2.65,2.65Z" transform="translate(-97.12 -136.87)"/><path class="cls-3" d="M377.92,280.44a32.32,32.32,0,0,0-34.47-7.69,1.94,1.94,0,0,0-1.31,2.31,1.9,1.9,0,0,0,2.31,1.31,28.65,28.65,0,0,1,30.82,6.72c1.67,1.75,4.32-.91,2.65-2.65Z" transform="translate(-97.12 -136.87)"/></g></svg>