<svg width="321" height="483" viewBox="0 0 321 483" fill="none" xmlns="http://www.w3.org/2000/svg">
<path fill-rule="evenodd" clip-rule="evenodd" d="M3.03116 457.045C10.1043 446.995 25.0126 445.332 34.5897 438.289C39.6346 434.426 44.9742 431.87 48.8949 426.669C42.6523 419.345 50.3722 402.176 51.9609 392.261C58.2564 366.302 64.0791 339.929 71.5667 314.001C58.5909 318.035 61.9719 293.882 63.8245 288.297C63.9527 287.53 64.9051 287.377 65.4885 287.135C65.3259 286.038 64.8763 285.797 66.2392 285.494C66.6954 278.924 64.8335 271.565 68.1978 265.76C71.9912 259.424 81.0574 254.122 88.5477 254.034C93.8092 233.167 94.7736 223.325 119.703 232.171C119.152 230.138 118.98 228.274 119.941 226.221C123.69 214.909 128.401 202.534 132.498 191.071C137.219 177.878 142.102 164.237 148.417 151.563C152.815 143.514 166.574 141.362 175.9 142.695C178.125 138.775 183.733 127.933 190.827 130.44C190.88 127.17 190.931 123.9 190.974 120.63C191.01 117.787 190.711 114.873 191.805 112.174C192.965 109.315 195.326 107.806 198.098 106.712C206.491 103.944 216.133 99.4963 224.99 102.248C232.727 105.774 231.826 119.035 235.571 126.244C240.819 118.474 249.768 123.683 251.661 132.016C273.218 140.598 291.747 130.85 293.127 164.533C291.938 170.673 290.927 176.433 291.491 182.633L292.143 182.699C297.66 212.545 299.782 244.538 298.448 277.798C298.716 290.893 303.495 303.116 308.116 314.934C311.515 323.622 315.025 332.608 316.689 341.826C318.535 349.504 325.317 386.427 310.235 374.169C309.657 416.175 272.172 421.553 238.417 412.275C202.582 404.835 162.241 406.974 139.876 370.985C132.289 383.95 129.671 391.955 127.767 405.513C125.677 415.445 122.642 426.724 117.063 433.294C121.867 441.928 124.219 452.446 123.988 459.301C123.897 461.994 125.13 463.241 123.357 464.914C114.855 472.945 95.8838 473.035 81.4578 476.609C71.5667 477.866 35.8012 482.676 30.3354 479.541C26.5233 480.605 30.956 470.699 27.1448 470.487C25.8404 470.497 25.6657 468.839 24.3269 468.899C15.7774 469.289 -2.65491 471.798 1.80103 464.914L3.03116 457.045Z" fill="white"/>
<path fill-rule="evenodd" clip-rule="evenodd" d="M5.15225 466.772C11.4552 468.132 17.9384 467.752 24.325 468.283C24.1188 467.749 23.945 467.203 23.8103 466.647C17.2109 465.849 10.2902 465.471 3.99832 463.293C3.85062 464.001 3.73911 464.717 3.69449 465.441C3.68893 465.538 3.70193 466.619 3.5477 466.419C3.73911 466.667 4.86609 466.718 5.15225 466.772ZM36.9969 450.434C48.4684 446.666 60.634 443.429 69.4771 434.685C69.4595 434.637 69.4418 434.588 69.4251 434.539C67.6059 434.024 65.6037 432.925 63.8524 434.12C58.2425 433.927 52.3846 431.963 48.4564 427.814C48.1879 427.87 47.9286 427.95 47.6759 428.05C40.1168 440.893 24.0138 443.341 12.2208 450.782C7.43967 453.562 -1.46475 461.047 9.92685 461.215C14.4246 461.897 18.9465 462.4 23.4814 462.749C23.8317 455.516 31.0024 452.348 36.9969 450.434ZM28.9789 468.958C31.2598 472.065 35.3784 473.293 39.1041 472.989C41.8449 472.617 44.2634 471.655 47.1129 471.862C68.7199 471.043 89.9673 466.571 111.037 462.006C129.909 458.469 115.49 444.553 117.062 433.293C114.399 434.916 111.379 436.101 108.27 436.97C104.265 448.104 93.3186 445.196 85.5681 439.861C82.5773 439.766 78.9353 440.224 76.4899 438.239C76.3468 438.356 76.1963 438.456 76.0412 438.54C74.1003 437.398 72.3239 436.202 70.2882 435.322C63.4092 446.939 48.7964 449.592 37.0722 454.076C29.8987 456.008 24.0249 461.545 28.9789 468.958ZM29.37 478.911C35.4342 480.722 41.8505 480.408 48.107 479.898C68.6604 478.119 89.0773 474.619 109.017 469.325C113.746 468.069 122.92 466.61 123.355 460.681C119.146 466.196 111.631 466.846 105.318 468.268C84.5953 472.326 63.3692 477.567 42.1757 476.556C37.7003 477.829 32.8216 476.823 29.0346 474.346C29.1554 475.867 29.2641 477.389 29.37 478.911ZM141.429 285.229C138.359 277.095 135.031 269.071 131.811 260.987C125.838 264.331 119.093 265.554 112.207 266.334C112.045 266.415 111.874 266.487 111.688 266.544C111.361 266.61 111.088 266.58 110.867 266.48C101.684 267.45 92.317 267.831 84.2386 271.583C81.1122 273.034 78.179 274.99 75.5236 277.683C72.6193 280.462 70.2789 283.816 68.7087 287.518C68.2182 288.661 67.958 289.847 67.1832 290.787C66.95 292.051 66.6861 293.304 66.5068 294.579C66.0543 299.564 65.4365 304.814 67.3625 309.596C68.5564 312.525 71.0036 310.17 72.6267 309.023C75.2663 307.181 77.6968 305.068 80.1208 302.957C87.5647 295.964 96.2648 290.019 106.707 289.036C117.98 287.47 130.196 285.515 141.429 285.229ZM145.946 285.246C146.566 286.826 147.173 288.411 147.772 289.998C150.734 289.49 157.039 288.296 159.62 286.935C158.7 286.967 157.789 286.488 157.556 285.391C157.453 284.906 157.291 284.452 157.165 283.978C155.609 278.913 154.282 273.746 152.085 268.89C149.936 263.763 147.379 258.781 145.425 253.578C142.112 253.369 136.879 257.476 134.513 259.15C138.734 267.651 142.482 276.37 145.932 285.208C145.996 285.208 146.063 285.208 146.127 285.211C146.068 285.223 146.006 285.234 145.946 285.246ZM165.461 284.647C182.451 283.586 199.67 284.704 216.465 281.694C219.648 281.154 222.615 280.179 225.371 278.849C233.387 274.981 239.615 268.112 244.202 260.249C260.774 235.328 279.008 210.574 287.164 181.375C291.997 167.243 292.938 146.119 276.046 140.038C268.554 137.245 259.506 137.416 253.058 132.349C253.787 135.028 254.197 137.831 254.573 140.312C255.207 144.358 255.831 148.546 255.316 152.638C255.312 152.674 255.307 152.709 255.3 152.743C256.146 155.046 253.484 157.22 250.872 156.994C245.363 156.868 242.661 150.254 237.139 150.052C235.123 149.979 233.92 151.18 232.685 152.61C229.697 156.076 226.771 159.609 223.161 162.45C222.904 162.651 222.56 162.406 222.706 162.098C224.529 158.207 227.086 154.762 229.621 151.305C234.878 142.919 241.953 146.778 247.934 151.877C249.1 152.721 250.283 153.406 251.483 153.107C251.404 152.819 251.382 152.486 251.433 152.115C251.878 148.831 251.442 145.37 250.989 142.113C249.954 136.035 250.262 128.107 244.393 124.427C241.831 122.98 238.734 122.797 236.241 124.439C236.699 125.559 237.244 126.82 237.323 128.005C237.823 127.652 238.161 127.762 238.253 128.526C236.311 134.245 233.131 139.5 230.434 144.894C228.327 148.941 226.209 152.983 224.048 157.002C223.409 158.246 222.87 159.563 221.626 160.253C221.624 160.265 221.622 160.278 221.62 160.289C220.778 163.061 220.778 166.04 220.131 168.859C219.732 170.581 219.275 172.313 218.786 174.036C218.323 175.651 217.835 177.259 217.34 178.842C211.44 199.257 205.851 219.766 200.099 240.227C206.91 236.71 210.362 230.137 213.479 223.419C221.701 206.106 230.312 187.208 239.513 171.235C230.955 189.395 219.217 231.936 204.6 242.511C202.37 243.986 199.939 245.096 197.401 245.977C196.341 246.936 195.231 247.143 194.485 246.889C189.89 248.175 185.08 248.915 180.564 249.86C172.733 251.501 164.901 253.131 157.066 254.753C154.416 255.301 151.754 256.034 149.047 256.162C148.911 256.169 148.78 256.165 148.658 256.148C154.623 262.994 158.638 272.342 160.932 281.104C162.802 280.566 164.919 282.558 165.461 284.647ZM232.709 285.401C245.961 305.259 266.728 317.579 283.83 333.608C294.077 344.389 302.248 356.904 311.594 368.438C311.882 368.795 312.173 369.153 312.464 369.507C313.184 370.392 314.184 371.365 314.763 372.223C314.78 372.25 314.797 372.273 314.811 372.293C316.165 369.468 315.424 365.857 315.474 362.638C315.266 357.124 314.544 351.656 313.46 346.251C309.919 324.549 297.728 305.233 295.076 283.407C295.164 260.194 296.319 236.915 294.361 213.71C293.646 203.118 292.895 192.521 291.832 181.955C284.493 209.184 263.06 238.556 250.893 257.361C245.984 264.548 241.59 272.389 234.677 277.888C233.007 279.206 231.243 280.338 229.408 281.313C230.651 282.543 231.714 283.944 232.709 285.401ZM189.304 179.21C187.479 178.732 183.45 178.254 181.355 176.879C180.272 180.588 179.099 184.27 177.862 187.931C180.864 187.045 184.112 187.46 187.204 187.797C191.233 188.237 195.257 188.714 199.278 189.214C202.962 189.672 206.643 190.148 210.322 190.637C211.635 185.936 212.957 181.24 214.3 176.548C206.624 180.1 197.521 180.595 189.304 179.21ZM185.128 143.852C185.134 143.54 185.209 143.215 185.37 142.878C185.395 142.831 185.416 142.784 185.44 142.736C186.066 140.502 186.703 138.27 187.35 136.041C187.449 135.666 188.044 135.739 188.032 136.134C188.037 136.41 188.04 136.683 188.042 136.96C188.084 136.846 188.125 136.732 188.166 136.614C188.969 134.29 189.557 131.896 189.945 129.465C183.068 130.881 177.404 145.869 174.204 156.584C176.835 155.767 180.285 155.581 181.307 157.758C182.576 153.121 183.834 148.482 185.128 143.852ZM195.797 232.605C194.082 232.492 192.368 232.385 190.655 232.267C187.149 232.024 183.643 231.771 180.137 231.523C179.296 231.464 178.455 231.402 177.614 231.34C175.233 231.209 172.852 231.078 170.471 230.951C167.837 230.812 165.175 230.573 162.522 230.475C162.022 230.464 161.523 230.457 161.023 230.451C160.925 230.651 160.824 230.847 160.713 231.034C164.209 232 167.403 233.118 169.961 234.245C175.777 236.788 181.367 240.136 186.142 244.345C187.026 244.162 187.911 243.976 188.794 243.788C191.22 243.265 193.676 242.706 196.043 241.909C196.649 240.427 196.847 238.685 197.361 237.224C197.769 235.761 198.177 234.296 198.586 232.832C197.653 232.816 196.7 232.663 195.797 232.605ZM201.583 220.632C201.551 220.629 201.52 220.625 201.489 220.621C201.486 220.621 201.481 220.621 201.477 220.621C201.094 220.609 200.712 220.594 200.33 220.577C199.565 220.541 198.8 220.495 198.037 220.441C196.507 220.332 194.981 220.187 193.457 220.021C190.403 219.688 187.36 219.271 184.314 218.885C182.519 218.656 180.73 218.459 178.942 218.292C174.763 218.015 170.571 217.803 166.396 217.745C165.06 220.92 163.704 224.087 162.336 227.247C162.207 227.541 162.083 227.862 161.955 228.194C168.092 228.078 174.256 228.659 180.371 229.025C183.798 229.229 187.228 229.428 190.655 229.639C192.369 229.744 194.083 229.861 195.797 229.973C196.941 230.047 198.171 229.998 199.315 230.213C199.558 229.345 199.799 228.477 200.042 227.608C200.676 225.358 201.303 223.105 201.931 220.853C201.809 220.793 201.692 220.721 201.583 220.632ZM206.805 203.301C207.788 199.748 208.773 196.195 209.763 192.643C209.577 192.617 209.391 192.592 209.205 192.566C208.51 192.471 207.815 192.376 207.12 192.281C205.589 192.073 204.057 191.868 202.525 191.665C201.338 191.508 200.15 191.353 198.962 191.2C197.651 191.089 196.339 190.983 195.026 190.886C189.091 190.45 183.109 190.044 177.154 190.01C175.904 193.627 174.587 197.223 173.222 200.8C178.287 201.108 183.347 201.515 188.404 201.921C191.313 202.155 194.222 202.397 197.13 202.648C198.544 202.77 199.959 202.894 201.373 203.02C202.158 203.09 202.944 203.161 203.73 203.232C204.184 203.273 204.776 203.427 205.286 203.43C205.352 203.378 205.422 203.327 205.495 203.277C205.867 203.02 206.416 203.066 206.805 203.301ZM205.621 206.3C202.281 205.893 198.948 205.456 195.611 205.051C193.759 204.871 191.907 204.694 190.056 204.521C184.171 203.973 178.279 203.498 172.394 202.956C170.797 207.076 169.138 211.171 167.441 215.25C174.648 214.775 181.987 215.984 189.112 216.82C192.916 217.267 196.73 217.669 200.559 217.813C201.166 217.835 202.013 217.803 202.74 217.964C203.729 214.409 204.715 210.854 205.699 207.297C205.685 206.966 205.659 206.635 205.621 206.3ZM146.454 253.82C146.707 254.061 146.954 254.308 147.2 254.563C147.195 254.482 147.193 254.404 147.195 254.323C147.19 254.32 147.186 254.319 147.184 254.316C146.964 254.101 146.721 253.938 146.454 253.82ZM150.912 152.046C143.504 169.988 137.106 188.438 130.166 206.6C127.941 212.768 125.749 218.946 123.675 225.167C122.889 227.222 122.601 229.53 120.985 231.146C120.918 231.212 120.845 231.274 120.766 231.326C122.936 232.237 124.898 233.249 126.477 234.271C125.75 236.73 124.873 239.144 123.826 241.472C123.452 242.304 124.684 243.029 125.06 242.193C126.392 239.233 127.466 236.153 128.308 233.013C129.357 231.6 130.57 230.335 132.142 229.544C135.175 228.443 139 228.062 143.123 228.186C143.19 228.067 143.278 227.953 143.385 227.846C144.75 226.533 145.291 224.443 145.97 222.704C147.946 217.63 149.625 212.437 151.005 207.167C152.363 201.949 153.205 196.609 154.616 191.403C154.902 190.492 155.791 186.091 156.62 186.333C156.603 186.433 156.589 186.531 156.574 186.63C156.617 186.602 156.665 186.59 156.712 186.592C157.046 197.36 154.227 208.207 150.999 218.439C150.105 221.849 148.075 225.038 147.423 228.479C150.253 228.771 153.135 229.252 155.931 229.858C155.971 229.632 156.029 229.409 156.096 229.183C156.134 228.869 156.229 228.622 156.367 228.433C156.72 227.573 157.187 226.733 157.532 225.957C158.243 224.353 158.948 222.75 159.646 221.14C163.447 212.332 167.045 203.429 170.22 194.374C174.134 183.395 177.335 172.203 180.423 160.982C178.355 162.087 174.377 159.877 171.939 164.929C171.413 166.201 170.243 167.11 168.792 166.712C167.519 166.363 166.556 164.881 167.004 163.57C167.069 163.356 167.138 163.144 167.217 162.937C169.593 155.902 171.516 148.682 174.942 142.061C166.147 142.948 155.743 143.578 150.912 152.046ZM68.9875 269.642C68.2275 273.232 68.7162 277.008 68.9215 280.662C72.3982 276.049 76.8039 272.112 81.9585 269.49C82.3014 267.182 83.7573 265.171 84.429 262.93C85.6703 259.769 86.6765 256.538 87.5814 253.276C79.1768 255.025 70.9962 261.119 68.9875 269.642ZM99.459 297.142C96.6057 312.517 92.0727 327.505 88.753 342.776C88.5579 343.672 89.9367 344.052 90.1318 343.155C93.4515 327.884 97.9836 312.896 100.838 297.521C101.005 296.622 99.6262 296.24 99.459 297.142ZM100.924 438.492C98.6469 438.81 96.3734 439.088 94.0823 439.331C98.6441 441.236 102.897 440.771 106.608 437.404C104.708 437.865 102.793 438.218 100.924 438.492ZM0.42688 461.146C0.555084 460.536 0.892365 460.141 1.3179 459.927C1.25284 447.131 28.191 442.973 36.354 434.825C40.088 432.189 42.8047 427.835 47.1417 426.204C44.688 422.412 45.3476 417.532 45.8921 413.272C47.0832 405.5 50.0758 396.813 50.8581 392.008C56.7625 367.311 62.4894 342.554 69.1705 318.052C69.3071 317.583 69.5589 316.655 69.8766 315.629C69.1566 315.803 68.4681 315.861 67.8224 315.777C58.4497 313.702 60.5541 294.775 62.756 287.915C62.992 287.107 63.5421 286.595 64.1878 286.355C64.1051 285.936 64.1803 285.491 64.4786 285.066C64.6384 284.837 64.8837 284.673 65.1512 284.589C65.4346 278.08 63.8069 271.083 67.238 265.136C71.0937 258.631 80.2918 253.25 87.6929 252.872C88.754 249.037 89.6831 245.163 90.7078 241.321C91.832 237.298 93.4338 232.975 96.8008 230.277C101.157 226.409 110.456 227.588 118.169 230.323C117.747 228.308 118.708 226.485 119.296 224.596C121.215 218.943 123.19 213.309 125.206 207.693C132.443 188.755 138.386 169.125 147.438 150.968C151.187 144.813 158.395 142.039 165.315 141.468C168.561 141.142 172.014 141.016 175.291 141.399C175.395 141.2 175.502 141.002 175.612 140.805C178.297 136.158 183.747 127.507 190.02 128.992C190.682 124.574 190.691 120.047 190.146 115.626C190.107 115.312 190.623 115.177 190.751 115.462C194.907 124.769 194.135 136.222 189.064 145.034C188.692 145.646 188.186 145.962 187.662 146.052C186.855 155.305 184.836 164.436 182.346 173.398C182.721 173.412 183.08 173.491 183.38 173.624C191.325 176.529 200.061 177.002 208.33 175.306C210.658 174.816 212.912 174.157 215.178 173.486C215.607 172.002 216.036 170.522 216.468 169.04C217.55 164.357 217.825 159.859 220.571 156.087C220.734 155.81 220.9 155.534 221.06 155.258C223.263 151.265 225.503 147.294 227.76 143.334C228.308 142.684 231.974 135.473 234.826 131.111C234.468 131.102 234.099 131.012 233.739 130.831C231.728 129.829 231.75 126.925 231.383 124.977C230.258 118.922 228.956 112.857 228.599 106.698C228.58 106.384 229.061 106.251 229.202 106.536C231.945 111.965 233.846 117.774 235.877 123.497C235.918 123.611 235.96 123.727 236.005 123.846C237.887 121.477 241.193 120.913 244.071 121.55C248.882 122.804 251.309 126.708 252.707 131.148C266.541 137.74 283.002 131.007 291.397 148.448C295.178 157.563 295.107 167.897 292.657 178.653C299.037 211.259 301.033 244.614 299.706 277.79C300.178 300.232 313.966 319.702 317.917 341.543C319.887 350.151 321.124 358.974 320.971 367.818C321.274 372.49 319.21 379.389 313.215 377.572C312.531 377.327 311.911 376.95 311.34 376.496C308.835 414.333 279.63 421.652 245.969 415.135C244.606 415.159 243.266 414.845 241.834 414.443C241.138 414.236 240.447 414.019 239.756 413.791C239.236 413.667 238.715 413.541 238.193 413.411C237.807 413.332 237.418 413.257 237.031 413.18C227.433 406.845 217.464 401.073 207.982 394.56C207.314 394.1 206.495 395.167 207.116 395.68C213.45 400.911 219.651 406.369 226.242 411.286C207.463 408.306 188.356 408.813 170.823 401.089C158.519 395.714 146.94 384.944 139.967 373.325C139.862 373.51 139.76 373.695 139.655 373.88C139.994 372.918 140.333 371.958 140.667 370.995C146.611 353.905 151.989 336.616 158.486 319.721C158.817 318.862 157.434 318.493 157.107 319.342C155.286 324.079 153.55 328.847 151.867 333.634C145.845 350.768 140.463 368.123 134.048 385.119C134.011 385.217 133.999 385.308 134.002 385.391C132.663 388.69 131.568 392.049 130.808 395.493C130.021 399.097 128.869 406.795 127.731 413.272C126.733 418.615 126.008 424.812 122.291 428.913C122.296 428.921 122.3 428.93 122.304 428.939C122.435 429.193 122.561 429.446 122.683 429.698C122.42 429.96 122.085 430.131 121.776 430.327C121.727 430.102 121.681 429.879 121.629 429.651C120.725 430.607 119.722 431.469 118.645 432.245C119.859 441.218 128.911 449.909 124.224 459.301C126.458 464.435 120.975 468.612 116.462 469.672C109.544 471.881 102.405 473.542 95.3208 475.118C81.2933 477.729 37.3937 487.38 26.8847 479.867C27.0361 478.263 25.0609 473.054 27.392 472.977C26.3579 471.959 25.5013 470.768 24.8528 469.475C18.4216 471.565 11.274 470.817 4.7258 470.046C-0.570038 470.16 -0.375854 465.009 0.42688 461.146Z" fill="black"/>
<path fill-rule="evenodd" clip-rule="evenodd" d="M228.385 22.767C193.073 21.0329 169.113 48.8416 168.083 59.9304C167.367 67.6288 167.852 77.8944 167.852 84.7734C167.852 88.2844 166.079 98.956 168.083 104.073C172.543 115.463 177.583 124.385 191.547 124.385C205.511 124.385 226.799 117.158 234.109 107.837C235.443 106.135 252.028 93.6769 252.028 83.8843C252.028 62.9908 253.583 24.0044 228.385 22.767Z" fill="white"/>
<path fill-rule="evenodd" clip-rule="evenodd" d="M252.477 0.203112C250.464 -0.425048 249.179 0.479239 248.263 1.88022C248.062 1.84092 247.866 1.84352 247.648 1.89583C247.594 1.90883 247.464 1.95799 247.366 1.99654C247.29 2.02841 247.221 2.06706 247.155 2.10803L247.115 2.08731C246.964 1.92286 246.805 1.77272 246.635 1.65176C246.249 1.38009 245.853 1.30093 245.477 1.35677L245.302 1.29285C243.813 0.774506 242.197 1.01505 241.187 2.29645C240.992 2.54396 240.834 2.81963 240.699 3.11043C240.397 3.20957 240.112 3.35293 239.867 3.52927C239.695 3.44853 239.514 3.38061 239.319 3.33053C238.22 3.04902 237.066 3.31474 236.17 3.98759C235.733 4.31491 235.413 4.72483 235.17 5.1929C234.893 5.25775 234.619 5.37454 234.362 5.53137C234.142 5.42183 233.918 5.31898 233.689 5.24846C232.85 4.9912 231.95 4.89652 231.077 4.96137C229.195 5.10074 227.375 7.24685 228.632 9.0898L228.671 9.14554C228.831 9.36769 228.971 9.59727 229.099 9.83066C228.648 10.0263 228.214 10.288 227.814 10.616C225.853 12.2202 225.677 14.6932 226.044 17.026L226.06 17.1231H226.055C225.014 17.2219 224.114 18.308 224.729 19.3296L224.76 19.3775C225.592 20.6624 226.306 22.0818 227.102 23.4339C229.304 24.2265 231.427 25.2027 233.427 26.3854C234.672 27.4747 235.857 28.6263 236.9 29.9074C237.421 30.5472 237.899 31.2244 238.339 31.9265C237.987 32.0953 237.553 32.0866 237.186 31.747C233.919 28.7247 229.973 26.6037 225.772 25.1822C225.469 25.0796 225.271 24.8865 225.159 24.6581C223.294 24.1274 221.396 23.7159 219.479 23.4246C218.95 22.9219 218.397 22.4411 217.871 21.9406C217.199 21.3017 216.358 21.311 215.729 21.7123C215.417 21.5702 215.098 21.4447 214.774 21.332L214.572 21.2635C214.489 21.2361 214.409 21.2042 214.326 21.1791C212.077 20.4925 210.02 20.7474 207.807 21.3116L207.523 21.3852C206.492 21.6585 205.844 21.6148 204.845 21.3633L204.732 21.3345C203.67 21.0581 202.536 20.8533 201.451 21.1444C200.316 21.4491 199.563 22.1265 198.79 22.9449L198.713 23.0272C198.352 23.4126 198.143 23.4546 197.671 23.4452L197.165 23.4303C195.257 23.378 193.387 23.4584 191.957 24.9328C191.429 25.4781 190.861 26.2498 190.521 26.954L190.472 27.0592C190.456 27.0934 190.442 27.122 190.429 27.1476C190.224 27.1146 189.904 26.985 189.753 26.9554C187.672 26.5525 185.936 27.1734 184.6 28.8106C184.308 29.1688 183.866 29.8723 183.56 30.259C183.453 30.3497 183.352 30.447 183.256 30.5491C182.755 30.869 182.044 30.8487 181.482 30.9608C179.949 31.2657 178.311 31.8478 177.531 33.3043C177.205 33.9122 177.085 34.5773 176.948 35.2417C176.432 35.5798 176.028 36.067 175.715 36.5944C175.334 37.2346 175.171 38.0189 174.733 38.6234C174.414 39.0627 173.926 39.2972 173.464 39.5657L173.286 39.6695C171.913 40.4861 170.838 41.3922 170.386 42.9921L170.347 43.1345C170.273 43.3795 170.016 44.0789 170.24 43.9739C170.047 44.0802 169.719 44.1176 169.543 44.1758C168.59 44.4906 167.762 44.9992 167.255 45.8922C166.868 46.572 166.798 47.2806 166.688 48.03L166.641 48.3325C166.628 48.4057 166.615 48.4907 166.6 48.5732L166.585 48.6542L166.582 48.6561C166.409 48.7305 166.239 48.8112 166.073 48.8983C165.283 49.3624 164.743 50.1681 164.743 51.1007C164.743 51.5535 164.885 51.9061 165.092 52.2209C164.924 52.4731 164.795 52.7418 164.698 53.0412C164.506 53.6258 164.493 54.2651 164.557 54.87C164.635 55.5959 164.821 56.2568 165.042 56.9501C165.126 57.2177 165.16 57.5915 165.288 57.8469C165.053 58.1464 164.912 58.5123 164.956 58.8734C165.017 59.3899 165.254 59.9938 165.723 60.2828C165.951 61.4116 166.444 62.5646 166.929 63.4872C166.985 63.594 167.053 63.6897 167.127 63.7687C167.06 67.4516 167.331 71.1596 167.349 74.8379C167.37 78.8414 167.286 82.8476 167.146 86.8465C166.911 93.4746 166.07 100.329 168.029 106.791C169.632 112.082 172.843 116.623 177.149 120.066C181.556 123.588 186.87 125.627 192.513 125.946C195.383 126.105 198.302 125.78 201.079 125.038L201.377 124.958C204.063 124.22 207.175 123.094 209.152 121.123C210.196 120.08 209.141 117.873 207.61 118.479C206.094 119.082 204.732 119.973 203.227 120.601C201.884 121.162 200.481 121.593 199.059 121.909C196.211 122.549 193.188 122.688 190.292 122.29C179.836 120.862 171.689 112.191 170.082 101.911C169.637 99.0631 169.645 96.1699 169.675 93.2925L169.708 90.141C169.733 87.5033 169.743 84.8647 169.646 82.2289C169.523 78.8368 169.283 75.4474 168.961 72.0692L168.794 70.3114C168.595 68.2553 168.371 66.1834 167.985 64.1543C168.301 64.171 170.795 59.9102 172.18 57.5289C172.685 57.1288 173.112 56.6316 173.277 55.9884C173.311 55.8541 173.329 55.7187 173.339 55.5831C173.64 55.1115 173.957 54.6521 174.292 54.2063L174.365 54.1737C174.421 54.1481 174.464 54.1268 174.49 54.1123C175.22 53.6989 175.83 53.0726 176.247 52.3467C176.388 52.102 176.503 51.8466 176.597 51.5853C177.192 51.002 177.815 50.4456 178.469 49.9237C178.534 49.8725 178.6 49.8247 178.665 49.7742C179.497 49.4638 180.229 48.9962 180.762 48.3227C180.985 48.1849 181.209 48.05 181.434 47.9179C182.114 47.9116 182.799 47.7537 183.467 47.4798C184.688 46.9792 185.663 45.9898 186.889 45.5312C188.186 45.0465 189.553 46.1479 190.931 45.9493C191.283 45.8985 191.631 45.7918 191.956 45.6368C192.731 46.4576 193.555 47.2314 194.463 47.9086C195.781 48.8918 197.129 49.341 198.656 49.7851C199.413 50.5024 200.261 51.1977 201.283 51.2998C203.648 53.188 206.178 54.7807 208.84 56.2594C209.268 56.4972 209.694 56.6044 210.098 56.6072C210.933 57.1306 211.845 57.5334 212.807 57.812C213.109 57.8993 213.42 57.9177 213.726 57.8802L214.561 58.5597C215.143 59.0322 215.764 59.258 216.356 59.2728C216.718 59.5488 217.092 59.8108 217.477 60.0616C217.889 60.3311 218.424 60.4435 218.962 60.41C219.784 61.2128 220.848 61.2964 221.74 60.9275C221.863 60.9991 221.989 61.0669 222.131 61.1338C222.323 61.2249 222.524 61.301 222.729 61.3633C223.659 62.3649 225.02 62.8889 226.384 62.7523C227.402 63.3748 228.589 63.699 229.747 63.6266C229.924 64.5129 230.071 65.403 230.194 66.2968L230.207 66.9509C230.208 67.0568 230.208 67.1395 230.207 67.1933L230.206 67.2156C230.093 70.0838 230.031 72.9537 229.919 75.8218L229.909 76.0485C229.781 78.5543 229.164 83.1245 232.852 83.0251C234.227 82.9879 235.591 81.9771 236.662 81.1455L236.813 81.0285C236.895 80.9644 236.979 80.8993 237.064 80.8324C237.864 80.7284 238.653 80.5342 239.46 80.5054C240.458 80.4701 241.506 80.5723 242.478 80.7981C244.192 81.1957 245.851 81.9752 246.969 83.3874C247.067 83.511 247.159 83.6411 247.244 83.7712C247.324 84.0387 247.459 84.2859 247.638 84.4996C248.696 86.8743 248.085 90.0137 246.916 92.186C245.522 94.7744 243.318 96.5639 240.545 97.4651L240.407 97.5087C238.512 98.0996 237.788 99.2443 236.758 100.836C235.794 102.33 234.686 103.721 233.499 105.042C231.199 107.599 227.972 109.709 226.635 112.945C226.364 113.597 227.138 114.21 227.737 114.043C230.083 113.385 231.728 111.716 233.433 110.058C234.614 108.91 235.748 107.715 236.814 106.46C237.037 106.563 237.283 106.632 237.539 106.663C238.668 106.801 239.834 106.743 240.823 106.135C241.279 106.176 241.754 106.018 242.107 105.696C242.43 105.4 242.71 105.078 242.946 104.736C243.304 104.768 243.656 104.777 243.991 104.721C244.154 104.706 244.31 104.664 244.454 104.594C244.721 104.489 244.974 104.326 245.207 104.077C245.678 103.572 245.859 102.859 245.771 102.181C245.864 102.162 245.957 102.137 246.048 102.107C246.675 101.895 247.159 101.474 247.467 100.901C248.019 100.592 248.516 100.172 248.892 99.7274C249.35 99.1858 249.696 98.5753 249.899 97.9008C250.109 97.8033 250.313 97.6899 250.508 97.558C251.907 96.6131 252.708 94.8385 252.159 93.1977L252.14 93.1457C252.112 93.0723 252.061 92.946 252 92.8038C252.008 92.6886 252.018 92.5725 252.024 92.4573L252.044 92.107L252.324 91.9881C253.722 91.4334 254.667 90.6846 254.835 89.1135C254.87 88.7883 254.744 88.4575 254.544 88.1806L254.545 88.0933C254.636 88.0469 254.722 87.9985 254.798 87.9502C255.56 87.4643 256.029 86.5928 255.977 85.6925C255.928 84.8712 255.473 84.2162 254.961 83.6114L254.814 83.4413C254.802 83.4274 254.789 83.4125 254.774 83.3958L255.112 83.289C255.333 83.2193 255.533 83.1505 255.678 83.0688C256.239 82.7557 256.713 82.332 257.006 81.7941C257.049 81.7272 257.092 81.6612 257.131 81.5906C257.51 80.9012 257.559 80.0186 257.314 79.279C257.286 79.1917 257.248 79.1099 257.21 79.0281C258.24 78.6658 259.033 77.9169 259.129 76.5363C259.166 75.9928 259.047 75.4521 258.788 74.9894C258.846 74.6772 258.858 74.3539 258.821 74.0333C259.183 73.6924 259.464 73.2798 259.59 72.7781C259.828 71.8286 259.392 70.9264 258.745 70.0977C258.985 69.4436 258.997 68.705 258.724 68.0453C258.829 67.7164 258.888 67.3689 258.892 67.0122C258.899 66.2206 258.655 65.5609 258.261 64.9988C258.815 64.3225 259.078 63.424 258.751 62.5823C258.519 61.9839 258.252 61.4367 257.945 60.9294C258.106 60.5438 258.2 60.1118 258.2 59.6277C258.2 58.7577 257.874 58.0684 257.374 57.5043C257.59 56.4738 257.15 55.219 256.188 54.7653C255.826 54.5941 255.341 54.4154 254.807 54.2764C254.606 53.6505 254.396 53.0273 254.175 52.4084C253.828 51.4343 253.452 50.4738 253.055 49.5243C253.284 49.7242 253.524 49.9105 253.772 50.0794C254.556 51.0747 255.595 51.9368 256.468 52.4526C258.2 53.4753 260.18 52.8686 261.035 51.1575C261.838 51.7563 262.803 52.1108 263.831 51.9897C264.997 51.8522 266.064 51.0979 266.355 49.9214C266.397 49.7511 266.422 49.5671 266.425 49.3819C267.094 49.8575 267.794 50.2951 268.561 50.5457C269.539 50.8648 270.537 50.0991 270.666 49.1453C270.717 48.7673 270.647 48.4332 270.496 48.151L270.591 48.1135C270.607 48.1069 270.623 48.1 270.639 48.0926C271.151 47.8528 271.55 47.413 271.739 46.9058C272.849 47.3349 274.12 46.8322 274.473 45.6128C274.892 44.1634 274.917 42.6955 274.589 41.2835C275.766 40.4298 276.532 38.9943 276.663 37.4938C276.758 36.4167 276.5 35.4223 276.047 34.5029C277.16 34.0874 277.542 32.631 277.013 31.5818C277.716 31.1803 278.174 30.329 278.184 29.5003C278.498 29.0257 278.598 28.4146 278.338 27.7296C277.995 26.8272 277.296 26.0723 276.495 25.4802C276.844 24.8735 277.104 24.2118 277.265 23.5281C277.928 23.3343 278.463 22.7988 278.572 21.9945C278.709 20.9862 278.044 20.1315 277.149 19.9058C277.05 19.5987 276.929 19.2984 276.779 19.0099C277.222 17.963 277.156 16.6392 276.586 15.4946C276.08 14.4826 275.258 13.8638 274.268 13.4357C274.519 12.5749 274.186 11.7164 273.347 11.0767C272.323 10.2947 271.2 9.69715 270.021 9.27488C270.125 7.87362 269.539 6.43872 268.152 5.95011C267.782 5.81967 267.396 5.77145 267.003 5.77312C266.719 5.155 266.244 4.65245 265.623 4.2076C264.686 3.53484 262.933 3.94587 262.412 5.00095L262.386 5.05512C262.36 5.11495 262.332 5.16958 262.305 5.22756C262.2 4.71526 261.954 4.23139 261.56 3.83466C260.576 2.84295 259.536 2.82437 258.535 3.2484C258.351 2.7938 258.129 2.36158 257.859 1.96635C256.878 0.532291 255.257 0.349633 254.07 1.12626C253.594 0.708635 253.064 0.386701 252.477 0.203112ZM245.462 86.4377C243.487 85.6647 241.09 85.8932 239.137 86.6356L238.994 86.6904C237.269 87.3714 234.468 88.8858 234.131 90.823C233.955 91.8255 234.91 92.6932 235.88 92.1655C236.724 91.7066 237.197 90.783 237.868 90.1132C238.531 89.4507 239.274 88.9174 240.085 88.4501C241.776 87.4755 243.555 87.0955 245.462 86.8149C245.677 86.7842 245.618 86.4981 245.462 86.4377Z" fill="black"/>
<path fill-rule="evenodd" clip-rule="evenodd" d="M192.018 107.232C193.584 106.594 194.982 105.529 196.004 104.17C196.359 103.698 196.451 103.198 196.376 102.742C196.293 102.229 195.989 101.764 195.574 101.452C195.157 101.138 194.637 100.984 194.134 101.063C193.697 101.131 193.262 101.371 192.917 101.866L192.846 101.965C192.238 102.786 191.446 103.459 190.545 103.893C189.676 104.311 188.704 104.506 187.698 104.393C185.782 104.177 184.462 103.143 183.058 101.737C182.883 101.559 182.709 101.376 182.535 101.191C182.424 101.022 182.271 100.914 182.101 100.857C181.911 100.794 181.698 100.797 181.501 100.865C181.313 100.931 181.144 101.057 181.03 101.222C180.924 101.38 180.862 101.575 180.882 101.799C181.011 103.255 181.773 104.555 182.856 105.575C184.058 106.708 185.653 107.493 187.154 107.768C188.808 108.07 190.492 107.854 192.018 107.232ZM186.374 84.7678C184.615 85.8354 181.934 88.3263 183.826 90.9733C186.054 93.3072 189.262 90.6314 190.843 89.4207C192.308 88.4824 193.955 90.8952 192.595 91.9906C181.174 100.434 176.538 85.0475 185.484 83.5126C186.469 83.3435 186.834 84.438 186.374 84.7678ZM206.842 74.9455C206.646 72.5363 202.972 71.9891 202.607 74.3732C202.279 76.5091 202.664 78.4705 203.628 80.3937C204.549 82.2305 206.862 81.3739 207.037 79.7006C207.272 77.4587 206.962 76.4441 206.842 74.9455ZM178.869 73.8789C178.356 73.209 177.617 72.7519 176.731 73.0102C173.962 73.8176 174.778 77.743 175.75 79.6541C176.279 80.6919 177.987 80.9548 178.759 80.0415C180.017 78.5513 180.619 75.5763 179.02 74.1084C178.976 74.0331 178.928 73.956 178.869 73.8789ZM203.667 64.403L203.229 64.3269C201.876 64.0927 200.194 63.8688 199.237 64.9549C198.73 65.531 198.554 66.6013 199.237 67.1522C200.437 68.1231 201.764 67.7469 203.202 67.8286C204.388 67.8964 205.527 68.0925 206.669 68.4186C209.175 69.134 211.215 70.4384 213.355 71.872C213.635 72.0597 213.922 71.7011 213.788 71.4391C212.553 69.0234 210.159 67.0398 207.762 65.8301C206.483 65.1844 205.083 64.6483 203.667 64.403ZM181.393 63.3207L181.058 63.3894C177.415 64.1494 172.682 65.6685 170.956 69.2418C170.891 69.7472 170.96 69.8559 171.017 69.9265L171.035 69.9497C171.083 70.0101 171.12 70.0937 171.339 70.1625C171.399 70.1476 171.461 70.1328 171.523 70.116C172.314 69.9098 172.94 69.6246 173.546 69.3282L174.203 69.0058C174.964 68.6323 175.733 68.2727 176.548 68.007C178.286 67.4412 180.074 67.0426 181.89 66.8289C182.284 66.7834 182.663 66.6505 182.962 66.4229C183.245 66.2074 183.462 65.9091 183.561 65.5115C183.689 64.9977 183.652 64.6084 183.376 64.1448C183.168 63.7964 182.872 63.5557 182.53 63.4173C182.183 63.2751 181.787 63.2426 181.393 63.3207Z" fill="black"/>
<path fill-rule="evenodd" clip-rule="evenodd" d="M170.854 79.8617C171.428 81.4221 172.302 83.0468 173.372 84.36C177.698 88.0166 181.902 85.9924 184.037 81.0372C184.848 77.5346 182.694 73.7626 180.413 71.1866C177.117 67.8903 171.739 69.6201 170.223 73.5385C170.131 74.0466 170.075 74.5531 170.049 75.0579C170.08 76.6988 170.279 78.101 170.854 79.6589V79.8617ZM212.44 76.715C206.741 69.9487 196.077 69.5876 196.349 80.0003C197.574 93.1814 218.191 89.9458 212.44 76.715ZM169.061 71.0711C169.261 70.7332 169.482 70.4064 169.724 70.0941C169.814 70.0411 169.865 69.5697 170.193 69.5346C174.587 64.6969 182.307 67.442 185.097 72.2629C185.606 72.872 186.022 73.5855 186.328 74.3392C189.076 73.8362 192.28 73.9337 194.836 74.9698C197.37 68.3651 205.043 67.7756 210.1 70.598C213.244 72.1414 215.284 75.3744 218.343 77.1496C225.533 77.6664 233.25 76.0588 240.311 77.8589C245.879 79.0138 241.224 81.8277 240.29 79.9498C233.633 77.9872 225.747 79.6461 218.835 79.2038C218.117 80.4169 216.738 81.4093 215.365 81.3674C213.882 94.4903 194.705 92.3147 194.044 80.6487C193.293 79.4647 192.36 78.3311 191.024 77.5937C190.513 77.4884 190.019 77.3507 189.568 77.1385C188.796 77.0299 187.607 77.3558 186.897 77.9975C184.465 92.5594 170.454 90.8637 167.951 78.1061C167.901 78.0556 167.762 77.8657 167.655 77.5603C166.798 76.4293 164.7 76.0092 165.035 74.1005C165.334 72.191 167.75 72.2132 169.061 71.0711Z" fill="#FAA307"/>
</svg>
